<?xml version="1.0" standalone="no"?>
<!DOCTYPE svg PUBLIC "-//W3C//DTD SVG 1.1//EN" "http://www.w3.org/Graphics/SVG/1.1/DTD/svg11.dtd" >
<svg>
<metadata>
Created by FontForge 20090914 at Sat Dec 16 14:53:13 2017
 By www-data
Copyright 1990-2001 Bitstream Inc. All rights reserved.
</metadata>
<defs>
<font id="Swiss721BT-Italic" horiz-adv-x="1024" >
  <font-face 
    font-family="Swis721 BT"
    font-weight="400"
    font-style="italic"
    font-stretch="normal"
    units-per-em="2048"
    panose-1="2 11 5 3 2 2 2 9 2 4"
    ascent="1556"
    descent="-492"
    x-height="1071"
    cap-height="1473"
    bbox="-342 -483 2515 1972"
    underline-thickness="109"
    underline-position="-159"
    slope="-12"
    unicode-range="U+0020-U+F002"
  />
<missing-glyph horiz-adv-x="1229" 
d="M102 -362v1806h1024v-1806h-1024zM217 -248h795v1577h-795v-1577z" />
    <glyph glyph-name=".notdef" horiz-adv-x="1229" 
d="M102 -362v1806h1024v-1806h-1024zM217 -248h795v1577h-795v-1577z" />
    <glyph glyph-name="space" unicode=" " horiz-adv-x="561" 
 />
    <glyph glyph-name="exclam" unicode="!" horiz-adv-x="657" 
d="M195 373l186 1100h203l-277 -1100h-112zM72 0l47 223h221l-51 -223h-217z" />
    <glyph glyph-name="quotedbl" unicode="&#x22;" horiz-adv-x="614" 
d="M524 1436v-555h-139v555h139zM229 1436v-555h-139v555h139z" />
    <glyph glyph-name="numbersign" unicode="#" horiz-adv-x="1575" 
d="M969 858h-260l-93 -264h261zM924 1458l-162 -454h256l164 454h164l-160 -454h301l-51 -146h-303l-93 -262h322l-51 -147h-322l-162 -453h-165l161 453h-258l-162 -453h-165l159 453h-309l53 147h310l92 262h-330l51 146h332l162 454h166z" />
    <glyph glyph-name="dollar" unicode="$" horiz-adv-x="1124" 
d="M477 123l26.998 0.000976562c80.667 0 145.834 24 195.501 72s74.5 110.667 74.5 188c0 56 -14.667 101.167 -44 135.5s-78.666 64.166 -147.999 89.499zM527.998 831.001l97 447h-9c-75.333 0 -136 -23.5 -182 -70.5s-69 -108.833 -69 -185.5
c0 -46 12.833 -84 38.5 -114s67.167 -55.667 124.5 -77zM300.998 -198.999l39.001 174.002c-107.333 26 -188.5 74.167 -243.5 144.5s-82.5 160.833 -82.5 271.5v25h178c1.33301 -82.667 17.166 -147.334 47.499 -194.001s75.5 -75.667 135.5 -87l112 512
c-110.667 41.333 -190.5 92.333 -239.5 153s-73.5 138.667 -73.5 234c0 114 43.333 208.833 130 284.5s197.667 113.5 333 113.5h22l23 114h104l-26 -123c100.667 -16 177 -54.5 229 -115.5s78 -141.833 78 -242.5v-29l-172 1c-3.33301 69.333 -18.5 122.5 -45.5 159.5
s-68.5 61.5 -124.5 73.5l-102 -477c127.333 -47.333 216.833 -99.333 268.5 -156s77.5 -130.334 77.5 -221.001c0 -138.667 -47 -248.5 -141 -329.5s-222.333 -122.167 -385 -123.5l-35 -162h-107z" />
    <glyph glyph-name="percent" unicode="%" horiz-adv-x="1731" 
d="M1098 356c0 -58 19.668 -106.833 59.001 -146.5s88 -59.5 146 -59.5c56 0 104 20.167 144 60.5s60 88.833 60 145.5c0 57.333 -19.833 105.833 -59.5 145.5s-87.834 59.5 -144.501 59.5c-57.333 0 -105.833 -19.833 -145.5 -59.5s-59.5 -88.167 -59.5 -145.5z
M948.001 356c0 99.333 34.333 183.333 103 252s152.667 103 252 103c97.333 0 181 -34.667 251 -104s105 -153 105 -251s-34.833 -181.833 -104.5 -251.5s-153.5 -104.5 -251.5 -104.5c-99.333 0 -183.333 34.5 -252 103.5s-103 153.167 -103 252.5zM221.001 1036
c0 -58 19.667 -106.667 59 -146s88 -59 146 -59c56.667 0 105 20 145 60s60 88.333 60 145c0 57.333 -20 105.833 -60 145.5s-88.333 59.5 -145 59.5c-57.333 0 -105.833 -19.833 -145.5 -59.5s-59.5 -88.167 -59.5 -145.5zM72.001 1036c0 99.333 34.167 183.333 102.5 252
s152.166 103 251.499 103c98 0 181.5 -34.667 250.5 -104s103.5 -153 103.5 -251s-34.5 -181.833 -103.5 -251.5s-152.5 -104.5 -250.5 -104.5c-99.333 0 -183.166 34.5 -251.499 103.5s-102.5 153.167 -102.5 252.5zM365.001 -41l876 1473h125l-877 -1473h-124z" />
    <glyph glyph-name="ampersand" unicode="&#x26;" horiz-adv-x="1362" 
d="M512 733c-113.333 -56 -192.166 -109.5 -236.499 -160.5s-66.5 -111.5 -66.5 -181.5c0 -79.333 24.167 -143.5 72.5 -192.5s112.166 -73.5 191.499 -73.5c54.667 0 108.667 10.833 162 32.5s106 54.5 158 98.5zM940 0l-70 117.001
c-64.667 -52.667 -132.167 -92.167 -202.5 -118.5s-143.166 -39.5 -218.499 -39.5c-122.667 0 -224 38.833 -304 116.5s-120 176.834 -120 297.501c0 108 32.667 201.667 98 281s169 150.666 311 213.999l-37 72c-30 56.667 -50.833 103.167 -62.5 139.5
s-17.5 71.833 -17.5 106.5c0 90 32.167 162.667 96.5 218s149.166 83 254.499 83c96.667 0 173.667 -26.833 231 -80.5s86 -125.834 86 -216.501c0 -79.333 -24.833 -149.833 -74.5 -211.5s-128.5 -120.167 -236.5 -175.5l246 -412c29.333 40 53.5 82 72.5 126
s32.833 91.333 41.5 142h168c-10 -84 -31.167 -160.5 -63.5 -229.5s-75.833 -130.833 -130.5 -185.5l145 -244h-213zM594 938.001c77.333 41.333 132.832 81.5 166.499 120.5s50.5 82.167 50.5 129.5c0 48.667 -13.667 86 -41 112s-67 39 -119 39
c-48.667 0 -87 -13.833 -115 -41.5s-42 -65.5 -42 -113.5c0 -20 4.33301 -43.5 13 -70.5s21.334 -55.5 38.001 -85.5z" />
    <glyph glyph-name="quotesingle" unicode="'" horiz-adv-x="317" 
d="M229 1436v-555h-139v555h139z" />
    <glyph glyph-name="parenleft" unicode="(" horiz-adv-x="688" 
d="M307 -436c-58.667 135.333 -102.668 266.832 -132.001 394.499s-44 252.834 -44 375.501c0 200 44.333 392.667 133 578s225.334 371.333 410.001 558h139c-176 -209.333 -304 -413 -384 -611s-120 -408.667 -120 -632c0 -106.667 9 -215 27 -325
s45.333 -222.667 82 -338h-111z" />
    <glyph glyph-name="parenright" unicode=")" horiz-adv-x="688" 
d="M303 1473c58 -134 101.501 -265.168 130.501 -393.501s43.5 -254.833 43.5 -379.5c0 -200.667 -44 -393.667 -132 -579s-224 -371 -408 -557h-140c175.333 208.667 303.166 412.334 383.499 611.001s120.5 410 120.5 634c0 106.667 -9 215 -27 325s-45 223 -81 339h110z
" />
    <glyph glyph-name="asterisk" unicode="*" 
d="M582 950l-174 -252l-140 93l197 245l-287 78l53 158l275 -94v295h151v-295l275 94l55 -158l-289 -78l197 -243l-135 -101z" />
    <glyph glyph-name="plus" unicode="+" horiz-adv-x="1706" 
d="M924 1221v-541h528v-139h-528v-541h-142v541h-528v139h528v541h142z" />
    <glyph glyph-name="comma" unicode="," horiz-adv-x="561" 
d="M-27 -317l21 98.001c41.333 14 74.333 38.667 99 74s42.667 83.666 54 144.999h-106l45 219h221l-45 -219c-19.333 -92.667 -52.833 -165.167 -100.5 -217.5s-110.5 -85.5 -188.5 -99.5z" />
    <glyph glyph-name="hyphen" unicode="-" horiz-adv-x="639" 
d="M18 461l37 162h494l-37 -162h-494z" />
    <glyph glyph-name="period" unicode="." horiz-adv-x="561" 
d="M31 0l47 221h221l-45 -221h-223z" />
    <glyph glyph-name="slash" unicode="/" horiz-adv-x="616" 
d="M-2 -190l494 1701h126l-497 -1701h-123z" />
    <glyph glyph-name="zero" unicode="0" horiz-adv-x="1124" 
d="M657 1272c-54 0 -103.167 -17.001 -147.5 -51.001s-83.833 -85.333 -118.5 -154c-49.333 -97.333 -87.166 -198.333 -113.499 -303s-39.5 -207 -39.5 -307c0 -112 19.167 -196 57.5 -252s96.166 -84 173.499 -84c51.333 0 98 15.5 140 46.5s80 77.5 114 139.5
c50 91.333 89.167 192.833 117.5 304.5s42.5 219.834 42.5 324.501c0 112 -18.833 196 -56.5 252s-94.167 84 -169.5 84zM47 488.999c0 133.333 19.833 263.329 59.5 389.996s95.5 239.334 167.5 338.001c51.333 70 110 123.333 176 160s137.333 55 214 55
c132 0 233.833 -44.167 305.5 -132.5s107.5 -214.166 107.5 -377.499c0 -123.333 -17.833 -247.166 -53.5 -371.499s-86.167 -237.5 -151.5 -339.5c-52.667 -83.333 -113.5 -146.166 -182.5 -188.499s-144.5 -63.5 -226.5 -63.5c-136 0 -239.333 45 -310 135
s-106 221.667 -106 395z" />
    <glyph glyph-name="one" unicode="1" horiz-adv-x="1124" 
d="M399 0l229.997 1081c-51.333 -15.333 -109.666 -27.5 -174.999 -36.5s-138.666 -14.5 -219.999 -16.5l30 135c134 4.66699 240.333 28.5 319 71.5s136.334 108.833 173.001 197.5h129l-305 -1432h-181z" />
    <glyph glyph-name="two" unicode="2" horiz-adv-x="1124" 
d="M6 0c7.33301 78.667 23.8359 148.666 49.5029 209.999s61.167 115.666 106.5 162.999c59.333 62 168 142.667 326 242l5 3l6 4c235.333 147.333 353 284 353 410c0 72.667 -20.5 129.834 -61.5 171.501s-96.833 62.5 -167.5 62.5
c-90.667 0 -160.834 -25.333 -210.501 -76s-81.5 -128.667 -95.5 -234h-190c19.333 155.333 71 273.5 155 354.5s197 121.5 339 121.5c129.333 0 232.666 -35.833 309.999 -107.5s116 -167.167 116 -286.5c0 -98 -26.5 -184.333 -79.5 -259s-147.5 -154.667 -283.5 -240
l-98 -61c-204.667 -125.333 -324.334 -230.666 -359.001 -315.999h709l-33 -162h-897z" />
    <glyph glyph-name="three" unicode="3" horiz-adv-x="1124" 
d="M35 465l188 -0.00195312c-2.66699 -15.333 -4.66699 -31.166 -6 -47.499s-2 -33.166 -2 -50.499c0 -80 20.833 -140.667 62.5 -182s102.834 -62 183.501 -62c98 0 176 29.167 234 87.5s87 136.833 87 235.5c0 68.667 -23.333 121.334 -70 158.001
s-113.334 55 -200.001 55c-14.667 0 -25.667 -0.166992 -33 -0.5s-14 -0.5 -20 -0.5l33 151c7.33301 -0.666992 15.5 -1.16699 24.5 -1.5s21.833 -0.5 38.5 -0.5c100 0 176.833 21.667 230.5 65s80.5 105.666 80.5 186.999c0 65.333 -20.833 117.166 -62.5 155.499
s-98.5 57.5 -170.5 57.5c-82 0 -146.667 -23.5 -194 -70.5s-78.333 -117.833 -93 -212.5h-186c19.333 142.667 70.5 252.167 153.5 328.5s192.167 114.5 327.5 114.5c126 0 226.167 -33 300.5 -99s111.5 -154.667 111.5 -266c0 -80 -19.833 -149.167 -59.5 -207.5
s-97.834 -103.833 -174.501 -136.5c51.333 -32 89.833 -71.667 115.5 -119s38.5 -102.666 38.5 -165.999c0 -140.667 -47.667 -255.667 -143 -345s-218.333 -134 -369 -134c-137.333 0 -243.666 34.5 -318.999 103.5s-113 165.5 -113 289.5c0 17.333 0.5 35.5 1.5 54.5
s2.5 38.5 4.5 58.5z" />
    <glyph glyph-name="four" unicode="4" horiz-adv-x="1124" 
d="M217 514h422l129 604zM528 0l76 358h-608l37 156l815 877h158l-187 -877h205l-33 -156h-207l-75 -358h-181z" />
    <glyph glyph-name="five" unicode="5" horiz-adv-x="1124" 
d="M43 401l175.998 0.000976562v-22c0 -82 20.833 -144.833 62.5 -188.5s101.5 -65.5 179.5 -65.5c106 0 190.833 36.333 254.5 109s95.5 170 95.5 292c0 90 -21.167 157.667 -63.5 203s-105.833 68 -190.5 68c-65.333 0 -121.666 -13 -168.999 -39
s-83.666 -63.667 -108.999 -113h-170l221 746h725l-33 -160h-573l-109 -367c32.667 29.333 71 51.333 115 66s94.333 22 151 22c120 0 215.5 -38.333 286.5 -115s106.5 -179.667 106.5 -309c0 -166 -51.167 -302.667 -153.5 -410s-232.5 -161 -390.5 -161
c-128.667 0 -229.5 36.667 -302.5 110s-109.5 174.666 -109.5 303.999v30z" />
    <glyph glyph-name="six" unicode="6" horiz-adv-x="1124" 
d="M578 788c-94 0 -171.169 -35.668 -231.502 -107.001s-90.5 -163 -90.5 -275c0 -95.333 21.833 -168.666 65.5 -219.999s105.834 -77 186.501 -77c90.667 0 166.5 38.5 227.5 115.5s91.5 173.5 91.5 289.5c0 86 -22.167 153.167 -66.5 201.5s-105.166 72.5 -182.499 72.5z
M302.998 808.999c48 44.667 99.334 78.001 154.001 100.001s114 33 178 33c116.667 0 209.667 -37 279 -111s104 -173.667 104 -299c0 -170 -48.167 -307.667 -144.5 -413s-222.833 -158 -379.5 -158c-136 0 -240.667 44 -314 132s-110 213.333 -110 376
c0 138 19.5 273.167 58.5 405.5s91.833 244.166 158.5 335.499c53.333 72.667 117.5 128.167 192.5 166.5s157.5 57.5 247.5 57.5c116.667 0 206.334 -32.167 269.001 -96.5s94 -155.833 94 -274.5v-23h-181c0 78.667 -16.333 137 -49 175s-82.334 57 -149.001 57
c-96.667 0 -178.834 -38.333 -246.501 -115s-121.5 -192.667 -161.5 -348z" />
    <glyph glyph-name="seven" unicode="7" horiz-adv-x="1124" 
d="M182 0c25.333 191.333 94.833 385.332 208.5 581.999s281.167 411 502.5 643h-739l36 166h949l-31 -152c-222.667 -232 -392.167 -448.667 -508.5 -650s-186.5 -397.666 -210.5 -588.999h-207z" />
    <glyph glyph-name="eight" unicode="8" horiz-adv-x="1124" 
d="M539 672c-90.667 0 -164.667 -28.998 -222 -86.998s-86 -133 -86 -225c0 -78.667 21.167 -138.834 63.5 -180.501s103.833 -62.5 184.5 -62.5c89.333 0 162.833 31 220.5 93s86.5 140 86.5 234c0 71.333 -21.667 127.166 -65 167.499s-104 60.5 -182 60.5zM637 1270
c-81.333 0 -146.332 -21.832 -194.999 -65.499s-73 -101.834 -73 -174.501c0 -65.333 20 -116.166 60 -152.499s96.333 -54.5 169 -54.5c78 0 141.5 22.5 190.5 67.5s73.5 102.5 73.5 172.5c0 63.333 -20.333 113.666 -61 150.999s-95.334 56 -164.001 56zM326.001 768.003
c-47.333 28.667 -82.8311 64.167 -106.498 106.5s-35.5 91.5 -35.5 147.5c0 116 43 212.167 129 288.5s195.333 114.5 328 114.5c123.333 0 222.166 -31.833 296.499 -95.5s111.5 -147.834 111.5 -252.501c0 -76.667 -19.833 -143.667 -59.5 -201
s-95.834 -101 -168.501 -131c52.667 -33.333 92.167 -75 118.5 -125s39.5 -107 39.5 -171c0 -140.667 -48 -256.834 -144 -348.501s-218.667 -137.5 -368 -137.5c-133.333 0 -238 34.5 -314 103.5s-114 163.5 -114 283.5c0 96.667 24.167 180.334 72.5 251.001
s119.833 126.334 214.5 167.001z" />
    <glyph glyph-name="nine" unicode="9" horiz-adv-x="1124" 
d="M612 1282c-90.667 0 -166.167 -38.333 -226.5 -115s-90.5 -172.667 -90.5 -288c0 -87.333 21.833 -155.333 65.5 -204s104.5 -73 182.5 -73c94 0 171.333 35.833 232 107.5s91 164.167 91 277.5c0 93.333 -22.167 165.833 -66.5 217.5s-106.833 77.5 -187.5 77.5z
M213 350c0 -78.667 15.998 -136.833 47.998 -174.5s81.667 -56.5 149 -56.5c96.667 0 179 38.333 247 115s122 192.667 162 348c-47.333 -44.667 -98.666 -78 -153.999 -100s-115.333 -33 -180 -33c-116.667 0 -209.334 37 -278.001 111s-103 173.333 -103 298
c0 170 48.333 307.833 145 413.5s223.334 158.5 380.001 158.5c134 0 238.167 -44.5 312.5 -133.5s111.5 -214.5 111.5 -376.5c0 -137.333 -19.667 -272.5 -59 -405.5s-92 -244.5 -158 -334.5c-53.333 -72.667 -117.666 -128 -192.999 -166s-158 -57 -248 -57
c-116.667 0 -206.167 32 -268.5 96s-93.5 155.667 -93.5 275v22h180z" />
    <glyph glyph-name="colon" unicode=":" horiz-adv-x="608" 
d="M229 819l47 221h222l-47 -221h-222zM55 0l47 221h222l-48 -221h-221z" />
    <glyph glyph-name="semicolon" unicode=";" horiz-adv-x="608" 
d="M227 819l47 221h222l-45 -221h-224zM-14 -317l22 98.001c41.333 14 74.5 38.667 99.5 74s43.167 83.666 54.5 144.999h-109l45 219h224l-48 -219c-19.333 -92.667 -52.833 -165.167 -100.5 -217.5s-110.167 -85.5 -187.5 -99.5z" />
    <glyph glyph-name="less" unicode="&#x3c;" horiz-adv-x="1706" 
d="M1442 1006l-969 -396l969 -393v-154l-1178 484v129l1178 483v-153z" />
    <glyph glyph-name="equal" unicode="=" horiz-adv-x="1706" 
d="M1452 481v-139h-1198v139h1198zM1452 879v-140h-1198v140h1198z" />
    <glyph glyph-name="greater" unicode="&#x3e;" horiz-adv-x="1706" 
d="M1442 676v-129l-1178 -484v154l971 393l-971 396v153z" />
    <glyph glyph-name="question" unicode="?" horiz-adv-x="1075" 
d="M260 0l45 213h207l-43 -213h-209zM340 375c5.33301 76 23.499 142.332 54.499 198.999s77.833 107.667 140.5 153c22.667 16.667 60.5 42.667 113.5 78s88.167 62 105.5 80c31.333 33.333 54.5 67.666 69.5 102.999s22.5 73.333 22.5 114
c0 68.667 -21.333 122.334 -64 161.001s-102 58 -178 58c-81.333 0 -147 -26.167 -197 -78.5s-80.667 -127.166 -92 -224.499h-178c9.33301 144.667 55.833 258 139.5 340s194.834 123 333.501 123c131.333 0 235.833 -33.833 313.5 -101.5s116.5 -158.167 116.5 -271.5
c0 -80.667 -19.167 -153 -57.5 -217s-99.5 -125.333 -183.5 -184c-21.333 -15.333 -52 -35.333 -92 -60c-72 -44.667 -118.667 -80.667 -140 -108c-14 -18 -25.5 -40.167 -34.5 -66.5s-16.5 -58.833 -22.5 -97.5h-170z" />
    <glyph glyph-name="at" unicode="@" horiz-adv-x="2048" 
d="M1284 854l56.9971 114.996h132l-146 -576c-2.66699 -10.667 -4.66699 -21 -6 -31s-2 -19.333 -2 -28c0 -30.667 8.5 -54 25.5 -70s41.833 -24 74.5 -24c32 0 66.167 8.83301 102.5 26.5s71.833 42.834 106.5 75.501c53.333 50.667 95 112.834 125 186.501
s45 151.5 45 233.5c0 172.667 -63.5 312.667 -190.5 420s-293.5 161 -499.5 161c-88.667 0 -170.667 -9.33301 -246 -28s-145.666 -47.334 -210.999 -86.001c-127.333 -76 -226 -175.833 -296 -299.5s-105 -260.167 -105 -409.5c0 -118 20.5 -220.667 61.5 -308
s105.167 -164 192.5 -230c66.667 -51.333 145.5 -90.833 236.5 -118.5s186.833 -41.5 287.5 -41.5c112.667 0 222.167 16.333 328.5 49s203.833 79.667 292.5 141l55 -82c-98.667 -74 -203.5 -129.667 -314.5 -167s-227.5 -56 -349.5 -56
c-126.667 0 -242.667 15.667 -348 47s-198.666 78 -279.999 140c-102.667 78.667 -179.334 170 -230.001 274s-76 222 -76 354c0 110 17.333 214.333 52 313s85 188.334 151 269.001c97.333 118.667 214.5 208.667 351.5 270s288.833 92 455.5 92c108.667 0 212 -15 310 -45
s182.333 -72.333 253 -127c86.667 -66.667 152.5 -143.667 197.5 -231s67.5 -181.666 67.5 -282.999c0 -116.667 -21.167 -221.667 -63.5 -315s-103.833 -172 -184.5 -236c-45.333 -36 -95.166 -63.667 -149.499 -83s-109.833 -29 -166.5 -29
c-66 0 -115.833 13.167 -149.5 39.5s-50.5 65.5 -50.5 117.5v19c-36.667 -59.333 -79.667 -103.166 -129 -131.499s-106.666 -42.5 -171.999 -42.5c-102 0 -179.833 28.333 -233.5 85s-80.5 139 -80.5 247c0 156.667 46 288 138 394s205 159 339 159
c56.667 0 105.167 -12.5 145.5 -37.5s72.5 -62.5 96.5 -112.5zM1190 474.996l58.999 236c-11.333 58.667 -34.166 104 -68.499 136s-77.5 48 -129.5 48c-92 0 -169.333 -43.333 -232 -130s-94 -193 -94 -319c0 -70 16.167 -124 48.5 -162s78.166 -57 137.499 -57
c64.667 0 122.834 23 174.501 69s86.5 105.667 104.5 179z" />
    <glyph glyph-name="A" unicode="A" horiz-adv-x="1237" 
d="M373 588h469l-107 682zM-150 0l793 1473h246l246 -1473h-199l-66 416h-587l-220 -416h-213z" />
    <glyph glyph-name="B" unicode="B" horiz-adv-x="1376" 
d="M229 174h359.001c106 0 178.667 3.33301 218 10s72.333 18.334 99 35.001c40 25.333 71.5 59.833 94.5 103.5s34.5 91.167 34.5 142.5c0 77.333 -22.833 132.166 -68.5 164.499s-125.834 48.5 -240.501 48.5h-389zM373.001 842h342c132 0 228.5 20.5 289.5 61.5
s91.5 105.833 91.5 194.5c0 72.667 -20 124.5 -60 155.5s-109 46.5 -207 46.5h-360zM4.00098 0l310.999 1473h549c140.667 0 247.167 -30.167 319.5 -90.5s108.5 -149.166 108.5 -266.499c0 -86.667 -21 -160 -63 -220s-102.667 -103.333 -182 -130
c63.333 -28.667 110.5 -67.834 141.5 -117.501s46.5 -110.834 46.5 -183.501c0 -51.333 -7.5 -100.666 -22.5 -147.999s-36.833 -91 -65.5 -131c-46.667 -66 -103.667 -113.5 -171 -142.5s-157.666 -43.5 -270.999 -43.5h-701z" />
    <glyph glyph-name="C" unicode="C" horiz-adv-x="1448" 
d="M1139 524l188 -0.000976562c-38 -175.333 -117.167 -314 -237.5 -416s-264.5 -153 -432.5 -153c-179.333 0 -319 55.833 -419 167.5s-150 267.5 -150 467.5c0 116 16.833 227 50.5 333s82.5 202.333 146.5 289c70 96 153.167 168.5 249.5 217.5s203.5 73.5 321.5 73.5
c164.667 0 294.334 -45.333 389.001 -136s146.667 -219.334 156 -386.001h-197c-4.66699 109.333 -39.167 194 -103.5 254s-152.5 90 -264.5 90c-84.667 0 -160.5 -19 -227.5 -57s-125.167 -94.667 -174.5 -170c-48.667 -75.333 -85.334 -155.666 -110.001 -240.999
s-37 -173.666 -37 -264.999c0 -152 33.667 -267.833 101 -347.5s165.333 -119.5 294 -119.5c104.667 0 195.5 33.5 272.5 100.5s138.5 166.5 184.5 298.5z" />
    <glyph glyph-name="D" unicode="D" horiz-adv-x="1460" 
d="M236 166l282 0.000976562c130.667 0 229.5 12.833 296.5 38.5s123.833 69.5 170.5 131.5c54 70 94.833 150.167 122.5 240.5s41.5 188.166 41.5 293.499c0 156 -33.333 267.5 -100 334.5s-178.667 100.5 -336 100.5h-234zM4 0.000976562l314.999 1473h420
c216.667 0 374.667 -48.833 474 -146.5s149 -252.5 149 -464.5c0 -124 -16.667 -239.167 -50 -345.5s-81 -197.833 -143 -274.5c-27.333 -35.333 -57.833 -67 -91.5 -95s-70.5 -53 -110.5 -75c-47.333 -26 -100.166 -44.5 -158.499 -55.5s-142.833 -16.5 -253.5 -16.5h-551z
" />
    <glyph glyph-name="E" unicode="E" horiz-adv-x="1204" 
d="M4 0l311 1473h891l-39 -181h-696l-94 -446h674l-37 -174h-674l-107 -492h752l-39 -180h-942z" />
    <glyph glyph-name="F" unicode="F" horiz-adv-x="1104" 
d="M4 0l309 1473h848l-37 -179h-651l-96 -448h629l-39 -180h-627l-143 -666h-193z" />
    <glyph glyph-name="G" unicode="G" horiz-adv-x="1542" 
d="M1122 0l12.9971 158.002c-61.333 -66.667 -130.5 -116.5 -207.5 -149.5s-162.167 -49.5 -255.5 -49.5c-184 0 -327 55.833 -429 167.5s-153 268.167 -153 469.5c0 128.667 20 250.667 60 366s97.333 216.666 172 303.999c69.333 79.333 150 139.666 242 180.999
s192 62 300 62c175.333 0 312.5 -43.833 411.5 -131.5s153.167 -213.167 162.5 -376.5h-197c-7.33301 107.333 -44.166 189.833 -110.499 247.5s-157.166 86.5 -272.499 86.5c-85.333 0 -161.666 -18 -228.999 -54s-128.333 -91.667 -183 -167
c-49.333 -68 -87.833 -148.5 -115.5 -241.5s-41.5 -187.833 -41.5 -284.5c0 -146 37 -258.667 111 -338s179 -119 315 -119c120.667 0 224 41 310 123s147.667 198 185 348h-462l32 160h654l-160 -762h-152z" />
    <glyph glyph-name="H" unicode="H" horiz-adv-x="1434" 
d="M4 0l311 1473h197l-129 -605h725l127 605h195l-314 -1473h-194l147 696h-723l-149 -696h-193z" />
    <glyph glyph-name="I" unicode="I" horiz-adv-x="532" 
d="M8 0l311 1473h205l-313 -1473h-203z" />
    <glyph glyph-name="J" unicode="J" horiz-adv-x="1012" 
d="M-25 479l193 0.00390625c-9.33301 -36 -16.166 -68.5 -20.499 -97.5s-6.5 -55.167 -6.5 -78.5c0 -54.667 14.5 -96.334 43.5 -125.001s71.167 -43 126.5 -43c77.333 0 136.666 24.167 177.999 72.5s77 142.166 107 281.499l209 984h196l-227 -1061
c-34 -162 -87.5 -278.333 -160.5 -349s-174.5 -106 -304.5 -106c-111.333 0 -198.5 29.167 -261.5 87.5s-94.5 139.166 -94.5 242.499c0 26 1.83301 55.167 5.5 87.5s9.16699 67.166 16.5 104.499z" />
    <glyph glyph-name="K" unicode="K" horiz-adv-x="1266" 
d="M8 0l316 1473h192l-156 -744l770 744h248l-637 -607l443 -866h-205l-377 739l-299 -274l-100 -465h-195z" />
    <glyph glyph-name="L" unicode="L" horiz-adv-x="1139" 
d="M8 0l311 1473h195l-272 -1291h764l-39 -182h-959z" />
    <glyph glyph-name="M" unicode="M" horiz-adv-x="1726" 
d="M4 0l311.002 1473h283l162 -1217l667 1217h295l-313 -1473h-184l239 1124c7.33301 31.333 14.666 59 21.999 83s15.666 46.333 24.999 67l-704 -1274h-189l-174 1292v-22c0 -16.667 -0.833008 -33.667 -2.5 -51s-4.16699 -36 -7.5 -56l-241 -1163h-189z" />
    <glyph glyph-name="N" unicode="N" horiz-adv-x="1432" 
d="M4 0l311 1473h193l481 -1162l246 1162h192l-311 -1473h-188l-486 1153l-245 -1153h-193z" />
    <glyph glyph-name="O" unicode="O" horiz-adv-x="1571" 
d="M866 1339c-77.333 0 -150.333 -16.835 -219 -50.502s-128.667 -82.167 -180 -145.5c-58 -72 -103.5 -157.5 -136.5 -256.5s-49.5 -198.5 -49.5 -298.5c0 -142.667 36.833 -254.5 110.5 -335.5s175.167 -121.5 304.5 -121.5c74 0 144.167 15.333 210.5 46
s124.5 74.667 174.5 132c64 74.667 113.5 162.834 148.5 264.501s52.5 208.834 52.5 321.501c0 136 -37.5 244 -112.5 324s-176.167 120 -303.5 120zM80 583.998c0 122.667 21.498 243.168 64.498 361.501s103.5 223.166 181.5 314.499
c69.333 81.333 151.833 143.5 247.5 186.5s199.5 64.5 311.5 64.5c186.667 0 333.334 -56.167 440.001 -168.5s160 -266.833 160 -463.5c0 -124 -22 -245 -66 -363s-106 -223 -186 -315c-67.333 -78 -148.666 -137.833 -243.999 -179.5s-198.333 -62.5 -309 -62.5
c-186 0 -332.5 55.833 -439.5 167.5s-160.5 264.167 -160.5 457.5z" />
    <glyph glyph-name="P" unicode="P" horiz-adv-x="1260" 
d="M369 786h290c127.333 0 220.333 23.833 279 71.5s88 122.834 88 225.501c0 77.333 -20 133.666 -60 168.999s-104 53 -192 53h-295zM4 0l313 1473h490c134 0 236.167 -33 306.5 -99s105.5 -161.667 105.5 -287c0 -155.333 -48.333 -272.666 -145 -351.999
s-239.667 -119 -429 -119h-313l-133 -616h-195z" />
    <glyph glyph-name="Q" unicode="Q" horiz-adv-x="1571" 
d="M700 274l120.999 109.001l156 -170c95.333 65.333 169.666 155.833 222.999 271.5s80 243.5 80 383.5c0 146 -37 260.333 -111 343s-176.333 124 -307 124c-78 0 -151.167 -16.833 -219.5 -50.5s-128.166 -82.167 -179.499 -145.5
c-58.667 -73.333 -104.5 -159.833 -137.5 -259.5s-49.5 -201.834 -49.5 -306.501c0 -142 34.833 -251.5 104.5 -328.5s168.834 -115.5 297.501 -115.5c16.667 0 36.5 1.33301 59.5 4s50.167 6.66699 81.5 12zM1133 -196.999l-187 202.998
c-49.333 -16 -95 -27.833 -137 -35.5s-81 -11.5 -117 -11.5c-196.667 0 -348.167 53.833 -454.5 161.5s-159.5 260.834 -159.5 459.501c0 124 21.333 245.333 64 364s102.667 223 180 313c69.333 82 152 144.833 248 188.5s199 65.5 309 65.5
c188.667 0 336.5 -57.167 443.5 -171.5s160.5 -272.166 160.5 -473.499c0 -162.667 -33.5 -312 -100.5 -448s-161.833 -248 -284.5 -336l155 -170z" />
    <glyph glyph-name="R" unicode="R" horiz-adv-x="1356" 
d="M371 811h355.999c114.667 0 202.334 24.167 263.001 72.5s91 118.5 91 210.5c0 68.667 -21.667 120.167 -65 154.5s-109 51.5 -197 51.5h-346zM3.99902 0l314.998 1473h504c82 0 144.5 -5 187.5 -15s81.5 -26.333 115.5 -49c48.667 -32 85.834 -73.833 111.501 -125.5
s38.5 -110.167 38.5 -175.5c0 -98 -22.5 -181.167 -67.5 -249.5s-110.5 -118.166 -196.5 -149.499c40 -21.333 68.333 -48.166 85 -80.499s25 -77.833 25 -136.5c0 -18.667 -0.166992 -33 -0.5 -43s-0.833008 -19.333 -1.5 -28l-8 -147
c-1.33301 -20 -2.33301 -37.333 -3 -52s-1 -28 -1 -40c0 -42 3.16699 -73.333 9.5 -94s16.833 -37 31.5 -49v-39h-233c-6.66699 18 -11.5 35.833 -14.5 53.5s-4.5 36.167 -4.5 55.5c0 12 0.5 27.667 1.5 47s2.5 41.666 4.5 66.999l12 166
c0.666992 6.66699 1.33398 14 2.00098 22s1 19 1 33c0 76 -17.667 127.5 -53 154.5s-107.333 40.5 -216 40.5h-315l-139 -639h-191z" />
    <glyph glyph-name="S" unicode="S" horiz-adv-x="1223" 
d="M10 457l184.999 0.00195312v-27c0 -94 28.833 -167.333 86.5 -220s137.834 -79 240.501 -79c100.667 0 180.834 25 240.501 75s89.5 116.667 89.5 200c0 94 -90.667 179 -272 255v1c-168.667 71.333 -277.167 135.5 -325.5 192.5s-72.5 133.833 -72.5 230.5
c0 128 46.667 231 140 309s216.666 117 369.999 117c154 0 273.167 -38.5 357.5 -115.5s126.5 -185.833 126.5 -326.5v-18h-191v6c0 96 -25.5 168.5 -76.5 217.5s-127.167 73.5 -228.5 73.5c-93.333 0 -167.5 -22.667 -222.5 -68s-82.5 -106 -82.5 -182
c0 -86.667 81.333 -165.334 244 -236.001l60 -26c148.667 -66 248.5 -128.333 299.5 -187s76.5 -132.334 76.5 -221.001c0 -146 -49.5 -261 -148.5 -345s-234.5 -126 -406.5 -126c-150 0 -269.5 41.667 -358.5 125s-133.5 195.333 -133.5 336c0 4 0.333008 10.5 1 19.5
s1 15.5 1 19.5z" />
    <glyph glyph-name="T" unicode="T" horiz-adv-x="1108" 
d="M307 0l277 1305h-449l35 168h1055l-37 -168h-408l-276 -1305h-197z" />
    <glyph glyph-name="U" unicode="U" horiz-adv-x="1411" 
d="M313 1473h195l-203 -961c-5.33301 -24 -9.33301 -46.833 -12 -68.5s-4 -41.167 -4 -58.5c0 -76.667 26.833 -136.167 80.5 -178.5s129.167 -63.5 226.5 -63.5c116.667 0 207.5 27.5 272.5 82.5s110.167 142.167 135.5 261.5l208 986h195l-211 -996
c-22 -101.333 -47.333 -179.833 -76 -235.5s-66.667 -103.5 -114 -143.5c-54 -45.333 -116.667 -79.833 -188 -103.5s-148 -35.5 -230 -35.5c-150.667 0 -271 37.5 -361 112.5s-135 174.833 -135 299.5c0 18.667 2.33301 44 7 76s12 72.667 22 122z" />
    <glyph glyph-name="V" unicode="V" horiz-adv-x="1133" 
d="M338 0l-248 1473h193l192 -1223l586 1223h201l-719 -1473h-205z" />
    <glyph glyph-name="W" unicode="W" horiz-adv-x="1702" 
d="M246 0l-109 1473h182l80 -1133l453 1133h195l112 -1147l447 1147h188l-575 -1473h-197l-117 1171l-463 -1171h-196z" />
    <glyph glyph-name="X" unicode="X" horiz-adv-x="1071" 
d="M-111 0l547 754l-342 719h207l258 -564l391 564h226l-533 -736l348 -737h-207l-266 582l-405 -582h-224z" />
    <glyph glyph-name="Y" unicode="Y" horiz-adv-x="1055" 
d="M276 0l125 610l-331 863h204l254 -682l455 682h223l-614 -893l-119 -580h-197z" />
    <glyph glyph-name="Z" unicode="Z" horiz-adv-x="1176" 
d="M-41 0l37 174l938 1124h-729l39 175h962l-35 -175l-933 -1122h768l-39 -176h-1008z" />
    <glyph glyph-name="bracketleft" unicode="[" horiz-adv-x="725" 
d="M10 -406l396 1879h350l-23 -140h-182l-346 -1607h192l-26 -132h-361z" />
    <glyph glyph-name="backslash" unicode="\" horiz-adv-x="616" 
d="M313 -190l-135 1701h119l139 -1701h-123z" />
    <glyph glyph-name="bracketright" unicode="]" horiz-adv-x="725" 
d="M631 1473l-398 -1879h-348l21 138h184l344 1607h-190l24 134h363z" />
    <glyph glyph-name="asciicircum" unicode="^" horiz-adv-x="2048" 
d="M1116 1458l510 -557h-180l-422 420l-424 -420h-180l510 557h186z" />
    <glyph glyph-name="underscore" unicode="_" 
d="M1024 -340v-143h-1024v143h1024z" />
    <glyph glyph-name="grave" unicode="`" 
d="M762 1214h-109l-301 349h201z" />
    <glyph glyph-name="a" unicode="a" horiz-adv-x="1081" 
d="M711 539c-54 -20 -125.501 -33.332 -214.501 -39.999s-147.167 -13.334 -174.5 -20.001c-52 -12 -90.667 -33.167 -116 -63.5s-38 -70.5 -38 -120.5c0 -52.667 16 -94.5 48 -125.5s75.333 -46.5 130 -46.5c103.333 0 185.833 35.333 247.5 106s100.834 174 117.501 310z
M654.999 121.001c-47.333 -51.333 -99.1689 -89.8369 -155.502 -115.504s-117.833 -38.5 -184.5 -38.5c-104 0 -185.167 29 -243.5 87s-87.5 138.333 -87.5 241c0 114.667 36.333 199.334 109 254.001s195.334 87.334 368.001 98.001c3.33301 0 8 0.333008 14 1
c194 12.667 291 66.334 291 161.001c0 46.667 -16.167 80.834 -48.5 102.501s-83.833 32.5 -154.5 32.5c-99.333 0 -168.166 -13 -206.499 -39s-65.833 -74.333 -82.5 -145h-178c18.667 112.667 66.834 197.167 144.501 253.5s185.167 84.5 322.5 84.5
c124.667 0 220.667 -21.833 288 -65.5s101 -105.167 101 -184.5c0 -8.66699 -1.33301 -21.667 -4 -39s-8 -46.666 -16 -87.999l-98 -454c-4 -15.333 -6.83301 -30.333 -8.5 -45s-2.5 -29.334 -2.5 -44.001c0 -19.333 6.16699 -34 18.5 -44s30.833 -15 55.5 -15
c7.33301 0 14.666 0.5 21.999 1.5s15 2.5 23 4.5l-27 -125c-16 -4 -33 -7 -51 -9s-39 -3 -63 -3c-48 0 -84.333 11.167 -109 33.5s-37 55.5 -37 99.5z" />
    <glyph glyph-name="b" unicode="b" horiz-adv-x="1208" 
d="M-6 2l315.001 1471h174l-106 -523c42.667 50 92 88.167 148 114.5s116 39.5 180 39.5c124.667 0 223.334 -39 296.001 -117s109 -184.333 109 -319c0 -88 -14.5 -176.167 -43.5 -264.5s-69.167 -167.5 -120.5 -237.5c-46.667 -63.333 -103.334 -112 -170.001 -146
s-139 -51 -217 -51c-85.333 0 -158.333 17.5 -219 52.5s-106.334 85.833 -137.001 152.5l-39 -172h-170zM653.001 944c-52.667 0 -101 -11.4971 -145 -34.4971s-83 -57.167 -117 -102.5c-38.667 -52.667 -69.5 -114.334 -92.5 -185.001s-34.5 -140.667 -34.5 -210
c0 -90.667 23.167 -160.834 69.5 -210.501s111.166 -74.5 194.499 -74.5c110.667 0 203.334 51.167 278.001 153.5s112 229.5 112 381.5c0 89.333 -23.167 158.666 -69.5 207.999s-111.5 74 -195.5 74z" />
    <glyph glyph-name="c" unicode="c" horiz-adv-x="1139" 
d="M797 397l178.003 -0.00195312c-28.667 -131.333 -89.5 -236.166 -182.5 -314.499s-202.833 -117.5 -329.5 -117.5c-140.667 0 -246.834 40 -318.501 120s-107.5 198.333 -107.5 355c0 91.333 14.667 177.5 44 258.5s72.666 154.167 129.999 219.5
c54 60.667 116 106.834 186 138.501s146 47.5 228 47.5c128 0 227.333 -34 298 -102s107.667 -165 111 -291h-182c0 74 -21.5 132 -64.5 174s-102.167 63 -177.5 63c-103.333 0 -193 -50.5 -269 -151.5s-114 -223.167 -114 -366.5c0 -96 21.667 -169.5 65 -220.5
s105.666 -76.5 186.999 -76.5c71.333 0 135.333 23.5 192 70.5s98.667 111.5 126 193.5z" />
    <glyph glyph-name="d" unicode="d" horiz-adv-x="1208" 
d="M758 0l21.999 133.001c-50.667 -57.333 -104.5 -99.666 -161.5 -126.999s-119.167 -41 -186.5 -41c-126.667 0 -225.167 39.167 -295.5 117.5s-105.5 188.833 -105.5 331.5c0 90.667 13.833 177.667 41.5 261s66.834 156.666 117.501 219.999
c52 63.333 112.833 112.666 182.5 147.999s142.167 53 217.5 53c74.667 0 140.667 -17 198 -51s105.333 -84.667 144 -152l119 580h174l-305 -1473h-162zM863.999 655.001c0 89.333 -23 159.499 -69 210.499s-109 76.5 -189 76.5c-108.667 0 -200.667 -51.667 -276 -155
s-113 -232 -113 -386c0 -89.333 22 -159.666 66 -210.999s104 -77 180 -77c114.667 0 210.167 51.333 286.5 154s114.5 232 114.5 388z" />
    <glyph glyph-name="e" unicode="e" horiz-adv-x="1135" 
d="M250 631h587.001c1.33301 6 2.16602 12.167 2.49902 18.5s0.5 15.833 0.5 28.5c0 84 -21.833 150 -65.5 198s-103.167 72 -178.5 72c-86 0 -159.167 -27.5 -219.5 -82.5s-102.5 -133.167 -126.5 -234.5zM971.001 350c-25.333 -120 -82.502 -214.167 -171.502 -282.5
s-198.5 -102.5 -328.5 -102.5c-140.667 0 -248.5 40.167 -323.5 120.5s-112.5 195.833 -112.5 346.5c0 198 52.333 359.833 157 485.5s239.334 188.5 404.001 188.5c132.667 0 238.167 -39.167 316.5 -117.5s117.5 -183.833 117.5 -316.5
c0 -25.333 -1.33301 -53.166 -4 -83.499s-6.66699 -64.833 -12 -103.5h-793v-5c-2.66699 -29.333 -4 -50 -4 -62c0 -96.667 23.833 -170.334 71.5 -221.001s116.834 -76 207.501 -76c72 0 134.167 20.5 186.5 61.5s87.5 96.833 105.5 167.5h183z" />
    <glyph glyph-name="f" unicode="f" horiz-adv-x="545" 
d="M14 0l186.998 923.999h-148l29 147h147l35 168c16.667 86.667 45.834 148.334 87.501 185.001s102.834 55 183.501 55c16 0 33.833 -0.833008 53.5 -2.5s42.5 -4.5 68.5 -8.5l-30 -161c-12.667 2.66699 -26 4.66699 -40 6s-28.667 2 -44 2c-53.333 0 -89 -40 -107 -120
c-2 -8 -3.33301 -14 -4 -18l-24 -106h182l-29 -147h-184l-187 -924h-176z" />
    <glyph glyph-name="g" unicode="g" horiz-adv-x="1204" 
d="M602 950c-111.333 0 -201.666 -48.499 -270.999 -145.499s-104 -223.833 -104 -380.5c0 -91.333 22.333 -162 67 -212s107.667 -75 189 -75c114.667 0 207.167 49.167 277.5 147.5s105.5 228.166 105.5 389.499c0 86 -23.333 153.5 -70 202.5
s-111.334 73.5 -194.001 73.5zM-18 -105.999l178.002 0.000976562v-17c0 -50 21.333 -89.833 64 -119.5s100.334 -44.5 173.001 -44.5c113.333 0 196.166 28.333 248.499 85s93.166 165 122.499 325c-40 -46 -86.333 -80.667 -139 -104s-110.667 -35 -174 -35
c-131.333 0 -233.5 40 -306.5 120s-109.5 192 -109.5 336c0 191.333 53.167 350.166 159.5 476.499s238.833 189.5 397.5 189.5c81.333 0 149.833 -17.667 205.5 -53s98.5 -88 128.5 -158l39 176h174l-228 -1089c-30.667 -146.667 -88.334 -254.334 -173.001 -323.001
s-201.667 -103 -351 -103c-128.667 0 -229 29.333 -301 88s-108 140.334 -108 245.001v5z" />
    <glyph glyph-name="h" unicode="h" horiz-adv-x="1141" 
d="M-6 0l312.997 1473h178l-116 -551c54.667 56 113.334 98 176.001 126s129.334 42 200.001 42c95.333 0 167 -19.667 215 -59s72 -97.666 72 -174.999c0 -19.333 -1.33301 -40.166 -4 -62.499s-6.66699 -45.166 -12 -68.499l-154 -725h-182l149 698
c6 26.667 10.333 50.167 13 70.5s4 39.166 4 56.499c0 34 -14.667 61.333 -44 82s-68.666 31 -117.999 31c-102 0 -186.5 -34 -253.5 -102s-114.167 -167.667 -141.5 -299l-113 -537h-182z" />
    <glyph glyph-name="i" unicode="i" horiz-adv-x="473" 
d="M260 1257l45 216h178l-45 -216h-178zM-8 0l225 1071h180l-227 -1071h-178z" />
    <glyph glyph-name="j" unicode="j" horiz-adv-x="481" 
d="M276 1260l46 213h178l-45 -213h-179zM-190 -422l26 159c4 0 8.5 -0.166992 13.5 -0.5s12.167 -0.5 21.5 -0.5c31.333 0 54 6.33301 68 19s24.667 36.667 32 72l265 1244h180l-269 -1264c-18 -86 -47 -146.667 -87 -182s-98.333 -53 -175 -53
c-11.333 0 -23.5 0.5 -36.5 1.5s-25.833 2.5 -38.5 4.5z" />
    <glyph glyph-name="k" unicode="k" horiz-adv-x="1012" 
d="M-4 0l309 1473h178l-188 -881l534 479h254l-465 -401l248 -670h-194l-199 545l-229 -199l-76 -346h-172z" />
    <glyph glyph-name="l" unicode="l" horiz-adv-x="473" 
d="M0 0l313 1473h179l-312 -1473h-180z" />
    <glyph glyph-name="m" unicode="m" horiz-adv-x="1698" 
d="M-14 0l225.004 1071h170l-41 -180c54 66.667 111.167 115.667 171.5 147s126.833 47 199.5 47c76.667 0 134.667 -16 174 -48s59.666 -80 60.999 -144c58.667 66 118.167 114.833 178.5 146.5s123.166 47.5 188.499 47.5c86.667 0 154.334 -20.667 203.001 -62
s73 -98.333 73 -171c0 -14 -1.16699 -30.5 -3.5 -49.5s-5.83301 -40.167 -10.5 -63.5l-160 -741h-190l168 762c2.66699 12 4.66699 23 6 33s2 19.333 2 28c0 34 -11.333 59.667 -34 77s-56.334 26 -101.001 26c-78 0 -150.333 -31.333 -217 -94
s-110.334 -142.667 -131.001 -240l-130 -592h-184l164 770c2.66699 10.667 4.66699 21.167 6 31.5s2 19.5 2 27.5c0 30.667 -10.167 54.5 -30.5 71.5s-49.166 25.5 -86.499 25.5c-84.667 0 -160.334 -29.5 -227.001 -88.5s-110.334 -134.833 -131.001 -227.5l-135 -610h-180
z" />
    <glyph glyph-name="n" unicode="n" horiz-adv-x="1130" 
d="M-14 0l227.003 1071h164l-35 -160c59.333 60.667 121.166 105.667 185.499 135s132.833 44 205.5 44c94.667 0 166.5 -19.667 215.5 -59s73.5 -97 73.5 -173c0 -17.333 -1.5 -37.166 -4.5 -59.499s-7.83301 -47.166 -14.5 -74.499l-151 -724h-182l149 698
c5.33301 26 9.16602 48.333 11.499 67s3.5 36 3.5 52c0 38.667 -14 68.5 -42 89.5s-67.333 31.5 -118 31.5c-102.667 0 -187.334 -34 -254.001 -102s-113.667 -167.667 -141 -299l-113 -537h-180z" />
    <glyph glyph-name="o" unicode="o" horiz-adv-x="1176" 
d="M602 948c-56.667 0 -107.666 -12.5 -152.999 -37.5s-85 -62.833 -119 -113.5c-34 -51.333 -61 -111.833 -81 -181.5s-30 -138.167 -30 -205.5c0 -90.667 22.5 -160.5 67.5 -209.5s109.167 -73.5 192.5 -73.5c115.333 0 209.666 50.833 282.999 152.5s110 232.5 110 392.5
c0 90 -23 158.5 -69 205.5s-113 70.5 -201 70.5zM31.001 424c0 199.333 55.167 362.834 165.5 490.501s251.833 191.5 424.5 191.5c136.667 0 244.5 -40.667 323.5 -122s118.5 -192.333 118.5 -333c0 -198.667 -55.167 -361.667 -165.5 -489s-251.833 -191 -424.5 -191
c-140 0 -248.667 39.667 -326 119s-116 190.666 -116 333.999z" />
    <glyph glyph-name="p" unicode="p" horiz-adv-x="1208" 
d="M659 946c-108.667 0 -201 -52.1689 -277 -156.502s-114 -233.166 -114 -386.499c0 -89.333 22.167 -158.666 66.5 -207.999s106.166 -74 185.499 -74c108 0 199.167 52 273.5 156s111.5 233.667 111.5 389c0 88 -21.667 156.667 -65 206s-103.666 74 -180.999 74z
M-86 -428.002l301 1499h166l-31 -153c47.333 59.333 99.833 103.833 157.5 133.5s120.5 44.5 188.5 44.5c124 0 221 -39.333 291 -118s105 -187.667 105 -327c0 -91.333 -14 -179 -42 -263s-68 -158.667 -120 -224c-50.667 -64 -109.167 -112.833 -175.5 -146.5
s-136.833 -50.5 -211.5 -50.5c-73.333 0 -138 16 -194 48s-104 80.333 -144 145l-121 -588h-170z" />
    <glyph glyph-name="q" unicode="q" horiz-adv-x="1208" 
d="M487 135c52 0 100.501 12 145.501 36s85.5 60 121.5 108c38 50 68.333 109.167 91 177.5s34 134.5 34 198.5c0 98.667 -22.333 172.834 -67 222.501s-110.667 74.5 -198 74.5c-57.333 0 -109.333 -12.833 -156 -38.5s-86.667 -63.834 -120 -114.501
c-34.667 -52.667 -61.834 -112.5 -81.501 -179.5s-29.5 -134.167 -29.5 -201.5c0 -90 22.833 -159.667 68.5 -209s109.5 -74 191.5 -74zM1145 1071l-315.999 -1499h-178l115 549c-46 -48 -96.167 -84 -150.5 -108s-113.5 -36 -177.5 -36c-124 0 -222.167 39.667 -294.5 119
s-108.5 187.333 -108.5 324c0 88.667 14 175.667 42 261s68 161.333 120 228c50.667 66 108.5 116 173.5 150s135.5 51 211.5 51c86.667 0 159.667 -16.833 219 -50.5s105.666 -84.5 138.999 -152.5l37 164h168z" />
    <glyph glyph-name="r" unicode="r" horiz-adv-x="668" 
d="M-8 0l225.002 1071h172l-45 -199c60 84.667 112.667 143.5 158 176.5s93.666 49.5 144.999 49.5c12 0 24.833 -0.666992 38.5 -2s28.167 -3.33301 43.5 -6l-45 -203h-5c-24 2.66699 -42 4 -54 4c-88.667 0 -161.334 -31 -218.001 -93s-98.667 -156.667 -126 -284
l-111 -514h-178z" />
    <glyph glyph-name="s" unicode="s" horiz-adv-x="1008" 
d="M-18 375l169.001 -0.000976562c0 -4 -0.166992 -8.66699 -0.5 -14s-0.5 -13 -0.5 -23c0 -74.667 23.833 -131.167 71.5 -169.5s117.834 -57.5 210.501 -57.5c68 0 121.833 14.667 161.5 44s59.5 69 59.5 119c0 34.667 -10 63.5 -30 86.5s-71.333 53.833 -154 92.5l-55 25
c-198 92 -297 196.333 -297 313c0 94 35.667 169.667 107 227s166.666 86 285.999 86c124 0 220.5 -31.167 289.5 -93.5s103.5 -149.166 103.5 -260.499v-23h-166v6c0 72.667 -19.5 127.334 -58.5 164.001s-97.167 55 -174.5 55c-65.333 0 -116.833 -12.833 -154.5 -38.5
s-56.5 -60.5 -56.5 -104.5c0 -53.333 59.333 -107 178 -161l10 -5c156 -70.667 253.833 -128.334 293.5 -173.001s59.5 -101 59.5 -169c0 -102 -39 -183.833 -117 -245.5s-182.667 -92.5 -314 -92.5c-130.667 0 -233.834 33.167 -309.501 99.5s-113.5 156.833 -113.5 271.5
c0 10.667 0.166992 19 0.5 25s0.833008 11.333 1.5 16z" />
    <glyph glyph-name="t" unicode="t" horiz-adv-x="543" 
d="M385 0c-25.333 -7.33301 -48.6689 -13.001 -70.002 -17.001s-39.666 -6 -54.999 -6c-75.333 0 -131.666 14.333 -168.999 43s-56 72 -56 130c0 13.333 1.5 30.333 4.5 51s7.5 47.334 13.5 80.001l137 643h-155l33 147h153l62 291h180l-62 -291h185l-31 -147h-186
l-140 -662c-4 -16.667 -7 -31.5 -9 -44.5s-3 -23.5 -3 -31.5c0 -19.333 7.16699 -34.333 21.5 -45s34.5 -16 60.5 -16c17.333 0 35.333 1 54 3s39 5 61 9z" />
    <glyph glyph-name="u" unicode="u" horiz-adv-x="1130" 
d="M1067 1071l-225.003 -1071h-164l33 162c-59.333 -60 -121.166 -104.667 -185.499 -134s-133.166 -44 -206.499 -44c-94.667 0 -166 19.167 -214 57.5s-72 95.5 -72 171.5c0 20.667 1.33301 42.167 4 64.5s6.66699 45.166 12 68.499l154 725h182l-150 -697l-1 -6
c-10 -50 -15 -87.333 -15 -112c0 -38.667 14.333 -68.834 43 -90.501s68.334 -32.5 119.001 -32.5c102 0 186.5 34 253.5 102s114.167 168 141.5 300l113 536h178z" />
    <glyph glyph-name="v" unicode="v" horiz-adv-x="946" 
d="M215 0l-168 1071h174l125 -881l449 881h196l-577 -1071h-199z" />
    <glyph glyph-name="w" unicode="w" horiz-adv-x="1505" 
d="M193 0l-138 1071h174l97 -840l370 840h199l45 -850l422 850h194l-573 -1071h-184l-47 819l-377 -819h-182z" />
    <glyph glyph-name="x" unicode="x" horiz-adv-x="905" 
d="M-147 0l462 557l-260 514h201l180 -381l307 381h211l-438 -532l262 -539h-196l-189 397l-325 -397h-215z" />
    <glyph glyph-name="y" unicode="y" horiz-adv-x="946" 
d="M221 -55l-175.999 1126h193l116 -901l445 901h198l-696 -1329c-34 -64.667 -73.5 -111.167 -118.5 -139.5s-101.833 -42.5 -170.5 -42.5c-12.667 0 -27 1.5 -43 4.5s-33.667 7.83301 -53 14.5l39 159c10.667 -4 22 -7 34 -9s24 -3 36 -3c23.333 0 44.166 5.5 62.499 16.5
s33.5 27.167 45.5 48.5z" />
    <glyph glyph-name="z" unicode="z" horiz-adv-x="913" 
d="M-86 0l31 141l696 772h-561l31 158h809l-31 -131l-707 -780h606l-34 -160h-840z" />
    <glyph glyph-name="braceleft" unicode="{" 
d="M866 1327l-40.998 -0.00292969c-80 0 -133.667 -14.833 -161 -44.5s-41 -91.167 -41 -184.5v-242c0 -106.667 -14.833 -182.667 -44.5 -228s-81.834 -78 -156.501 -98c75.333 -18.667 127.666 -50.667 156.999 -96s44 -121.666 44 -228.999v-242
c0 -94 13.833 -155.667 41.5 -185s81.834 -44 162.501 -44h39v-148h-43c-72 0 -128.333 3.83301 -169 11.5s-75 20.167 -103 37.5c-36.667 22.667 -62.5 55 -77.5 97s-22.5 112.333 -22.5 211v245c0 99.333 -18.167 169.333 -54.5 210s-98.166 61 -185.499 61
c-4.66699 0 -11.834 -0.333008 -21.501 -1s-16.834 -1 -21.501 -1v149c5.33301 0 13 -0.333008 23 -1s17.333 -1 22 -1c86.667 0 148 20.167 184 60.5s54 109.5 54 207.5v246c0 98.667 7.5 168.834 22.5 210.501s40.833 73.834 77.5 96.501c30 18.667 66.167 32 108.5 40
s98.833 12 169.5 12h37v-150z" />
    <glyph glyph-name="bar" unicode="|" 
d="M588 1565v-2048h-150v2048h150z" />
    <glyph glyph-name="braceright" unicode="}" 
d="M575 1118l-0.000976562 -245.997c0 -98 18 -167.167 54 -207.5s97.333 -60.5 184 -60.5c4.66699 0 12 0.333008 22 1s17.667 1 23 1v-149c-4.66699 0 -12 0.333008 -22 1s-17 1 -21 1c-88 0 -150 -20.167 -186 -60.5s-54 -110.5 -54 -210.5v-245
c0 -98.667 -7.5 -169 -22.5 -211s-40.833 -74.333 -77.5 -97c-28 -17.333 -62.333 -29.833 -103 -37.5s-97 -11.5 -169 -11.5h-43v148h39c80 0 134 15 162 45s42 92 42 186v240c0 106.667 14.833 182.667 44.5 228s81.834 77.666 156.501 96.999
c-74.667 20 -126.834 52.667 -156.501 98s-44.5 121.333 -44.5 228v242c0 93.333 -14 154.833 -42 184.5s-82 44.5 -162 44.5h-39v150h37c71.333 0 128.333 -4.16699 171 -12.5s78.334 -21.5 107.001 -39.5c36.667 -22.667 62.5 -54.834 77.5 -96.501
s22.5 -111.834 22.5 -210.501z" />
    <glyph glyph-name="asciitilde" unicode="~" horiz-adv-x="1706" 
d="M1530 614c-69.333 -48 -135.669 -83.501 -199.002 -106.501s-126.666 -34.5 -189.999 -34.5c-62 0 -147.333 19.333 -256 58c-14.667 5.33301 -26 9.33301 -34 12l-15 5c-117.333 40 -208.333 60 -273 60c-56 0 -114.333 -12.333 -175 -37s-130.667 -64.667 -210 -120
v155c70.667 48 138 84 202 108s125.667 36 185 36c41.333 0 83.833 -4.5 127.5 -13.5s98.167 -25.167 163.5 -48.5c10.667 -3.33301 26.334 -9 47.001 -17c106 -38 186 -57 240 -57c58.667 0 118.5 12.333 179.5 37s130.167 64.334 207.5 119.001v-156z" />
    <glyph glyph-name="Euro" horiz-adv-x="1124" 
d="M1034 510c-40.667 -174 -108.169 -310.333 -202.502 -409s-202.833 -148 -325.5 -148c-135.333 0 -238.833 46.833 -310.5 140.5s-107.5 229.167 -107.5 406.5c0 17.333 0.166992 31.5 0.5 42.5s0.833008 21.833 1.5 32.5h-106l39 93h75c4.66699 32 8.5 57.167 11.5 75.5
s6.16699 34.5 9.5 48.5l-148 1l39 92h129c53.333 198.667 129.333 352 228 460s211.334 162 338.001 162c129.333 0 230.5 -44.167 303.5 -132.5s109.5 -211.166 109.5 -368.499v-25h-194v18c0 113.333 -19 199.5 -57 258.5s-93.667 88.5 -167 88.5
c-76 0 -144.5 -39.167 -205.5 -117.5s-112.5 -192.833 -154.5 -343.5h451l-39 -92h-435c-3.33301 -14 -6.66602 -29.833 -9.99902 -47.5s-7.33301 -43.5 -12 -77.5h401l-39 -93h-372c-2 -30.667 -3.16699 -53.334 -3.5 -68.001s-0.5 -28.667 -0.5 -42
c0 -116 19.333 -203.667 58 -263s95.667 -89 171 -89c76.667 0 145 35.667 205 107s102.333 168 127 290h192z" />
    <glyph glyph-name="Euro" unicode="&#x20ac;" horiz-adv-x="1124" 
d="M1034 510c-40.667 -174 -108.169 -310.333 -202.502 -409s-202.833 -148 -325.5 -148c-135.333 0 -238.833 46.833 -310.5 140.5s-107.5 229.167 -107.5 406.5c0 17.333 0.166992 31.5 0.5 42.5s0.833008 21.833 1.5 32.5h-106l39 93h75c4.66699 32 8.5 57.167 11.5 75.5
s6.16699 34.5 9.5 48.5l-148 1l39 92h129c53.333 198.667 129.333 352 228 460s211.334 162 338.001 162c129.333 0 230.5 -44.167 303.5 -132.5s109.5 -211.166 109.5 -368.499v-25h-194v18c0 113.333 -19 199.5 -57 258.5s-93.667 88.5 -167 88.5
c-76 0 -144.5 -39.167 -205.5 -117.5s-112.5 -192.833 -154.5 -343.5h451l-39 -92h-435c-3.33301 -14 -6.66602 -29.833 -9.99902 -47.5s-7.33301 -43.5 -12 -77.5h401l-39 -93h-372c-2 -30.667 -3.16699 -53.334 -3.5 -68.001s-0.5 -28.667 -0.5 -42
c0 -116 19.333 -203.667 58 -263s95.667 -89 171 -89c76.667 0 145 35.667 205 107s102.333 168 127 290h192z" />
    <glyph glyph-name="nonbreakingspace" unicode="&#xa0;" horiz-adv-x="1124" 
 />
    <glyph glyph-name="exclamdown" unicode="&#xa1;" horiz-adv-x="657" 
d="M461 1100l-187 -1100h-202l276 1100h113zM584 1473l-47 -224h-220l50 224h217z" />
    <glyph glyph-name="cent" unicode="&#xa2;" horiz-adv-x="1124" 
d="M600 948c-107.333 -1.33301 -199.001 -52.167 -275.001 -152.5s-114 -222.166 -114 -365.499c0 -72.667 12.333 -132.334 37 -179.001s61.334 -79.667 110.001 -99zM779.999 396.999l180.999 -0.00195312c-30.667 -132 -92 -236.333 -184 -313s-202.333 -115 -331 -115
c-16 0 -28 0.166992 -36 0.5s-15.667 0.833008 -23 1.5l-68 -229h-86l74 242c-94.667 24.667 -166.5 74.334 -215.5 149.001s-73.5 172.334 -73.5 293.001c0 196.667 57.333 358.834 172 486.501s261 191.5 439 191.5h18l58 192h86l-62 -204
c92.667 -22 163.5 -65.167 212.5 -129.5s74.5 -148.166 76.5 -251.499h-182c-1.33301 59.333 -14.666 107.666 -39.999 144.999s-63.333 64.666 -114 81.999l-244 -805c3.33301 0 8.5 -0.333008 15.5 -1s12.167 -1 15.5 -1c70 0 132 23 186 69s95.667 111.667 125 197z" />
    <glyph glyph-name="sterling" unicode="&#xa3;" horiz-adv-x="1124" 
d="M76 -25l-35 175.002c70.667 51.333 123.834 110.5 159.501 177.5s53.5 141.5 53.5 223.5c0 18.667 -0.666992 36.5 -2 53.5s-3.33301 33.167 -6 48.5h-189l27 103h145c-9.33301 40 -16.333 78 -21 114s-7 68.333 -7 97c0 150 44.667 271.333 134 364
s205.666 139 348.999 139c116.667 0 210.334 -31 281.001 -93s106 -143.333 106 -244c0 -22.667 -1 -46.334 -3 -71.001s-5 -50.334 -9 -77.001h-185c4.66699 26.667 8 49.667 10 69s3 35.333 3 48c0 67.333 -17.667 118.666 -53 153.999s-86.666 53 -153.999 53
c-90 0 -160.333 -29.667 -211 -89s-76 -141.666 -76 -246.999c0 -29.333 1.83301 -61.666 5.5 -96.999s9.5 -75.333 17.5 -120h358l-24 -103h-324v-4c2.66699 -24 4 -42.333 4 -55c0 -79.333 -18.833 -155.833 -56.5 -229.5s-95.167 -146.834 -172.5 -219.501
c43.333 16.667 83 29.167 119 37.5s68.667 12.5 98 12.5c43.333 0 105 -10 185 -30s137 -30 171 -30c31.333 0 63.166 6.5 95.499 19.5s66.166 33.167 101.499 60.5l-58 -215c-26.667 -10.667 -53.667 -18.834 -81 -24.501s-54.666 -8.5 -81.999 -8.5
c-44.667 0 -115.834 13.333 -213.501 40s-172.834 40 -225.501 40c-33.333 0 -70.166 -6.16699 -110.499 -18.5s-81.833 -30.166 -124.5 -53.499z" />
    <glyph glyph-name="currency" unicode="&#xa4;" horiz-adv-x="1124" 
d="M1034 510c-40.667 -174 -108.169 -310.333 -202.502 -409s-202.833 -148 -325.5 -148c-135.333 0 -238.833 46.833 -310.5 140.5s-107.5 229.167 -107.5 406.5c0 17.333 0.166992 31.5 0.5 42.5s0.833008 21.833 1.5 32.5h-106l39 93h75c4.66699 32 8.5 57.167 11.5 75.5
s6.16699 34.5 9.5 48.5l-148 1l39 92h129c53.333 198.667 129.333 352 228 460s211.334 162 338.001 162c129.333 0 230.5 -44.167 303.5 -132.5s109.5 -211.166 109.5 -368.499v-25h-194v18c0 113.333 -19 199.5 -57 258.5s-93.667 88.5 -167 88.5
c-76 0 -144.5 -39.167 -205.5 -117.5s-112.5 -192.833 -154.5 -343.5h451l-39 -92h-435c-3.33301 -14 -6.66602 -29.833 -9.99902 -47.5s-7.33301 -43.5 -12 -77.5h401l-39 -93h-372c-2 -30.667 -3.16699 -53.334 -3.5 -68.001s-0.5 -28.667 -0.5 -42
c0 -116 19.333 -203.667 58 -263s95.667 -89 171 -89c76.667 0 145 35.667 205 107s102.333 168 127 290h192z" />
    <glyph glyph-name="yen" unicode="&#xa5;" horiz-adv-x="1169" 
d="M340 0l115 559h-475l18 92h432l-53 135h-350l20 93h295l-199 512h187l248 -654l438 654h203l-355 -512h318l-21 -93h-360l-92 -135h424l-19 -92h-477l-113 -559h-184z" />
    <glyph glyph-name="brokenbar" unicode="&#xa6;" 
d="M588 408v-758h-150v758h150zM588 1432v-758h-150v758h150z" />
    <glyph glyph-name="section" unicode="&#xa7;" 
d="M584 401c45.333 20.667 79.167 44 101.5 70s33.5 54.667 33.5 86c0 28.667 -8.16699 55.5 -24.5 80.5s-43.833 52.167 -82.5 81.5l-217 164c-43.333 -16.667 -76.333 -39 -99 -67s-34 -60.333 -34 -97c0 -22.667 7.83301 -44.667 23.5 -66s46.167 -50 91.5 -86z
M35.001 115l182.001 -1.00195c6.66699 -51.333 23.834 -90.333 51.501 -117s65.167 -40 112.5 -40c54 0 97.167 14.333 129.5 43s48.5 66.334 48.5 113.001c0 51.333 -40.667 109.333 -122 174l-13 10l-176 139c-61.333 48.667 -104.333 92.167 -129 130.5
s-37 79.5 -37 123.5c0 56.667 16.833 108 50.5 154s85.167 88.333 154.5 127c-20.667 30 -35.834 61.167 -45.501 93.5s-14.5 67.166 -14.5 104.499c0 90 32.833 165.5 98.5 226.5s146.834 91.5 243.501 91.5c108 0 191.333 -26 250 -78s88 -125.667 88 -221
c0 -4 -0.333008 -9.66699 -1 -17s-1 -12.666 -1 -15.999h-184c0 60 -12.5 103.667 -37.5 131s-65.167 41 -120.5 41c-44 0 -79.833 -12.333 -107.5 -37s-41.5 -56.667 -41.5 -96c0 -32.667 10.333 -63.5 31 -92.5s60.667 -66.5 120 -112.5l158 -121
c60 -45.333 103.333 -89.833 130 -133.5s40 -90.5 40 -140.5c0 -63.333 -16.667 -119.166 -50 -167.499s-85 -90.833 -155 -127.5c19.333 -25.333 33.666 -53 42.999 -83s14 -63 14 -99c0 -92.667 -33.833 -170.5 -101.5 -233.5s-151.834 -94.5 -252.501 -94.5
c-116.667 0 -205.167 27.667 -265.5 83s-90.5 136.333 -90.5 243z" />
    <glyph glyph-name="dieresis" unicode="&#xa8;" 
d="M700 1274l45 209h183l-43 -209h-185zM371 1274l45 209h182l-43 -209h-184z" />
    <glyph glyph-name="copyright" unicode="&#xa9;" horiz-adv-x="1706" 
d="M1053 907c-8.66699 51.333 -30.667 90.833 -66 118.5s-81.666 41.5 -138.999 41.5c-70 0 -125 -30.167 -165 -90.5s-60 -143.5 -60 -249.5c0 -104.667 20.667 -186.167 62 -244.5s99 -87.5 173 -87.5c54.667 0 100.167 15.667 136.5 47s59.166 74.333 68.499 129h145
c-6 -86.667 -41.833 -157 -107.5 -211s-148.5 -81 -248.5 -81c-121.333 0 -216.5 40 -285.5 120s-103.5 191.333 -103.5 334c0 133.333 36.333 240.833 109 322.5s168 122.5 286 122.5c94.667 0 173.5 -25 236.5 -75s98.167 -115.333 105.5 -196h-147zM1493 727
c0 86.667 -15.833 168.834 -47.5 246.501s-77.167 146.5 -136.5 206.5c-62 61.333 -131.667 108 -209 140s-159.333 48 -246 48c-86 0 -167.167 -15.667 -243.5 -47s-144.5 -77 -204.5 -137c-62 -62 -109.667 -132.5 -143 -211.5s-50 -160.833 -50 -245.5
c0 -84 16.333 -164.667 49 -242s79.667 -147 141 -209c61.333 -60.667 130.5 -107.167 207.5 -139.5s158.167 -48.5 243.5 -48.5c83.333 0 164 16.333 242 49s149 80 213 142c60 58.667 105.667 126.167 137 202.5s47 158.166 47 245.499zM852 1464
c101.333 0 196.499 -18.166 285.499 -54.499s168.5 -89.833 238.5 -160.5c69.333 -68.667 122.5 -148.167 159.5 -238.5s55.5 -184.833 55.5 -283.5c0 -99.333 -18.167 -193.166 -54.5 -281.499s-89.166 -166.5 -158.499 -234.5
c-73.333 -71.333 -155.166 -126 -245.499 -164s-183.833 -57 -280.5 -57s-189.5 18.667 -278.5 56s-168.833 91.666 -239.5 162.999c-70.667 70 -124.5 149.5 -161.5 238.5s-55.5 182.167 -55.5 279.5c0 98 18.667 191.833 56 281.5s91.666 170.5 162.999 242.5
c69.333 69.333 148 122.166 236 158.499s181.333 54.5 280 54.5z" />
    <glyph glyph-name="ordfeminine" unicode="&#xaa;" horiz-adv-x="940" 
d="M78 582h686l-23 -109h-686zM866 1276l-79.0049 -372.006c-2 -8 -3.66699 -15.667 -5 -23s-2 -13.666 -2 -18.999c0 -11.333 3.83301 -20 11.5 -26s18.834 -9 33.501 -9c9.33301 0 16.333 0.166992 21 0.5s9.33398 0.833008 14.001 1.5l-23 -98
c-6.66699 -1.33301 -19.167 -4.66602 -37.5 -9.99902s-32.166 -8 -41.499 -8c-35.333 0 -63 8 -83 24s-30 38 -30 66c0 3.33301 0.333008 7.5 1 12.5l3 21.5c-54.667 -42.667 -107 -74 -157 -94s-100.667 -30 -152 -30c-71.333 0 -125.666 14.667 -162.999 44
s-56 72 -56 128c0 84 31 150.333 93 199s153.667 79.334 275 92.001c12 0.666992 29 2.33398 51 5.00098c124.667 12 187 55.333 187 130c0 26.667 -13 47.334 -39 62.001s-63.667 22 -113 22c-58.667 0 -105.834 -11.667 -141.501 -35s-57.834 -57.666 -66.501 -102.999
h-136c14.667 78 55.334 139.5 122.001 184.5s150.334 67.5 251.001 67.5c92.667 0 160.834 -13.833 204.501 -41.5s65.5 -71.167 65.5 -130.5c0 -6 -0.666992 -14.333 -2 -25s-3.33301 -22.667 -6 -36zM687.995 1115.99c-36 -16.667 -88.833 -29.332 -158.5 -37.999
s-118.5 -17 -146.5 -25c-36 -11.333 -64.167 -28.833 -84.5 -52.5s-30.5 -50.5 -30.5 -80.5c0 -28.667 11.333 -51.334 34 -68.001s53.667 -25 93 -25c64 0 121.833 17.833 173.5 53.5s84.167 80.167 97.5 133.5z" />
    <glyph glyph-name="guillemotleft" unicode="&#xab;" horiz-adv-x="909" 
d="M444 473l33 160l389 244l-37 -177l-258 -161l185 -185l-35 -159zM35 473l33 160l389 244l-37 -177l-258 -161l184 -185l-35 -159z" />
    <glyph glyph-name="logicalnot" unicode="&#xac;" horiz-adv-x="1706" 
d="M1452 860v-502h-137v363h-1061v139h1198z" />
    <glyph glyph-name="sfthyphen" unicode="&#xad;" horiz-adv-x="639" 
d="M18 461l37 162h494l-37 -162h-494z" />
    <glyph glyph-name="registered" unicode="&#xae;" horiz-adv-x="1706" 
d="M844 1057l-129 -0.000976562v-277h133c75.333 0 129.333 10.5 162 31.5s49 54.833 49 101.5c0 50.667 -17 87.334 -51 110.001s-88.667 34 -164 34zM872 1159c116 0 203.167 -19.168 261.5 -57.501s87.5 -95.5 87.5 -171.5c0 -59.333 -16.667 -108.666 -50 -147.999
s-80.333 -65 -141 -77l187 -381h-177l-170 356h-155v-356h-158v835h315zM1493 720.998c0 89.333 -15.5 173 -46.5 251s-76.167 146.667 -135.5 206c-61.333 62 -130.833 109.167 -208.5 141.5s-160.5 48.5 -248.5 48.5c-86.667 0 -168.334 -15.667 -245.001 -47
s-143.667 -76.333 -201 -135c-62.667 -63.333 -110.834 -134.666 -144.501 -213.999s-50.5 -161 -50.5 -245c0 -83.333 16.167 -163.5 48.5 -240.5s78.833 -146.167 139.5 -207.5c60 -61.333 128.833 -108.5 206.5 -141.5s157.834 -49.5 240.501 -49.5
c86.667 0 168.834 16 246.501 48s148.5 78.667 212.5 140c60 58.667 106 126.167 138 202.5s48 157.166 48 242.499zM852 1464c100.667 0 195.999 -18.6689 285.999 -56.002s170 -91.666 240 -162.999c68.667 -69.333 121.334 -148.666 158.001 -237.999
s55 -182.666 55 -279.999c0 -100.667 -18.333 -195.167 -55 -283.5s-90 -166.5 -160 -234.5c-72.667 -70.667 -154.167 -124.834 -244.5 -162.501s-183.5 -56.5 -279.5 -56.5c-98 0 -191.5 18.833 -280.5 56.5s-168.833 92.5 -239.5 164.5
c-70 70.667 -123.333 150.167 -160 238.5s-55 180.833 -55 277.5c0 97.333 19.167 191.5 57.5 282.5s93.5 172.833 165.5 245.5c67.333 68.667 144.5 120.667 231.5 156s180.5 53 280.5 53z" />
    <glyph glyph-name="macron" unicode="&#xaf;" 
d="M365 1307l30 141h539l-29 -141h-540z" />
    <glyph glyph-name="degree" unicode="&#xb0;" horiz-adv-x="674" 
d="M530 1169c0 54 -18.5 99.667 -55.5 137s-82.5 56 -136.5 56s-100 -18.667 -138 -56s-57 -83 -57 -137s19 -100.167 57 -138.5s84 -57.5 138 -57.5s99.5 19.167 136.5 57.5s55.5 84.5 55.5 138.5zM338 1456c78.667 0 146.167 -28.167 202.5 -84.5s84.5 -124.5 84.5 -204.5
c0 -79.333 -28 -146.833 -84 -202.5s-124.333 -83.5 -205 -83.5s-148.667 27.667 -204 83s-83 123 -83 203s28.167 148.167 84.5 204.5s124.5 84.5 204.5 84.5z" />
    <glyph glyph-name="plusminus" unicode="&#xb1;" horiz-adv-x="1706" 
d="M1452 170v-141h-1198v141h1198zM924 1192v-340h528v-139h-528v-340h-142v340h-528v139h528v340h142z" />
    <glyph glyph-name="twosuperior" unicode="&#xb2;" horiz-adv-x="741" 
d="M4 557c5.33301 48.667 16.333 91.1631 33 127.496s39.667 68.166 69 95.499c22 20.667 47.833 41.334 77.5 62.001s77.167 49.334 142.5 86.001l5 3c154.667 88.667 232 170.334 232 245.001c0 43.333 -13.667 77.666 -41 102.999s-64 38 -110 38
c-60 0 -106.5 -15.167 -139.5 -45.5s-54.167 -77.5 -63.5 -141.5h-125c12 92.667 45.833 163.334 101.5 212.001s130.5 73 224.5 73c84.667 0 152.5 -21.333 203.5 -64s76.5 -99.667 76.5 -171c0 -59.333 -17.167 -111.166 -51.5 -155.499s-96.833 -92.166 -187.5 -143.499
l-67 -38c-133.333 -74.667 -211.333 -138 -234 -190h468l-22 -96h-592z" />
    <glyph glyph-name="threesuperior" unicode="&#xb3;" horiz-adv-x="741" 
d="M23 836l123.998 -0.998047c-2 -10 -3.5 -20 -4.5 -30s-1.5 -19.667 -1.5 -29c0 -47.333 14 -83.333 42 -108s68.667 -37 122 -37c64.667 0 116 17.5 154 52.5s57 82.167 57 141.5c0 40.667 -15.333 72 -46 94s-74.667 33 -132 33h-35l21 90
c6 -0.666992 11.833 -1.16699 17.5 -1.5s14.167 -0.5 25.5 -0.5c65.333 0 115.666 13.167 150.999 39.5s53 63.833 53 112.5c0 39.333 -13.667 70.666 -41 93.999s-64.666 35 -111.999 35c-54 0 -96.667 -14.167 -128 -42.5s-51.666 -70.833 -60.999 -127.5h-125
c13.333 85.333 47.5 150.666 102.5 195.999s127.5 68 217.5 68c82 0 147.5 -19.667 196.5 -59s73.5 -92 73.5 -158c0 -48.667 -13 -90.5 -39 -125.5s-64 -62.167 -114 -81.5c34.667 -20 60.334 -44.167 77.001 -72.5s25 -61.5 25 -99.5c0 -84 -31.5 -152.833 -94.5 -206.5
s-144.167 -80.5 -243.5 -80.5c-90.667 0 -161.167 20.667 -211.5 62s-75.5 99.333 -75.5 174c0 12 1.33301 32.667 4 62c0 2.66699 0.333008 4.66699 1 6z" />
    <glyph glyph-name="acute" unicode="&#xb4;" 
d="M600 1214h-121l232 349h190z" />
    <glyph glyph-name="mu" unicode="&#xb5;" horiz-adv-x="1151" 
d="M385 1071l-128.999 -599.999c-4.66699 -21.333 -8.16699 -42.833 -10.5 -64.5s-3.5 -44.5 -3.5 -68.5c0 -66 17.333 -117 52 -153s84 -54 148 -54c88 0 157.5 30.833 208.5 92.5s92.167 165.5 123.5 311.5l115 536h178l-156 -732c-0.666992 -4 -2 -10.667 -4 -20
c-12 -58 -18 -95.333 -18 -112c0 -24.667 5.5 -42.167 16.5 -52.5s29.5 -15.5 55.5 -15.5c8 0 14.167 0.166992 18.5 0.5s8.83301 0.833008 13.5 1.5l-31 -143c-16 -3.33301 -32.667 -5.83301 -50 -7.5s-36.666 -2.5 -57.999 -2.5c-42 0 -74.333 9.66699 -97 29
s-40 52.666 -52 99.999c-30 -44 -67.5 -76.833 -112.5 -98.5s-97.833 -32.5 -158.5 -32.5c-54.667 0 -102.334 9.16699 -143.001 27.5s-78.334 47.833 -113.001 88.5l-110 -530h-181l318 1499h180z" />
    <glyph glyph-name="paragraph" unicode="&#xb6;" 
d="M958 1393h-120.002v-1393h-111v1393h-176v-1393h-113v782c-113.333 5.33301 -203.666 39.5 -270.999 102.5s-101 144.833 -101 245.5c0 104.667 35.833 189 107.5 253s166.834 96 285.501 96h499v-86z" />
    <glyph glyph-name="periodcentered" unicode="&#xb7;" horiz-adv-x="561" 
d="M154 702c0 35.333 12.166 65.333 36.499 90s54.5 37 90.5 37s66.5 -12.167 91.5 -36.5s37.5 -54.5 37.5 -90.5c0 -35.333 -12.667 -65.666 -38 -90.999s-55.666 -38 -90.999 -38s-65.333 12.667 -90 38s-37 55.666 -37 90.999z" />
    <glyph glyph-name="cedilla" unicode="&#xb8;" 
d="M63 -422l37 97.999c53.333 -15.333 96.666 -26.666 129.999 -33.999s60.333 -11 81 -11c48.667 0 83.834 7.83301 105.501 23.5s32.5 40.834 32.5 75.501c0 28.667 -13.333 49.167 -40 61.5s-73 18.5 -139 18.5h-22l65 190h78l-35 -102h23c70 0 123 -14 159 -42
s54 -69.333 54 -124c0 -66 -21.5 -116.667 -64.5 -152s-104.833 -53 -185.5 -53c-32 0 -70.5 4.16699 -115.5 12.5s-99.5 21.166 -163.5 38.499z" />
    <glyph glyph-name="onesuperior" unicode="&#xb9;" horiz-adv-x="741" 
d="M264 557l150.001 648.998c-34 -10 -72.5 -17.667 -115.5 -23s-91.167 -8.33301 -144.5 -9l20 81c88 2.66699 158.167 16.834 210.5 42.501s90.166 64.834 113.499 117.501h86l-201 -858h-119z" />
    <glyph glyph-name="ordmasculine" unicode="&#xba;" horiz-adv-x="940" 
d="M98 582h643l-22 -109h-643zM616 1509c92.667 0 164.332 -24 214.999 -72s76 -115.333 76 -202c0 -149.333 -43.5 -274 -130.5 -374s-196.167 -150 -327.5 -150c-91.333 0 -162.666 24.5 -213.999 73.5s-77 116.5 -77 202.5c0 148 43.333 272 130 372s196 150 328 150z
M759.998 1217c0 56 -15.167 99.667 -45.5 131s-72.5 47 -126.5 47c-79.333 0 -146.333 -37.5 -201 -112.5s-82 -165.833 -82 -272.5c0 -59.333 14.5 -105 43.5 -137s70.5 -48 124.5 -48c81.333 0 149.5 37.667 204.5 113s82.5 168.333 82.5 279z" />
    <glyph glyph-name="guillemotright" unicode="&#xbb;" horiz-adv-x="909" 
d="M813 600l-35 -162l-389 -243l37 176l258 161l-182 185l35 160zM401 600l-32 -162l-389 -243l36 176l258 161l-184 185l35 160z" />
    <glyph glyph-name="onequarter" unicode="&#xbc;" horiz-adv-x="1757" 
d="M1188 289h266l80 338zM1384 0l48 201h-383l22 88l514 489h98l-116 -489h129l-21 -88h-131l-47 -201h-113zM367 -41l899 1473h125l-899 -1473h-125zM252 612l142.999 606.999c-32 -9.33301 -69 -16.666 -111 -21.999s-87.333 -8.33301 -136 -9l18 75
c84.667 2.66699 151.834 16 201.501 40s85.5 60.667 107.5 110h82l-192 -801h-113z" />
    <glyph glyph-name="onehalf" unicode="&#xbd;" horiz-adv-x="1757" 
d="M1055 0c4 44.667 13.999 84.167 29.999 118.5s38.667 64.5 68 90.5c33.333 32 95.333 73.333 186 124c10 6 17.667 10.333 23 13l10 6c143.333 80.667 215 156 215 226c0 40 -12.833 71.833 -38.5 95.5s-60.5 35.5 -104.5 35.5c-58 0 -102.5 -14 -133.5 -42
s-50.833 -71.333 -59.5 -130h-121c12.667 86 45.334 151.5 98.001 196.5s124 67.5 214 67.5c81.333 0 146.333 -20 195 -60s73 -93 73 -159c0 -56 -16.667 -104.833 -50 -146.5s-93 -86.5 -179 -134.5l-63 -34c-127.333 -69.333 -202 -128.333 -224 -177h446l-20 -90h-565z
M366.999 -41l899 1473h125l-899 -1473h-125zM251.999 612l142.999 606.999c-32 -9.33301 -69 -16.666 -111 -21.999s-87.333 -8.33301 -136 -9l18 75c84.667 2.66699 151.834 16 201.501 40s85.5 60.667 107.5 110h82l-192 -801h-113z" />
    <glyph glyph-name="threequarters" unicode="&#xbe;" horiz-adv-x="1759" 
d="M1188 289h266l80 338zM1384 0l48 201h-383l22 88l514 489h98l-116 -489h129l-21 -88h-131l-47 -201h-113zM367 -41l899 1473h125l-899 -1473h-125zM22 872h118.999c-2 -9.33301 -3.5 -18.666 -4.5 -27.999s-1.5 -18.333 -1.5 -27c0 -44 13.167 -77.5 39.5 -100.5
s65.166 -34.5 116.499 -34.5c61.333 0 110.5 16.333 147.5 49s55.5 76.334 55.5 131.001c0 38.667 -14.667 68.167 -44 88.5s-71.333 30.5 -126 30.5h-35l20 84h41c62.667 0 110.834 12.167 144.501 36.5s50.5 59.166 50.5 104.499c0 36.667 -13.167 65.667 -39.5 87
s-61.833 32 -106.5 32c-51.333 0 -92.166 -13.167 -122.499 -39.5s-50.166 -66.5 -59.499 -120.5h-117c12.667 80 45.167 141.333 97.5 184s120.833 64 205.5 64c80 0 143.5 -18.333 190.5 -55s70.5 -86 70.5 -148c0 -44.667 -12.5 -83.167 -37.5 -115.5
s-61.833 -57.833 -110.5 -76.5c32.667 -18.667 56.834 -41 72.501 -67s23.5 -57 23.5 -93c0 -78.667 -29.833 -143 -89.5 -193s-136.834 -75 -231.501 -75c-86.667 0 -153.834 19.167 -201.501 57.5s-71.5 92.166 -71.5 161.499c0 16 0.333008 28.5 1 37.5
s1.66699 17.5 3 25.5z" />
    <glyph glyph-name="questiondown" unicode="&#xbf;" horiz-adv-x="1075" 
d="M684 1071c-5.33301 -76 -23.666 -142.667 -54.999 -200s-78 -108.666 -140 -153.999c-24 -18 -62.333 -44.167 -115 -78.5s-87.334 -60.166 -104.001 -77.499c-31.333 -34 -54.5 -68.5 -69.5 -103.5s-22.5 -72.833 -22.5 -113.5c0 -68.667 21.333 -122.334 64 -161.001
s102 -58 178 -58c81.333 0 147 26.167 197 78.5s80.667 127.166 92 224.499h178c-9.33301 -145.333 -56 -259.166 -140 -341.499s-195 -123.5 -333 -123.5c-131.333 0 -235.833 34 -313.5 102s-116.5 159 -116.5 273c0 80 19 151.667 57 215s99.333 124.666 184 183.999
c20.667 14.667 50 34 88 58c74.667 46.667 122.667 84 144 112c14 18 25.5 40.167 34.5 66.5s16.5 58.833 22.5 97.5h170zM764 1446l-45 -213h-207l43 213h209z" />
    <glyph glyph-name="Agrave" unicode="&#xc0;" horiz-adv-x="1237" 
d="M373 588h469l-107 682zM-150 0l793 1473h246l246 -1473h-199l-66 416h-587l-220 -416h-213zM928 1620h-109l-301 349h201z" />
    <glyph glyph-name="Aacute" unicode="&#xc1;" horiz-adv-x="1237" 
d="M373 588h469l-107 682zM-150 0l793 1473h246l246 -1473h-199l-66 416h-587l-220 -416h-213zM766 1620h-121l232 349h190z" />
    <glyph glyph-name="Acircumflex" unicode="&#xc2;" horiz-adv-x="1237" 
d="M373 588h469l-107 682zM-150 0l793 1473h246l246 -1473h-199l-66 416h-587l-220 -416h-213zM1071 1620h-108l-133 220l-226 -220h-121l267 349h184z" />
    <glyph glyph-name="Atilde" unicode="&#xc3;" horiz-adv-x="1237" 
d="M373 588h469l-107 682zM-150 0l793 1473h246l246 -1473h-199l-66 416h-587l-220 -416h-213zM1114 1903c-18.667 -69.333 -44.5 -120.164 -77.5 -152.497s-76.167 -48.5 -129.5 -48.5c-11.333 0 -21.5 0.666992 -30.5 2s-17.833 3.66602 -26.5 6.99902l-88 28
c-9.33301 2.66699 -18.5 4.66699 -27.5 6s-18.167 2 -27.5 2c-22.667 0 -41.167 -6.66699 -55.5 -20s-24.5 -33 -30.5 -59h-103c16.667 70 41.667 122.167 75 156.5s75.333 51.5 126 51.5c10.667 0 22 -0.833008 34 -2.5s24 -4.16699 36 -7.5l88 -26
c8 -2.66699 16 -4.83398 24 -6.50098s15.667 -2.5 23 -2.5c22.667 0 41 5.66699 55 17s25 29.666 33 54.999h102z" />
    <glyph glyph-name="Adieresis" unicode="&#xc4;" horiz-adv-x="1237" 
d="M373 588h469l-107 682zM-150 0l793 1473h246l246 -1473h-199l-66 416h-587l-220 -416h-213zM866 1680l45 209h183l-43 -209h-185zM537 1680l45 209h182l-43 -209h-184z" />
    <glyph glyph-name="Aring" unicode="&#xc5;" horiz-adv-x="1237" 
d="M668 1747c0 -32.667 11 -60 33 -82s49 -33 81 -33c32.667 0 60 11.167 82 33.5s33 49.5 33 81.5s-11.167 59.167 -33.5 81.5s-49.5 33.5 -81.5 33.5s-59 -11 -81 -33s-33 -49.333 -33 -82zM557 1747c0 63.333 22 116.666 66 159.999s97.667 65 161 65
s116.5 -21.5 159.5 -64.5s64.5 -96.5 64.5 -160.5c0 -63.333 -21.5 -116.666 -64.5 -159.999s-96.167 -65 -159.5 -65c-62.667 0 -116.167 22 -160.5 66s-66.5 97 -66.5 159zM373 588h469l-107 682zM-150 0l793 1473h246l246 -1473h-199l-66 416h-587l-220 -416h-213z" />
    <glyph glyph-name="AE" unicode="&#xc6;" horiz-adv-x="1915" 
d="M383 588h459l153 710h-188zM-182 0l895 1473h1204l-37 -181h-696l-94 -446h673l-34 -174h-676l-107 -492h750l-39 -180h-940l90 416h-526l-248 -416h-215z" />
    <glyph glyph-name="Ccedilla" unicode="&#xc7;" horiz-adv-x="1448" 
d="M1139 524l188.002 0.00292969c-41.333 -184 -120.833 -324.167 -238.5 -420.5s-268.167 -144.5 -451.5 -144.5h-16l-23 -61h23c71.333 0 125.333 -14.667 162 -44s55 -72.666 55 -129.999c0 -60 -22.833 -107.833 -68.5 -143.5s-107.5 -53.5 -185.5 -53.5
c-33.333 0 -72.5 4.16699 -117.5 12.5s-98.167 21.166 -159.5 38.499l37 98c55.333 -16.667 99.666 -28.334 132.999 -35.001s62.666 -10 87.999 -10c42 0 73.333 8.16699 94 24.5s31 41.166 31 74.499c0 29.333 -12.5 50 -37.5 62s-70.5 18 -136.5 18h-24l49 155
c-142.667 26 -253.834 93.667 -333.501 203s-119.5 249.333 -119.5 420c0 114.667 17 226 51 334s82.667 204.667 146 290c72 97.333 155.667 170.166 251 218.499s202 72.5 320 72.5c164.667 0 294.667 -45.667 390 -137s147 -219.666 155 -384.999h-197
c-4 108.667 -38.333 193.167 -103 253.5s-153 90.5 -265 90.5c-84 0 -159.667 -19.167 -227 -57.5s-125.666 -95.5 -174.999 -171.5c-48 -75.333 -84.5 -156.333 -109.5 -243s-37.5 -175 -37.5 -265c0 -148.667 33.667 -263 101 -343s163.333 -120 288 -120
c108.667 0 201.5 33.167 278.5 99.5s138.5 166.166 184.5 299.499z" />
    <glyph glyph-name="Egrave" unicode="&#xc8;" horiz-adv-x="1204" 
d="M4 0l311 1473h891l-39 -181h-696l-94 -446h674l-37 -174h-674l-107 -492h752l-39 -180h-942zM934 1620h-109l-301 349h201z" />
    <glyph glyph-name="Eacute" unicode="&#xc9;" horiz-adv-x="1204" 
d="M4 0l311 1473h891l-39 -181h-696l-94 -446h674l-37 -174h-674l-107 -492h752l-39 -180h-942zM772 1620h-121l232 349h190z" />
    <glyph glyph-name="Ecircumflex" unicode="&#xca;" horiz-adv-x="1204" 
d="M4 0l311 1473h891l-39 -181h-696l-94 -446h674l-37 -174h-674l-107 -492h752l-39 -180h-942zM1077 1620h-108l-133 220l-226 -220h-121l267 349h184z" />
    <glyph glyph-name="Edieresis" unicode="&#xcb;" horiz-adv-x="1204" 
d="M4 0l311 1473h891l-39 -181h-696l-94 -446h674l-37 -174h-674l-107 -492h752l-39 -180h-942zM872 1680l45 209h183l-43 -209h-185zM543 1680l45 209h182l-43 -209h-184z" />
    <glyph glyph-name="Igrave" unicode="&#xcc;" horiz-adv-x="532" 
d="M8 0l311 1473h205l-313 -1473h-203zM598 1620h-109l-301 349h201z" />
    <glyph glyph-name="Iacute" unicode="&#xcd;" horiz-adv-x="532" 
d="M8 0l311 1473h205l-313 -1473h-203zM436 1620h-121l232 349h190z" />
    <glyph glyph-name="Icircumflex" unicode="&#xce;" horiz-adv-x="532" 
d="M8 0l311 1473h205l-313 -1473h-203zM741 1620h-108l-133 220l-226 -220h-121l267 349h184z" />
    <glyph glyph-name="Idieresis" unicode="&#xcf;" horiz-adv-x="532" 
d="M8 0l311 1473h205l-313 -1473h-203zM536 1680l45 209h183l-43 -209h-185zM207 1680l45 209h182l-43 -209h-184z" />
    <glyph glyph-name="Eth" unicode="&#xd0;" horiz-adv-x="1470" 
d="M362 719l-118 -553h282c130.667 0 229.5 12.833 296.5 38.5s123.833 69.5 170.5 131.5c54.667 71.333 96 152 124 242s42 187.333 42 292c0 156 -33.5 267.5 -100.5 334.5s-179.5 100.5 -337.5 100.5h-234l-96 -459h385l-26 -127h-388zM12 0l155.999 719h-168l27 127h170
l133 627h420c216 0 373.333 -48.833 472 -146.5s148 -252.5 148 -464.5c0 -124.667 -16.333 -240.167 -49 -346.5s-79.667 -197.5 -141 -273.5c-27.333 -34 -58 -65.167 -92 -93.5s-71.667 -53.833 -113 -76.5c-47.333 -26 -100.166 -44.5 -158.499 -55.5
s-142.833 -16.5 -253.5 -16.5h-551z" />
    <glyph glyph-name="Ntilde" unicode="&#xd1;" horiz-adv-x="1432" 
d="M4 0l311 1473h193l481 -1162l246 1162h192l-311 -1473h-188l-486 1153l-245 -1153h-193zM1233 1903c-18.667 -69.333 -44.5 -120.164 -77.5 -152.497s-76.167 -48.5 -129.5 -48.5c-11.333 0 -21.5 0.666992 -30.5 2s-17.833 3.66602 -26.5 6.99902l-88 28
c-9.33301 2.66699 -18.5 4.66699 -27.5 6s-18.167 2 -27.5 2c-22.667 0 -41.167 -6.66699 -55.5 -20s-24.5 -33 -30.5 -59h-103c16.667 70 41.667 122.167 75 156.5s75.333 51.5 126 51.5c10.667 0 22 -0.833008 34 -2.5s24 -4.16699 36 -7.5l88 -26
c8 -2.66699 16 -4.83398 24 -6.50098s15.667 -2.5 23 -2.5c22.667 0 41 5.66699 55 17s25 29.666 33 54.999h102z" />
    <glyph glyph-name="Ograve" unicode="&#xd2;" horiz-adv-x="1571" 
d="M866 1339c-77.333 0 -150.333 -16.835 -219 -50.502s-128.667 -82.167 -180 -145.5c-58 -72 -103.5 -157.5 -136.5 -256.5s-49.5 -198.5 -49.5 -298.5c0 -142.667 36.833 -254.5 110.5 -335.5s175.167 -121.5 304.5 -121.5c74 0 144.167 15.333 210.5 46
s124.5 74.667 174.5 132c64 74.667 113.5 162.834 148.5 264.501s52.5 208.834 52.5 321.501c0 136 -37.5 244 -112.5 324s-176.167 120 -303.5 120zM80 583.998c0 122.667 21.498 243.168 64.498 361.501s103.5 223.166 181.5 314.499
c69.333 81.333 151.833 143.5 247.5 186.5s199.5 64.5 311.5 64.5c186.667 0 333.334 -56.167 440.001 -168.5s160 -266.833 160 -463.5c0 -124 -22 -245 -66 -363s-106 -223 -186 -315c-67.333 -78 -148.666 -137.833 -243.999 -179.5s-198.333 -62.5 -309 -62.5
c-186 0 -332.5 55.833 -439.5 167.5s-160.5 264.167 -160.5 457.5zM1081 1620h-109l-301 349h201z" />
    <glyph glyph-name="Oacute" unicode="&#xd3;" horiz-adv-x="1571" 
d="M866 1339c-77.333 0 -150.333 -16.835 -219 -50.502s-128.667 -82.167 -180 -145.5c-58 -72 -103.5 -157.5 -136.5 -256.5s-49.5 -198.5 -49.5 -298.5c0 -142.667 36.833 -254.5 110.5 -335.5s175.167 -121.5 304.5 -121.5c74 0 144.167 15.333 210.5 46
s124.5 74.667 174.5 132c64 74.667 113.5 162.834 148.5 264.501s52.5 208.834 52.5 321.501c0 136 -37.5 244 -112.5 324s-176.167 120 -303.5 120zM80 583.998c0 122.667 21.498 243.168 64.498 361.501s103.5 223.166 181.5 314.499
c69.333 81.333 151.833 143.5 247.5 186.5s199.5 64.5 311.5 64.5c186.667 0 333.334 -56.167 440.001 -168.5s160 -266.833 160 -463.5c0 -124 -22 -245 -66 -363s-106 -223 -186 -315c-67.333 -78 -148.666 -137.833 -243.999 -179.5s-198.333 -62.5 -309 -62.5
c-186 0 -332.5 55.833 -439.5 167.5s-160.5 264.167 -160.5 457.5zM918.998 1620h-121l232 349h190z" />
    <glyph glyph-name="Ocircumflex" unicode="&#xd4;" horiz-adv-x="1571" 
d="M866 1339c-77.333 0 -150.333 -16.835 -219 -50.502s-128.667 -82.167 -180 -145.5c-58 -72 -103.5 -157.5 -136.5 -256.5s-49.5 -198.5 -49.5 -298.5c0 -142.667 36.833 -254.5 110.5 -335.5s175.167 -121.5 304.5 -121.5c74 0 144.167 15.333 210.5 46
s124.5 74.667 174.5 132c64 74.667 113.5 162.834 148.5 264.501s52.5 208.834 52.5 321.501c0 136 -37.5 244 -112.5 324s-176.167 120 -303.5 120zM80 583.998c0 122.667 21.498 243.168 64.498 361.501s103.5 223.166 181.5 314.499
c69.333 81.333 151.833 143.5 247.5 186.5s199.5 64.5 311.5 64.5c186.667 0 333.334 -56.167 440.001 -168.5s160 -266.833 160 -463.5c0 -124 -22 -245 -66 -363s-106 -223 -186 -315c-67.333 -78 -148.666 -137.833 -243.999 -179.5s-198.333 -62.5 -309 -62.5
c-186 0 -332.5 55.833 -439.5 167.5s-160.5 264.167 -160.5 457.5zM1224 1620h-108l-133 220l-226 -220h-121l267 349h184z" />
    <glyph glyph-name="Otilde" unicode="&#xd5;" horiz-adv-x="1571" 
d="M866 1339c-77.333 0 -150.333 -16.835 -219 -50.502s-128.667 -82.167 -180 -145.5c-58 -72 -103.5 -157.5 -136.5 -256.5s-49.5 -198.5 -49.5 -298.5c0 -142.667 36.833 -254.5 110.5 -335.5s175.167 -121.5 304.5 -121.5c74 0 144.167 15.333 210.5 46
s124.5 74.667 174.5 132c64 74.667 113.5 162.834 148.5 264.501s52.5 208.834 52.5 321.501c0 136 -37.5 244 -112.5 324s-176.167 120 -303.5 120zM80 583.998c0 122.667 21.498 243.168 64.498 361.501s103.5 223.166 181.5 314.499
c69.333 81.333 151.833 143.5 247.5 186.5s199.5 64.5 311.5 64.5c186.667 0 333.334 -56.167 440.001 -168.5s160 -266.833 160 -463.5c0 -124 -22 -245 -66 -363s-106 -223 -186 -315c-67.333 -78 -148.666 -137.833 -243.999 -179.5s-198.333 -62.5 -309 -62.5
c-186 0 -332.5 55.833 -439.5 167.5s-160.5 264.167 -160.5 457.5zM1267 1903c-18.667 -69.333 -44.5 -120.164 -77.5 -152.497s-76.167 -48.5 -129.5 -48.5c-11.333 0 -21.5 0.666992 -30.5 2s-17.833 3.66602 -26.5 6.99902l-88 28
c-9.33301 2.66699 -18.5 4.66699 -27.5 6s-18.167 2 -27.5 2c-22.667 0 -41.167 -6.66699 -55.5 -20s-24.5 -33 -30.5 -59h-103c16.667 70 41.667 122.167 75 156.5s75.333 51.5 126 51.5c10.667 0 22 -0.833008 34 -2.5s24 -4.16699 36 -7.5l88 -26
c8 -2.66699 16 -4.83398 24 -6.50098s15.667 -2.5 23 -2.5c22.667 0 41 5.66699 55 17s25 29.666 33 54.999h102z" />
    <glyph glyph-name="Odieresis" unicode="&#xd6;" horiz-adv-x="1571" 
d="M866 1339c-77.333 0 -150.333 -16.835 -219 -50.502s-128.667 -82.167 -180 -145.5c-58 -72 -103.5 -157.5 -136.5 -256.5s-49.5 -198.5 -49.5 -298.5c0 -142.667 36.833 -254.5 110.5 -335.5s175.167 -121.5 304.5 -121.5c74 0 144.167 15.333 210.5 46
s124.5 74.667 174.5 132c64 74.667 113.5 162.834 148.5 264.501s52.5 208.834 52.5 321.501c0 136 -37.5 244 -112.5 324s-176.167 120 -303.5 120zM80 583.998c0 122.667 21.498 243.168 64.498 361.501s103.5 223.166 181.5 314.499
c69.333 81.333 151.833 143.5 247.5 186.5s199.5 64.5 311.5 64.5c186.667 0 333.334 -56.167 440.001 -168.5s160 -266.833 160 -463.5c0 -124 -22 -245 -66 -363s-106 -223 -186 -315c-67.333 -78 -148.666 -137.833 -243.999 -179.5s-198.333 -62.5 -309 -62.5
c-186 0 -332.5 55.833 -439.5 167.5s-160.5 264.167 -160.5 457.5zM1019 1680l45 209h183l-43 -209h-185zM689.998 1680l45 209h182l-43 -209h-184z" />
    <glyph glyph-name="multiply" unicode="&#xd7;" horiz-adv-x="1706" 
d="M860 709l469 469l98 -99l-469 -469l469 -469l-98 -96l-469 467l-469 -467l-98 96l469 469l-469 469l98 99z" />
    <glyph glyph-name="Oslash" unicode="&#xd8;" horiz-adv-x="1571" 
d="M389 240c36 -38 78.667 -65.999 128 -83.999s108.333 -27 177 -27c77.333 0 149.333 15 216 45s125.667 73.667 177 131c60.667 69.333 108.667 154.666 144 255.999s53 205 53 311c0 50 -5.5 97.833 -16.5 143.5s-27.833 90.167 -50.5 133.5zM1163 1219
c-40 38 -85.165 66.166 -135.498 84.499s-107.5 27.5 -171.5 27.5c-76.667 0 -147.834 -16.167 -213.501 -48.5s-124.167 -80.166 -175.5 -143.499c-59.333 -74 -105.5 -162 -138.5 -264s-49.5 -208 -49.5 -318c0 -44.667 4.66699 -87 14 -127s23.666 -79 42.999 -117z
M137.002 -39l-68.999 59.001l133 148c-42.667 58.667 -74.167 121 -94.5 187s-30.5 138.667 -30.5 218c0 126 21.667 249.167 65 369.5s103.666 225.166 180.999 314.499c69.333 82.667 152 145.667 248 189s199.667 65 311 65c83.333 0 158.5 -11.833 225.5 -35.5
s128.833 -60.167 185.5 -109.5l127 139l70 -61l-131 -146c42.667 -58 74.167 -121.833 94.5 -191.5s30.5 -148.5 30.5 -236.5c0 -128 -21.167 -249.5 -63.5 -364.5s-103.833 -217.167 -184.5 -306.5c-70 -78 -152.833 -137.167 -248.5 -177.5s-201.167 -60.5 -316.5 -60.5
c-88 0 -165 11.167 -231 33.5s-125 56.833 -177 103.5z" />
    <glyph glyph-name="Ugrave" unicode="&#xd9;" horiz-adv-x="1411" 
d="M313 1473h195l-203 -961c-5.33301 -24 -9.33301 -46.833 -12 -68.5s-4 -41.167 -4 -58.5c0 -76.667 26.833 -136.167 80.5 -178.5s129.167 -63.5 226.5 -63.5c116.667 0 207.5 27.5 272.5 82.5s110.167 142.167 135.5 261.5l208 986h195l-211 -996
c-22 -101.333 -47.333 -179.833 -76 -235.5s-66.667 -103.5 -114 -143.5c-54 -45.333 -116.667 -79.833 -188 -103.5s-148 -35.5 -230 -35.5c-150.667 0 -271 37.5 -361 112.5s-135 174.833 -135 299.5c0 18.667 2.33301 44 7 76s12 72.667 22 122zM1026 1620h-109l-301 349
h201z" />
    <glyph glyph-name="Uacute" unicode="&#xda;" horiz-adv-x="1411" 
d="M313 1473h195l-203 -961c-5.33301 -24 -9.33301 -46.833 -12 -68.5s-4 -41.167 -4 -58.5c0 -76.667 26.833 -136.167 80.5 -178.5s129.167 -63.5 226.5 -63.5c116.667 0 207.5 27.5 272.5 82.5s110.167 142.167 135.5 261.5l208 986h195l-211 -996
c-22 -101.333 -47.333 -179.833 -76 -235.5s-66.667 -103.5 -114 -143.5c-54 -45.333 -116.667 -79.833 -188 -103.5s-148 -35.5 -230 -35.5c-150.667 0 -271 37.5 -361 112.5s-135 174.833 -135 299.5c0 18.667 2.33301 44 7 76s12 72.667 22 122zM864 1620h-121l232 349
h190z" />
    <glyph glyph-name="Ucircumflex" unicode="&#xdb;" horiz-adv-x="1411" 
d="M313 1473h195l-203 -961c-5.33301 -24 -9.33301 -46.833 -12 -68.5s-4 -41.167 -4 -58.5c0 -76.667 26.833 -136.167 80.5 -178.5s129.167 -63.5 226.5 -63.5c116.667 0 207.5 27.5 272.5 82.5s110.167 142.167 135.5 261.5l208 986h195l-211 -996
c-22 -101.333 -47.333 -179.833 -76 -235.5s-66.667 -103.5 -114 -143.5c-54 -45.333 -116.667 -79.833 -188 -103.5s-148 -35.5 -230 -35.5c-150.667 0 -271 37.5 -361 112.5s-135 174.833 -135 299.5c0 18.667 2.33301 44 7 76s12 72.667 22 122zM1169 1620h-108l-133 220
l-226 -220h-121l267 349h184z" />
    <glyph glyph-name="Udieresis" unicode="&#xdc;" horiz-adv-x="1411" 
d="M313 1473h195l-203 -961c-5.33301 -24 -9.33301 -46.833 -12 -68.5s-4 -41.167 -4 -58.5c0 -76.667 26.833 -136.167 80.5 -178.5s129.167 -63.5 226.5 -63.5c116.667 0 207.5 27.5 272.5 82.5s110.167 142.167 135.5 261.5l208 986h195l-211 -996
c-22 -101.333 -47.333 -179.833 -76 -235.5s-66.667 -103.5 -114 -143.5c-54 -45.333 -116.667 -79.833 -188 -103.5s-148 -35.5 -230 -35.5c-150.667 0 -271 37.5 -361 112.5s-135 174.833 -135 299.5c0 18.667 2.33301 44 7 76s12 72.667 22 122zM964 1680l45 209h183
l-43 -209h-185zM635 1680l45 209h182l-43 -209h-184z" />
    <glyph glyph-name="Yacute" unicode="&#xdd;" horiz-adv-x="1055" 
d="M276 0l125 610l-331 863h204l254 -682l455 682h223l-614 -893l-119 -580h-197zM696 1620h-121l232 349h190z" />
    <glyph glyph-name="Thorn" unicode="&#xde;" horiz-adv-x="1233" 
d="M319 563h283.001c130.667 0 224.5 21.667 281.5 65s85.5 114 85.5 212c0 64.667 -19.333 111.167 -58 139.5s-103.334 42.5 -194.001 42.5h-299zM6.00098 0l313.001 1473h193l-59 -285h297c135.333 0 237.666 -30.167 306.999 -90.5s104 -149.166 104 -266.499
c0 -144.667 -47.833 -253.5 -143.5 -326.5s-238.167 -109.5 -427.5 -109.5h-305l-84 -395h-195z" />
    <glyph glyph-name="germandbls" unicode="&#xdf;" horiz-adv-x="1143" 
d="M-10 0l243.002 1126c24.667 115.333 76 204 154 266s177 93 297 93c123.333 0 219.666 -31.167 288.999 -93.5s104 -148.5 104 -258.5c0 -78 -20 -146.167 -60 -204.5s-97 -102.166 -171 -131.499c53.333 -34 93.666 -75.667 120.999 -125s41 -105.333 41 -168
c0 -152.667 -51.667 -277.834 -155 -375.501s-236 -146.5 -398 -146.5c-22 0 -44.833 1.5 -68.5 4.5s-48.167 7.5 -73.5 13.5l37 162c24.667 -6 46.667 -10.333 66 -13s37 -4 53 -4c98.667 0 180.334 32 245.001 96s97 144 97 240c0 86 -23.167 149.833 -69.5 191.5
s-117.5 62.5 -213.5 62.5c-15.333 0 -27.5 -0.166992 -36.5 -0.5s-17.167 -0.833008 -24.5 -1.5l35 143c7.33301 -0.666992 14.833 -1.16699 22.5 -1.5s19.167 -0.5 34.5 -0.5c109.333 0 191.666 21.833 246.999 65.5s83 108.834 83 195.501c0 58.667 -19.333 105 -58 139
s-91 51 -157 51c-70 0 -127.333 -19 -172 -57s-74.667 -93.333 -90 -166l-240 -1102h-182z" />
    <glyph glyph-name="agrave" unicode="&#xe0;" horiz-adv-x="1081" 
d="M711 539c-54 -20 -125.501 -33.332 -214.501 -39.999s-147.167 -13.334 -174.5 -20.001c-52 -12 -90.667 -33.167 -116 -63.5s-38 -70.5 -38 -120.5c0 -52.667 16 -94.5 48 -125.5s75.333 -46.5 130 -46.5c103.333 0 185.833 35.333 247.5 106s100.834 174 117.501 310z
M654.999 121.001c-47.333 -51.333 -99.1689 -89.8369 -155.502 -115.504s-117.833 -38.5 -184.5 -38.5c-104 0 -185.167 29 -243.5 87s-87.5 138.333 -87.5 241c0 114.667 36.333 199.334 109 254.001s195.334 87.334 368.001 98.001c3.33301 0 8 0.333008 14 1
c194 12.667 291 66.334 291 161.001c0 46.667 -16.167 80.834 -48.5 102.501s-83.833 32.5 -154.5 32.5c-99.333 0 -168.166 -13 -206.499 -39s-65.833 -74.333 -82.5 -145h-178c18.667 112.667 66.834 197.167 144.501 253.5s185.167 84.5 322.5 84.5
c124.667 0 220.667 -21.833 288 -65.5s101 -105.167 101 -184.5c0 -8.66699 -1.33301 -21.667 -4 -39s-8 -46.666 -16 -87.999l-98 -454c-4 -15.333 -6.83301 -30.333 -8.5 -45s-2.5 -29.334 -2.5 -44.001c0 -19.333 6.16699 -34 18.5 -44s30.833 -15 55.5 -15
c7.33301 0 14.666 0.5 21.999 1.5s15 2.5 23 4.5l-27 -125c-16 -4 -33 -7 -51 -9s-39 -3 -63 -3c-48 0 -84.333 11.167 -109 33.5s-37 55.5 -37 99.5zM771.996 1214h-109l-301 349h201z" />
    <glyph glyph-name="aacute" unicode="&#xe1;" horiz-adv-x="1081" 
d="M711 539c-54 -20 -125.501 -33.332 -214.501 -39.999s-147.167 -13.334 -174.5 -20.001c-52 -12 -90.667 -33.167 -116 -63.5s-38 -70.5 -38 -120.5c0 -52.667 16 -94.5 48 -125.5s75.333 -46.5 130 -46.5c103.333 0 185.833 35.333 247.5 106s100.834 174 117.501 310z
M654.999 121.001c-47.333 -51.333 -99.1689 -89.8369 -155.502 -115.504s-117.833 -38.5 -184.5 -38.5c-104 0 -185.167 29 -243.5 87s-87.5 138.333 -87.5 241c0 114.667 36.333 199.334 109 254.001s195.334 87.334 368.001 98.001c3.33301 0 8 0.333008 14 1
c194 12.667 291 66.334 291 161.001c0 46.667 -16.167 80.834 -48.5 102.501s-83.833 32.5 -154.5 32.5c-99.333 0 -168.166 -13 -206.499 -39s-65.833 -74.333 -82.5 -145h-178c18.667 112.667 66.834 197.167 144.501 253.5s185.167 84.5 322.5 84.5
c124.667 0 220.667 -21.833 288 -65.5s101 -105.167 101 -184.5c0 -8.66699 -1.33301 -21.667 -4 -39s-8 -46.666 -16 -87.999l-98 -454c-4 -15.333 -6.83301 -30.333 -8.5 -45s-2.5 -29.334 -2.5 -44.001c0 -19.333 6.16699 -34 18.5 -44s30.833 -15 55.5 -15
c7.33301 0 14.666 0.5 21.999 1.5s15 2.5 23 4.5l-27 -125c-16 -4 -33 -7 -51 -9s-39 -3 -63 -3c-48 0 -84.333 11.167 -109 33.5s-37 55.5 -37 99.5zM609.996 1214h-121l232 349h190z" />
    <glyph glyph-name="acircumflex" unicode="&#xe2;" horiz-adv-x="1081" 
d="M711 539c-54 -20 -125.501 -33.332 -214.501 -39.999s-147.167 -13.334 -174.5 -20.001c-52 -12 -90.667 -33.167 -116 -63.5s-38 -70.5 -38 -120.5c0 -52.667 16 -94.5 48 -125.5s75.333 -46.5 130 -46.5c103.333 0 185.833 35.333 247.5 106s100.834 174 117.501 310z
M654.999 121.001c-47.333 -51.333 -99.1689 -89.8369 -155.502 -115.504s-117.833 -38.5 -184.5 -38.5c-104 0 -185.167 29 -243.5 87s-87.5 138.333 -87.5 241c0 114.667 36.333 199.334 109 254.001s195.334 87.334 368.001 98.001c3.33301 0 8 0.333008 14 1
c194 12.667 291 66.334 291 161.001c0 46.667 -16.167 80.834 -48.5 102.501s-83.833 32.5 -154.5 32.5c-99.333 0 -168.166 -13 -206.499 -39s-65.833 -74.333 -82.5 -145h-178c18.667 112.667 66.834 197.167 144.501 253.5s185.167 84.5 322.5 84.5
c124.667 0 220.667 -21.833 288 -65.5s101 -105.167 101 -184.5c0 -8.66699 -1.33301 -21.667 -4 -39s-8 -46.666 -16 -87.999l-98 -454c-4 -15.333 -6.83301 -30.333 -8.5 -45s-2.5 -29.334 -2.5 -44.001c0 -19.333 6.16699 -34 18.5 -44s30.833 -15 55.5 -15
c7.33301 0 14.666 0.5 21.999 1.5s15 2.5 23 4.5l-27 -125c-16 -4 -33 -7 -51 -9s-39 -3 -63 -3c-48 0 -84.333 11.167 -109 33.5s-37 55.5 -37 99.5zM914.996 1214h-108l-133 220l-226 -220h-121l267 349h184z" />
    <glyph glyph-name="atilde" unicode="&#xe3;" horiz-adv-x="1081" 
d="M711 539c-54 -20 -125.501 -33.332 -214.501 -39.999s-147.167 -13.334 -174.5 -20.001c-52 -12 -90.667 -33.167 -116 -63.5s-38 -70.5 -38 -120.5c0 -52.667 16 -94.5 48 -125.5s75.333 -46.5 130 -46.5c103.333 0 185.833 35.333 247.5 106s100.834 174 117.501 310z
M654.999 121.001c-47.333 -51.333 -99.1689 -89.8369 -155.502 -115.504s-117.833 -38.5 -184.5 -38.5c-104 0 -185.167 29 -243.5 87s-87.5 138.333 -87.5 241c0 114.667 36.333 199.334 109 254.001s195.334 87.334 368.001 98.001c3.33301 0 8 0.333008 14 1
c194 12.667 291 66.334 291 161.001c0 46.667 -16.167 80.834 -48.5 102.501s-83.833 32.5 -154.5 32.5c-99.333 0 -168.166 -13 -206.499 -39s-65.833 -74.333 -82.5 -145h-178c18.667 112.667 66.834 197.167 144.501 253.5s185.167 84.5 322.5 84.5
c124.667 0 220.667 -21.833 288 -65.5s101 -105.167 101 -184.5c0 -8.66699 -1.33301 -21.667 -4 -39s-8 -46.666 -16 -87.999l-98 -454c-4 -15.333 -6.83301 -30.333 -8.5 -45s-2.5 -29.334 -2.5 -44.001c0 -19.333 6.16699 -34 18.5 -44s30.833 -15 55.5 -15
c7.33301 0 14.666 0.5 21.999 1.5s15 2.5 23 4.5l-27 -125c-16 -4 -33 -7 -51 -9s-39 -3 -63 -3c-48 0 -84.333 11.167 -109 33.5s-37 55.5 -37 99.5zM957.996 1497c-18.667 -69.333 -44.5 -120.164 -77.5 -152.497s-76.167 -48.5 -129.5 -48.5
c-11.333 0 -21.5 0.666992 -30.5 2s-17.833 3.66602 -26.5 6.99902l-88 28c-9.33301 2.66699 -18.5 4.66699 -27.5 6s-18.167 2 -27.5 2c-22.667 0 -41.167 -6.66699 -55.5 -20s-24.5 -33 -30.5 -59h-103c16.667 70 41.667 122.167 75 156.5s75.333 51.5 126 51.5
c10.667 0 22 -0.833008 34 -2.5s24 -4.16699 36 -7.5l88 -26c8 -2.66699 16 -4.83398 24 -6.50098s15.667 -2.5 23 -2.5c22.667 0 41 5.66699 55 17s25 29.666 33 54.999h102z" />
    <glyph glyph-name="adieresis" unicode="&#xe4;" horiz-adv-x="1081" 
d="M711 539c-54 -20 -125.501 -33.332 -214.501 -39.999s-147.167 -13.334 -174.5 -20.001c-52 -12 -90.667 -33.167 -116 -63.5s-38 -70.5 -38 -120.5c0 -52.667 16 -94.5 48 -125.5s75.333 -46.5 130 -46.5c103.333 0 185.833 35.333 247.5 106s100.834 174 117.501 310z
M654.999 121.001c-47.333 -51.333 -99.1689 -89.8369 -155.502 -115.504s-117.833 -38.5 -184.5 -38.5c-104 0 -185.167 29 -243.5 87s-87.5 138.333 -87.5 241c0 114.667 36.333 199.334 109 254.001s195.334 87.334 368.001 98.001c3.33301 0 8 0.333008 14 1
c194 12.667 291 66.334 291 161.001c0 46.667 -16.167 80.834 -48.5 102.501s-83.833 32.5 -154.5 32.5c-99.333 0 -168.166 -13 -206.499 -39s-65.833 -74.333 -82.5 -145h-178c18.667 112.667 66.834 197.167 144.501 253.5s185.167 84.5 322.5 84.5
c124.667 0 220.667 -21.833 288 -65.5s101 -105.167 101 -184.5c0 -8.66699 -1.33301 -21.667 -4 -39s-8 -46.666 -16 -87.999l-98 -454c-4 -15.333 -6.83301 -30.333 -8.5 -45s-2.5 -29.334 -2.5 -44.001c0 -19.333 6.16699 -34 18.5 -44s30.833 -15 55.5 -15
c7.33301 0 14.666 0.5 21.999 1.5s15 2.5 23 4.5l-27 -125c-16 -4 -33 -7 -51 -9s-39 -3 -63 -3c-48 0 -84.333 11.167 -109 33.5s-37 55.5 -37 99.5zM709.996 1274l45 209h183l-43 -209h-185zM380.996 1274l45 209h182l-43 -209h-184z" />
    <glyph glyph-name="aring" unicode="&#xe5;" horiz-adv-x="1081" 
d="M514 1370c0 -32 11.166 -59.167 33.499 -81.5s49.5 -33.5 81.5 -33.5s59 11.167 81 33.5s33 49.5 33 81.5s-11.167 59.167 -33.5 81.5s-49.166 33.5 -80.499 33.5c-32 0 -59.167 -11 -81.5 -33s-33.5 -49.333 -33.5 -82zM402.999 1370
c0 63.333 22.001 116.666 66.001 159.999s98 65 162 65c63.333 0 116.333 -21.5 159 -64.5s64 -96.5 64 -160.5c0 -63.333 -21.5 -116.666 -64.5 -159.999s-95.833 -65 -158.5 -65s-116.334 22 -161.001 66s-67 97 -67 159zM655 121
c-47.333 -51.333 -99.1689 -89.8369 -155.502 -115.504s-117.833 -38.5 -184.5 -38.5c-104 0 -185.167 29 -243.5 87s-87.5 138.333 -87.5 241c0 114.667 36.333 199.334 109 254.001s195.334 87.334 368.001 98.001c3.33301 0 8 0.333008 14 1
c194 12.667 291 66.334 291 161.001c0 46.667 -16.167 80.834 -48.5 102.501s-83.833 32.5 -154.5 32.5c-99.333 0 -168.166 -13 -206.499 -39s-65.833 -74.333 -82.5 -145h-178c18.667 112.667 66.834 197.167 144.501 253.5s185.167 84.5 322.5 84.5
c124.667 0 220.667 -21.833 288 -65.5s101 -105.167 101 -184.5c0 -8.66699 -1.33301 -21.667 -4 -39s-8 -46.666 -16 -87.999l-98 -454c-4 -15.333 -6.83301 -30.333 -8.5 -45s-2.5 -29.334 -2.5 -44.001c0 -19.333 6.16699 -34 18.5 -44s30.833 -15 55.5 -15
c7.33301 0 14.666 0.5 21.999 1.5s15 2.5 23 4.5l-27 -125c-16 -4 -33 -7 -51 -9s-39 -3 -63 -3c-48 0 -84.333 11.167 -109 33.5s-37 55.5 -37 99.5zM710.997 538.996c-54 -20 -125.501 -33.332 -214.501 -39.999s-147.167 -13.334 -174.5 -20.001
c-52 -12 -90.667 -33.167 -116 -63.5s-38 -70.5 -38 -120.5c0 -52.667 16 -94.5 48 -125.5s75.333 -46.5 130 -46.5c103.333 0 185.833 35.333 247.5 106s100.834 174 117.501 310z" />
    <glyph glyph-name="ae" unicode="&#xe6;" horiz-adv-x="1772" 
d="M909 637h567.999v37c0 90 -19.5 158.167 -58.5 204.5s-96.833 69.5 -173.5 69.5c-84 0 -157.167 -28.833 -219.5 -86.5s-101.166 -132.5 -116.499 -224.5zM724.999 551c-69.333 -28.667 -153.499 -47 -252.499 -55s-158.833 -15.667 -179.5 -23
c-43.333 -15.333 -75 -37.5 -95 -66.5s-30 -66.833 -30 -113.5c0 -52.667 16.667 -94.167 50 -124.5s78.666 -45.5 135.999 -45.5c99.333 0 182.5 38.5 249.5 115.5s107.5 181.167 121.5 312.5zM733 215c-59.333 -83.333 -123.504 -145.5 -192.504 -186.5
s-144.167 -61.5 -225.5 -61.5c-102 0 -182.667 28.833 -242 86.5s-89 136.167 -89 235.5c0 118.667 36 205.167 108 259.5s203 88.5 393 102.5c6 0.666992 14.333 1.33398 25 2.00098c177.333 14 266 68 266 162c0 42.667 -19.667 75.5 -59 98.5s-95.333 34.5 -168 34.5
c-89.333 0 -153.5 -13.333 -192.5 -40s-66.5 -74.667 -82.5 -144h-178c18.667 112 66.334 196.333 143.001 253s181.334 85 314.001 85c86.667 0 159.5 -11.167 218.5 -33.5s106.167 -56.166 141.5 -101.499c52 45.333 107.833 79.166 167.5 101.499
s124.834 33.5 195.501 33.5c114.667 0 207.834 -40.667 279.501 -122s107.5 -188.333 107.5 -321c0 -16.667 -1 -36.834 -3 -60.501s-5.66699 -58.5 -11 -104.5h-772c-0.666992 -1.33301 -1 -3.66602 -1 -6.99902c-2.66699 -28.667 -4 -49 -4 -61
c0 -96.667 22.833 -171.334 68.5 -224.001s109.834 -79 192.501 -79c74 0 137.667 20.333 191 61s88.666 96 105.999 166h180c-26.667 -119.333 -83.5 -213 -170.5 -281s-194.167 -102 -321.5 -102c-100 0 -183.167 21.333 -249.5 64s-111.5 104 -135.5 184z" />
    <glyph glyph-name="ccedilla" unicode="&#xe7;" horiz-adv-x="1139" 
d="M797 397l178.001 0.00292969c-30 -138.667 -89.667 -243.667 -179 -315s-209.333 -109.666 -360 -114.999l-22 -69h22c72.667 0 126.667 -14.5 162 -43.5s53 -72.5 53 -130.5c0 -61.333 -22.167 -109.5 -66.5 -144.5s-106.166 -52.5 -185.499 -52.5
c-32.667 0 -71.667 4.16699 -117 12.5s-99 21.166 -161 38.499l37 98c55.333 -16.667 99.666 -28.334 132.999 -35.001s62.666 -10 87.999 -10c42 0 73.667 8.33301 95 25s32 41.334 32 74.001c0 28.667 -12.833 49.167 -38.5 61.5s-71.5 18.5 -137.5 18.5h-25l53 159
c-104.667 22.667 -184.334 74.5 -239.001 155.5s-82 187.5 -82 319.5c0 187.333 56.5 344.166 169.5 470.499s253.167 189.5 420.5 189.5c126.667 0 225.667 -34.333 297 -103s108 -165.334 110 -290.001h-182c0 73.333 -21.667 131.166 -65 173.499
s-102.333 63.5 -177 63.5c-103.333 0 -193 -50.667 -269 -152s-114 -223.333 -114 -366c0 -94 21.5 -167.333 64.5 -220s102.833 -79 179.5 -79c77.333 0 144.333 23.167 201 69.5s98.334 111.833 125.001 196.5z" />
    <glyph glyph-name="egrave" unicode="&#xe8;" horiz-adv-x="1135" 
d="M250 631h587.001c1.33301 6 2.16602 12.167 2.49902 18.5s0.5 15.833 0.5 28.5c0 84 -21.833 150 -65.5 198s-103.167 72 -178.5 72c-86 0 -159.167 -27.5 -219.5 -82.5s-102.5 -133.167 -126.5 -234.5zM971.001 350c-25.333 -120 -82.502 -214.167 -171.502 -282.5
s-198.5 -102.5 -328.5 -102.5c-140.667 0 -248.5 40.167 -323.5 120.5s-112.5 195.833 -112.5 346.5c0 198 52.333 359.833 157 485.5s239.334 188.5 404.001 188.5c132.667 0 238.167 -39.167 316.5 -117.5s117.5 -183.833 117.5 -316.5
c0 -25.333 -1.33301 -53.166 -4 -83.499s-6.66699 -64.833 -12 -103.5h-793v-5c-2.66699 -29.333 -4 -50 -4 -62c0 -96.667 23.833 -170.334 71.5 -221.001s116.834 -76 207.501 -76c72 0 134.167 20.5 186.5 61.5s87.5 96.833 105.5 167.5h183zM763.999 1214h-109l-301 349
h201z" />
    <glyph glyph-name="eacute" unicode="&#xe9;" horiz-adv-x="1135" 
d="M250 631h587.001c1.33301 6 2.16602 12.167 2.49902 18.5s0.5 15.833 0.5 28.5c0 84 -21.833 150 -65.5 198s-103.167 72 -178.5 72c-86 0 -159.167 -27.5 -219.5 -82.5s-102.5 -133.167 -126.5 -234.5zM971.001 350c-25.333 -120 -82.502 -214.167 -171.502 -282.5
s-198.5 -102.5 -328.5 -102.5c-140.667 0 -248.5 40.167 -323.5 120.5s-112.5 195.833 -112.5 346.5c0 198 52.333 359.833 157 485.5s239.334 188.5 404.001 188.5c132.667 0 238.167 -39.167 316.5 -117.5s117.5 -183.833 117.5 -316.5
c0 -25.333 -1.33301 -53.166 -4 -83.499s-6.66699 -64.833 -12 -103.5h-793v-5c-2.66699 -29.333 -4 -50 -4 -62c0 -96.667 23.833 -170.334 71.5 -221.001s116.834 -76 207.501 -76c72 0 134.167 20.5 186.5 61.5s87.5 96.833 105.5 167.5h183zM601.999 1214h-121l232 349
h190z" />
    <glyph glyph-name="ecircumflex" unicode="&#xea;" horiz-adv-x="1135" 
d="M250 631h587.001c1.33301 6 2.16602 12.167 2.49902 18.5s0.5 15.833 0.5 28.5c0 84 -21.833 150 -65.5 198s-103.167 72 -178.5 72c-86 0 -159.167 -27.5 -219.5 -82.5s-102.5 -133.167 -126.5 -234.5zM971.001 350c-25.333 -120 -82.502 -214.167 -171.502 -282.5
s-198.5 -102.5 -328.5 -102.5c-140.667 0 -248.5 40.167 -323.5 120.5s-112.5 195.833 -112.5 346.5c0 198 52.333 359.833 157 485.5s239.334 188.5 404.001 188.5c132.667 0 238.167 -39.167 316.5 -117.5s117.5 -183.833 117.5 -316.5
c0 -25.333 -1.33301 -53.166 -4 -83.499s-6.66699 -64.833 -12 -103.5h-793v-5c-2.66699 -29.333 -4 -50 -4 -62c0 -96.667 23.833 -170.334 71.5 -221.001s116.834 -76 207.501 -76c72 0 134.167 20.5 186.5 61.5s87.5 96.833 105.5 167.5h183zM906.999 1214h-108l-133 220
l-226 -220h-121l267 349h184z" />
    <glyph glyph-name="edieresis" unicode="&#xeb;" horiz-adv-x="1135" 
d="M250 631h587.001c1.33301 6 2.16602 12.167 2.49902 18.5s0.5 15.833 0.5 28.5c0 84 -21.833 150 -65.5 198s-103.167 72 -178.5 72c-86 0 -159.167 -27.5 -219.5 -82.5s-102.5 -133.167 -126.5 -234.5zM971.001 350c-25.333 -120 -82.502 -214.167 -171.502 -282.5
s-198.5 -102.5 -328.5 -102.5c-140.667 0 -248.5 40.167 -323.5 120.5s-112.5 195.833 -112.5 346.5c0 198 52.333 359.833 157 485.5s239.334 188.5 404.001 188.5c132.667 0 238.167 -39.167 316.5 -117.5s117.5 -183.833 117.5 -316.5
c0 -25.333 -1.33301 -53.166 -4 -83.499s-6.66699 -64.833 -12 -103.5h-793v-5c-2.66699 -29.333 -4 -50 -4 -62c0 -96.667 23.833 -170.334 71.5 -221.001s116.834 -76 207.501 -76c72 0 134.167 20.5 186.5 61.5s87.5 96.833 105.5 167.5h183zM701.999 1274l45 209h183
l-43 -209h-185zM372.999 1274l45 209h182l-43 -209h-184z" />
    <glyph glyph-name="igrave" unicode="&#xec;" horiz-adv-x="473" 
d="M-8 0l225 1071h180l-227 -1071h-178zM488 1214h-109l-301 349h201z" />
    <glyph glyph-name="iacute" unicode="&#xed;" horiz-adv-x="473" 
d="M-8 0l225 1071h180l-227 -1071h-178zM326 1214h-121l232 349h190z" />
    <glyph glyph-name="icircumflex" unicode="&#xee;" horiz-adv-x="473" 
d="M-8 0l225 1071h180l-227 -1071h-178zM631 1214h-108l-133 220l-226 -220h-121l267 349h184z" />
    <glyph glyph-name="idieresis" unicode="&#xef;" horiz-adv-x="473" 
d="M-8 0l225 1071h180l-227 -1071h-178zM426 1274l45 209h183l-43 -209h-185zM97 1274l45 209h182l-43 -209h-184z" />
    <glyph glyph-name="eth" unicode="&#xf0;" horiz-adv-x="1176" 
d="M819 985c-21.333 48.667 -46.999 92.832 -76.999 132.499s-63.667 74.167 -101 103.5l-250 -113l-43 88l203 96c-34.667 19.333 -70 37.833 -106 55.5s-72.333 34.167 -109 49.5l53 110c62.667 -19.333 120.667 -41.333 174 -66s104 -52.334 152 -83.001l278 129l41 -90
l-227 -109c86 -83.333 149.833 -176.333 191.5 -279s62.5 -217.667 62.5 -345c0 -207.333 -54 -374.333 -162 -501s-249.333 -190 -424 -190c-141.333 0 -250.333 37.833 -327 113.5s-115 182.834 -115 321.501c0 185.333 51.333 339.833 154 463.5s230 185.5 382 185.5
c49.333 0 95.166 -6.16699 137.499 -18.5s79.833 -30.166 112.5 -53.499zM604.001 912.998c-56.667 0 -108.333 -12.332 -155 -36.999s-87 -61.334 -121 -110.001c-33.333 -47.333 -59.833 -104.5 -79.5 -171.5s-29.5 -132.833 -29.5 -197.5
c0 -87.333 22.167 -153.833 66.5 -199.5s108.833 -68.5 193.5 -68.5c116 0 210.5 48.333 283.5 145s109.5 221 109.5 373c0 84.667 -23.333 150.167 -70 196.5s-112.667 69.5 -198 69.5z" />
    <glyph glyph-name="ntilde" unicode="&#xf1;" horiz-adv-x="1130" 
d="M-14 0l227.003 1071h164l-35 -160c59.333 60.667 121.166 105.667 185.499 135s132.833 44 205.5 44c94.667 0 166.5 -19.667 215.5 -59s73.5 -97 73.5 -173c0 -17.333 -1.5 -37.166 -4.5 -59.499s-7.83301 -47.166 -14.5 -74.499l-151 -724h-182l149 698
c5.33301 26 9.16602 48.333 11.499 67s3.5 36 3.5 52c0 38.667 -14 68.5 -42 89.5s-67.333 31.5 -118 31.5c-102.667 0 -187.334 -34 -254.001 -102s-113.667 -167.667 -141 -299l-113 -537h-180zM1001 1497c-18.667 -69.333 -44.5 -120.164 -77.5 -152.497
s-76.167 -48.5 -129.5 -48.5c-11.333 0 -21.5 0.666992 -30.5 2s-17.833 3.66602 -26.5 6.99902l-88 28c-9.33301 2.66699 -18.5 4.66699 -27.5 6s-18.167 2 -27.5 2c-22.667 0 -41.167 -6.66699 -55.5 -20s-24.5 -33 -30.5 -59h-103c16.667 70 41.667 122.167 75 156.5
s75.333 51.5 126 51.5c10.667 0 22 -0.833008 34 -2.5s24 -4.16699 36 -7.5l88 -26c8 -2.66699 16 -4.83398 24 -6.50098s15.667 -2.5 23 -2.5c22.667 0 41 5.66699 55 17s25 29.666 33 54.999h102z" />
    <glyph glyph-name="ograve" unicode="&#xf2;" horiz-adv-x="1176" 
d="M602 948c-56.667 0 -107.666 -12.5 -152.999 -37.5s-85 -62.833 -119 -113.5c-34 -51.333 -61 -111.833 -81 -181.5s-30 -138.167 -30 -205.5c0 -90.667 22.5 -160.5 67.5 -209.5s109.167 -73.5 192.5 -73.5c115.333 0 209.666 50.833 282.999 152.5s110 232.5 110 392.5
c0 90 -23 158.5 -69 205.5s-113 70.5 -201 70.5zM31.001 424c0 199.333 55.167 362.834 165.5 490.501s251.833 191.5 424.5 191.5c136.667 0 244.5 -40.667 323.5 -122s118.5 -192.333 118.5 -333c0 -198.667 -55.167 -361.667 -165.5 -489s-251.833 -191 -424.5 -191
c-140 0 -248.667 39.667 -326 119s-116 190.666 -116 333.999zM778.001 1214h-109l-301 349h201z" />
    <glyph glyph-name="oacute" unicode="&#xf3;" horiz-adv-x="1176" 
d="M602 948c-56.667 0 -107.666 -12.5 -152.999 -37.5s-85 -62.833 -119 -113.5c-34 -51.333 -61 -111.833 -81 -181.5s-30 -138.167 -30 -205.5c0 -90.667 22.5 -160.5 67.5 -209.5s109.167 -73.5 192.5 -73.5c115.333 0 209.666 50.833 282.999 152.5s110 232.5 110 392.5
c0 90 -23 158.5 -69 205.5s-113 70.5 -201 70.5zM31.001 424c0 199.333 55.167 362.834 165.5 490.501s251.833 191.5 424.5 191.5c136.667 0 244.5 -40.667 323.5 -122s118.5 -192.333 118.5 -333c0 -198.667 -55.167 -361.667 -165.5 -489s-251.833 -191 -424.5 -191
c-140 0 -248.667 39.667 -326 119s-116 190.666 -116 333.999zM616.001 1214h-121l232 349h190z" />
    <glyph glyph-name="ocircumflex" unicode="&#xf4;" horiz-adv-x="1176" 
d="M602 948c-56.667 0 -107.666 -12.5 -152.999 -37.5s-85 -62.833 -119 -113.5c-34 -51.333 -61 -111.833 -81 -181.5s-30 -138.167 -30 -205.5c0 -90.667 22.5 -160.5 67.5 -209.5s109.167 -73.5 192.5 -73.5c115.333 0 209.666 50.833 282.999 152.5s110 232.5 110 392.5
c0 90 -23 158.5 -69 205.5s-113 70.5 -201 70.5zM31.001 424c0 199.333 55.167 362.834 165.5 490.501s251.833 191.5 424.5 191.5c136.667 0 244.5 -40.667 323.5 -122s118.5 -192.333 118.5 -333c0 -198.667 -55.167 -361.667 -165.5 -489s-251.833 -191 -424.5 -191
c-140 0 -248.667 39.667 -326 119s-116 190.666 -116 333.999zM921.001 1214h-108l-133 220l-226 -220h-121l267 349h184z" />
    <glyph glyph-name="otilde" unicode="&#xf5;" horiz-adv-x="1176" 
d="M602 948c-56.667 0 -107.666 -12.5 -152.999 -37.5s-85 -62.833 -119 -113.5c-34 -51.333 -61 -111.833 -81 -181.5s-30 -138.167 -30 -205.5c0 -90.667 22.5 -160.5 67.5 -209.5s109.167 -73.5 192.5 -73.5c115.333 0 209.666 50.833 282.999 152.5s110 232.5 110 392.5
c0 90 -23 158.5 -69 205.5s-113 70.5 -201 70.5zM31.001 424c0 199.333 55.167 362.834 165.5 490.501s251.833 191.5 424.5 191.5c136.667 0 244.5 -40.667 323.5 -122s118.5 -192.333 118.5 -333c0 -198.667 -55.167 -361.667 -165.5 -489s-251.833 -191 -424.5 -191
c-140 0 -248.667 39.667 -326 119s-116 190.666 -116 333.999zM964.001 1497c-18.667 -69.333 -44.5 -120.164 -77.5 -152.497s-76.167 -48.5 -129.5 -48.5c-11.333 0 -21.5 0.666992 -30.5 2s-17.833 3.66602 -26.5 6.99902l-88 28c-9.33301 2.66699 -18.5 4.66699 -27.5 6
s-18.167 2 -27.5 2c-22.667 0 -41.167 -6.66699 -55.5 -20s-24.5 -33 -30.5 -59h-103c16.667 70 41.667 122.167 75 156.5s75.333 51.5 126 51.5c10.667 0 22 -0.833008 34 -2.5s24 -4.16699 36 -7.5l88 -26c8 -2.66699 16 -4.83398 24 -6.50098s15.667 -2.5 23 -2.5
c22.667 0 41 5.66699 55 17s25 29.666 33 54.999h102z" />
    <glyph glyph-name="odieresis" unicode="&#xf6;" horiz-adv-x="1176" 
d="M602 948c-56.667 0 -107.666 -12.5 -152.999 -37.5s-85 -62.833 -119 -113.5c-34 -51.333 -61 -111.833 -81 -181.5s-30 -138.167 -30 -205.5c0 -90.667 22.5 -160.5 67.5 -209.5s109.167 -73.5 192.5 -73.5c115.333 0 209.666 50.833 282.999 152.5s110 232.5 110 392.5
c0 90 -23 158.5 -69 205.5s-113 70.5 -201 70.5zM31.001 424c0 199.333 55.167 362.834 165.5 490.501s251.833 191.5 424.5 191.5c136.667 0 244.5 -40.667 323.5 -122s118.5 -192.333 118.5 -333c0 -198.667 -55.167 -361.667 -165.5 -489s-251.833 -191 -424.5 -191
c-140 0 -248.667 39.667 -326 119s-116 190.666 -116 333.999zM716.001 1274l45 209h183l-43 -209h-185zM387.001 1274l45 209h182l-43 -209h-184z" />
    <glyph glyph-name="divide" unicode="&#xf7;" horiz-adv-x="1706" 
d="M854 367c34 0 63.333 -12.333 88 -37s37 -54 37 -88c0 -34.667 -12.167 -64.167 -36.5 -88.5s-53.833 -36.5 -88.5 -36.5c-35.333 0 -65 12 -89 36s-36 53.667 -36 89c0 34 12.333 63.333 37 88s54 37 88 37zM1452 680v-139h-1198v139h1198zM854 1106
c34 0 63.333 -12.5 88 -37.5s37 -54.833 37 -89.5c0 -34 -12.167 -63.333 -36.5 -88s-53.833 -37 -88.5 -37s-64.167 12.167 -88.5 36.5s-36.5 53.833 -36.5 88.5s12.333 64.5 37 89.5s54 37.5 88 37.5z" />
    <glyph glyph-name="oslash" unicode="&#xf8;" horiz-adv-x="1176" 
d="M51 -49l-65 57l123 133c-26.667 38.667 -46.334 80.667 -59.001 126s-19 95 -19 149c0 202.667 55.333 368.334 166 497.001s252.667 193 426 193c58 0 111.667 -8.33301 161 -25s95.333 -41.667 138 -75l102 110l66 -59l-111 -117
c28.667 -40.667 49.834 -84.5 63.501 -131.5s20.5 -98.833 20.5 -155.5c0 -200.667 -54.833 -364.5 -164.5 -491.5s-251.5 -190.5 -425.5 -190.5c-64.667 0 -122 8.66699 -172 26s-94.333 43.666 -133 78.999zM285 201c21.333 -27.333 47.5 -47.834 78.5 -61.501
s66.167 -20.5 105.5 -20.5c116 0 212.167 51.333 288.5 154s114.5 232.334 114.5 389.001c0 26.667 -1.66699 51.667 -5 75s-8.33301 45.333 -15 66zM240 278.999l560.999 600.001c-22 23.333 -49.167 40.666 -81.5 51.999s-71.5 17 -117.5 17
c-109.333 0 -201.166 -49.833 -275.499 -149.5s-111.5 -223.167 -111.5 -370.5c0 -26.667 2 -52.667 6 -78s10.333 -49 19 -71z" />
    <glyph glyph-name="ugrave" unicode="&#xf9;" horiz-adv-x="1130" 
d="M1067 1071l-225.003 -1071h-164l33 162c-59.333 -60 -121.166 -104.667 -185.499 -134s-133.166 -44 -206.499 -44c-94.667 0 -166 19.167 -214 57.5s-72 95.5 -72 171.5c0 20.667 1.33301 42.167 4 64.5s6.66699 45.166 12 68.499l154 725h182l-150 -697l-1 -6
c-10 -50 -15 -87.333 -15 -112c0 -38.667 14.333 -68.834 43 -90.501s68.334 -32.5 119.001 -32.5c102 0 186.5 34 253.5 102s114.167 168 141.5 300l113 536h178zM798.997 1214h-109l-301 349h201z" />
    <glyph glyph-name="uacute" unicode="&#xfa;" horiz-adv-x="1130" 
d="M1067 1071l-225.003 -1071h-164l33 162c-59.333 -60 -121.166 -104.667 -185.499 -134s-133.166 -44 -206.499 -44c-94.667 0 -166 19.167 -214 57.5s-72 95.5 -72 171.5c0 20.667 1.33301 42.167 4 64.5s6.66699 45.166 12 68.499l154 725h182l-150 -697l-1 -6
c-10 -50 -15 -87.333 -15 -112c0 -38.667 14.333 -68.834 43 -90.501s68.334 -32.5 119.001 -32.5c102 0 186.5 34 253.5 102s114.167 168 141.5 300l113 536h178zM636.997 1214h-121l232 349h190z" />
    <glyph glyph-name="ucircumflex" unicode="&#xfb;" horiz-adv-x="1130" 
d="M1067 1071l-225.003 -1071h-164l33 162c-59.333 -60 -121.166 -104.667 -185.499 -134s-133.166 -44 -206.499 -44c-94.667 0 -166 19.167 -214 57.5s-72 95.5 -72 171.5c0 20.667 1.33301 42.167 4 64.5s6.66699 45.166 12 68.499l154 725h182l-150 -697l-1 -6
c-10 -50 -15 -87.333 -15 -112c0 -38.667 14.333 -68.834 43 -90.501s68.334 -32.5 119.001 -32.5c102 0 186.5 34 253.5 102s114.167 168 141.5 300l113 536h178zM941.997 1214h-108l-133 220l-226 -220h-121l267 349h184z" />
    <glyph glyph-name="udieresis" unicode="&#xfc;" horiz-adv-x="1130" 
d="M1067 1071l-225.003 -1071h-164l33 162c-59.333 -60 -121.166 -104.667 -185.499 -134s-133.166 -44 -206.499 -44c-94.667 0 -166 19.167 -214 57.5s-72 95.5 -72 171.5c0 20.667 1.33301 42.167 4 64.5s6.66699 45.166 12 68.499l154 725h182l-150 -697l-1 -6
c-10 -50 -15 -87.333 -15 -112c0 -38.667 14.333 -68.834 43 -90.501s68.334 -32.5 119.001 -32.5c102 0 186.5 34 253.5 102s114.167 168 141.5 300l113 536h178zM736.997 1274l45 209h183l-43 -209h-185zM407.997 1274l45 209h182l-43 -209h-184z" />
    <glyph glyph-name="yacute" unicode="&#xfd;" horiz-adv-x="946" 
d="M221 -55l-175.999 1126h193l116 -901l445 901h198l-696 -1329c-34 -64.667 -73.5 -111.167 -118.5 -139.5s-101.833 -42.5 -170.5 -42.5c-12.667 0 -27 1.5 -43 4.5s-33.667 7.83301 -53 14.5l39 159c10.667 -4 22 -7 34 -9s24 -3 36 -3c23.333 0 44.166 5.5 62.499 16.5
s33.5 27.167 45.5 48.5zM561.001 1214h-121l232 349h190z" />
    <glyph glyph-name="thorn" unicode="&#xfe;" horiz-adv-x="1208" 
d="M659 946c-108.667 0 -201 -52.1689 -277 -156.502s-114 -233.166 -114 -386.499c0 -89.333 22.167 -158.666 66.5 -207.999s106.166 -74 185.499 -74c108 0 199.167 52 273.5 156s111.5 233.667 111.5 389c0 88 -21.667 156.667 -65 206s-103.666 74 -180.999 74z
M-86 -428.002l383 1901h172l-113 -555c40 57.333 89.333 101.333 148 132s122.667 46 192 46c124 0 221 -39.167 291 -117.5s105 -187.5 105 -327.5c0 -91.333 -14 -179 -42 -263s-68 -158.667 -120 -224c-50.667 -64 -109.167 -112.833 -175.5 -146.5
s-136.833 -50.5 -211.5 -50.5c-73.333 0 -138 16 -194 48s-104 80.333 -144 145l-121 -588h-170z" />
    <glyph glyph-name="ydieresis" unicode="&#xff;" horiz-adv-x="946" 
d="M221 -55l-175.999 1126h193l116 -901l445 901h198l-696 -1329c-34 -64.667 -73.5 -111.167 -118.5 -139.5s-101.833 -42.5 -170.5 -42.5c-12.667 0 -27 1.5 -43 4.5s-33.667 7.83301 -53 14.5l39 159c10.667 -4 22 -7 34 -9s24 -3 36 -3c23.333 0 44.166 5.5 62.499 16.5
s33.5 27.167 45.5 48.5zM661.001 1274l45 209h183l-43 -209h-185zM332.001 1274l45 209h182l-43 -209h-184z" />
    <glyph glyph-name="Cacute" unicode="&#x106;" horiz-adv-x="1448" 
d="M1139 524l188 -0.000976562c-38 -175.333 -117.167 -314 -237.5 -416s-264.5 -153 -432.5 -153c-179.333 0 -319 55.833 -419 167.5s-150 267.5 -150 467.5c0 116 16.833 227 50.5 333s82.5 202.333 146.5 289c70 96 153.167 168.5 249.5 217.5s203.5 73.5 321.5 73.5
c164.667 0 294.334 -45.333 389.001 -136s146.667 -219.334 156 -386.001h-197c-4.66699 109.333 -39.167 194 -103.5 254s-152.5 90 -264.5 90c-84.667 0 -160.5 -19 -227.5 -57s-125.167 -94.667 -174.5 -170c-48.667 -75.333 -85.334 -155.666 -110.001 -240.999
s-37 -173.666 -37 -264.999c0 -152 33.667 -267.833 101 -347.5s165.333 -119.5 294 -119.5c104.667 0 195.5 33.5 272.5 100.5s138.5 166.5 184.5 298.5zM876 1620h-121l232 349h190z" />
    <glyph glyph-name="cacute" unicode="&#x107;" horiz-adv-x="1139" 
d="M797 397l178.003 -0.00195312c-28.667 -131.333 -89.5 -236.166 -182.5 -314.499s-202.833 -117.5 -329.5 -117.5c-140.667 0 -246.834 40 -318.501 120s-107.5 198.333 -107.5 355c0 91.333 14.667 177.5 44 258.5s72.666 154.167 129.999 219.5
c54 60.667 116 106.834 186 138.501s146 47.5 228 47.5c128 0 227.333 -34 298 -102s107.667 -165 111 -291h-182c0 74 -21.5 132 -64.5 174s-102.167 63 -177.5 63c-103.333 0 -193 -50.5 -269 -151.5s-114 -223.167 -114 -366.5c0 -96 21.667 -169.5 65 -220.5
s105.666 -76.5 186.999 -76.5c71.333 0 135.333 23.5 192 70.5s98.667 111.5 126 193.5zM625.003 1214h-121l232 349h190z" />
    <glyph glyph-name="Ccaron" unicode="&#x10c;" horiz-adv-x="1448" 
d="M1139 524l188 -0.000976562c-38 -175.333 -117.167 -314 -237.5 -416s-264.5 -153 -432.5 -153c-179.333 0 -319 55.833 -419 167.5s-150 267.5 -150 467.5c0 116 16.833 227 50.5 333s82.5 202.333 146.5 289c70 96 153.167 168.5 249.5 217.5s203.5 73.5 321.5 73.5
c164.667 0 294.334 -45.333 389.001 -136s146.667 -219.334 156 -386.001h-197c-4.66699 109.333 -39.167 194 -103.5 254s-152.5 90 -264.5 90c-84.667 0 -160.5 -19 -227.5 -57s-125.167 -94.667 -174.5 -170c-48.667 -75.333 -85.334 -155.666 -110.001 -240.999
s-37 -173.666 -37 -264.999c0 -152 33.667 -267.833 101 -347.5s165.333 -119.5 294 -119.5c104.667 0 195.5 33.5 272.5 100.5s138.5 166.5 184.5 298.5zM661 1969h109l133 -220l225 220h121l-266 -349h-183z" />
    <glyph glyph-name="ccaron" unicode="&#x10d;" horiz-adv-x="1139" 
d="M797 397l178.003 -0.00195312c-28.667 -131.333 -89.5 -236.166 -182.5 -314.499s-202.833 -117.5 -329.5 -117.5c-140.667 0 -246.834 40 -318.501 120s-107.5 198.333 -107.5 355c0 91.333 14.667 177.5 44 258.5s72.666 154.167 129.999 219.5
c54 60.667 116 106.834 186 138.501s146 47.5 228 47.5c128 0 227.333 -34 298 -102s107.667 -165 111 -291h-182c0 74 -21.5 132 -64.5 174s-102.167 63 -177.5 63c-103.333 0 -193 -50.5 -269 -151.5s-114 -223.167 -114 -366.5c0 -96 21.667 -169.5 65 -220.5
s105.666 -76.5 186.999 -76.5c71.333 0 135.333 23.5 192 70.5s98.667 111.5 126 193.5zM410.003 1563h109l133 -220l225 220h121l-266 -349h-183z" />
    <glyph glyph-name="dcroat" unicode="&#x111;" horiz-adv-x="1219" 
d="M758 0l22.001 133c-52 -58 -105.833 -100.5 -161.5 -127.5s-117.834 -40.5 -186.501 -40.5c-126.667 0 -225.167 39.167 -295.5 117.5s-105.5 188.833 -105.5 331.5c0 192 54.333 353.667 163 485s240.667 197 396 197c74.667 0 140.667 -17 198 -51
s105.333 -84.667 144 -152l63 311h-358l22 115h361l31 154h174l-33 -154h156l-23 -115h-158l-247 -1204h-162zM864.001 655c0 89.333 -23 159.499 -69 210.499s-109 76.5 -189 76.5c-108.667 0 -200.667 -51.667 -276 -155s-113 -232 -113 -386
c0 -89.333 22 -159.666 66 -210.999s104 -77 180 -77c115.333 0 211 51.667 287 155s114 232.333 114 387z" />
    <glyph glyph-name="Gbreve" unicode="&#x11e;" horiz-adv-x="1542" 
d="M1122 0l12.9971 158.002c-61.333 -66.667 -130.5 -116.5 -207.5 -149.5s-162.167 -49.5 -255.5 -49.5c-184 0 -327 55.833 -429 167.5s-153 268.167 -153 469.5c0 128.667 20 250.667 60 366s97.333 216.666 172 303.999c69.333 79.333 150 139.666 242 180.999
s192 62 300 62c175.333 0 312.5 -43.833 411.5 -131.5s153.167 -213.167 162.5 -376.5h-197c-7.33301 107.333 -44.166 189.833 -110.499 247.5s-157.166 86.5 -272.499 86.5c-85.333 0 -161.666 -18 -228.999 -54s-128.333 -91.667 -183 -167
c-49.333 -68 -87.833 -148.5 -115.5 -241.5s-41.5 -187.833 -41.5 -284.5c0 -146 37 -258.667 111 -338s179 -119 315 -119c120.667 0 224 41 310 123s147.667 198 185 348h-462l32 160h654l-160 -762h-152zM730.997 1935l103 1.00195v-19c0 -44 11.167 -75.833 33.5 -95.5
s58.833 -29.5 109.5 -29.5c58 0 105.667 11.667 143 35s66 59.666 86 108.999h109c-26.667 -94 -69.167 -164.667 -127.5 -212s-131.833 -71 -220.5 -71c-78.667 0 -138 19.667 -178 59s-60 97.666 -60 174.999c0 12 0.166992 21.5 0.5 28.5s0.833008 13.5 1.5 19.5z" />
    <glyph glyph-name="gbreve" unicode="&#x11f;" horiz-adv-x="1204" 
d="M602 950c-111.333 0 -201.666 -48.499 -270.999 -145.499s-104 -223.833 -104 -380.5c0 -91.333 22.333 -162 67 -212s107.667 -75 189 -75c114.667 0 207.167 49.167 277.5 147.5s105.5 228.166 105.5 389.499c0 86 -23.333 153.5 -70 202.5
s-111.334 73.5 -194.001 73.5zM-18 -105.999l178.002 0.000976562v-17c0 -50 21.333 -89.833 64 -119.5s100.334 -44.5 173.001 -44.5c113.333 0 196.166 28.333 248.499 85s93.166 165 122.499 325c-40 -46 -86.333 -80.667 -139 -104s-110.667 -35 -174 -35
c-131.333 0 -233.5 40 -306.5 120s-109.5 192 -109.5 336c0 191.333 53.167 350.166 159.5 476.499s238.833 189.5 397.5 189.5c81.333 0 149.833 -17.667 205.5 -53s98.5 -88 128.5 -158l39 176h174l-228 -1089c-30.667 -146.667 -88.334 -254.334 -173.001 -323.001
s-201.667 -103 -351 -103c-128.667 0 -229 29.333 -301 88s-108 140.334 -108 245.001v5zM481.002 1529l103 1.00195v-19c0 -44 11.167 -75.833 33.5 -95.5s58.833 -29.5 109.5 -29.5c58 0 105.667 11.667 143 35s66 59.666 86 108.999h109
c-26.667 -94 -69.167 -164.667 -127.5 -212s-131.833 -71 -220.5 -71c-78.667 0 -138 19.667 -178 59s-60 97.666 -60 174.999c0 12 0.166992 21.5 0.5 28.5s0.833008 13.5 1.5 19.5z" />
    <glyph glyph-name="Idotaccent" unicode="&#x130;" horiz-adv-x="532" 
d="M8 0l311 1473h205l-313 -1473h-203zM362 1674l47 221h193l-47 -221h-193z" />
    <glyph glyph-name="dotlessi" unicode="&#x131;" horiz-adv-x="473" 
d="M-8 0l225 1071h180l-227 -1071h-178z" />
    <glyph glyph-name="Lslash" unicode="&#x141;" horiz-adv-x="1147" 
d="M18 0l132 614l-154 -88l-66 115l256 147l146 685h192l-125 -590l375 215l66 -115l-478 -276l-110 -529h764l-37 -178h-961z" />
    <glyph glyph-name="lslash" unicode="&#x142;" horiz-adv-x="494" 
d="M0 0l133 631l-121 -66l-57 103l213 123l145 682h179l-127 -599l118 70l62 -102l-213 -121l-152 -721h-180z" />
    <glyph glyph-name="OE" unicode="&#x152;" horiz-adv-x="2218" 
d="M1030 283l193.002 897.002c-40.667 54.667 -89.334 95.5 -146.001 122.5s-121.334 40.5 -194.001 40.5c-84.667 0 -161.834 -17 -231.501 -51s-131.834 -85 -186.501 -153c-57.333 -72 -102.666 -157.333 -135.999 -256s-50 -196.334 -50 -293.001
c0 -142.667 34.833 -255.834 104.5 -339.501s163.834 -125.5 282.501 -125.5c65.333 0 128 13 188 39s118.667 65.667 176 119zM971.002 0.00195312l26 117.002c-56 -52 -116.333 -91 -181 -117s-134 -39 -208 -39c-158.667 0 -286.334 56.667 -383.001 170
s-145 263.666 -145 450.999c0 123.333 21.333 244.166 64 362.499s102.667 222.5 180 312.5c68 80 148.333 142 241 186s188.334 66 287.001 66c86 0 161.5 -14.5 226.5 -43.5s123.167 -74.5 174.5 -136.5l31 144h936l-37 -181h-743l-97 -446h721l-34 -174h-723l-105 -492
h797l-37 -180h-991z" />
    <glyph glyph-name="oe" unicode="&#x153;" horiz-adv-x="1923" 
d="M1042 633l584.002 -0.000976562c0 4 0.333008 10.167 1 18.5s1 14.5 1 18.5c0 90 -21.5 159.833 -64.5 209.5s-103.5 74.5 -181.5 74.5c-80.667 0 -150.834 -28.167 -210.501 -84.5s-102.834 -135.166 -129.501 -236.499zM606.002 955.999
c-111.333 0 -203.667 -48.333 -277 -145s-110 -219.667 -110 -369c0 -103.333 22.667 -182.333 68 -237s111.333 -82 198 -82c114.667 0 206.167 47.167 274.5 141.5s102.5 220.5 102.5 378.5c0 102 -21.833 179.667 -65.5 233s-107.167 80 -190.5 80zM889.001 171.999
c-51.333 -67.333 -112.664 -118.334 -183.997 -153.001s-151.333 -52 -240 -52c-134 0 -239.833 42.333 -317.5 127s-116.5 200 -116.5 346c0 196 54.5 356 163.5 480s248.833 186 419.5 186c92 0 168.333 -15.833 229 -47.5s108 -80.167 142 -145.5
c55.333 65.333 116.166 113.833 182.499 145.5s140.833 47.5 223.5 47.5c132.667 0 236 -37.5 310 -112.5s111 -180.167 111 -315.5c0 -20 -2.33301 -61 -7 -123c-2 -28.667 -3.66699 -51 -5 -67l-780 -1c-2 -14 -3.5 -27.667 -4.5 -41s-1.5 -26.666 -1.5 -39.999
c0 -90 23.167 -159.667 69.5 -209s111.166 -74 194.499 -74c73.333 0 136.666 20.333 189.999 61s89 96 107 166h180c-28 -122 -85.5 -216.333 -172.5 -283s-197.5 -100 -331.5 -100c-82 0 -152.833 16.833 -212.5 50.5s-109.5 85.167 -149.5 154.5z" />
    <glyph glyph-name="Scedilla" unicode="&#x15e;" horiz-adv-x="1223" 
d="M10 457l184.999 0.00292969v-29c0 -94 28.833 -167 86.5 -219s138.5 -78 242.5 -78c100 0 179.667 25.333 239 76s89 117.667 89 201c0 92.667 -89 176.334 -267 251.001l-6 3c-166 70 -273.667 133.667 -323 191s-74 134.666 -74 231.999c0 128 46.5 231 139.5 309
s216.5 117 370.5 117c152.667 0 271.5 -38.333 356.5 -115s127.5 -184.334 127.5 -323.001v-22h-191v6c0 96 -25.5 168.5 -76.5 217.5s-127.167 73.5 -228.5 73.5c-93.333 0 -167.5 -22.667 -222.5 -68s-82.5 -106 -82.5 -182c0 -86.667 80.667 -165 242 -235l63 -27
c148.667 -65.333 248.334 -127.333 299.001 -186s76 -132 76 -220c0 -147.333 -49.333 -262.666 -148 -345.999s-236.334 -125.666 -413.001 -126.999l-21 -59h23c70 0 123 -14 159 -42s54 -69.333 54 -124c0 -66 -21.667 -116.667 -65 -152s-105 -53 -185 -53
c-33.333 0 -73.166 4.16699 -119.499 12.5s-99.5 21.166 -159.5 38.499l37 98c54 -16 98.167 -27.5 132.5 -34.5s64.5 -10.5 90.5 -10.5c42 0 73.333 8.16699 94 24.5s31 41.166 31 74.499c0 28.667 -12.833 49.167 -38.5 61.5s-71.5 18.5 -137.5 18.5h-24l51 153
c-134.667 21.333 -236 70.166 -304 146.499s-102 179.166 -102 308.499v39z" />
    <glyph glyph-name="scedilla" unicode="&#x15f;" horiz-adv-x="1008" 
d="M-18 375l169.002 0.00195312c0 -4.66699 -0.166992 -9.83398 -0.5 -15.501s-0.5 -13.5 -0.5 -23.5c0 -74 24 -130 72 -168s118 -57 210 -57c67.333 0 121 14.833 161 44.5s60 69.167 60 118.5c0 60.667 -57.333 118.334 -172 173.001l-12 6l-47 21
c-203.333 93.333 -305 199 -305 317c0 94 35.667 169.667 107 227s166.666 86 285.999 86c123.333 0 219.666 -30.833 288.999 -92.5s104 -147.5 104 -257.5v-27h-166v6c0 71.333 -19.167 125.666 -57.5 162.999s-93.5 56 -165.5 56c-70 0 -124.333 -12.667 -163 -38
s-58 -61 -58 -107c0 -53.333 60.333 -106.666 181 -159.999l46 -20c130.667 -58.667 215.667 -110.334 255 -155.001s59 -101 59 -169c0 -100 -38 -181.333 -114 -244s-176 -94 -300 -94h-31l-24 -67h22c70.667 0 124.167 -14.167 160.5 -42.5s54.5 -69.5 54.5 -123.5
c0 -66 -21.5 -116.667 -64.5 -152s-104.833 -53 -185.5 -53c-33.333 0 -73 4.16699 -119 12.5s-99 21.166 -159 38.499l37 98c55.333 -16.667 99.5 -28.334 132.5 -35.001s62.5 -10 88.5 -10c42 0 73.667 8.33301 95 25s32 41.334 32 74.001
c0 28.667 -12.833 49.167 -38.5 61.5s-71.5 18.5 -137.5 18.5h-25l53 155c-108.667 20.667 -191 62.167 -247 124.5s-84 143.833 -84 244.5c0 10.667 0.166992 19 0.5 25s0.833008 11.333 1.5 16z" />
    <glyph glyph-name="Scaron" unicode="&#x160;" horiz-adv-x="1223" 
d="M10 457l184.999 0.00195312v-27c0 -94 28.833 -167.333 86.5 -220s137.834 -79 240.501 -79c100.667 0 180.834 25 240.501 75s89.5 116.667 89.5 200c0 94 -90.667 179 -272 255v1c-168.667 71.333 -277.167 135.5 -325.5 192.5s-72.5 133.833 -72.5 230.5
c0 128 46.667 231 140 309s216.666 117 369.999 117c154 0 273.167 -38.5 357.5 -115.5s126.5 -185.833 126.5 -326.5v-18h-191v6c0 96 -25.5 168.5 -76.5 217.5s-127.167 73.5 -228.5 73.5c-93.333 0 -167.5 -22.667 -222.5 -68s-82.5 -106 -82.5 -182
c0 -86.667 81.333 -165.334 244 -236.001l60 -26c148.667 -66 248.5 -128.333 299.5 -187s76.5 -132.334 76.5 -221.001c0 -146 -49.5 -261 -148.5 -345s-234.5 -126 -406.5 -126c-150 0 -269.5 41.667 -358.5 125s-133.5 195.333 -133.5 336c0 4 0.333008 10.5 1 19.5
s1 15.5 1 19.5zM564.999 1969h109l133 -220l225 220h121l-266 -349h-183z" />
    <glyph glyph-name="scaron" unicode="&#x161;" horiz-adv-x="1008" 
d="M-18 375l169.001 -0.000976562c0 -4 -0.166992 -8.66699 -0.5 -14s-0.5 -13 -0.5 -23c0 -74.667 23.833 -131.167 71.5 -169.5s117.834 -57.5 210.501 -57.5c68 0 121.833 14.667 161.5 44s59.5 69 59.5 119c0 34.667 -10 63.5 -30 86.5s-71.333 53.833 -154 92.5l-55 25
c-198 92 -297 196.333 -297 313c0 94 35.667 169.667 107 227s166.666 86 285.999 86c124 0 220.5 -31.167 289.5 -93.5s103.5 -149.166 103.5 -260.499v-23h-166v6c0 72.667 -19.5 127.334 -58.5 164.001s-97.167 55 -174.5 55c-65.333 0 -116.833 -12.833 -154.5 -38.5
s-56.5 -60.5 -56.5 -104.5c0 -53.333 59.333 -107 178 -161l10 -5c156 -70.667 253.833 -128.334 293.5 -173.001s59.5 -101 59.5 -169c0 -102 -39 -183.833 -117 -245.5s-182.667 -92.5 -314 -92.5c-130.667 0 -233.834 33.167 -309.501 99.5s-113.5 156.833 -113.5 271.5
c0 10.667 0.166992 19 0.5 25s0.833008 11.333 1.5 16zM377.001 1563h109l133 -220l225 220h121l-266 -349h-183z" />
    <glyph glyph-name="Ydieresis" unicode="&#x178;" horiz-adv-x="1055" 
d="M276 0l125 610l-331 863h204l254 -682l455 682h223l-614 -893l-119 -580h-197zM796 1680l45 209h183l-43 -209h-185zM467 1680l45 209h182l-43 -209h-184z" />
    <glyph glyph-name="Zcaron" unicode="&#x17d;" horiz-adv-x="1176" 
d="M-41 0l37 174l938 1124h-729l39 175h962l-35 -175l-933 -1122h768l-39 -176h-1008zM543 1969h109l133 -220l225 220h121l-266 -349h-183z" />
    <glyph glyph-name="zcaron" unicode="&#x17e;" horiz-adv-x="913" 
d="M-86 0l31 141l696 772h-561l31 158h809l-31 -131l-707 -780h606l-34 -160h-840zM330 1563h109l133 -220l225 220h121l-266 -349h-183z" />
    <glyph glyph-name="florin" unicode="&#x192;" horiz-adv-x="1124" 
d="M-29 -377l49.0029 159.998c19.333 -12 39.166 -21.167 59.499 -27.5s40.833 -9.5 61.5 -9.5c48 0 84.667 19.667 110 59s49.666 123.333 72.999 252l137 744h-213v147h244c36.667 212 83 358.833 139 440.5s135 122.5 237 122.5c29.333 0 58.5 -3.66699 87.5 -11
s58.5 -18.666 88.5 -33.999l-45 -151c-22 10.667 -42.333 18.834 -61 24.501s-36.334 8.5 -53.001 8.5c-51.333 0 -90.833 -24.833 -118.5 -74.5s-55.167 -158.167 -82.5 -325.5h229v-147h-256l-122 -660c-40.667 -220 -89 -369.167 -145 -447.5
s-135.333 -117.5 -238 -117.5c-31.333 0 -61.833 3.83301 -91.5 11.5s-59.5 19.5 -89.5 35.5z" />
    <glyph glyph-name="circumflex" unicode="&#x2c6;" 
d="M905 1214h-108l-133 220l-226 -220h-121l267 349h184z" />
    <glyph glyph-name="caron" unicode="&#x2c7;" 
d="M385 1563h109l133 -220l225 220h121l-266 -349h-183z" />
    <glyph glyph-name="breve" unicode="&#x2d8;" 
d="M391 1529l103 1.00195v-19c0 -44 11.167 -75.833 33.5 -95.5s58.833 -29.5 109.5 -29.5c58 0 105.667 11.667 143 35s66 59.666 86 108.999h109c-26.667 -94 -69.167 -164.667 -127.5 -212s-131.833 -71 -220.5 -71c-78.667 0 -138 19.667 -178 59
s-60 97.666 -60 174.999c0 12 0.166992 21.5 0.5 28.5s0.833008 13.5 1.5 19.5z" />
    <glyph glyph-name="dotaccent" unicode="&#x2d9;" 
d="M526 1268l47 221h193l-47 -221h-193z" />
    <glyph glyph-name="ring" unicode="&#x2da;" 
d="M520 1448c0 -40 13.834 -73.5 41.501 -100.5s61.834 -40.5 102.501 -40.5c39.333 0 72.666 13.5 99.999 40.5s41 60.5 41 100.5s-13.833 73.833 -41.5 101.5s-60.834 41.5 -99.501 41.5c-40 0 -74 -13.833 -102 -41.5s-42 -61.5 -42 -101.5zM410.001 1450
c0 70.667 24.5 130.334 73.5 179.001s109.167 73 180.5 73c70.667 0 130.167 -24.333 178.5 -73s72.5 -108.334 72.5 -179.001s-24.333 -130.667 -73 -180s-108 -74 -178 -74c-70.667 0 -130.667 24.667 -180 74s-74 109.333 -74 180z" />
    <glyph glyph-name="ogonek" unicode="&#x2db;" 
d="M391 0c-46.667 -41.333 -80.834 -79.833 -102.501 -115.5s-32.5 -70.834 -32.5 -105.501c0 -29.333 6.83301 -49.666 20.5 -60.999s38.167 -17 73.5 -17h101l-31 -143h-72c-75.333 0 -131.666 14 -168.999 42s-56 70 -56 126c0 44 14.5 87.5 43.5 130.5
s76.5 90.833 142.5 143.5h82z" />
    <glyph glyph-name="tilde" unicode="&#x2dc;" 
d="M948 1497c-18.667 -69.333 -44.5 -120.164 -77.5 -152.497s-76.167 -48.5 -129.5 -48.5c-11.333 0 -21.5 0.666992 -30.5 2s-17.833 3.66602 -26.5 6.99902l-88 28c-9.33301 2.66699 -18.5 4.66699 -27.5 6s-18.167 2 -27.5 2c-22.667 0 -41.167 -6.66699 -55.5 -20
s-24.5 -33 -30.5 -59h-103c16.667 70 41.667 122.167 75 156.5s75.333 51.5 126 51.5c10.667 0 22 -0.833008 34 -2.5s24 -4.16699 36 -7.5l88 -26c8 -2.66699 16 -4.83398 24 -6.50098s15.667 -2.5 23 -2.5c22.667 0 41 5.66699 55 17s25 29.666 33 54.999h102z" />
    <glyph glyph-name="hungarumlaut" unicode="&#x2dd;" 
d="M870 1565h168l-254 -351h-96zM588 1565h168l-226 -351h-96z" />
    <glyph glyph-name="Omega" unicode="&#x3a9;" horiz-adv-x="1565" 
d="M1487 178l-0.00195312 -178h-600v178c118 64.667 210 152.334 276 263.001s99 233.334 99 368.001c0 160 -44 288.333 -132 385s-204 145 -348 145s-260.167 -48.5 -348.5 -145.5s-132.5 -225.167 -132.5 -384.5c0 -134.667 33.167 -257.334 99.5 -368.001
s158.833 -198.334 277.5 -263.001v-178h-600v178h319c-105.333 92.667 -182.166 188.667 -230.499 288s-72.5 210.333 -72.5 333c0 212 63.833 383.667 191.5 515s293.167 197 496.5 197c202 0 367.167 -65.5 495.5 -196.5s192.5 -299.5 192.5 -505.5
c0 -129.333 -23.667 -243.333 -71 -342s-124.666 -195 -231.999 -289h320z" />
    <glyph glyph-name="pi" unicode="&#x3c0;" horiz-adv-x="1206" 
d="M1159 913h-182.002l-105 -487c-10 -49.333 -17.5 -89.333 -22.5 -120s-7.5 -53.334 -7.5 -68.001c0 -38.667 7.83301 -66.167 23.5 -82.5s41.834 -24.5 78.501 -24.5c11.333 0 24.666 0.833008 39.999 2.5s35.333 4.16699 60 7.5l-30 -141
c-20 -5.33301 -39.167 -9.33301 -57.5 -12s-36.166 -4 -53.499 -4c-78.667 0 -138.167 17 -178.5 51s-60.5 84.333 -60.5 151c0 30.667 3.5 70 10.5 118s21.833 125.667 44.5 233l80 376h-326l-194 -913h-181l195 913h-41c-36 0 -64 -10.667 -84 -32s-33 -55 -39 -101h-160
c18.667 110.667 51.834 186.834 99.501 228.501s126.5 62.5 236.5 62.5h889z" />
    <glyph glyph-name="endash" unicode="&#x2013;" 
d="M-49 487l24 109h1024l-24 -109h-1024z" />
    <glyph glyph-name="emdash" unicode="&#x2014;" horiz-adv-x="2048" 
d="M-25 596h2048l-24 -109h-2048z" />
    <glyph glyph-name="quoteleft" unicode="&#x2018;" horiz-adv-x="514" 
d="M528 1505l-18.001 -92c-35.333 -11.333 -63.166 -30.5 -83.499 -57.5s-34.833 -63.833 -43.5 -110.5h98l-45 -209h-209l47 209c16.667 72.667 47.167 131.667 91.5 177s98.5 73 162.5 83z" />
    <glyph glyph-name="quoteright" unicode="&#x2019;" horiz-adv-x="514" 
d="M207 1001l18.001 93c35.333 11.333 63.166 30.5 83.499 57.5s34.833 63.833 43.5 110.5h-98l45 211h209l-47 -211c-16.667 -72.667 -47 -131.667 -91 -177s-98.333 -73.333 -163 -84z" />
    <glyph glyph-name="quotesinglbase" unicode="&#x201a;" horiz-adv-x="514" 
d="M-49 -260l18 93.999c36 12 64.167 31.333 84.5 58s34.5 63.334 42.5 110.001h-96l43 209h209l-47 -209c-16.667 -72.667 -47.167 -132 -91.5 -178s-98.5 -74 -162.5 -84z" />
    <glyph glyph-name="quotedblleft" unicode="&#x201c;" horiz-adv-x="846" 
d="M860 1505l-18.001 -92c-35.333 -11.333 -63.166 -30.5 -83.499 -57.5s-34.833 -63.833 -43.5 -110.5h98l-45 -209h-209l47 209c16.667 72.667 47 131.667 91 177s98.333 73 163 83zM527.999 1505l-18.001 -92c-35.333 -11.333 -63.166 -30.5 -83.499 -57.5
s-34.833 -63.833 -43.5 -110.5h98l-45 -209h-209l47 209c16.667 72.667 47.167 131.667 91.5 177s98.5 73 162.5 83z" />
    <glyph glyph-name="quotedblright" unicode="&#x201d;" horiz-adv-x="846" 
d="M539 1001l18.001 93c35.333 11.333 63.166 30.5 83.499 57.5s34.833 63.833 43.5 110.5h-98l45 211h209l-47 -211c-16.667 -72.667 -47.167 -131.667 -91.5 -177s-98.5 -73.333 -162.5 -84zM207.001 1001l18.001 93c35.333 11.333 63.166 30.5 83.499 57.5
s34.833 63.833 43.5 110.5h-98l45 211h209l-47 -211c-16.667 -72.667 -47 -131.667 -91 -177s-98.333 -73.333 -163 -84z" />
    <glyph glyph-name="quotedblbase" unicode="&#x201e;" horiz-adv-x="846" 
d="M283 -260l18 93.999c36 12 64 31.333 84 58s34.333 63.334 43 110.001h-98l45 209h209l-47 -209c-16.667 -72.667 -47.167 -132 -91.5 -178s-98.5 -74 -162.5 -84zM-49 -260.001l18 93.999c36 12 64.167 31.333 84.5 58s34.5 63.334 42.5 110.001h-96l43 209h209
l-47 -209c-16.667 -72.667 -47.167 -132 -91.5 -178s-98.5 -74 -162.5 -84z" />
    <glyph glyph-name="dagger" unicode="&#x2020;" 
d="M260 -213l197 1128h-338l28 146h338l72 412h164l-70 -412h334l-22 -146h-336l-201 -1128h-166z" />
    <glyph glyph-name="daggerdbl" unicode="&#x2021;" 
d="M256 -213l70 410h-338l28 147h338l99 571h-338l26 146h338l74 412h164l-72 -412h336l-23 -146h-337l-101 -571h336l-25 -147h-335l-74 -410h-166z" />
    <glyph glyph-name="bullet" unicode="&#x2022;" horiz-adv-x="1208" 
d="M307 762c0 82 28.999 151.666 86.999 208.999s128 86 210 86c81.333 0 150.833 -28.833 208.5 -86.5s86.5 -127.167 86.5 -208.5s-29.167 -151.166 -87.5 -209.499s-128.166 -87.5 -209.499 -87.5c-82 0 -151.667 29 -209 87s-86 128 -86 210z" />
    <glyph glyph-name="ellipsis" unicode="&#x2026;" horiz-adv-x="2048" 
d="M92 0l47 221h221l-45 -221h-223zM774 0l47 221h221l-45 -221h-223zM1458 0l47 221h221l-45 -221h-223z" />
    <glyph glyph-name="perthousand" unicode="&#x2030;" horiz-adv-x="2587" 
d="M1954 356c0 -58 19.667 -106.833 59 -146.5s88 -59.5 146 -59.5c56 0 104 20.167 144 60.5s60 88.833 60 145.5c0 57.333 -19.833 105.833 -59.5 145.5s-87.834 59.5 -144.5 59.5c-57.333 0 -105.833 -19.833 -145.5 -59.5s-59.5 -88.167 -59.5 -145.5zM1804 356
c0 99.333 34.332 183.333 102.999 252s152.667 103 252.001 103c97.333 0 181 -34.667 251 -104s105 -153 105 -251s-34.833 -181.833 -104.5 -251.5s-153.5 -104.5 -251.5 -104.5c-99.333 0 -183.333 34.5 -252 103.5s-103 153.167 -103 252.5zM1098 356
c0 -58 19.668 -106.833 59.001 -146.5s88 -59.5 146 -59.5c56 0 104 20.167 144 60.5s60 88.833 60 145.5c0 57.333 -19.833 105.833 -59.5 145.5s-87.834 59.5 -144.501 59.5c-57.333 0 -105.833 -19.833 -145.5 -59.5s-59.5 -88.167 -59.5 -145.5zM948 356
c0 99.333 34.333 183.333 103 252s152.667 103 252 103c97.333 0 181 -34.667 251 -104s105 -153 105 -251s-34.833 -181.833 -104.5 -251.5s-153.5 -104.5 -251.5 -104.5c-99.333 0 -183.333 34.5 -252 103.5s-103 153.167 -103 252.5zM221 1036
c0 -58 19.667 -106.667 59 -146s88 -59 146 -59c56.667 0 105 20 145 60s60 88.333 60 145c0 57.333 -20 105.833 -60 145.5s-88.333 59.5 -145 59.5c-57.333 0 -105.833 -19.833 -145.5 -59.5s-59.5 -88.167 -59.5 -145.5zM72 1036c0 99.333 34.167 183.333 102.5 252
s152.166 103 251.499 103c98 0 181.5 -34.667 250.5 -104s103.5 -153 103.5 -251s-34.5 -181.833 -103.5 -251.5s-152.5 -104.5 -250.5 -104.5c-99.333 0 -183.166 34.5 -251.499 103.5s-102.5 153.167 -102.5 252.5zM365 -41l876 1473h125l-877 -1473h-124z" />
    <glyph glyph-name="guilsinglleft" unicode="&#x2039;" horiz-adv-x="500" 
d="M35 473l33 160l389 244l-37 -177l-258 -161l184 -185l-35 -159z" />
    <glyph glyph-name="guilsinglright" unicode="&#x203a;" horiz-adv-x="500" 
d="M401 600l-32 -162l-389 -243l36 176l258 161l-184 185l35 160z" />
    <glyph glyph-name="franc" unicode="&#x20a3;" horiz-adv-x="1772" 
d="M4 0l309 1473h848l-37 -179h-651l-96 -448h629l-39 -180h-627l-143 -666h-193zM1096 0l225.002 1071h172l-45 -199c60 84.667 112.667 143.5 158 176.5s93.666 49.5 144.999 49.5c12 0 24.833 -0.666992 38.5 -2s28.167 -3.33301 43.5 -6l-45 -203h-5
c-24 2.66699 -42 4 -54 4c-88.667 0 -161.334 -31 -218.001 -93s-98.667 -156.667 -126 -284l-111 -514h-178z" />
    <glyph glyph-name="trademark" unicode="&#x2122;" horiz-adv-x="1706" 
d="M963 1458l151 -385l141 385h150v-538h-98v444l-166 -444h-56l-174 444v-444h-98v538h150zM694 1458v-80h-172v-458h-108v458h-172v80h452z" />
    <glyph glyph-name="partialdiff" unicode="&#x2202;" horiz-adv-x="1059" 
d="M756 621c10 58 17.502 114.164 22.502 168.497s7.5 106.5 7.5 156.5c0 86 -12.167 150.833 -36.5 194.5s-60.5 65.5 -108.5 65.5c-36.667 0 -79 -19.333 -127 -58s-84 -58 -108 -58s-44 7.33301 -60 22s-24 32.334 -24 53.001c0 41.333 24 78.333 72 111
s105.667 49 173 49c120 0 215.667 -51.667 287 -155s107 -242.666 107 -417.999c0 -223.333 -48.167 -408.666 -144.5 -555.999s-215.5 -221 -357.5 -221c-101.333 0 -185.833 36 -253.5 108s-101.5 162.333 -101.5 271c0 132 36.833 240.833 110.5 326.5
s164.5 128.5 272.5 128.5c67.333 0 122.666 -15.167 165.999 -45.5s77.666 -77.833 102.999 -142.5zM707.002 493.997c0 77.333 -14.5 136.833 -43.5 178.5s-69.833 62.5 -122.5 62.5c-72.667 0 -132.5 -43 -179.5 -129s-70.5 -198 -70.5 -336
c0 -77.333 14.333 -136.5 43 -177.5s69.667 -61.5 123 -61.5c72.667 0 132.5 43.333 179.5 130s70.5 197.667 70.5 333z" />
    <glyph glyph-name="Delta" unicode="&#x2206;" horiz-adv-x="1370" 
d="M684 1262l-418 -1084h836zM573 1473h224l579 -1473h-1382z" />
    <glyph glyph-name="product" unicode="&#x220f;" horiz-adv-x="1550" 
d="M156 1473h1237v-1866h-240v1661h-758v-1661h-239v1866z" />
    <glyph glyph-name="summation" unicode="&#x2211;" horiz-adv-x="1380" 
d="M55 1473h1258v-193h-959l672 -717l-694 -764h1007v-192h-1314v149l725 801l-695 739v177z" />
    <glyph glyph-name="minus" unicode="&#x2212;" horiz-adv-x="1706" 
d="M1452 682v-141h-1198v141h1198z" />
    <glyph glyph-name="fraction" unicode="&#x2215;" horiz-adv-x="342" 
d="M-342 -41l899 1473h125l-899 -1473h-125z" />
    <glyph glyph-name="periodcentered" unicode="&#x2219;" horiz-adv-x="561" 
d="M154 702c0 35.333 12.166 65.333 36.499 90s54.5 37 90.5 37s66.5 -12.167 91.5 -36.5s37.5 -54.5 37.5 -90.5c0 -35.333 -12.667 -65.666 -38 -90.999s-55.666 -38 -90.999 -38s-65.333 12.667 -90 38s-37 55.666 -37 90.999z" />
    <glyph glyph-name="radical" unicode="&#x221a;" horiz-adv-x="1305" 
d="M1116 1661h189v-96h-115l-594 -1606h-66l-319 883l-125 -45l-25 80l283 98l256 -709z" />
    <glyph glyph-name="infinity" unicode="&#x221e;" horiz-adv-x="1706" 
d="M915 559c32.667 -58.667 71.3311 -103 115.998 -133s95 -45 151 -45c67.333 0 122.333 22.5 165 67.5s64 102.5 64 172.5c0 67.333 -19.667 123.333 -59 168s-88.666 67 -147.999 67c-54.667 0 -104.167 -22.5 -148.5 -67.5s-91.166 -121.5 -140.499 -229.5zM792.997 666
c-32.667 58.667 -71.168 102.668 -115.501 132.001s-94.833 44 -151.5 44c-68 0 -123.167 -22 -165.5 -66s-63.5 -101.333 -63.5 -172c0 -67.333 19.667 -123.333 59 -168s88.666 -67 147.999 -67c54.667 0 104.334 22.667 149.001 68s91.334 121.666 140.001 228.999z
M863.996 483.001c-46.667 -90 -96.166 -156.168 -148.499 -198.501s-109.833 -63.5 -172.5 -63.5c-90.667 0 -167 37.167 -229 111.5s-93 166.833 -93 277.5c0 116.667 27.833 211 83.5 283s128.167 108 217.5 108c63.333 0 120.5 -21 171.5 -63s100.5 -109 148.5 -201
c45.333 92 94.333 159.833 147 203.5s111.334 65.5 176.001 65.5c89.333 0 165.333 -37.5 228 -112.5s94 -168.167 94 -279.5c0 -116.667 -27.833 -210.667 -83.5 -282s-128.167 -107 -217.5 -107c-62.667 0 -118.834 19.833 -168.501 59.5
s-100.834 105.834 -153.501 198.501z" />
    <glyph glyph-name="integral" unicode="&#x222b;" horiz-adv-x="1067" 
d="M311 -262c70.667 0 110.668 229.334 120.001 688.001l3 165c8 343.333 43.667 589 107 737s162.333 222 297 222c53.333 0 96.666 -14 129.999 -42s50 -63.667 50 -107c0 -36 -10.667 -64.5 -32 -85.5s-50.333 -31.5 -87 -31.5c-28 0 -51.333 6.33301 -70 19
s-32 30.667 -40 54c-4 10 -7.5 27 -10.5 51s-9.83301 36 -20.5 36c-71.333 0 -111.666 -206.333 -120.999 -619c-2.66699 -128.667 -5.33398 -229.667 -8.00098 -303c-11.333 -319.333 -48.5 -548 -111.5 -686s-159.833 -207 -290.5 -207
c-52.667 0 -95.834 13.833 -129.501 41.5s-50.5 63.167 -50.5 106.5c0 37.333 11.333 66.5 34 87.5s54.334 31.5 95.001 31.5c22 0 41 -4.83301 57 -14.5s29 -23.834 39 -42.501c6.66699 -12 11.667 -31.833 15 -59.5s11.333 -41.5 24 -41.5z" />
    <glyph glyph-name="approxequal" unicode="&#x2248;" horiz-adv-x="1706" 
d="M1530 430c-70 -48.667 -136.498 -84.334 -199.498 -107.001s-126.167 -34 -189.5 -34s-158.333 22.5 -285 67.5s-224.334 67.5 -293.001 67.5c-54.667 0 -111.834 -12 -171.501 -36s-130.834 -64.667 -213.501 -122v156c72 48.667 140 85 204 109s125 36 183 36
c76.667 0 178.334 -22.833 305.001 -68.5s217.667 -68.5 273 -68.5c58.667 0 117.667 11.833 177 35.5s129.333 63.834 210 120.501v-156zM1530 799c-70 -48.667 -136.498 -84.5 -199.498 -107.5s-126.167 -34.5 -189.5 -34.5s-158.333 22.667 -285 68
s-224.334 68 -293.001 68c-55.333 0 -112.5 -12 -171.5 -36s-130.167 -64.667 -213.5 -122v156c70.667 48 138 83.833 202 107.5s125.667 35.5 185 35.5c77.333 0 179.166 -22.5 305.499 -67.5s217.166 -67.5 272.499 -67.5c58 0 116.333 11.5 175 34.5
s129.334 63.167 212.001 120.5v-155z" />
    <glyph glyph-name="notequal" unicode="&#x2260;" horiz-adv-x="1706" 
d="M1313 1112l-187 -235h326v-136h-416l-205 -262h621v-135h-709l-249 -317l-105 84l184 233h-319v135h408l204 262h-612v136h702l252 317z" />
    <glyph glyph-name="lessequal" unicode="&#x2264;" horiz-adv-x="1706" 
d="M1446 162v-139h-1184v139h1184zM1444 1059l-936 -309l936 -306v-149l-1182 395v121l1182 395v-147z" />
    <glyph glyph-name="greaterequal" unicode="&#x2265;" horiz-adv-x="1706" 
d="M1446 162v-139h-1184v139h1184zM1446 811v-121l-1184 -395v149l938 306l-938 309v147z" />
    <glyph glyph-name="lozenge" unicode="&#x25ca;" horiz-adv-x="1012" 
d="M506 1409l-385 -817l385 -825l385 825zM506 1653l500 -1061l-500 -1069l-500 1069z" />
    <glyph glyph-name="apple" unicode="&#xf000;" horiz-adv-x="1618" 
d="M836 1216c-0.666992 4 -1.16699 8.66895 -1.5 14.002s-0.5 13 -0.5 23c0 82.667 31.667 159.167 95 229.5s142 114.166 236 131.499c0.666992 -6.66699 1.16699 -14.334 1.5 -23.001s0.5 -21.667 0.5 -39c0 -87.333 -34.5 -165.5 -103.5 -234.5
s-136.833 -103.5 -203.5 -103.5h-8c-2 0 -4.5 0.333008 -7.5 1s-5.83301 1 -8.5 1zM1505 403.002c-76 -164.667 -144.336 -278.834 -205.003 -342.501s-128.667 -95.5 -204 -95.5c-33.333 0 -77.166 11 -131.499 33s-95.166 33 -122.499 33c-30 0 -73.667 -11 -131 -33
s-99.666 -33 -126.999 -33c-42.667 0 -85.5 14.667 -128.5 44s-86.167 73.333 -129.5 132c-68 93.333 -120.5 191.833 -157.5 295.5s-55.5 203.834 -55.5 300.501c0 146 41.667 264.833 125 356.5s191 137.5 323 137.5c45.333 0 97 -11.333 155 -34s99.333 -34 124 -34
c22.667 0 63.167 11.667 121.5 35s109.166 35 152.499 35c73.333 0 139.333 -13.333 198 -40s112.334 -68 161.001 -124c-68 -43.333 -118.5 -91.833 -151.5 -145.5s-49.5 -114.5 -49.5 -182.5c0 -75.333 20 -142 60 -200s97.667 -104 173 -138z" />
    <glyph glyph-name="fi" unicode="&#xf001;" horiz-adv-x="995" 
d="M510 0l227 1071h178l-227 -1071h-178zM778 1257l45 216h178l-45 -216h-178zM12 0l188.999 923.999h-148l29 147h149l33 168c18 86.667 47.833 148.334 89.5 185.001s102.834 55 183.501 55c15.333 0 32.5 -0.833008 51.5 -2.5s41.833 -4.5 68.5 -8.5l-30 -161
c-12.667 2.66699 -26 4.66699 -40 6s-28.667 2 -44 2c-33.333 0 -58 -8.5 -74 -25.5s-29.667 -54.167 -41 -111.5l-20 -107h182l-29 -147h-184l-189 -924h-176z" />
    <glyph glyph-name="fl" unicode="&#xf002;" horiz-adv-x="993" 
d="M512 0l313 1473h176l-313 -1473h-176zM12 0l188.998 923.999h-148l29 147h149l33 168c18 86.667 47.833 148.334 89.5 185.001s102.834 55 183.501 55c15.333 0 32.5 -0.833008 51.5 -2.5s41.833 -4.5 68.5 -8.5l-30 -161c-13.333 2.66699 -26.666 4.66699 -39.999 6
s-27.333 2 -42 2c-33.333 0 -58 -8.5 -74 -25.5s-29.667 -54.167 -41 -111.5l-22 -107h182l-27 -147h-186l-187 -924h-178z" />
    <glyph glyph-name=".null" horiz-adv-x="0" 
 />
    <glyph glyph-name="nonmarkingreturn" horiz-adv-x="561" 
 />
    </font>
</defs>
</svg>
