<?xml version="1.0" standalone="no"?>
<!DOCTYPE svg PUBLIC "-//W3C//DTD SVG 1.1//EN" "http://www.w3.org/Graphics/SVG/1.1/DTD/svg11.dtd" >
<svg>
<metadata>
Created by FontForge 20090914 at Fri Dec 15 08:00:17 2017
 By www-data
Copyright 1990-1992 Bitstream Inc.  All rights reserved.
</metadata>
<defs>
<font id="Swiss721BT-Bold" horiz-adv-x="1024" >
  <font-face 
    font-family="Swis721 BT"
    font-weight="700"
    font-stretch="normal"
    units-per-em="2048"
    panose-1="2 11 7 4 2 2 2 2 2 4"
    ascent="1638"
    descent="-410"
    x-height="1087"
    cap-height="1473"
    bbox="-346 -483 2566 1972"
    underline-thickness="221"
    underline-position="-107"
    unicode-range="U+0020-U+F002"
  />
<missing-glyph horiz-adv-x="1229" 
d="M102 -362v1806h1024v-1806h-1024zM217 -248h795v1577h-795v-1577z" />
    <glyph glyph-name=".notdef" horiz-adv-x="1229" 
d="M102 -362v1806h1024v-1806h-1024zM217 -248h795v1577h-795v-1577z" />
    <glyph glyph-name="space" unicode=" " horiz-adv-x="582" 
 />
    <glyph glyph-name="exclam" unicode="!" horiz-adv-x="676" 
d="M262 410l-78 663v400h308v-400l-78 -663h-152zM188 0v295h297v-295h-297z" />
    <glyph glyph-name="quotedbl" unicode="&#x22;" horiz-adv-x="678" 
d="M406 1438h192v-559h-192v559zM80 1438h192v-559h-192v559z" />
    <glyph glyph-name="numbersign" unicode="#" horiz-adv-x="1575" 
d="M709 848l-88 -244h251l86 244h-249zM709 1464h221l-146 -415h242l148 415h221l-148 -415h283l-74 -201h-280l-84 -242h290l-71 -200h-291l-148 -416h-221l148 416h-244l-149 -416h-220l146 416h-287l76 200h282l86 242h-299l74 201h297z" />
    <glyph glyph-name="dollar" unicode="$" horiz-adv-x="1161" 
d="M641 186c54.667 7.33301 96.333 27 125 59s43 74.667 43 128c0 47.333 -13.5 86.5 -40.5 117.5s-69.5 55.167 -127.5 72.5v-377zM521.999 870v340c-52 -6.66699 -91.667 -24.5 -119 -53.5s-41 -67.833 -41 -116.5c0 -40.667 12.833 -74.667 38.5 -102
s66.167 -50 121.5 -68zM521.999 -225l0.00292969 192.002c-150.667 9.33301 -263.334 53 -338.001 131s-112 190.667 -112 338h268c3.33301 -72 20.166 -128.833 50.499 -170.5s74.166 -68.167 131.499 -79.5v414c-154.667 39.333 -264.667 90.666 -330 153.999
s-98 150 -98 260c0 122 38.833 220.333 116.5 295s181.5 113.667 311.5 117v128h119v-128c130 -6.66699 231.333 -45.834 304 -117.501s112.667 -172.5 120 -302.5h-272c-4.66699 62 -19.5 109.5 -44.5 142.5s-60.833 51.5 -107.5 55.5v-364
c164.667 -51.333 280.667 -110 348 -176s101 -153 101 -261c0 -127.333 -39.167 -229 -117.5 -305s-188.833 -120.333 -331.5 -133v-190h-119z" />
    <glyph glyph-name="percent" unicode="%" horiz-adv-x="1761" 
d="M1169 332c0 -44.667 14.998 -82.167 44.998 -112.5s67 -45.5 111 -45.5c42.667 0 79.334 15.5 110.001 46.5s46 68.167 46 111.5c0 42.667 -15.167 79.167 -45.5 109.5s-67.166 45.5 -110.499 45.5c-44 0 -81 -14.833 -111 -44.5s-45 -66.5 -45 -110.5zM951.998 332
c0 104 36 191.667 108 263s160.333 107 265 107c102.667 0 190.167 -36.167 262.5 -108.5s108.5 -159.5 108.5 -261.5c0 -102.667 -36.333 -190.5 -109 -263.5s-160 -109.5 -262 -109.5c-104.667 0 -193 36 -265 108s-108 160.333 -108 265zM370.998 -41l854 1473h161
l-854 -1473h-161zM282.998 1059c0 -44 14.833 -80.999 44.5 -110.999s66.5 -45 110.5 -45c43.333 0 80.166 15.167 110.499 45.5s45.5 67.166 45.5 110.499c0 42.667 -15.167 79.167 -45.5 109.5s-67.166 45.5 -110.499 45.5c-44 0 -80.833 -14.833 -110.5 -44.5
s-44.5 -66.5 -44.5 -110.5zM65.998 1059c0 104 36.001 192.167 108.001 264.5s160 108.5 264 108.5c102.667 0 190.167 -36.5 262.5 -109.5s108.5 -160.833 108.5 -263.5s-36.167 -190.167 -108.5 -262.5s-159.833 -108.5 -262.5 -108.5
c-104.667 0 -192.834 35.667 -264.501 107s-107.5 159.333 -107.5 264z" />
    <glyph glyph-name="ampersand" unicode="&#x26;" horiz-adv-x="1436" 
d="M553 643l-76 -54.999c-30.667 -21.333 -53.667 -47 -69 -77s-23 -63.667 -23 -101c0 -56.667 19.333 -104.334 58 -143.001s87 -58 145 -58c42.667 0 83.5 8.83301 122.5 26.5s75.167 43.5 108.5 77.5zM633 958.001l35.001 25.001c32 22 55.667 46.667 71 74
s23 58.666 23 93.999c0 34 -10.5 61 -31.5 81s-49.5 30 -85.5 30c-36.667 0 -65.667 -10.167 -87 -30.5s-32 -47.833 -32 -82.5c0 -18.667 5.16699 -39 15.5 -61s25.166 -45.333 44.499 -70zM408.001 825.002l-58 76c-30 40 -51.5 77.5 -64.5 112.5
s-19.5 71.833 -19.5 110.5c0 106.667 34.167 191.5 102.5 254.5s161.166 94.5 278.499 94.5c112.667 0 201.667 -29 267 -87s98 -136.333 98 -235c0 -74.667 -19.167 -141.5 -57.5 -200.5s-98.5 -114.5 -180.5 -166.5l211 -260c20 32.667 35.833 69.334 47.5 110.001
s19.834 86 24.501 136h260c-7.33301 -86.667 -25.333 -167 -54 -241s-68 -141.667 -118 -203l268 -326h-340l-100 123c-58.667 -54 -123.167 -94.833 -193.5 -122.5s-143.833 -41.5 -220.5 -41.5c-136 0 -247.167 40.333 -333.5 121s-129.5 183.667 -129.5 309
c0 93.333 24 173.666 72 240.999s128 132.333 240 195z" />
    <glyph glyph-name="quotesingle" unicode="'" horiz-adv-x="352" 
d="M80 1438h192v-559h-192v559z" />
    <glyph glyph-name="parenleft" unicode="(" horiz-adv-x="758" 
d="M739 1473c-92 -150.667 -160.333 -303.999 -205 -459.999s-67 -319.667 -67 -491c0 -170.667 22.333 -334 67 -490s113 -309.333 205 -460h-211c-116.667 159.333 -205.167 319.5 -265.5 480.5s-90.5 317.5 -90.5 469.5s30.167 308.667 90.5 470
s148.833 321.666 265.5 480.999h211z" />
    <glyph glyph-name="parenright" unicode=")" horiz-adv-x="758" 
d="M23 1473l213 0.00195312c116 -158.667 204 -318.5 264 -479.5s90 -318.167 90 -471.5c0 -152.667 -30 -309.667 -90 -471s-148 -321 -264 -479h-213c92.667 151.333 161.5 305.166 206.5 461.499s67.5 319.166 67.5 488.499c0 170 -22.5 333 -67.5 489
s-113.833 310 -206.5 462z" />
    <glyph glyph-name="asterisk" unicode="*" 
d="M512 889l-176 -248l-170 119l192 241l-280 78l65 203l269 -96v287h198v-287l269 94l67 -203l-280 -76l190 -239l-174 -125z" />
    <glyph glyph-name="plus" unicode="+" horiz-adv-x="1706" 
d="M752 1221h202v-510h498v-199h-498v-512h-202v512h-498v199h498v510z" />
    <glyph glyph-name="comma" unicode="," horiz-adv-x="582" 
d="M139 -346v117.001c56 16 97.333 40.667 124 74s40 76.666 40 129.999v25h-164v301h303v-289c0 -99.333 -25.5 -179.333 -76.5 -240s-126.5 -100 -226.5 -118z" />
    <glyph glyph-name="hyphen" unicode="-" horiz-adv-x="684" 
d="M61 408v274h562v-274h-562z" />
    <glyph glyph-name="period" unicode="." horiz-adv-x="582" 
d="M139 0v301h301v-301h-301z" />
    <glyph glyph-name="slash" unicode="/" horiz-adv-x="649" 
d="M8 -190l496 1701h137l-498 -1701h-135z" />
    <glyph glyph-name="zero" unicode="0" horiz-adv-x="1161" 
d="M360 696c0 -174 17.5 -300.333 52.5 -379s90.833 -118 167.5 -118s132.667 39.667 168 119s53 205.333 53 378c0 173.333 -17.667 299.333 -53 378s-91.333 118 -168 118s-132.5 -39.167 -167.5 -117.5s-52.5 -204.5 -52.5 -378.5zM63 696
c0 246 42.833 430.167 128.5 552.5s215.167 183.5 388.5 183.5c172.667 0 302.167 -61.5 388.5 -184.5s129.5 -307.5 129.5 -553.5s-42.833 -429.667 -128.5 -551s-215.5 -182 -389.5 -182c-173.333 0 -302.833 61 -388.5 183s-128.5 306 -128.5 552z" />
    <glyph glyph-name="one" unicode="1" horiz-adv-x="1161" 
d="M504 0v978.999h-342v201h22c124.667 0 215.5 19.333 272.5 58s90.5 103.334 100.5 194.001h229v-1432h-282z" />
    <glyph glyph-name="two" unicode="2" horiz-adv-x="1161" 
d="M48 0c1.33301 128 28.667 236.498 82 325.498s148 179.167 284 270.5c20.667 14 50.667 33.333 90 58c180 115.333 270 226.333 270 333c0 63.333 -19 113.333 -57 150s-90 55 -156 55c-72 0 -127.5 -22.5 -166.5 -67.5s-58.5 -109.167 -58.5 -192.5v-12h-264
c0 164 44 290.333 132 379s213.333 133 376 133c147.333 0 265 -40.167 353 -120.5s132 -187.166 132 -320.499c0 -95.333 -23 -178 -69 -248s-135 -149.667 -267 -239c-28 -19.333 -66.667 -44.666 -116 -75.999c-125.333 -80.667 -196 -142 -212 -184h650v-244h-1003z" />
    <glyph glyph-name="three" unicode="3" horiz-adv-x="1161" 
d="M57 436l275.001 -0.000976562c0.666992 -80 20 -140.167 58 -180.5s94.333 -60.5 169 -60.5c72 0 127.5 18.833 166.5 56.5s58.5 91.834 58.5 162.501s-22.833 124.167 -68.5 160.5s-113.5 54.5 -203.5 54.5c-4.66699 0 -11.834 -0.333008 -21.501 -1
s-16.834 -1 -21.501 -1v198h31c82.667 0 143.834 16.167 183.501 48.5s59.5 81.833 59.5 148.5c0 55.333 -16.833 99.166 -50.5 131.499s-79.5 48.5 -137.5 48.5c-63.333 0 -112.333 -18.667 -147 -56s-52 -90.333 -52 -159v-12h-270
c3.33301 146.667 46.5 259.167 129.5 337.5s200.167 117.5 351.5 117.5c143.333 0 257 -35 341 -105s126 -164.333 126 -283c0 -62.667 -14.333 -117.667 -43 -165s-71.667 -86.333 -129 -117c73.333 -32 128.833 -76.167 166.5 -132.5s56.5 -123.5 56.5 -201.5
c0 -143.333 -47 -257 -141 -341s-222.333 -126 -385 -126c-160.667 0 -284.5 40.833 -371.5 122.5s-130.5 197.834 -130.5 348.501v6z" />
    <glyph glyph-name="four" unicode="4" horiz-adv-x="1161" 
d="M657 530v613l-389 -613h389zM651 0v309h-604v252l528 830h355v-854h166v-228h-166v-309h-279z" />
    <glyph glyph-name="five" unicode="5" horiz-adv-x="1161" 
d="M52 385l279.999 0.000976562c4.66699 -62.667 25.667 -111.167 63 -145.5s87.333 -51.5 150 -51.5c77.333 0 136.5 22.667 177.5 68s61.5 110.333 61.5 195c0 79.333 -21 141.833 -63 187.5s-100 68.5 -174 68.5c-41.333 0 -77.666 -8.33301 -108.999 -25
s-58 -41.334 -80 -74.001l-258 15l93 768h823v-242h-621l-37 -287c31.333 24.667 67.333 43.167 108 55.5s86 18.5 136 18.5c142.667 0 257.834 -43.333 345.501 -130s131.5 -200.334 131.5 -341.001c0 -154 -48.333 -276.833 -145 -368.5s-226.334 -137.5 -389.001 -137.5
c-148 0 -265.833 37.833 -353.5 113.5s-134.167 179.834 -139.5 312.501z" />
    <glyph glyph-name="six" unicode="6" horiz-adv-x="1161" 
d="M369 455c0 -82 20.501 -147.001 61.501 -195.001s96.833 -72 167.5 -72c66 0 117.667 23.333 155 70s56 111.667 56 195c0 76.667 -19.333 136.334 -58 179.001s-93 64 -163 64c-68.667 0 -122.334 -21.333 -161.001 -64s-58 -101.667 -58 -177zM365.001 828.999
c32.667 33.333 72 58.499 118 75.499s97.333 25.5 154 25.5c140 0 252.167 -42.667 336.5 -128s126.5 -199 126.5 -341c0 -150.667 -46 -272.334 -138 -365.001s-213.333 -139 -364 -139c-174 0 -306.167 60 -396.5 180s-135.5 295.667 -135.5 527
c0 248.667 48.333 438.834 145 570.501s236 197.5 418 197.5c126.667 0 228.834 -33 306.501 -99s120.167 -155.333 127.5 -268h-290c-6.66699 46 -24.667 80.667 -54 104s-70.333 35 -123 35c-72 0 -127.333 -31.167 -166 -93.5s-60.334 -156.166 -65.001 -281.499z" />
    <glyph glyph-name="seven" unicode="7" horiz-adv-x="1161" 
d="M569 0l-299.003 -0.000976562c10.667 195.333 57.834 389 141.501 581s203.167 380.667 358.5 566h-704v244h1015v-215c-157.333 -173.333 -278.166 -356.666 -362.499 -549.999s-134.166 -402 -149.499 -626z" />
    <glyph glyph-name="eight" unicode="8" horiz-adv-x="1161" 
d="M356 416c0 -70 19.5 -124 58.5 -162s94.833 -57 167.5 -57c69.333 0 123.833 19.333 163.5 58s59.5 92.334 59.5 161.001c0 66 -20.333 119 -61 159s-94.667 60 -162 60s-121.833 -20.333 -163.5 -61s-62.5 -93.334 -62.5 -158.001zM379 1030
c0 -55.333 17.3311 -97.833 51.998 -127.5s84.334 -44.5 149.001 -44.5s114.5 15 149.5 45s52.5 72.333 52.5 127c0 53.333 -18 95.333 -54 126s-85.333 46 -148 46c-61.333 0 -110.166 -15.667 -146.499 -47s-54.5 -73 -54.5 -125zM275.998 752
c-60 33.333 -103.332 72.332 -129.999 116.999s-40 101.667 -40 171c0 122.667 42 219 126 289s200 105 348 105c149.333 0 266.166 -34.833 350.499 -104.5s126.5 -166.167 126.5 -289.5c0 -66 -14.333 -123.167 -43 -171.5s-71.667 -87.166 -129 -116.499
c70 -32.667 122.667 -77.834 158 -135.501s53 -127.834 53 -210.501c0 -139.333 -45.833 -248.666 -137.5 -327.999s-217.834 -119 -378.501 -119c-162.667 0 -289 39.333 -379 118s-135 188.334 -135 329.001c0 82 16.833 150.833 50.5 206.5s86.834 102.167 159.501 139.5
z" />
    <glyph glyph-name="nine" unicode="9" horiz-adv-x="1161" 
d="M786 934c0 82 -20.501 146.832 -61.501 194.499s-96.833 71.5 -167.5 71.5c-66.667 0 -118.5 -23 -155.5 -69s-55.5 -110.333 -55.5 -193c0 -77.333 19.333 -137.666 58 -180.999s93 -65 163 -65c68.667 0 122.334 21.333 161.001 64s58 102 58 178zM790.999 560.999
c-33.333 -33.333 -72.666 -58.335 -117.999 -75.002s-96.333 -25 -153 -25c-140.667 0 -253.334 42.333 -338.001 127s-127 198 -127 340c0 150.667 46 272.334 138 365.001s213.333 139 364 139c174.667 0 307.5 -60.167 398.5 -180.5s136.5 -295.833 136.5 -526.5
c0 -248 -48.667 -438 -146 -570s-237.333 -198 -420 -198c-126 0 -227.667 32.833 -305 98.5s-119.666 155.167 -126.999 268.5l289 -1c6.66699 -46 24.667 -80.333 54 -103s70.666 -34 123.999 -34c72 0 127 31.333 165 94s59.667 156.334 65 281.001z" />
    <glyph glyph-name="colon" unicode=":" horiz-adv-x="629" 
d="M162 766v303h303v-303h-303zM162 0v301h303v-301h-303z" />
    <glyph glyph-name="semicolon" unicode=";" horiz-adv-x="629" 
d="M164 766v303h301v-303h-301zM164 -346v117.001c56 16 97.333 40.667 124 74s40 76.666 40 129.999v25h-166v301h303v-289c0 -100 -25.333 -180.167 -76 -240.5s-125.667 -99.5 -225 -117.5z" />
    <glyph glyph-name="less" unicode="&#x3c;" horiz-adv-x="1706" 
d="M1442 1194v-219l-893 -365l893 -364v-219l-1178 485v199z" />
    <glyph glyph-name="equal" unicode="=" horiz-adv-x="1706" 
d="M254 496h1198v-199h-1198v199zM254 926h1198v-199h-1198v199z" />
    <glyph glyph-name="greater" unicode="&#x3e;" horiz-adv-x="1706" 
d="M264 1194l1178 -483v-199l-1178 -485v219l895 364l-895 365v219z" />
    <glyph glyph-name="question" unicode="?" horiz-adv-x="1143" 
d="M438 428c0 7.33301 -0.335938 17.166 -1.00293 29.499s-1 21.5 -1 27.5c0 58.667 6.33301 107.5 19 146.5s33 75.5 61 109.5c21.333 25.333 53.166 54.333 95.499 87s69.833 56.334 82.5 71.001c26.667 30 45 57 55 81s15 50.333 15 79
c0 63.333 -17.667 112.666 -53 147.999s-84.666 53 -147.999 53s-113.166 -21.167 -149.499 -63.5s-56.166 -101.833 -59.499 -178.5h-282v31c0 140.667 44.5 252.834 133.5 336.501s208.833 125.5 359.5 125.5c154 0 276.5 -39.5 367.5 -118.5s136.5 -184.833 136.5 -317.5
c0 -46.667 -5.16699 -88.5 -15.5 -125.5s-26.166 -70.833 -47.499 -101.5c-27.333 -38.667 -69.5 -80.5 -126.5 -125.5s-91.5 -72.833 -103.5 -83.5c-25.333 -24.667 -43.5 -50.667 -54.5 -78s-16.5 -60 -16.5 -98c0 -3.33301 0.333008 -9 1 -17s1 -14 1 -18h-269z
M423.997 0v293h295v-293h-295z" />
    <glyph glyph-name="at" unicode="@" horiz-adv-x="2048" 
d="M1167 272c-36.667 -56 -79 -97.1602 -127 -123.493s-104.667 -39.5 -170 -39.5c-105.333 0 -185.5 28.667 -240.5 86s-82.5 142 -82.5 254c0 159.333 46.5 293 139.5 401s207.5 162 343.5 162c53.333 0 99.666 -11 138.999 -33s71.666 -54.667 96.999 -98l53 98h178
l-147 -598c-2 -7.33301 -3.66699 -14.833 -5 -22.5s-2 -13.834 -2 -18.501c0 -23.333 8 -40.833 24 -52.5s39.667 -17.5 71 -17.5c26 0 53.167 6.66699 81.5 20s54.833 32 79.5 56c57.333 53.333 100.833 115.666 130.5 186.999s44.5 149.666 44.5 234.999
c0 160 -61.833 291.5 -185.5 394.5s-283.167 154.5 -478.5 154.5c-94 0 -181.5 -11.333 -262.5 -34s-154.5 -56.334 -220.5 -101.001c-113.333 -76 -200.5 -171 -261.5 -285s-91.5 -239 -91.5 -375c0 -204.667 69 -368.167 207 -490.5s322.333 -183.5 553 -183.5
c108 0 213.5 16.333 316.5 49s198.833 80 287.5 142l82 -117c-102 -76.667 -210.167 -134.334 -324.5 -173.001s-233.5 -58 -357.5 -58c-128 0 -245.667 16.167 -353 48.5s-202.666 80.166 -285.999 143.499c-103.333 80.667 -180.666 173.667 -231.999 279
s-77 224.666 -77 357.999c0 111.333 17.5 217.5 52.5 318.5s86.5 192.833 154.5 275.5c98.667 120.667 217.334 212 356.001 274s293 93 463 93c112.667 0 218.5 -15.167 317.5 -45.5s185.167 -73.166 258.5 -128.499c90 -70 157.167 -149.833 201.5 -239.5
s66.5 -190.834 66.5 -303.501c0 -110 -21.833 -211.5 -65.5 -304.5s-106.5 -172.5 -188.5 -238.5c-46.667 -37.333 -97.5 -65.833 -152.5 -85.5s-112.167 -29.5 -171.5 -29.5c-70.667 0 -123.834 14 -159.501 42s-54.167 69.333 -55.5 124zM1217 700.007
c-8.66699 54 -27.833 95.167 -57.5 123.5s-68.834 42.5 -117.501 42.5c-76 0 -142 -41.333 -198 -124s-84 -182 -84 -298c0 -61.333 13.5 -108 40.5 -140s66.167 -48 117.5 -48c55.333 0 105.833 21 151.5 63s76.834 96.667 93.501 164z" />
    <glyph glyph-name="A" unicode="A" horiz-adv-x="1405" 
d="M700 1178l-204 -627h409zM524 1473h350l531 -1473h-318l-100 303h-571l-97 -303h-319z" />
    <glyph glyph-name="B" unicode="B" horiz-adv-x="1442" 
d="M442 266h358.999c84.667 0 146.334 15.333 185.001 46s58 79 58 145c0 68.667 -19 118.167 -57 148.5s-100.667 45.5 -188 45.5h-357v-385zM441.999 903h345.999c74.667 0 129.334 12.833 164.001 38.5s52 66.167 52 121.5c0 54 -16.833 93.167 -50.5 117.5
s-89.5 36.5 -167.5 36.5h-344v-314zM151.998 0l-0.000976562 1473h694c150.667 0 265.5 -31.833 344.5 -95.5s118.5 -156.167 118.5 -277.5c0 -74.667 -14.667 -137 -44 -187s-73.333 -88.667 -132 -116c76 -30.667 132.833 -74.834 170.5 -132.501s56.5 -129.5 56.5 -215.5
c0 -143.333 -46.667 -254 -140 -332s-225.666 -117 -396.999 -117h-671z" />
    <glyph glyph-name="C" unicode="C" horiz-adv-x="1524" 
d="M1434 506c-11.333 -167.333 -75.833 -300.333 -193.5 -399s-271.167 -148 -460.5 -148c-218 0 -387.5 68 -508.5 204s-181.5 326.667 -181.5 572c0 250.667 61.667 442.667 185 576s300.666 200 531.999 200c188 0 336.5 -45.833 445.5 -137.5
s168.833 -221.167 179.5 -388.5h-299c-12.667 83.333 -46.667 146.833 -102 190.5s-130 65.5 -224 65.5c-133.333 0 -234.666 -43 -303.999 -129s-104 -211.667 -104 -377c0 -160 34.5 -283.667 103.5 -371s167.167 -131 294.5 -131c92 0 167.333 23.5 226 70.5
s96.667 114.5 114 202.5h297z" />
    <glyph glyph-name="D" unicode="D" horiz-adv-x="1489" 
d="M449 266h243.001c140.667 0 242.5 36.833 305.5 110.5s94.5 193.167 94.5 358.5c0 164.667 -29.333 285.667 -88 363s-150.334 116 -275.001 116h-280v-948zM152.001 0l0.00195312 1473h577c226 0 394.5 -61 505.5 -183s166.5 -307 166.5 -555
c0 -134.667 -20.5 -253.334 -61.5 -356.001s-100.5 -185.334 -178.5 -248.001c-58.667 -46.667 -125.334 -80.167 -200.001 -100.5s-179.334 -30.5 -314.001 -30.5h-495z" />
    <glyph glyph-name="E" unicode="E" horiz-adv-x="1337" 
d="M152 0v1473h1069v-256h-770v-314h704v-252h-704v-379h806v-272h-1105z" />
    <glyph glyph-name="F" unicode="F" horiz-adv-x="1225" 
d="M152 0v1473h1028v-256h-729v-334h639v-256h-639v-627h-299z" />
    <glyph glyph-name="G" unicode="G" horiz-adv-x="1591" 
d="M1212 174c-54.667 -74 -116.833 -128.336 -186.5 -163.003s-151.5 -52 -245.5 -52c-206 0 -372.833 71.5 -500.5 214.5s-191.5 330.833 -191.5 563.5c0 234.667 63.667 422.334 191 563.001s297 211 509 211c184.667 0 335.334 -44.167 452.001 -132.5
s186 -209.833 208 -364.5h-309c-18.667 76.667 -56.834 135 -114.501 175s-132.834 60 -225.501 60c-123.333 0 -220.166 -45.167 -290.499 -135.5s-105.5 -215.166 -105.5 -374.499c0 -160 36.667 -285.333 110 -376s174 -136 302 -136c96 0 176.333 28.333 241 85
s104.667 134.334 120 233.001h-334v252h610v-797h-203z" />
    <glyph glyph-name="H" unicode="H" horiz-adv-x="1522" 
d="M152 0v1473h305v-549h608v549h305v-1473h-305v653h-608v-653h-305z" />
    <glyph glyph-name="I" unicode="I" horiz-adv-x="629" 
d="M162 0v1473h303v-1473h-303z" />
    <glyph glyph-name="J" unicode="J" horiz-adv-x="1133" 
d="M49 549l292.999 -0.000976562v-178c0 -51.333 15.333 -90.5 46 -117.5s74.667 -40.5 132 -40.5c62.667 0 106.334 16.333 131.001 49s37 94 37 184v1027h303v-1041c0 -93.333 -5.5 -161.833 -16.5 -205.5s-29.167 -82.167 -54.5 -115.5
c-38.667 -49.333 -91.667 -87 -159 -113s-146.333 -39 -237 -39c-83.333 0 -157 11.333 -221 34s-117.333 56.334 -160 101.001c-34 36 -58.167 76.167 -72.5 120.5s-21.5 117.5 -21.5 219.5v115z" />
    <glyph glyph-name="K" unicode="K" horiz-adv-x="1440" 
d="M152 0v1473h303v-605l575 605h379l-588 -596l641 -877h-370l-480 674l-157 -156v-518h-303z" />
    <glyph glyph-name="L" unicode="L" horiz-adv-x="1188" 
d="M152 0v1473h303v-1201h719v-272h-1022z" />
    <glyph glyph-name="M" unicode="M" horiz-adv-x="1786" 
d="M152 0v1473h448l293 -1121l289 1121h450v-1473h-284v1188l-299 -1188h-310l-303 1188v-1188h-284z" />
    <glyph glyph-name="N" unicode="N" horiz-adv-x="1518" 
d="M152 0v1473h317l598 -1012v1012h299v-1473h-313l-602 1012v-1012h-299z" />
    <glyph glyph-name="O" unicode="O" horiz-adv-x="1616" 
d="M397 735c0 -162 36 -287.833 108 -377.5s172.667 -134.5 302 -134.5c130.667 0 232.334 44.833 305.001 134.5s109 215.5 109 377.5s-36.333 287.833 -109 377.5s-174.334 134.5 -305.001 134.5c-129.333 0 -230 -44.667 -302 -134s-108 -215.333 -108 -378zM88 735
c0 238 64.833 426.833 194.5 566.5s304.5 209.5 524.5 209.5s395.167 -70 525.5 -210s195.5 -328.667 195.5 -566s-65.167 -426 -195.5 -566s-305.5 -210 -525.5 -210s-394.833 70 -524.5 210s-194.5 328.667 -194.5 566z" />
    <glyph glyph-name="P" unicode="P" horiz-adv-x="1366" 
d="M457 791l293 -0.000976562c79.333 0 137 16.833 173 50.5s54 87.834 54 162.501c0 70 -17.667 123 -53 159s-88 54 -158 54h-309v-426zM455 523.999l-0.000976562 -524.001h-303v1473h655c154.667 0 271.834 -40.167 351.501 -120.5s119.5 -198.166 119.5 -353.499
c0 -152 -39 -269.167 -117 -351.5s-189.333 -123.5 -334 -123.5h-372z" />
    <glyph glyph-name="Q" unicode="Q" horiz-adv-x="1616" 
d="M985 262l-155.998 151.999l166 172l160 -156c21.333 40 37.666 85.667 48.999 137s17 107.333 17 168c0 162 -36.333 287.833 -109 377.5s-174.334 134.5 -305.001 134.5c-129.333 0 -230 -44.667 -302 -134s-108 -215.333 -108 -378c0 -162 36 -287.833 108 -377.5
s172.667 -134.5 302 -134.5c33.333 0 64.833 3.33301 94.5 10s57.5 16.334 83.5 29.001zM1198 60.999c-50 -33.333 -108.167 -58.667 -174.5 -76s-138.5 -26 -216.5 -26c-220 0 -394.833 70 -524.5 210s-194.5 328.667 -194.5 566c0 238 64.833 426.833 194.5 566.5
s304.5 209.5 524.5 209.5s395.167 -70 525.5 -210s195.5 -328.667 195.5 -566c0 -104 -13.333 -199.167 -40 -285.5s-66 -161.833 -118 -226.5l160 -153l-164 -172z" />
    <glyph glyph-name="R" unicode="R" horiz-adv-x="1462" 
d="M455 829l356.001 0.000976562c77.333 0 134.166 15.667 170.499 47s54.5 80.666 54.5 147.999c0 64 -17.667 112.5 -53 145.5s-88 49.5 -158 49.5h-370v-390zM152.001 0.000976562l0.00195312 1473h714c160.667 0 279.667 -34.333 357 -103s116 -173.667 116 -315
c0 -90 -18.833 -165 -56.5 -225s-91.834 -101 -162.501 -123c64 -22.667 109.5 -57.334 136.5 -104.001s42.5 -119.334 46.5 -218.001l6 -174v-6c2 -88 21 -141.333 57 -160v-45h-332c-10.667 20.667 -18.834 46.167 -24.501 76.5s-9.16699 66.5 -10.5 108.5l-4 155
c-3.33301 91.333 -20.5 153 -51.5 185s-86.833 48 -167.5 48h-321v-573h-303z" />
    <glyph glyph-name="S" unicode="S" horiz-adv-x="1366" 
d="M84 455l298.997 0.00195312c11.333 -80.667 44.333 -140.5 99 -179.5s133.667 -58.5 237 -58.5c88 0 154.333 15.667 199 47s67 77.666 67 138.999c0 89.333 -128.333 163.333 -385 222c-3.33301 0.666992 -6.33301 1.33398 -9 2.00098
c-6.66699 1.33301 -17 3.66602 -31 6.99902c-137.333 30 -235.333 63.667 -294 101c-52 33.333 -91.667 78.166 -119 134.499s-41 122.833 -41 199.5c0 143.333 48.667 253.166 146 329.499s238 114.5 422 114.5c172 0 306.5 -40.667 403.5 -122s148.167 -196 153.5 -344
h-291c-5.33301 71.333 -32.666 125.666 -81.999 162.999s-119.666 56 -210.999 56c-79.333 0 -140.5 -15.5 -183.5 -46.5s-64.5 -75.167 -64.5 -132.5c0 -78 83.667 -136.333 251 -175l106 -25c107.333 -27.333 183.5 -48.666 228.5 -63.999s84.167 -32.333 117.5 -51
c60 -33.333 105 -77.5 135 -132.5s45 -120.833 45 -197.5c0 -153.333 -51.667 -272.166 -155 -356.499s-249 -126.5 -437 -126.5c-185.333 0 -330.666 43 -435.999 129s-162 208.333 -170 367z" />
    <glyph glyph-name="T" unicode="T" horiz-adv-x="1217" 
d="M457 0v1210h-437v263h1174v-263h-434v-1210h-303z" />
    <glyph glyph-name="U" unicode="U" horiz-adv-x="1468" 
d="M143 1477l306 0.00195312v-924c0 -114 22.667 -197.167 68 -249.5s117.333 -78.5 216 -78.5c100 0 172.833 26 218.5 78s68.5 135.333 68.5 250v924h303v-957c0 -180.667 -50.5 -319.334 -151.5 -416.001s-246.5 -145 -436.5 -145
c-191.333 0 -337.833 48.167 -439.5 144.5s-152.5 235.166 -152.5 416.499v957z" />
    <glyph glyph-name="V" unicode="V" horiz-adv-x="1280" 
d="M498 0l-508 1473h336l313 -1102l319 1102h332l-502 -1473h-290z" />
    <glyph glyph-name="W" unicode="W" horiz-adv-x="1913" 
d="M438 0l-422 1473h314l252 -1039l213 1039h323l213 -1039l252 1039h311l-421 -1473h-289l-228 1128l-229 -1128h-289z" />
    <glyph glyph-name="X" unicode="X" horiz-adv-x="1282" 
d="M-10 0l463 752l-463 721h350l301 -515l299 515h352l-463 -719l463 -754h-350l-301 510l-301 -510h-350z" />
    <glyph glyph-name="Y" unicode="Y" horiz-adv-x="1274" 
d="M811 0h-303v549l-535 924h371l315 -635l291 635h346l-485 -924v-549z" />
    <glyph glyph-name="Z" unicode="Z" horiz-adv-x="1231" 
d="M37 0v256l801 950h-785v267h1153v-256l-803 -951h785v-266h-1151z" />
    <glyph glyph-name="bracketleft" unicode="[" horiz-adv-x="782" 
d="M238 1473h505v-213h-235v-1483h235v-213h-505v1909z" />
    <glyph glyph-name="backslash" unicode="\" horiz-adv-x="649" 
d="M504 -190l-496 1701h135l498 -1701h-137z" />
    <glyph glyph-name="bracketright" unicode="]" horiz-adv-x="782" 
d="M557 1473v-1909h-506v213h236v1483h-236v213h506z" />
    <glyph glyph-name="asciicircum" unicode="^" horiz-adv-x="2048" 
d="M897 1460h252l481 -561h-235l-371 371l-373 -371h-235z" />
    <glyph glyph-name="underscore" unicode="_" 
d="M0 -279h1024v-204h-1024v204z" />
    <glyph glyph-name="grave" unicode="`" 
d="M219 1587h258l197 -370h-142z" />
    <glyph glyph-name="a" unicode="a" horiz-adv-x="1151" 
d="M750 135c-36.667 -56.667 -84.668 -99.8369 -144.001 -129.504s-128.333 -44.5 -207 -44.5c-105.333 0 -186.5 30 -243.5 90s-85.5 145.333 -85.5 256c0 102.667 28.5 181 85.5 235s151.167 91 282.5 111c30 4.66699 69.333 10 118 16c123.333 16 185 51.667 185 107
c0 44 -13.667 75.5 -41 94.5s-73 28.5 -137 28.5c-58.667 0 -103.667 -11.667 -135 -35s-47 -56.666 -47 -99.999v-16h-272v20c0 111.333 39.333 198.833 118 262.5s187.334 95.5 326.001 95.5c152 0 268.5 -26.333 349.5 -79s121.5 -128.667 121.5 -228v-618
c0 -45.333 4.66699 -79.166 14 -101.499s25 -39.166 47 -50.499v-49h-303c-10 18.667 -17.667 39.334 -23 62.001s-8.33301 47 -9 73zM744.999 534.997c-47.333 -22 -101.834 -39.667 -163.501 -53s-93.5 -20.333 -95.5 -21c-51.333 -14.667 -87.166 -33 -107.499 -55
s-30.5 -52.333 -30.5 -91c0 -40 13 -71.833 39 -95.5s61 -35.5 105 -35.5c78.667 0 140.5 22.167 185.5 66.5s67.5 104.833 67.5 181.5v103z" />
    <glyph glyph-name="b" unicode="b" horiz-adv-x="1255" 
d="M133 1473l283.002 -0.000976562v-521c36 56.667 81.167 99.5 135.5 128.5s116.166 43.5 185.499 43.5c131.333 0 238.666 -54.167 321.999 -162.5s125 -249.166 125 -422.499c0 -172 -41.667 -311 -125 -417s-192 -159 -326 -159c-70 0 -130.833 14.667 -182.5 44
s-98.5 76 -140.5 140v-147h-277v1473zM895.002 550.999c0 100 -21 178.501 -63 235.501s-99.667 85.5 -173 85.5c-77.333 0 -137.166 -27.833 -179.499 -83.5s-63.5 -134.834 -63.5 -237.501c0 -110.667 20.167 -194.667 60.5 -252s99.166 -86 176.499 -86
c78.667 0 138.667 28.833 180 86.5s62 141.5 62 251.5z" />
    <glyph glyph-name="c" unicode="c" horiz-adv-x="1128" 
d="M784 410l286.999 -0.000976562c-12 -138 -62.333 -247 -151 -327s-202.667 -120 -342 -120c-158 0 -281.833 51.5 -371.5 154.5s-134.5 245.5 -134.5 427.5c0 181.333 45.833 323.5 137.5 426.5s217.834 154.5 378.501 154.5c140.667 0 253.5 -37.333 338.5 -112
s132.5 -178.667 142.5 -312h-289c-8 58 -28.333 102.333 -61 133s-75.667 46 -129 46c-72 0 -125.833 -28.333 -161.5 -85s-53.5 -141.667 -53.5 -255c0 -104.667 18.5 -185.167 55.5 -241.5s90.167 -84.5 159.5 -84.5c54 0 97.333 16.333 130 49s54 81.334 64 146.001z" />
    <glyph glyph-name="d" unicode="d" horiz-adv-x="1260" 
d="M1126 1473v-1473h-276v147c-42 -63.333 -89.167 -109.833 -141.5 -139.5s-113.833 -44.5 -184.5 -44.5c-134 0 -242.5 53 -325.5 159s-124.5 245 -124.5 417c0 173.333 41.5 314.166 124.5 422.499s190.167 162.5 321.5 162.5c70 0 132.5 -14.667 187.5 -44
s100.5 -72 136.5 -128v521h282zM365 551.001c0 -110 20.667 -193.834 62 -251.501s101 -86.5 179 -86.5c77.333 0 136.333 28.667 177 86s61 141.333 61 252c0 102.667 -21.333 181.834 -64 237.501s-102.667 83.5 -180 83.5c-72.667 0 -130 -28.5 -172 -85.5
s-63 -135.5 -63 -235.5z" />
    <glyph glyph-name="e" unicode="e" horiz-adv-x="1167" 
d="M797 330l289.997 -0.00292969c-29.333 -114.667 -88.5 -204.5 -177.5 -269.5s-197.5 -97.5 -325.5 -97.5c-157.333 0 -282 52.833 -374 158.5s-138 248.834 -138 429.501c0 178 45.333 318.333 136 421s214.667 154 372 154c166.667 0 295.334 -50.5 386.001 -151.5
s136 -244.833 136 -431.5c0 -20.667 -0.166992 -36.167 -0.5 -46.5s-1.16602 -20.166 -2.49902 -29.499h-726c4 -85.333 24.833 -149.666 62.5 -192.999s91.834 -65 162.501 -65c50 0 91 9.83301 123 29.5s57.333 50.167 76 91.5zM372.997 657.997l427.999 0.00195312
c-2.66699 73.333 -22.167 129.166 -58.5 167.499s-88.5 57.5 -156.5 57.5c-63.333 0 -113.166 -19.333 -149.499 -58s-57.5 -94.334 -63.5 -167.001z" />
    <glyph glyph-name="f" unicode="f" horiz-adv-x="664" 
d="M178 0v883h-155v204h155v101c0 101.333 26.167 175.833 78.5 223.5s134.833 71.5 247.5 71.5c20.667 0 42.5 -0.5 65.5 -1.5s47.5 -2.83301 73.5 -5.5v-231h-76c-43.333 0 -71.833 -5.66699 -85.5 -17s-20.5 -33 -20.5 -65v-76h182v-204h-180v-883h-285z" />
    <glyph glyph-name="g" unicode="g" horiz-adv-x="1249" 
d="M365 561c0 -102 20.501 -180.333 61.501 -235s99.5 -82 175.5 -82c76.667 0 135.167 27.333 175.5 82s60.5 134.334 60.5 239.001c0 99.333 -20.833 176.166 -62.5 230.499s-100.834 81.5 -177.501 81.5c-74 0 -131.333 -27.667 -172 -83s-61 -133 -61 -233z
M102.001 -105l317.999 1.00195c9.33301 -36.667 28.5 -64 57.5 -82s67.833 -27 116.5 -27c90.667 0 154 19.167 190 57.5s54 109.166 54 212.499v97c-30.667 -52.667 -70.5 -91.5 -119.5 -116.5s-110.167 -37.5 -183.5 -37.5c-140.667 0 -253.334 50.167 -338.001 150.5
s-127 233.833 -127 400.5c0 176 41.5 315.833 124.5 419.5s194.833 155.5 335.5 155.5c73.333 0 135.833 -14 187.5 -42s93.834 -70.667 126.501 -128v131h276v-1015c0 -114 -10.667 -201 -32 -261s-57.666 -110.333 -108.999 -151c-44 -34 -99.833 -59.833 -167.5 -77.5
s-144.834 -26.5 -231.501 -26.5c-145.333 0 -259.666 29.667 -342.999 89s-128.333 142.666 -135 249.999z" />
    <glyph glyph-name="h" unicode="h" horiz-adv-x="1233" 
d="M133 0l0.00195312 1473h289v-506c39.333 49.333 86.166 86.5 140.499 111.5s115.166 37.5 182.499 37.5c64 0 121.833 -11 173.5 -33s93.5 -53.333 125.5 -94c22 -27.333 37.5 -58.666 46.5 -93.999s13.5 -92 13.5 -170v-20v-705h-289v569
c0 134.667 -12.333 219.167 -37 253.5s-69 51.5 -133 51.5c-68.667 0 -123 -20.5 -163 -61.5s-60 -96.833 -60 -167.5v-645h-289z" />
    <glyph glyph-name="i" unicode="i" horiz-adv-x="557" 
d="M133 1208v265h291v-265h-291zM133 0v1087h291v-1087h-291z" />
    <glyph glyph-name="j" unicode="j" horiz-adv-x="555" 
d="M133 1208v262h291v-262h-291zM6 -444l0.000976562 242.999h57c24.667 0 42.5 5.83301 53.5 17.5s16.5 30.5 16.5 56.5v1214h291v-1261c0 -97.333 -27.333 -166.666 -82 -207.999s-148.334 -62 -281.001 -62h-55z" />
    <glyph glyph-name="k" unicode="k" horiz-adv-x="1135" 
d="M133 0v1473h283v-773l346 387h350l-379 -403l402 -684h-349l-260 463l-110 -119v-344h-283z" />
    <glyph glyph-name="l" unicode="l" horiz-adv-x="563" 
d="M137 0v1473h291v-1473h-291z" />
    <glyph glyph-name="m" unicode="m" horiz-adv-x="1796" 
d="M127 0l-0.000976562 1087h276v-120c40.667 50 86 87.667 136 113s105.333 38 166 38c68.667 0 127.334 -12.833 176.001 -38.5s91 -66.167 127 -121.5c38 53.333 83 93.333 135 120s110 40 174 40c109.333 0 196 -32 260 -96s96 -151.333 96 -262v-760h-287v700
c0 52.667 -14.167 93.5 -42.5 122.5s-67.833 43.5 -118.5 43.5c-56.667 0 -101.667 -18.5 -135 -55.5s-50 -87.5 -50 -151.5v-659h-284v698c0 53.333 -13.833 94.666 -41.5 123.999s-66.5 44 -116.5 44c-56.667 0 -101.5 -18.667 -134.5 -56s-49.5 -88.333 -49.5 -153v-657
h-287z" />
    <glyph glyph-name="n" unicode="n" horiz-adv-x="1223" 
d="M127 0l-0.000976562 1087h285v-129c40.667 52.667 88.667 92.167 144 118.5s117 39.5 185 39.5c120 0 209.833 -31.167 269.5 -93.5s89.5 -156.166 89.5 -281.499v-741h-291v657c0 78 -13.167 133.667 -39.5 167s-69.166 50 -128.499 50c-68.667 0 -123 -20.5 -163 -61.5
s-60 -96.833 -60 -167.5v-645h-291z" />
    <glyph glyph-name="o" unicode="o" horiz-adv-x="1245" 
d="M367 545c0 -108 22.167 -191.333 66.5 -250s107.5 -88 189.5 -88c80.667 0 143.167 29.333 187.5 88s66.5 142 66.5 250c0 107.333 -22 190.166 -66 248.499s-106.667 87.5 -188 87.5c-82 0 -145.167 -29.167 -189.5 -87.5s-66.5 -141.166 -66.5 -248.499zM72 545
c0 180.667 49 322.667 147 426s232.667 155 404 155c170.667 0 305.167 -51.667 403.5 -155s147.5 -245.333 147.5 -426c0 -181.333 -49.167 -323.666 -147.5 -426.999s-232.833 -155 -403.5 -155c-171.333 0 -306 51.667 -404 155s-147 245.666 -147 426.999z" />
    <glyph glyph-name="p" unicode="p" horiz-adv-x="1255" 
d="M895 537c0 109.333 -20.667 192.833 -62 250.5s-101.333 86.5 -180 86.5c-77.333 0 -136.166 -28.667 -176.499 -86s-60.5 -141 -60.5 -251c0 -102.667 21.167 -182 63.5 -238s102.166 -84 179.499 -84c73.333 0 131 28.667 173 86s63 136 63 236zM133 -436
l-0.00195312 1523h277v-147c42 64 88.833 110.667 140.5 140s112.5 44 182.5 44c134 0 242.667 -52.833 326 -158.5s125 -244.5 125 -416.5c0 -174 -41.667 -315.167 -125 -423.5s-190.666 -162.5 -321.999 -162.5c-69.333 0 -131.166 14.667 -185.499 44
s-99.5 72 -135.5 128v-571h-283z" />
    <glyph glyph-name="q" unicode="q" horiz-adv-x="1255" 
d="M360 551c0 -110 20.667 -193.834 62 -251.501s101.333 -86.5 180 -86.5c77.333 0 136.333 28.667 177 86s61 141.333 61 252c0 102.667 -21.333 181.834 -64 237.501s-102.667 83.5 -180 83.5c-72.667 0 -130.167 -28.5 -172.5 -85.5s-63.5 -135.5 -63.5 -235.5z
M1124 1087l0.000976562 -1523h-284v577c-40.667 -60.667 -86.834 -105.5 -138.501 -134.5s-111.5 -43.5 -179.5 -43.5c-134 0 -242.5 53 -325.5 159s-124.5 245 -124.5 417c0 173.333 41.5 314.166 124.5 422.499s190.167 162.5 321.5 162.5
c70.667 0 133.5 -14.833 188.5 -44.5s100.833 -73.5 137.5 -131.5v139h280z" />
    <glyph glyph-name="r" unicode="r" horiz-adv-x="786" 
d="M127 0l0.000976562 1087h270v-186c38 74.667 82.333 129.5 133 164.5s111 52.5 181 52.5c11.333 0 20.166 -0.166992 26.499 -0.5s11.5 -0.833008 15.5 -1.5l1 -295h-97c-79.333 0 -139 -20.667 -179 -62s-60 -102.666 -60 -183.999v-575h-291z" />
    <glyph glyph-name="s" unicode="s" horiz-adv-x="1118" 
d="M66 354l290.002 -0.000976562c2.66699 -55.333 22.667 -96.5 60 -123.5s93.333 -40.5 168 -40.5c56.667 0 100.5 9.5 131.5 28.5s46.5 45.833 46.5 80.5c0 49.333 -58 86.333 -174 111c-47.333 10 -85 18.667 -113 26c-141.333 36 -239.5 78.667 -294.5 128
s-82.5 116 -82.5 200c0 111.333 40.167 199.5 120.5 264.5s189.166 97.5 326.499 97.5c145.333 0 259.5 -32.333 342.5 -97s127.167 -155.667 132.5 -273h-283c-2 46 -19.5 81.667 -52.5 107s-78.833 38 -137.5 38c-55.333 0 -96.5 -8.33301 -123.5 -25
s-40.5 -41.667 -40.5 -75c0 -43.333 72.333 -81.666 217 -114.999c33.333 -7.33301 59.666 -13.333 78.999 -18c144.667 -34 243.5 -75 296.5 -123s79.5 -115.667 79.5 -203c0 -123.333 -43.5 -217.333 -130.5 -282s-213.5 -97 -379.5 -97c-150 0 -267.333 33.667 -352 101
s-127 160 -127 278v12z" />
    <glyph glyph-name="t" unicode="t" horiz-adv-x="651" 
d="M610 -8c-26.667 -0.666992 -58.5 -1.83398 -95.5 -3.50098s-60.5 -2.5 -70.5 -2.5c-111.333 0 -187.5 20.833 -228.5 62.5s-61.5 123.834 -61.5 246.501v588h-144v204h144v297h288v-297h168v-204h-168v-602c0 -28.667 6.33301 -47.5 19 -56.5s38.667 -13.5 78 -13.5h71
v-219z" />
    <glyph glyph-name="u" unicode="u" horiz-adv-x="1223" 
d="M1096 1087v-1087h-285v129c-41.333 -52.667 -89.5 -92.167 -144.5 -118.5s-116.833 -39.5 -185.5 -39.5c-119.333 0 -208.833 31.333 -268.5 94s-89.5 156.334 -89.5 281.001v741h291v-657c0 -77.333 13 -132.5 39 -165.5s69 -49.5 129 -49.5
c68 0 122.167 20.5 162.5 61.5s60.5 96.833 60.5 167.5v643h291z" />
    <glyph glyph-name="v" unicode="v" horiz-adv-x="1085" 
d="M395 0l-391 1087h322l223 -780l225 780h307l-389 -1087h-297z" />
    <glyph glyph-name="w" unicode="w" horiz-adv-x="1567" 
d="M322 0l-308 1087h295l178 -753l150 753h297l158 -753l178 753h282l-305 -1087h-291l-174 778l-168 -778h-292z" />
    <glyph glyph-name="x" unicode="x" horiz-adv-x="1057" 
d="M-8 0l366 555l-350 532h332l192 -327l191 327h321l-342 -528l363 -559h-340l-201 344l-198 -344h-334z" />
    <glyph glyph-name="y" unicode="y" horiz-adv-x="1100" 
d="M170 -436v235c9.33301 -1.33301 19 -2.33301 29 -3s23 -1 39 -1c57.333 0 100.333 13.5 129 40.5s43 67.5 43 121.5c0 4 -0.666992 9 -2 15s-2.66602 11 -3.99902 15l-392 1100h320l229 -784l223 784h306l-447 -1282c-33.333 -96 -75 -161.5 -125 -196.5
s-125 -52.5 -225 -52.5c-18 0 -37.333 0.666992 -58 2s-42.334 3.33301 -65.001 6z" />
    <glyph glyph-name="z" unicode="z" horiz-adv-x="1036" 
d="M35 0v223l596 633h-561v231h909v-237l-588 -608h608v-242h-964z" />
    <glyph glyph-name="braceleft" unicode="{" 
d="M883 1477v-208.998c-6 0 -14.333 0.333008 -25 1s-18 1 -22 1c-67.333 0 -112.833 -12.833 -136.5 -38.5s-35.5 -79.834 -35.5 -162.501v-240c0 -98.667 -15 -168.667 -45 -210s-84 -71 -162 -89c78 -18 132 -47.333 162 -88s45 -110.334 45 -209.001v-241
c0 -82 11.667 -135.667 35 -161s69 -38 137 -38c4 0 11.333 0.333008 22 1s19 1 25 1v-209c-9.33301 0 -22.333 -0.333008 -39 -1s-29 -1 -37 -1c-66.667 0 -122.334 4 -167.001 12s-82.667 20.333 -114 37c-38 22.667 -64.833 53.167 -80.5 91.5s-23.5 104.833 -23.5 199.5
v252c0 91.333 -17 156.166 -51 194.499s-91.333 57.5 -172 57.5c-4 0 -10.667 -0.333008 -20 -1s-16.333 -1 -21 -1v209c4.66699 0 11.667 -0.333008 21 -1s16 -1 20 -1c80 0 137.167 19.333 171.5 58s51.5 104 51.5 196v250c0 95.333 7.83301 162.333 23.5 201
s42.5 69.334 80.5 92.001c31.333 16.667 69.333 29 114 37s100.334 12 167.001 12c8 0 20.333 -0.333008 37 -1s29.667 -1 39 -1z" />
    <glyph glyph-name="bar" unicode="|" 
d="M410 1565h206v-2048h-206v2048z" />
    <glyph glyph-name="braceright" unicode="}" 
d="M143 1477h68.001c73.333 0 132.333 -4 177 -12s82 -20.667 112 -38c38 -21.333 64.833 -51.833 80.5 -91.5s23.5 -105.834 23.5 -198.501v-252c0 -91.333 17 -156.166 51 -194.499s91.333 -57.5 172 -57.5c4 0 10.667 0.333008 20 1s16.333 1 21 1v-209h-37
c-83.333 0 -142 -18.667 -176 -56s-51 -102 -51 -194v-252c0 -95.333 -7.83301 -162.333 -23.5 -201s-42.5 -68.667 -80.5 -90c-31.333 -16.667 -69.333 -29 -114 -37s-100.334 -12 -167.001 -12c-8 0 -20.333 0.333008 -37 1s-29.667 1 -39 1v209
c6 0 14.333 -0.333008 25 -1s18 -1 22 -1c67.333 0 112.833 12.833 136.5 38.5s35.5 79.167 35.5 160.5v239c0 100 15 170.5 45 211.5s84 70.167 162 87.5c-78 18 -132 47.667 -162 89s-45 111.333 -45 210v242c0 81.333 -11.833 134.833 -35.5 160.5
s-69.167 38.5 -136.5 38.5c-4 0 -11.333 -0.333008 -22 -1s-19 -1 -25 -1v209z" />
    <glyph glyph-name="asciitilde" unicode="~" horiz-adv-x="1706" 
d="M1530 803l0.00390625 -221c-69.333 -47.333 -134.833 -82.166 -196.5 -104.499s-122.5 -33.5 -182.5 -33.5c-30.667 0 -61.334 2.66699 -92.001 8s-61.334 13 -92.001 23c-16 5.33301 -39.667 13.666 -71 24.999c-146 50 -257 75 -333 75
c-56.667 0 -115.834 -12.5 -177.501 -37.5s-130.834 -64.833 -207.501 -119.5v221c71.333 48 139.333 83.833 204 107.5s125.667 35.5 183 35.5c78 0 175 -19.333 291 -58c2 -0.666992 3.33301 -1 4 -1l55 -19c103.333 -36.667 183.333 -55 240 -55s115 12.333 175 37
s126.667 63.667 200 117z" />
    <glyph glyph-name="nonbreakingspace" unicode="&#xa0;" horiz-adv-x="1161" 
 />
    <glyph glyph-name="exclamdown" unicode="&#xa1;" horiz-adv-x="676" 
d="M485 1473v-295h-297v295h297zM414 1063l78 -666v-397h-308v397l78 666h152z" />
    <glyph glyph-name="cent" unicode="&#xa2;" horiz-adv-x="1161" 
d="M620 885c-12.667 1.33301 -22.5 2.33398 -29.5 3.00098s-13.5 1 -19.5 1c-71.333 0 -125.333 -29.333 -162 -88s-55 -145.334 -55 -260.001c0 -66 7.5 -123 22.5 -171s36.833 -86.667 65.5 -116zM297 -245.999l68.002 243.999c-100 42 -175.667 109 -227 201
s-77 206.667 -77 344c0 182 45.833 324.667 137.5 428s217.167 155 376.5 155c18 0 35.667 -0.666992 53 -2s34.666 -3.33301 51.999 -6l45 166h109l-54 -190c84 -26 149.667 -72.167 197 -138.5s74.666 -150.833 81.999 -253.5l-281 1
c-3.33301 32.667 -10.833 60.834 -22.5 84.501s-28.5 44.5 -50.5 62.5l-179 -639c1.33301 0 3.33301 -0.333008 6 -1c20 -2 35.333 -3 46 -3c58.667 0 104.5 16.333 137.5 49s55.167 84 66.5 154h281c-10 -138 -58.833 -247.333 -146.5 -328s-200.5 -121 -338.5 -121
c-18 0 -36.333 0.666992 -55 2s-38 3.33301 -58 6l-59 -215h-109z" />
    <glyph glyph-name="sterling" unicode="&#xa3;" horiz-adv-x="1161" 
d="M70 166c80 55.333 136.835 106.335 170.502 153.002s50.5 96.667 50.5 150c0 25.333 -4 52.166 -12 80.499s-19.667 58.166 -35 89.499h-176v111h108c-29.333 58 -50.666 109.667 -63.999 155s-20 87.666 -20 126.999c0 118.667 43.5 214.667 130.5 288
s201.833 110 344.5 110c154.667 0 276 -39.667 364 -119s136 -192 144 -338h-276c-5.33301 75.333 -27 133 -65 173s-90 60 -156 60c-62.667 0 -110.834 -16.333 -144.501 -49s-50.5 -79.667 -50.5 -141c0 -35.333 21 -99.333 63 -192c14.667 -32 25.667 -56.667 33 -74h285
v-111h-244c6 -25.333 10.333 -48.666 13 -69.999s4 -41 4 -59c0 -48 -14.833 -95.833 -44.5 -143.5s-79.834 -103.5 -150.501 -167.5c43.333 20 82.5 34.833 117.5 44.5s66.833 14.5 95.5 14.5c34.667 0 82 -7.83301 142 -23.5s102.667 -23.5 128 -23.5
c33.333 0 66.166 5.33301 98.499 16s64.5 27 96.5 49l88 -217c-55.333 -32.667 -108.333 -57.5 -159 -74.5s-98 -25.5 -142 -25.5c-50.667 0 -119.167 13.333 -205.5 40s-148.833 40 -187.5 40c-40.667 0 -80.167 -6.66699 -118.5 -20s-75.5 -33.333 -111.5 -60z" />
    <glyph glyph-name="currency" unicode="&#xa4;" horiz-adv-x="1241" 
d="M623 1161c-75.333 0 -140.333 -27.333 -195 -82s-82 -119.334 -82 -194.001c0 -76 27 -140.833 81 -194.5s119.333 -80.5 196 -80.5c75.333 0 140.166 26.833 194.499 80.5s81.5 118.5 81.5 194.5c0 74.667 -27.167 139.334 -81.5 194.001s-119.166 82 -194.499 82z
M172 1438l204.999 -203c36 26 74 45.5 114 58.5s83.333 19.5 130 19.5s90.5 -6.5 131.5 -19.5s79.5 -32.5 115.5 -58.5l203 203l105 -107l-203 -205c25.333 -35.333 44.333 -73.166 57 -113.499s19 -82.833 19 -127.5s-6.33301 -87 -19 -127s-31.667 -78.333 -57 -115
l203 -205l-105 -104l-203 203c-36 -26.667 -74.333 -46.334 -115 -59.001s-84 -19 -130 -19c-48 0 -92.167 6.33301 -132.5 19s-78.166 32.334 -113.499 59.001l-205 -203l-104 104l202 205c-25.333 36 -44.166 73.833 -56.499 113.5s-18.5 82.5 -18.5 128.5
c0 44.667 6.16699 87.167 18.5 127.5s31.166 78.166 56.499 113.499l-202 205z" />
    <glyph glyph-name="yen" unicode="&#xa5;" horiz-adv-x="1229" 
d="M776 0h-289v518l-20 35h-449v113h383l-73 127h-310v112h244l-278 486h325l322 -631l299 631h305l-256 -486h233v-112h-292l-68 -127h360v-113h-419l-17 -35v-518z" />
    <glyph glyph-name="brokenbar" unicode="&#xa6;" 
d="M410 408h206v-758h-206v758zM410 1432h206v-758h-206v758z" />
    <glyph glyph-name="section" unicode="&#xa7;" 
d="M659 487c26.667 15.333 46.667 32.333 60 51s20 38.667 20 60c0 26 -7.66699 48.167 -23 66.5s-47 39.833 -95 64.5l-265 137c-26 -15.333 -45.833 -32.666 -59.5 -51.999s-20.5 -40 -20.5 -62c0 -26 9.83301 -48.833 29.5 -68.5s63.167 -46.834 130.5 -81.501zM115 160
l246.997 0.00292969c5.33301 -52 20.833 -90.667 46.5 -116s62.167 -38 109.5 -38c44 0 79 10.5 105 31.5s39 49.5 39 85.5c0 29.333 -9.66699 54.833 -29 76.5s-57.666 46.5 -114.999 74.5l-239 121c-76 38 -132.667 81.667 -170 131s-56 104.666 -56 165.999
c0 59.333 14.5 111.5 43.5 156.5s71.833 82.5 128.5 112.5c-33.333 30 -58 62.833 -74 98.5s-24 75.167 -24 118.5c0 100 34.333 180.5 103 241.5s160 91.5 274 91.5c117.333 0 209.333 -30 276 -90s101 -143 103 -249h-236c-1.33301 44.667 -14.5 78.667 -39.5 102
s-60.833 35 -107.5 35c-41.333 0 -73.166 -9 -95.499 -27s-33.5 -43.333 -33.5 -76c0 -26.667 13.167 -51.5 39.5 -74.5s73.833 -50.5 142.5 -82.5l168 -78c85.333 -40.667 148.333 -85.834 189 -135.501s61 -106.834 61 -171.501c0 -60.667 -15.167 -113.5 -45.5 -158.5
s-73.833 -79.833 -130.5 -104.5c38.667 -34 67.667 -71.667 87 -113s29 -86.666 29 -135.999c0 -102.667 -36.667 -187.5 -110 -254.5s-167.666 -100.5 -282.999 -100.5c-126.667 0 -224 30.667 -292 92s-105 151.666 -111 270.999z" />
    <glyph glyph-name="dieresis" unicode="&#xa8;" 
d="M573 1276v246h226v-246h-226zM225 1276v246h226v-246h-226z" />
    <glyph glyph-name="copyright" unicode="&#xa9;" horiz-adv-x="1706" 
d="M1212 897l-188.001 -0.00195312c-5.33301 46.667 -23 82.834 -53 108.501s-69.667 38.5 -119 38.5c-60.667 0 -108.334 -27.167 -143.001 -81.5s-52 -130.166 -52 -227.499c0 -98 17.333 -172.667 52 -224s85 -77 151 -77c48.667 0 87.667 14 117 42s47 67.667 53 119
l193 1c-5.33301 -92.667 -41.666 -167 -108.999 -223s-154 -84 -260 -84c-124 0 -221.833 39.333 -293.5 118s-107.5 186 -107.5 322c0 137.333 36.5 246.833 109.5 328.5s170.833 122.5 293.5 122.5c101.333 0 184.833 -26 250.5 -78s100.834 -120.333 105.501 -205z
M853.999 1356c-85.333 0 -165.168 -15.3311 -239.501 -45.998s-140.5 -75.334 -198.5 -134.001c-59.333 -60 -104.666 -127.833 -135.999 -203.5s-47 -154.834 -47 -237.501c0 -83.333 15.667 -162.333 47 -237s76.666 -141.667 135.999 -201
c58.667 -58.667 125.667 -103.667 201 -135s154.333 -47 237 -47s161.834 15.667 237.501 47s143.834 77 204.501 137c58.667 57.333 103.167 123 133.5 197s45.5 153.667 45.5 239c0 84 -15.5 163.5 -46.5 238.5s-75.833 141.833 -134.5 200.5
c-59.333 59.333 -126.333 104.5 -201 135.5s-154.334 46.5 -239.001 46.5zM851.997 1479c101.333 0 197.167 -18.668 287.5 -56.001s171.166 -91.666 242.499 -162.999c70 -70 123.333 -150.167 160 -240.5s55 -185.833 55 -286.5c0 -101.333 -18.167 -196 -54.5 -284
s-89.833 -166.667 -160.5 -236c-74 -72 -156.667 -127.167 -248 -165.5s-185.333 -57.5 -282 -57.5c-98 0 -191.5 18.833 -280.5 56.5s-169.5 92.5 -241.5 164.5c-71.333 70.667 -125.666 150.834 -162.999 240.501s-56 183.5 -56 281.5c0 99.333 18.667 194.166 56 284.499
s91.666 171.833 162.999 244.5c70 70.667 149.333 124.5 238 161.5s183.334 55.5 284.001 55.5z" />
    <glyph glyph-name="ordfeminine" unicode="&#xaa;" horiz-adv-x="864" 
d="M100 549h668v-125h-668v125zM551 1079c-35.333 -12 -81.667 -24.332 -139 -36.999c-93.333 -21.333 -140 -56 -140 -104c0 -26.667 8.5 -47.334 25.5 -62.001s41.5 -22 73.5 -22c56 0 100 14.833 132 44.5s48 70.167 48 121.5v59zM777.999 1290l0.00195312 -432.001
c0 -30 3.66699 -52.667 11 -68s19.333 -26.666 36 -33.999v-45h-243c-8 12.667 -14.167 25.5 -18.5 38.5s-7.16602 26.5 -8.49902 40.5c-24 -34 -57.833 -60.167 -101.5 -78.5s-94.5 -27.5 -152.5 -27.5c-82.667 0 -146.334 21.5 -191.001 64.5s-67 104.167 -67 183.5
c0 72 21.667 128.167 65 168.5s110.666 66.833 201.999 79.5c25.333 3.33301 58.666 7.33301 99.999 12c91.333 9.33301 137 32 137 68c0 28 -9 47.833 -27 59.5s-50 17.5 -96 17.5c-42 0 -73.667 -7.33301 -95 -22s-32 -36.667 -32 -66v-16h-225v18
c0 82 30.333 145.833 91 191.5s145 68.5 253 68.5c117.333 0 207 -18.833 269 -56.5s93 -92.5 93 -164.5z" />
    <glyph glyph-name="guillemotleft" unicode="&#xab;" horiz-adv-x="915" 
d="M504 416v256l334 289v-238l-205 -178l205 -178v-240zM72 416v256l336 289v-238l-205 -178l205 -178v-240z" />
    <glyph glyph-name="logicalnot" unicode="&#xac;" horiz-adv-x="1706" 
d="M254 864h1198v-502h-199v306h-999v196z" />
    <glyph glyph-name="sfthyphen" unicode="&#xad;" horiz-adv-x="684" 
d="M61 408v274h562v-274h-562z" />
    <glyph glyph-name="registered" unicode="&#xae;" horiz-adv-x="1706" 
d="M745 1034l-0.000976562 -239h99c58.667 0 101.667 9.33301 129 28s41 48 41 88c0 42 -14.667 73 -44 93s-74.666 30 -135.999 30h-89zM544.999 1161l323 0.00195312c117.333 0 205.5 -19.833 264.5 -59.5s88.5 -98.834 88.5 -177.501
c0 -54.667 -16 -101.334 -48 -140.001s-76.333 -65 -133 -79l185 -369h-224l-157 338h-99v-338h-200v825zM853.999 1356c-84.667 0 -163.331 -14.834 -235.998 -44.501s-138 -73.5 -196 -131.5c-60.667 -60.667 -107.334 -129.5 -140.001 -206.5s-49 -156.5 -49 -238.5
c0 -82.667 15.333 -161.167 46 -235.5s75 -140.5 133 -198.5c59.333 -60.667 127 -107.167 203 -139.5s155 -48.5 237 -48.5c80 0 157.833 15.667 233.5 47s144.5 76.333 206.5 135c58 56 103 121.333 135 196s48 152 48 232c0 88.667 -14.833 170.334 -44.5 245.001
s-73.834 141.667 -132.501 201c-60 62 -127.5 108.667 -202.5 140s-155.5 47 -241.5 47zM852.002 1479c102.667 0 199.498 -19.1689 290.498 -57.502s172.167 -93.833 243.5 -166.5c68.667 -69.333 121 -148.666 157 -237.999s54 -184 54 -284
c0 -101.333 -18.667 -197.166 -56 -287.499s-91.666 -169.833 -162.999 -238.5c-71.333 -70 -152.5 -123.667 -243.5 -161s-185.167 -56 -282.5 -56c-99.333 0 -194.333 19.333 -285 58s-171.667 94.334 -243 167.001c-69.333 70 -122.166 149.5 -158.499 238.5
s-54.5 182.167 -54.5 279.5c0 68 9 134.167 27 198.5s45 127.166 81 188.499c67.333 113.333 156.333 201.5 267 264.5s232.667 94.5 366 94.5z" />
    <glyph glyph-name="macron" unicode="&#xaf;" 
d="M225 1321v156h574v-156h-574z" />
    <glyph glyph-name="degree" unicode="&#xb0;" horiz-adv-x="674" 
d="M338 1335c-48.667 0 -90.167 -17 -124.5 -51s-51.5 -75 -51.5 -123c0 -49.333 17 -91 51 -125s75.667 -51 125 -51c48 0 89 17.333 123 52s51 76 51 124s-17 89 -51 123s-75 51 -123 51zM338 1464c84 0 155.5 -29.835 214.5 -89.502s88.5 -131.5 88.5 -215.5
c0 -83.333 -29.667 -154.666 -89 -213.999s-131.333 -89 -216 -89c-84 0 -155.167 29.333 -213.5 88s-87.5 130.334 -87.5 215.001s29.5 156.667 88.5 216s130.5 89 214.5 89z" />
    <glyph glyph-name="plusminus" unicode="&#xb1;" horiz-adv-x="1706" 
d="M254 197h1198v-199h-1198v199zM752 1223h202v-326h498v-199h-498v-325h-202v325h-498v199h498v326z" />
    <glyph glyph-name="twosuperior" unicode="&#xb2;" horiz-adv-x="766" 
d="M31 557c2 77.333 20.499 142.668 55.499 196.001s96.833 107.333 185.5 162l53 31c123.333 70 185 137.667 185 203c0 38 -12.333 68 -37 90s-58.667 33 -102 33c-48 0 -85 -13.5 -111 -40.5s-39 -65.5 -39 -115.5v-8h-174c0 98 29 173.333 87 226s141 79 249 79
c97.333 0 174.833 -23.833 232.5 -71.5s86.5 -111.167 86.5 -190.5c0 -57.333 -15 -106.666 -45 -147.999s-88.667 -89 -176 -143c-19.333 -12.667 -46.666 -29.334 -81.999 -50.001c-80 -46.667 -125 -83.334 -135 -110.001h430v-143h-663z" />
    <glyph glyph-name="threesuperior" unicode="&#xb3;" horiz-adv-x="766" 
d="M37 819l182 -0.00390625c1.33301 -48.667 14.333 -85 39 -109s61.667 -36 111 -36c47.333 0 84 11.333 110 34s39 55 39 97c0 42.667 -15 74.834 -45 96.501s-75 32.5 -135 32.5h-29v119h21c55.333 0 96.166 9.5 122.499 28.5s39.5 48.167 39.5 87.5
c0 33.333 -11.333 59.833 -34 79.5s-53 29.5 -91 29.5c-42 0 -74.333 -11.167 -97 -33.5s-34 -54.166 -34 -95.499v-6h-178c2 87.333 30.167 154.166 84.5 200.499s131.833 69.5 232.5 69.5c94.667 0 169.5 -20.667 224.5 -62s82.5 -97.666 82.5 -168.999
c0 -37.333 -9.5 -70.166 -28.5 -98.499s-47.167 -51.5 -84.5 -69.5c48.667 -19.333 85.5 -46.166 110.5 -80.499s37.5 -74.5 37.5 -120.5c0 -86.667 -31.167 -155.167 -93.5 -205.5s-147.166 -75.5 -254.499 -75.5c-106 0 -187.833 24.667 -245.5 74s-86.5 119 -86.5 209v4z
" />
    <glyph glyph-name="acute" unicode="&#xb4;" 
d="M805 1587l-313 -370h-142l197 370h258z" />
    <glyph glyph-name="mu" unicode="&#xb5;" horiz-adv-x="1249" 
d="M205 1092h289.001l-76 -435c-10 -53.333 -17.667 -103.833 -23 -151.5s-8 -86.5 -8 -116.5c0 -62 14 -108.167 42 -138.5s70.667 -45.5 128 -45.5c66.667 0 118.5 27.333 155.5 82s67.833 151.667 92.5 291l90 514h289l-193 -1092h-268l18 117
c-28 -52 -59.167 -90 -93.5 -114s-74.833 -36 -121.5 -36c-44.667 0 -84.334 9.83301 -119.001 29.5s-66 50.167 -94 91.5l-90 -526h-286z" />
    <glyph glyph-name="paragraph" unicode="&#xb6;" 
d="M983 1479v-111h-113v-1368h-151v1368h-158v-1368h-153v784c-111.333 4 -200.333 37.667 -267 101s-100 145 -100 245c0 105.333 35.667 189.833 107 253.5s166 95.5 284 95.5h551z" />
    <glyph glyph-name="periodcentered" unicode="&#xb7;" horiz-adv-x="582" 
d="M135 702c0 43.333 15.168 80.167 45.501 110.5s67.166 45.5 110.499 45.5s80 -15 110 -45s45 -67 45 -111c0 -43.333 -15 -80 -45 -110s-66.667 -45 -110 -45c-44 0 -81 14.833 -111 44.5s-45 66.5 -45 110.5z" />
    <glyph glyph-name="cedilla" unicode="&#xb8;" 
d="M283 -438l0.000976562 129c53.333 -14 101.666 -24.667 144.999 -32s80.333 -11 111 -11c34.667 0 60 5.83301 76 17.5s24 30.167 24 55.5s-9.33301 43.333 -28 54s-49.667 16 -93 16c-15.333 0 -27 -0.166992 -35 -0.5s-15.333 -0.833008 -22 -1.5v211h102v-90h15
c78 0 136.667 -16 176 -48s59 -79.667 59 -143c0 -66.667 -22 -116.667 -66 -150s-110 -50 -198 -50c-34 0 -73.833 3.66699 -119.5 11s-94.5 18 -146.5 32z" />
    <glyph glyph-name="onesuperior" unicode="&#xb9;" horiz-adv-x="766" 
d="M334 557v587.999h-228v121h17c81.333 0 140.833 11.333 178.5 34s60.167 60.334 67.5 113.001h151v-856h-186z" />
    <glyph glyph-name="ordmasculine" unicode="&#xba;" horiz-adv-x="934" 
d="M106 549h723v-125h-723v125zM467 1325c-58 0 -102.501 -19.668 -133.501 -59.001s-46.5 -95.333 -46.5 -168c0 -74 15.333 -130.5 46 -169.5s75.334 -58.5 134.001 -58.5c58 0 102.833 19.833 134.5 59.5s47.5 95.834 47.5 168.501c0 72 -16 127.833 -48 167.5
s-76.667 59.5 -134 59.5zM466.999 1511c131.333 0 234.833 -36.833 310.5 -110.5s113.5 -174.5 113.5 -302.5c0 -129.333 -37.667 -230.666 -113 -303.999s-179 -110 -311 -110s-235.333 36.667 -310 110s-112 174.666 -112 303.999c0 128.667 37.5 229.667 112.5 303
s178.167 110 309.5 110z" />
    <glyph glyph-name="guillemotright" unicode="&#xbb;" horiz-adv-x="915" 
d="M838 672v-256l-334 -289v238l205 180l-205 176v240zM408 672v-256l-336 -289v238l204 180l-204 176v240z" />
    <glyph glyph-name="onequarter" unicode="&#xbc;" horiz-adv-x="1806" 
d="M1483 297v342l-240 -342h240zM1483 0v174h-381v139l334 465h223v-477h104v-127h-104v-174h-176zM385 -41l870 1493h164l-872 -1493h-162zM317 612l-0.00195312 549h-215v113h15c78.667 0 135.834 10.667 171.501 32s56.834 57 63.501 107h144v-801h-179z" />
    <glyph glyph-name="onehalf" unicode="&#xbd;" horiz-adv-x="1806" 
d="M1102 0c2 72.667 19.832 133.832 53.499 183.499s92.834 99.834 177.501 150.501l55 31c115.333 64.667 173 127.334 173 188.001c0 35.333 -12 63.333 -36 84s-56.667 31 -98 31c-45.333 0 -80.5 -12.667 -105.5 -38s-37.5 -61.333 -37.5 -108v-8h-166
c0 92 27.667 162.833 83 212.5s134.333 74.5 237 74.5c93.333 0 167.833 -22.333 223.5 -67s83.5 -104.334 83.5 -179.001c0 -53.333 -14.5 -99.5 -43.5 -138.5s-85.5 -83.5 -169.5 -133.5l-74 -43c-78 -44.667 -122 -79 -132 -103h409v-137h-633zM384.999 -41.002l870 1493
h164l-872 -1493h-162zM316.999 611.998l-0.00195312 549h-215v113h15c78.667 0 135.834 10.667 171.501 32s56.834 57 63.501 107h144v-801h-179z" />
    <glyph glyph-name="threequarters" unicode="&#xbe;" horiz-adv-x="1804" 
d="M1483 297v342l-240 -342h240zM1483 0v174h-381v139l334 465h223v-477h104v-127h-104v-174h-176zM385 -41l870 1493h164l-872 -1493h-162zM37 856l170.997 -0.00292969c2 -45.333 14.833 -79.166 38.5 -101.499s58.834 -33.5 105.501 -33.5c45.333 0 80.333 10.5 105 31.5
s37 51.5 37 91.5s-14.333 70.167 -43 90.5s-71 30.5 -127 30.5c-4 0 -9 -0.333008 -15 -1s-10.667 -1 -14 -1v112h20c52.667 0 91.5 8.83301 116.5 26.5s37.5 45.167 37.5 82.5c0 31.333 -10.667 56.166 -32 74.499s-50.333 27.5 -87 27.5c-40 0 -70.833 -10.5 -92.5 -31.5
s-32.5 -50.833 -32.5 -89.5v-6h-171c1.33301 82 28.333 144.833 81 188.5s127 65.5 223 65.5c90 0 161.333 -19.5 214 -58.5s79 -91.833 79 -158.5c0 -35.333 -9 -66.166 -27 -92.499s-45 -48.166 -81 -65.499c46.667 -18 81.834 -42.833 105.501 -74.5
s35.5 -69.5 35.5 -113.5c0 -80 -29.833 -143.333 -89.5 -190s-140.5 -70 -242.5 -70c-101.333 0 -179.166 22.833 -233.499 68.5s-81.5 110.834 -81.5 195.501v2z" />
    <glyph glyph-name="questiondown" unicode="&#xbf;" horiz-adv-x="1143" 
d="M719 1473v-295h-297v295h297zM705 1044c0 -6.66699 0.333008 -16.334 1 -29.001s1 -22 1 -28c0 -58 -6.33301 -106.667 -19 -146s-33 -76 -61 -110c-22 -25.333 -54.167 -54.333 -96.5 -87s-69.5 -56.334 -81.5 -71.001c-26 -29.333 -44.167 -56.333 -54.5 -81
s-15.5 -51.334 -15.5 -80.001c0 -64 17.333 -113.5 52 -148.5s83.667 -52.5 147 -52.5c62.667 0 112.334 21.167 149.001 63.5s56.667 101.833 60 178.5h284v-31c0 -141.333 -44.5 -253.833 -133.5 -337.5s-208.833 -125.5 -359.5 -125.5c-154 0 -276.5 39.833 -367.5 119.5
s-136.5 185.834 -136.5 318.501c0 48.667 5 91.334 15 128.001s25.333 70 46 100c26.667 37.333 68.667 78 126 122s92.666 72 105.999 84c25.333 24.667 43.5 50.834 54.5 78.501s16.5 61.167 16.5 100.5c0 3.33301 -0.333008 8.83301 -1 16.5s-1 13.5 -1 17.5h269z" />
    <glyph glyph-name="Agrave" unicode="&#xc0;" horiz-adv-x="1405" 
d="M700 1178l-204 -627h409zM524 1473h350l531 -1473h-318l-100 303h-571l-97 -303h-319zM409 1972h258l197 -370h-142z" />
    <glyph glyph-name="Aacute" unicode="&#xc1;" horiz-adv-x="1405" 
d="M700 1178l-204 -627h409zM524 1473h350l531 -1473h-318l-100 303h-571l-97 -303h-319zM995 1972l-313 -370h-142l197 370h258z" />
    <glyph glyph-name="Acircumflex" unicode="&#xc2;" horiz-adv-x="1405" 
d="M700 1178l-204 -627h409zM524 1473h350l531 -1473h-318l-100 303h-571l-97 -303h-319zM387 1602l196 370h238l196 -370h-141l-174 217l-176 -217h-139z" />
    <glyph glyph-name="Atilde" unicode="&#xc3;" horiz-adv-x="1405" 
d="M700 1178l-204 -627h409zM524 1473h350l531 -1473h-318l-100 303h-571l-97 -303h-319zM1019 1923c-17.333 -83.333 -42.9961 -144.833 -76.9961 -184.5s-77.667 -59.5 -131 -59.5c-14 0 -27 0.833008 -39 2.5s-24 4.5 -36 8.5l-87 26
c-12.667 3.33301 -24.334 5.83301 -35.001 7.5s-21 2.5 -31 2.5c-22.667 0 -41 -6 -55 -18s-25 -31.667 -33 -59h-110c16 80.667 40.667 140 74 178s76.666 57 129.999 57c14 0 28 -1.16699 42 -3.5s28.667 -5.83301 44 -10.5l93 -25c8 -2.66699 16.5 -4.66699 25.5 -6
s18.833 -2 29.5 -2c21.333 0 39.166 7.16699 53.499 21.5s25.166 35.833 32.499 64.5h110z" />
    <glyph glyph-name="Adieresis" unicode="&#xc4;" horiz-adv-x="1405" 
d="M700 1178l-204 -627h409zM524 1473h350l531 -1473h-318l-100 303h-571l-97 -303h-319zM763 1661v246h226v-246h-226zM415 1661v246h226v-246h-226z" />
    <glyph glyph-name="Aring" unicode="&#xc5;" horiz-adv-x="1405" 
d="M700 1835c-32 0 -59.333 -11.832 -82 -35.499s-34 -52.167 -34 -85.5c0 -32.667 11.167 -60.334 33.5 -83.001s49.833 -34 82.5 -34c33.333 0 61.833 11.5 85.5 34.5s35.5 50.5 35.5 82.5c0 32.667 -11.833 61 -35.5 85s-52.167 36 -85.5 36zM700 1972
c72 0 133 -24.833 183 -74.5s75 -110.167 75 -181.5s-25 -131.833 -75 -181.5s-111 -74.5 -183 -74.5c-71.333 0 -131.5 24.667 -180.5 74s-73.5 110 -73.5 182s24.5 132.667 73.5 182s109.167 74 180.5 74zM508 1413h385l512 -1413h-318l-100 303h-571l-97 -303h-319z
M700 1178l-204 -627h409z" />
    <glyph glyph-name="AE" unicode="&#xc6;" horiz-adv-x="2052" 
d="M504 541h414v682h-166zM-14 0l581 1473h1366v-256h-723v-314h658v-252h-658v-379h760v-272h-1052v303h-500l-111 -303h-321z" />
    <glyph glyph-name="Ccedilla" unicode="&#xc7;" horiz-adv-x="1524" 
d="M1434 506c-11.333 -167.333 -75.833 -300.333 -193.5 -399s-271.167 -148 -460.5 -148c-218 0 -387.5 68 -508.5 204s-181.5 326.667 -181.5 572c0 250.667 61.667 442.667 185 576s300.666 200 531.999 200c188 0 336.5 -45.833 445.5 -137.5
s168.833 -221.167 179.5 -388.5h-299c-12.667 83.333 -46.667 146.833 -102 190.5s-130 65.5 -224 65.5c-133.333 0 -234.666 -43 -303.999 -129s-104 -211.667 -104 -377c0 -160 34.5 -283.667 103.5 -371s167.167 -131 294.5 -131c92 0 167.333 23.5 226 70.5
s96.667 114.5 114 202.5h297zM559 -438l0.000976562 129c53.333 -14 101.666 -24.667 144.999 -32s80.333 -11 111 -11c34.667 0 60 5.83301 76 17.5s24 30.167 24 55.5s-9.33301 43.333 -28 54s-49.667 16 -93 16c-15.333 0 -27 -0.166992 -35 -0.5
s-15.333 -0.833008 -22 -1.5v211h102v-90h15c78 0 136.667 -16 176 -48s59 -79.667 59 -143c0 -66.667 -22 -116.667 -66 -150s-110 -50 -198 -50c-34 0 -73.833 3.66699 -119.5 11s-94.5 18 -146.5 32z" />
    <glyph glyph-name="Egrave" unicode="&#xc8;" horiz-adv-x="1337" 
d="M152 0v1473h1069v-256h-770v-314h704v-252h-704v-379h806v-272h-1105zM395 1972h258l197 -370h-142z" />
    <glyph glyph-name="Eacute" unicode="&#xc9;" horiz-adv-x="1337" 
d="M152 0v1473h1069v-256h-770v-314h704v-252h-704v-379h806v-272h-1105zM981 1972l-313 -370h-142l197 370h258z" />
    <glyph glyph-name="Ecircumflex" unicode="&#xca;" horiz-adv-x="1337" 
d="M152 0v1473h1069v-256h-770v-314h704v-252h-704v-379h806v-272h-1105zM373 1602l196 370h238l196 -370h-141l-174 217l-176 -217h-139z" />
    <glyph glyph-name="Edieresis" unicode="&#xcb;" horiz-adv-x="1337" 
d="M152 0v1473h1069v-256h-770v-314h704v-252h-704v-379h806v-272h-1105zM749 1661v246h226v-246h-226zM401 1661v246h226v-246h-226z" />
    <glyph glyph-name="Igrave" unicode="&#xcc;" horiz-adv-x="629" 
d="M162 0v1473h303v-1473h-303zM22 1972h258l197 -370h-142z" />
    <glyph glyph-name="Iacute" unicode="&#xcd;" horiz-adv-x="629" 
d="M162 0v1473h303v-1473h-303zM608 1972l-313 -370h-142l197 370h258z" />
    <glyph glyph-name="Icircumflex" unicode="&#xce;" horiz-adv-x="629" 
d="M162 0v1473h303v-1473h-303zM0 1602l196 370h238l196 -370h-141l-174 217l-176 -217h-139z" />
    <glyph glyph-name="Idieresis" unicode="&#xcf;" horiz-adv-x="629" 
d="M162 0v1473h303v-1473h-303zM376 1661v246h226v-246h-226zM28 1661v246h226v-246h-226z" />
    <glyph glyph-name="Eth" unicode="&#xd0;" horiz-adv-x="1497" 
d="M455 266h243.001c141.333 0 243.666 37 306.999 111s95 193.333 95 358c0 164 -29.5 284.833 -88.5 362.5s-151.167 116.5 -276.5 116.5h-280v-327h323v-191h-323v-430zM158.001 0v696.001h-160v191h160v586h579c225.333 0 393.333 -60.833 504 -182.5
s166 -306.834 166 -555.501c0 -135.333 -20.167 -254.333 -60.5 -357s-99.5 -185 -177.5 -247c-58.667 -46.667 -125.5 -80.167 -200.5 -100.5s-180.167 -30.5 -315.5 -30.5h-495z" />
    <glyph glyph-name="Ntilde" unicode="&#xd1;" horiz-adv-x="1518" 
d="M152 0v1473h317l598 -1012v1012h299v-1473h-313l-602 1012v-1012h-299zM1085 1923c-17.333 -83.333 -42.9961 -144.833 -76.9961 -184.5s-77.667 -59.5 -131 -59.5c-14 0 -27 0.833008 -39 2.5s-24 4.5 -36 8.5l-87 26c-12.667 3.33301 -24.334 5.83301 -35.001 7.5
s-21 2.5 -31 2.5c-22.667 0 -41 -6 -55 -18s-25 -31.667 -33 -59h-110c16 80.667 40.667 140 74 178s76.666 57 129.999 57c14 0 28 -1.16699 42 -3.5s28.667 -5.83301 44 -10.5l93 -25c8 -2.66699 16.5 -4.66699 25.5 -6s18.833 -2 29.5 -2
c21.333 0 39.166 7.16699 53.499 21.5s25.166 35.833 32.499 64.5h110z" />
    <glyph glyph-name="Ograve" unicode="&#xd2;" horiz-adv-x="1616" 
d="M397 735c0 -162 36 -287.833 108 -377.5s172.667 -134.5 302 -134.5c130.667 0 232.334 44.833 305.001 134.5s109 215.5 109 377.5s-36.333 287.833 -109 377.5s-174.334 134.5 -305.001 134.5c-129.333 0 -230 -44.667 -302 -134s-108 -215.333 -108 -378zM88 735
c0 238 64.833 426.833 194.5 566.5s304.5 209.5 524.5 209.5s395.167 -70 525.5 -210s195.5 -328.667 195.5 -566s-65.167 -426 -195.5 -566s-305.5 -210 -525.5 -210s-394.833 70 -524.5 210s-194.5 328.667 -194.5 566zM516 1972h258l197 -370h-142z" />
    <glyph glyph-name="Oacute" unicode="&#xd3;" horiz-adv-x="1616" 
d="M397 735c0 -162 36 -287.833 108 -377.5s172.667 -134.5 302 -134.5c130.667 0 232.334 44.833 305.001 134.5s109 215.5 109 377.5s-36.333 287.833 -109 377.5s-174.334 134.5 -305.001 134.5c-129.333 0 -230 -44.667 -302 -134s-108 -215.333 -108 -378zM88 735
c0 238 64.833 426.833 194.5 566.5s304.5 209.5 524.5 209.5s395.167 -70 525.5 -210s195.5 -328.667 195.5 -566s-65.167 -426 -195.5 -566s-305.5 -210 -525.5 -210s-394.833 70 -524.5 210s-194.5 328.667 -194.5 566zM1102 1972l-313 -370h-142l197 370h258z" />
    <glyph glyph-name="Ocircumflex" unicode="&#xd4;" horiz-adv-x="1616" 
d="M397 735c0 -162 36 -287.833 108 -377.5s172.667 -134.5 302 -134.5c130.667 0 232.334 44.833 305.001 134.5s109 215.5 109 377.5s-36.333 287.833 -109 377.5s-174.334 134.5 -305.001 134.5c-129.333 0 -230 -44.667 -302 -134s-108 -215.333 -108 -378zM88 735
c0 238 64.833 426.833 194.5 566.5s304.5 209.5 524.5 209.5s395.167 -70 525.5 -210s195.5 -328.667 195.5 -566s-65.167 -426 -195.5 -566s-305.5 -210 -525.5 -210s-394.833 70 -524.5 210s-194.5 328.667 -194.5 566zM494 1602l196 370h238l196 -370h-141l-174 217
l-176 -217h-139z" />
    <glyph glyph-name="Otilde" unicode="&#xd5;" horiz-adv-x="1616" 
d="M397 735c0 -162 36 -287.833 108 -377.5s172.667 -134.5 302 -134.5c130.667 0 232.334 44.833 305.001 134.5s109 215.5 109 377.5s-36.333 287.833 -109 377.5s-174.334 134.5 -305.001 134.5c-129.333 0 -230 -44.667 -302 -134s-108 -215.333 -108 -378zM88 735
c0 238 64.833 426.833 194.5 566.5s304.5 209.5 524.5 209.5s395.167 -70 525.5 -210s195.5 -328.667 195.5 -566s-65.167 -426 -195.5 -566s-305.5 -210 -525.5 -210s-394.833 70 -524.5 210s-194.5 328.667 -194.5 566zM1126 1923
c-17.333 -83.333 -42.9961 -144.833 -76.9961 -184.5s-77.667 -59.5 -131 -59.5c-14 0 -27 0.833008 -39 2.5s-24 4.5 -36 8.5l-87 26c-12.667 3.33301 -24.334 5.83301 -35.001 7.5s-21 2.5 -31 2.5c-22.667 0 -41 -6 -55 -18s-25 -31.667 -33 -59h-110
c16 80.667 40.667 140 74 178s76.666 57 129.999 57c14 0 28 -1.16699 42 -3.5s28.667 -5.83301 44 -10.5l93 -25c8 -2.66699 16.5 -4.66699 25.5 -6s18.833 -2 29.5 -2c21.333 0 39.166 7.16699 53.499 21.5s25.166 35.833 32.499 64.5h110z" />
    <glyph glyph-name="Odieresis" unicode="&#xd6;" horiz-adv-x="1616" 
d="M397 735c0 -162 36 -287.833 108 -377.5s172.667 -134.5 302 -134.5c130.667 0 232.334 44.833 305.001 134.5s109 215.5 109 377.5s-36.333 287.833 -109 377.5s-174.334 134.5 -305.001 134.5c-129.333 0 -230 -44.667 -302 -134s-108 -215.333 -108 -378zM88 735
c0 238 64.833 426.833 194.5 566.5s304.5 209.5 524.5 209.5s395.167 -70 525.5 -210s195.5 -328.667 195.5 -566s-65.167 -426 -195.5 -566s-305.5 -210 -525.5 -210s-394.833 70 -524.5 210s-194.5 328.667 -194.5 566zM870 1661v246h226v-246h-226zM522 1661v246h226
v-246h-226z" />
    <glyph glyph-name="multiply" unicode="&#xd7;" horiz-adv-x="1706" 
d="M416 1202l450 -450l451 450l141 -139l-450 -453l450 -450l-141 -140l-451 451l-450 -451l-140 140l451 450l-451 453z" />
    <glyph glyph-name="Oslash" unicode="&#xd8;" horiz-adv-x="1616" 
d="M512 348c38.667 -42 82.3311 -73.333 130.998 -94s103.334 -31 164.001 -31c130.667 0 232.334 44.833 305.001 134.5s109 215.5 109 377.5c0 66 -6 125.833 -18 179.5s-29.333 100.5 -52 140.5zM448.997 449l631.999 696c-35.333 34 -75.666 59.5 -120.999 76.5
s-96.333 25.5 -153 25.5c-129.333 0 -230 -44.667 -302 -134s-108 -215.333 -108 -378c0 -60 4.16699 -113.333 12.5 -160s21.5 -88.667 39.5 -126zM54.9961 23l183.001 204.001c-50.667 68.667 -88.334 145.167 -113.001 229.5s-37 177.166 -37 278.499
c0 238 64.833 426.833 194.5 566.5s304.5 209.5 524.5 209.5c94 0 178.5 -12 253.5 -36s144.167 -61 207.5 -111l147 166l98 -88l-155 -168c56.667 -70 99.167 -149.667 127.5 -239s42.5 -189.333 42.5 -300c0 -237.333 -65 -426 -195 -566s-305.333 -210 -526 -210
c-99.333 0 -188.833 14 -268.5 42s-151.167 70.667 -214.5 128l-172 -195z" />
    <glyph glyph-name="Ugrave" unicode="&#xd9;" horiz-adv-x="1468" 
d="M143 1477l306 0.00195312v-924c0 -114 22.667 -197.167 68 -249.5s117.333 -78.5 216 -78.5c100 0 172.833 26 218.5 78s68.5 135.333 68.5 250v924h303v-957c0 -180.667 -50.5 -319.334 -151.5 -416.001s-246.5 -145 -436.5 -145
c-191.333 0 -337.833 48.167 -439.5 144.5s-152.5 235.166 -152.5 416.499v957zM442 1972h258l197 -370h-142z" />
    <glyph glyph-name="Uacute" unicode="&#xda;" horiz-adv-x="1468" 
d="M143 1477l306 0.00195312v-924c0 -114 22.667 -197.167 68 -249.5s117.333 -78.5 216 -78.5c100 0 172.833 26 218.5 78s68.5 135.333 68.5 250v924h303v-957c0 -180.667 -50.5 -319.334 -151.5 -416.001s-246.5 -145 -436.5 -145
c-191.333 0 -337.833 48.167 -439.5 144.5s-152.5 235.166 -152.5 416.499v957zM1028 1972l-313 -370h-142l197 370h258z" />
    <glyph glyph-name="Ucircumflex" unicode="&#xdb;" horiz-adv-x="1468" 
d="M143 1477l306 0.00195312v-924c0 -114 22.667 -197.167 68 -249.5s117.333 -78.5 216 -78.5c100 0 172.833 26 218.5 78s68.5 135.333 68.5 250v924h303v-957c0 -180.667 -50.5 -319.334 -151.5 -416.001s-246.5 -145 -436.5 -145
c-191.333 0 -337.833 48.167 -439.5 144.5s-152.5 235.166 -152.5 416.499v957zM420 1602l196 370h238l196 -370h-141l-174 217l-176 -217h-139z" />
    <glyph glyph-name="Udieresis" unicode="&#xdc;" horiz-adv-x="1468" 
d="M143 1477l306 0.00195312v-924c0 -114 22.667 -197.167 68 -249.5s117.333 -78.5 216 -78.5c100 0 172.833 26 218.5 78s68.5 135.333 68.5 250v924h303v-957c0 -180.667 -50.5 -319.334 -151.5 -416.001s-246.5 -145 -436.5 -145
c-191.333 0 -337.833 48.167 -439.5 144.5s-152.5 235.166 -152.5 416.499v957zM796 1661v246h226v-246h-226zM448 1661v246h226v-246h-226z" />
    <glyph glyph-name="Yacute" unicode="&#xdd;" horiz-adv-x="1274" 
d="M811 0h-303v549l-535 924h371l315 -635l291 635h346l-485 -924v-549zM930 1972l-313 -370h-142l197 370h258z" />
    <glyph glyph-name="Thorn" unicode="&#xde;" horiz-adv-x="1346" 
d="M451 1243h344c152 0 267 -37.5 345 -112.5s117 -185.5 117 -331.5c0 -142.667 -38.167 -252.5 -114.5 -329.5s-185.5 -115.5 -327.5 -115.5h-364v-354h-299v1473h299v-230zM453 600h292c80 0 138 15.833 174 47.5s54 82.167 54 151.5c0 64.667 -18 113.5 -54 146.5
s-89 49.5 -159 49.5h-307v-395z" />
    <glyph glyph-name="germandbls" unicode="&#xdf;" horiz-adv-x="1229" 
d="M127 0l-0.00195312 1112c0 110.667 43 200.167 129 268.5s200.667 102.5 344 102.5c146 0 260.333 -33.333 343 -100s124 -158.334 124 -275.001c0 -72 -12.167 -131 -36.5 -177s-61.833 -81.333 -112.5 -106c78.667 -31.333 137.834 -77.333 177.501 -138
s59.5 -135.334 59.5 -224.001c0 -149.333 -43 -270 -129 -362s-198.667 -138 -338 -138c-19.333 0 -40.833 1 -64.5 3s-49.167 5 -76.5 9v234c8.66699 -1.33301 17.5 -2.33301 26.5 -3s22.5 -1 40.5 -1c78.667 0 139.334 21.833 182.001 65.5s64 105.834 64 186.501
c0 78 -23.167 137.333 -69.5 178s-113.833 61 -202.5 61h-27l1 205c4 -0.666992 8.33301 -1.16699 13 -1.5s11.667 -0.5 21 -0.5c59.333 0 104.5 14.833 135.5 44.5s46.5 72.834 46.5 129.501s-16.167 99.834 -48.5 129.501s-79.5 44.5 -141.5 44.5
c-57.333 0 -101 -16.5 -131 -49.5s-45 -81.167 -45 -144.5v-1053h-285z" />
    <glyph glyph-name="agrave" unicode="&#xe0;" horiz-adv-x="1151" 
d="M750 135c-36.667 -56.667 -84.668 -99.8369 -144.001 -129.504s-128.333 -44.5 -207 -44.5c-105.333 0 -186.5 30 -243.5 90s-85.5 145.333 -85.5 256c0 102.667 28.5 181 85.5 235s151.167 91 282.5 111c30 4.66699 69.333 10 118 16c123.333 16 185 51.667 185 107
c0 44 -13.667 75.5 -41 94.5s-73 28.5 -137 28.5c-58.667 0 -103.667 -11.667 -135 -35s-47 -56.666 -47 -99.999v-16h-272v20c0 111.333 39.333 198.833 118 262.5s187.334 95.5 326.001 95.5c152 0 268.5 -26.333 349.5 -79s121.5 -128.667 121.5 -228v-618
c0 -45.333 4.66699 -79.166 14 -101.499s25 -39.166 47 -50.499v-49h-303c-10 18.667 -17.667 39.334 -23 62.001s-8.33301 47 -9 73zM744.999 534.997c-47.333 -22 -101.834 -39.667 -163.501 -53s-93.5 -20.333 -95.5 -21c-51.333 -14.667 -87.166 -33 -107.499 -55
s-30.5 -52.333 -30.5 -91c0 -40 13 -71.833 39 -95.5s61 -35.5 105 -35.5c78.667 0 140.5 22.167 185.5 66.5s67.5 104.833 67.5 181.5v103zM267.998 1587h258l197 -370h-142z" />
    <glyph glyph-name="aacute" unicode="&#xe1;" horiz-adv-x="1151" 
d="M750 135c-36.667 -56.667 -84.668 -99.8369 -144.001 -129.504s-128.333 -44.5 -207 -44.5c-105.333 0 -186.5 30 -243.5 90s-85.5 145.333 -85.5 256c0 102.667 28.5 181 85.5 235s151.167 91 282.5 111c30 4.66699 69.333 10 118 16c123.333 16 185 51.667 185 107
c0 44 -13.667 75.5 -41 94.5s-73 28.5 -137 28.5c-58.667 0 -103.667 -11.667 -135 -35s-47 -56.666 -47 -99.999v-16h-272v20c0 111.333 39.333 198.833 118 262.5s187.334 95.5 326.001 95.5c152 0 268.5 -26.333 349.5 -79s121.5 -128.667 121.5 -228v-618
c0 -45.333 4.66699 -79.166 14 -101.499s25 -39.166 47 -50.499v-49h-303c-10 18.667 -17.667 39.334 -23 62.001s-8.33301 47 -9 73zM744.999 534.997c-47.333 -22 -101.834 -39.667 -163.501 -53s-93.5 -20.333 -95.5 -21c-51.333 -14.667 -87.166 -33 -107.499 -55
s-30.5 -52.333 -30.5 -91c0 -40 13 -71.833 39 -95.5s61 -35.5 105 -35.5c78.667 0 140.5 22.167 185.5 66.5s67.5 104.833 67.5 181.5v103zM853.998 1587l-313 -370h-142l197 370h258z" />
    <glyph glyph-name="acircumflex" unicode="&#xe2;" horiz-adv-x="1151" 
d="M750 135c-36.667 -56.667 -84.668 -99.8369 -144.001 -129.504s-128.333 -44.5 -207 -44.5c-105.333 0 -186.5 30 -243.5 90s-85.5 145.333 -85.5 256c0 102.667 28.5 181 85.5 235s151.167 91 282.5 111c30 4.66699 69.333 10 118 16c123.333 16 185 51.667 185 107
c0 44 -13.667 75.5 -41 94.5s-73 28.5 -137 28.5c-58.667 0 -103.667 -11.667 -135 -35s-47 -56.666 -47 -99.999v-16h-272v20c0 111.333 39.333 198.833 118 262.5s187.334 95.5 326.001 95.5c152 0 268.5 -26.333 349.5 -79s121.5 -128.667 121.5 -228v-618
c0 -45.333 4.66699 -79.166 14 -101.499s25 -39.166 47 -50.499v-49h-303c-10 18.667 -17.667 39.334 -23 62.001s-8.33301 47 -9 73zM744.999 534.997c-47.333 -22 -101.834 -39.667 -163.501 -53s-93.5 -20.333 -95.5 -21c-51.333 -14.667 -87.166 -33 -107.499 -55
s-30.5 -52.333 -30.5 -91c0 -40 13 -71.833 39 -95.5s61 -35.5 105 -35.5c78.667 0 140.5 22.167 185.5 66.5s67.5 104.833 67.5 181.5v103zM245.998 1217l196 370h238l196 -370h-141l-174 217l-176 -217h-139z" />
    <glyph glyph-name="atilde" unicode="&#xe3;" horiz-adv-x="1151" 
d="M750 135c-36.667 -56.667 -84.668 -99.8369 -144.001 -129.504s-128.333 -44.5 -207 -44.5c-105.333 0 -186.5 30 -243.5 90s-85.5 145.333 -85.5 256c0 102.667 28.5 181 85.5 235s151.167 91 282.5 111c30 4.66699 69.333 10 118 16c123.333 16 185 51.667 185 107
c0 44 -13.667 75.5 -41 94.5s-73 28.5 -137 28.5c-58.667 0 -103.667 -11.667 -135 -35s-47 -56.666 -47 -99.999v-16h-272v20c0 111.333 39.333 198.833 118 262.5s187.334 95.5 326.001 95.5c152 0 268.5 -26.333 349.5 -79s121.5 -128.667 121.5 -228v-618
c0 -45.333 4.66699 -79.166 14 -101.499s25 -39.166 47 -50.499v-49h-303c-10 18.667 -17.667 39.334 -23 62.001s-8.33301 47 -9 73zM744.999 534.997c-47.333 -22 -101.834 -39.667 -163.501 -53s-93.5 -20.333 -95.5 -21c-51.333 -14.667 -87.166 -33 -107.499 -55
s-30.5 -52.333 -30.5 -91c0 -40 13 -71.833 39 -95.5s61 -35.5 105 -35.5c78.667 0 140.5 22.167 185.5 66.5s67.5 104.833 67.5 181.5v103zM877.998 1538c-17.333 -83.333 -42.9961 -144.833 -76.9961 -184.5s-77.667 -59.5 -131 -59.5c-14 0 -27 0.833008 -39 2.5
s-24 4.5 -36 8.5l-87 26c-12.667 3.33301 -24.334 5.83301 -35.001 7.5s-21 2.5 -31 2.5c-22.667 0 -41 -6 -55 -18s-25 -31.667 -33 -59h-110c16 80.667 40.667 140 74 178s76.666 57 129.999 57c14 0 28 -1.16699 42 -3.5s28.667 -5.83301 44 -10.5l93 -25
c8 -2.66699 16.5 -4.66699 25.5 -6s18.833 -2 29.5 -2c21.333 0 39.166 7.16699 53.499 21.5s25.166 35.833 32.499 64.5h110z" />
    <glyph glyph-name="adieresis" unicode="&#xe4;" horiz-adv-x="1151" 
d="M750 135c-36.667 -56.667 -84.668 -99.8369 -144.001 -129.504s-128.333 -44.5 -207 -44.5c-105.333 0 -186.5 30 -243.5 90s-85.5 145.333 -85.5 256c0 102.667 28.5 181 85.5 235s151.167 91 282.5 111c30 4.66699 69.333 10 118 16c123.333 16 185 51.667 185 107
c0 44 -13.667 75.5 -41 94.5s-73 28.5 -137 28.5c-58.667 0 -103.667 -11.667 -135 -35s-47 -56.666 -47 -99.999v-16h-272v20c0 111.333 39.333 198.833 118 262.5s187.334 95.5 326.001 95.5c152 0 268.5 -26.333 349.5 -79s121.5 -128.667 121.5 -228v-618
c0 -45.333 4.66699 -79.166 14 -101.499s25 -39.166 47 -50.499v-49h-303c-10 18.667 -17.667 39.334 -23 62.001s-8.33301 47 -9 73zM744.999 534.997c-47.333 -22 -101.834 -39.667 -163.501 -53s-93.5 -20.333 -95.5 -21c-51.333 -14.667 -87.166 -33 -107.499 -55
s-30.5 -52.333 -30.5 -91c0 -40 13 -71.833 39 -95.5s61 -35.5 105 -35.5c78.667 0 140.5 22.167 185.5 66.5s67.5 104.833 67.5 181.5v103zM621.998 1276v246h226v-246h-226zM273.998 1276v246h226v-246h-226z" />
    <glyph glyph-name="aring" unicode="&#xe5;" horiz-adv-x="1151" 
d="M745 535c-47.333 -22 -101.834 -39.667 -163.501 -53s-93.5 -20.333 -95.5 -21c-51.333 -14.667 -87.166 -33 -107.499 -55s-30.5 -52.333 -30.5 -91c0 -40 13 -71.833 39 -95.5s61 -35.5 105 -35.5c78.667 0 140.5 22.167 185.5 66.5s67.5 104.833 67.5 181.5v103z
M448.999 1427c0 -32 11.5 -59.333 34.5 -82s50.833 -34 83.5 -34c33.333 0 61.5 11.333 84.5 34s34.5 50 34.5 82c0 33.333 -11.667 61.833 -35 85.5s-51.333 35.5 -84 35.5s-60.5 -11.833 -83.5 -35.5s-34.5 -52.167 -34.5 -85.5zM310.999 1430
c0 71.333 24.833 131.833 74.5 181.5s110.167 74.5 181.5 74.5c72 0 132.667 -24.833 182 -74.5s74 -110.167 74 -181.5c0 -72 -24.667 -132.667 -74 -182s-110 -74 -182 -74c-71.333 0 -131.833 24.667 -181.5 74s-74.5 110 -74.5 182zM749.999 135
c-36.667 -56.667 -84.668 -99.8369 -144.001 -129.504s-128.333 -44.5 -207 -44.5c-105.333 0 -186.5 30 -243.5 90s-85.5 145.333 -85.5 256c0 102.667 28.5 181 85.5 235s151.167 91 282.5 111c30 4.66699 69.333 10 118 16c123.333 16 185 51.667 185 107
c0 44 -13.667 75.5 -41 94.5s-73 28.5 -137 28.5c-58.667 0 -103.667 -11.667 -135 -35s-47 -56.666 -47 -99.999v-16h-272v20c0 111.333 39.333 198.833 118 262.5s187.334 95.5 326.001 95.5c152 0 268.5 -26.333 349.5 -79s121.5 -128.667 121.5 -228v-618
c0 -45.333 4.66699 -79.166 14 -101.499s25 -39.166 47 -50.499v-49h-303c-10 18.667 -17.667 39.334 -23 62.001s-8.33301 47 -9 73z" />
    <glyph glyph-name="ae" unicode="&#xe6;" horiz-adv-x="1810" 
d="M1002 659h440v7c0 71.333 -19.833 127.333 -59.5 168s-94.167 61 -163.5 61c-64.667 0 -116.5 -21.167 -155.5 -63.5s-59.5 -99.833 -61.5 -172.5zM739 530c-48 -21.333 -107.167 -39.333 -177.5 -54s-114.5 -26.334 -132.5 -35.001c-25.333 -12 -44.5 -29 -57.5 -51
s-19.5 -48.333 -19.5 -79c0 -41.333 13.5 -73.166 40.5 -95.499s65.5 -33.5 115.5 -33.5c64 0 118.5 20.667 163.5 62s67.5 90.333 67.5 147v139zM850 154c-45.333 -64.667 -104 -112.668 -176 -144.001s-160 -47 -264 -47c-110 0 -194.167 29.5 -252.5 88.5
s-87.5 144.167 -87.5 255.5c0 98 27.5 175 82.5 231s138.5 92.333 250.5 109l118 16c141.333 17.333 212 54.333 212 111c0 46.667 -12.667 78.5 -38 95.5s-72.666 25.5 -141.999 25.5c-55.333 0 -97.5 -11.833 -126.5 -35.5s-43.5 -58.167 -43.5 -103.5v-8h-274v22
c0 111.333 40.167 198.5 120.5 261.5s192.166 94.5 335.499 94.5c74 0 141 -10 201 -30s109 -48.667 147 -86c41.333 40 88 69.333 140 88s112.667 28 182 28c161.333 0 286.333 -50.833 375 -152.5s133 -245.167 133 -430.5c0 -20.667 -0.166992 -36.167 -0.5 -46.5
s-1.16602 -20.166 -2.49902 -29.499h-738c0.666992 -85.333 21.334 -151.333 62.001 -198s97.667 -70 171 -70c46.667 0 87 11 121 33s62 55.333 84 100h291c-27.333 -116 -86.5 -206.5 -177.5 -271.5s-204.167 -97.5 -339.5 -97.5c-82.667 0 -154.834 16.167 -216.501 48.5
s-110.834 79.833 -147.501 142.5z" />
    <glyph glyph-name="ccedilla" unicode="&#xe7;" horiz-adv-x="1128" 
d="M784 410l286.999 -0.000976562c-12 -138 -62.333 -247 -151 -327s-202.667 -120 -342 -120c-158 0 -281.833 51.5 -371.5 154.5s-134.5 245.5 -134.5 427.5c0 181.333 45.833 323.5 137.5 426.5s217.834 154.5 378.501 154.5c140.667 0 253.5 -37.333 338.5 -112
s132.5 -178.667 142.5 -312h-289c-8 58 -28.333 102.333 -61 133s-75.667 46 -129 46c-72 0 -125.833 -28.333 -161.5 -85s-53.5 -141.667 -53.5 -255c0 -104.667 18.5 -185.167 55.5 -241.5s90.167 -84.5 159.5 -84.5c54 0 97.333 16.333 130 49s54 81.334 64 146.001z
M358.999 -438.001l0.000976562 129c53.333 -14 101.666 -24.667 144.999 -32s80.333 -11 111 -11c34.667 0 60 5.83301 76 17.5s24 30.167 24 55.5s-9.33301 43.333 -28 54s-49.667 16 -93 16c-15.333 0 -27 -0.166992 -35 -0.5s-15.333 -0.833008 -22 -1.5v211h102v-90h15
c78 0 136.667 -16 176 -48s59 -79.667 59 -143c0 -66.667 -22 -116.667 -66 -150s-110 -50 -198 -50c-34 0 -73.833 3.66699 -119.5 11s-94.5 18 -146.5 32z" />
    <glyph glyph-name="egrave" unicode="&#xe8;" horiz-adv-x="1167" 
d="M797 330l289.997 -0.00292969c-29.333 -114.667 -88.5 -204.5 -177.5 -269.5s-197.5 -97.5 -325.5 -97.5c-157.333 0 -282 52.833 -374 158.5s-138 248.834 -138 429.501c0 178 45.333 318.333 136 421s214.667 154 372 154c166.667 0 295.334 -50.5 386.001 -151.5
s136 -244.833 136 -431.5c0 -20.667 -0.166992 -36.167 -0.5 -46.5s-1.16602 -20.166 -2.49902 -29.499h-726c4 -85.333 24.833 -149.666 62.5 -192.999s91.834 -65 162.501 -65c50 0 91 9.83301 123 29.5s57.333 50.167 76 91.5zM372.997 657.997l427.999 0.00195312
c-2.66699 73.333 -22.167 129.166 -58.5 167.499s-88.5 57.5 -156.5 57.5c-63.333 0 -113.166 -19.333 -149.499 -58s-57.5 -94.334 -63.5 -167.001zM290.996 1587h258l197 -370h-142z" />
    <glyph glyph-name="eacute" unicode="&#xe9;" horiz-adv-x="1167" 
d="M797 330l289.997 -0.00292969c-29.333 -114.667 -88.5 -204.5 -177.5 -269.5s-197.5 -97.5 -325.5 -97.5c-157.333 0 -282 52.833 -374 158.5s-138 248.834 -138 429.501c0 178 45.333 318.333 136 421s214.667 154 372 154c166.667 0 295.334 -50.5 386.001 -151.5
s136 -244.833 136 -431.5c0 -20.667 -0.166992 -36.167 -0.5 -46.5s-1.16602 -20.166 -2.49902 -29.499h-726c4 -85.333 24.833 -149.666 62.5 -192.999s91.834 -65 162.501 -65c50 0 91 9.83301 123 29.5s57.333 50.167 76 91.5zM372.997 657.997l427.999 0.00195312
c-2.66699 73.333 -22.167 129.166 -58.5 167.499s-88.5 57.5 -156.5 57.5c-63.333 0 -113.166 -19.333 -149.499 -58s-57.5 -94.334 -63.5 -167.001zM876.996 1587l-313 -370h-142l197 370h258z" />
    <glyph glyph-name="ecircumflex" unicode="&#xea;" horiz-adv-x="1167" 
d="M797 330l289.997 -0.00292969c-29.333 -114.667 -88.5 -204.5 -177.5 -269.5s-197.5 -97.5 -325.5 -97.5c-157.333 0 -282 52.833 -374 158.5s-138 248.834 -138 429.501c0 178 45.333 318.333 136 421s214.667 154 372 154c166.667 0 295.334 -50.5 386.001 -151.5
s136 -244.833 136 -431.5c0 -20.667 -0.166992 -36.167 -0.5 -46.5s-1.16602 -20.166 -2.49902 -29.499h-726c4 -85.333 24.833 -149.666 62.5 -192.999s91.834 -65 162.501 -65c50 0 91 9.83301 123 29.5s57.333 50.167 76 91.5zM372.997 657.997l427.999 0.00195312
c-2.66699 73.333 -22.167 129.166 -58.5 167.499s-88.5 57.5 -156.5 57.5c-63.333 0 -113.166 -19.333 -149.499 -58s-57.5 -94.334 -63.5 -167.001zM268.996 1217l196 370h238l196 -370h-141l-174 217l-176 -217h-139z" />
    <glyph glyph-name="edieresis" unicode="&#xeb;" horiz-adv-x="1167" 
d="M797 330l289.997 -0.00292969c-29.333 -114.667 -88.5 -204.5 -177.5 -269.5s-197.5 -97.5 -325.5 -97.5c-157.333 0 -282 52.833 -374 158.5s-138 248.834 -138 429.501c0 178 45.333 318.333 136 421s214.667 154 372 154c166.667 0 295.334 -50.5 386.001 -151.5
s136 -244.833 136 -431.5c0 -20.667 -0.166992 -36.167 -0.5 -46.5s-1.16602 -20.166 -2.49902 -29.499h-726c4 -85.333 24.833 -149.666 62.5 -192.999s91.834 -65 162.501 -65c50 0 91 9.83301 123 29.5s57.333 50.167 76 91.5zM372.997 657.997l427.999 0.00195312
c-2.66699 73.333 -22.167 129.166 -58.5 167.499s-88.5 57.5 -156.5 57.5c-63.333 0 -113.166 -19.333 -149.499 -58s-57.5 -94.334 -63.5 -167.001zM644.996 1276v246h226v-246h-226zM296.996 1276v246h226v-246h-226z" />
    <glyph glyph-name="igrave" unicode="&#xec;" horiz-adv-x="557" 
d="M133 0v1087h291v-1087h-291zM-14 1587h258l197 -370h-142z" />
    <glyph glyph-name="iacute" unicode="&#xed;" horiz-adv-x="557" 
d="M133 0v1087h291v-1087h-291zM572 1587l-313 -370h-142l197 370h258z" />
    <glyph glyph-name="icircumflex" unicode="&#xee;" horiz-adv-x="557" 
d="M133 0v1087h291v-1087h-291zM-36 1217l196 370h238l196 -370h-141l-174 217l-176 -217h-139z" />
    <glyph glyph-name="idieresis" unicode="&#xef;" horiz-adv-x="557" 
d="M133 0v1087h291v-1087h-291zM340 1276v246h226v-246h-226zM-8 1276v246h226v-246h-226z" />
    <glyph glyph-name="eth" unicode="&#xf0;" horiz-adv-x="1247" 
d="M721 1004c-24.667 31.333 -53.668 61.999 -87.001 91.999s-71.333 59.333 -114 88l-289 -144l-57 117l219 109c-37.333 22.667 -100.666 55 -189.999 97l-2 1l80 145c52.667 -16 108.167 -36.167 166.5 -60.5s120.166 -53.166 185.499 -86.499l289 141l57 -114l-223 -111
c141.333 -100.667 247 -213.667 317 -339s105 -265 105 -419c0 -174 -49.167 -310.333 -147.5 -409s-234.166 -148 -407.499 -148c-172.667 0 -307.667 48 -405 144s-146 229 -146 399c0 158 45.167 286.833 135.5 386.5s205.5 149.5 345.5 149.5
c29.333 0 57.833 -3.16699 85.5 -9.5s55.167 -15.833 82.5 -28.5zM366.999 519.999c0 -100 22.167 -177.167 66.5 -231.5s107.5 -81.5 189.5 -81.5c81.333 0 144 27 188 81s66 131.333 66 232c0 100 -22 176.833 -66 230.5s-106.667 80.5 -188 80.5
c-82 0 -145.167 -27 -189.5 -81s-66.5 -130.667 -66.5 -230z" />
    <glyph glyph-name="ntilde" unicode="&#xf1;" horiz-adv-x="1223" 
d="M127 0l-0.000976562 1087h285v-129c40.667 52.667 88.667 92.167 144 118.5s117 39.5 185 39.5c120 0 209.833 -31.167 269.5 -93.5s89.5 -156.166 89.5 -281.499v-741h-291v657c0 78 -13.167 133.667 -39.5 167s-69.166 50 -128.499 50c-68.667 0 -123 -20.5 -163 -61.5
s-60 -96.833 -60 -167.5v-645h-291zM943.999 1538c-17.333 -83.333 -42.9961 -144.833 -76.9961 -184.5s-77.667 -59.5 -131 -59.5c-14 0 -27 0.833008 -39 2.5s-24 4.5 -36 8.5l-87 26c-12.667 3.33301 -24.334 5.83301 -35.001 7.5s-21 2.5 -31 2.5
c-22.667 0 -41 -6 -55 -18s-25 -31.667 -33 -59h-110c16 80.667 40.667 140 74 178s76.666 57 129.999 57c14 0 28 -1.16699 42 -3.5s28.667 -5.83301 44 -10.5l93 -25c8 -2.66699 16.5 -4.66699 25.5 -6s18.833 -2 29.5 -2c21.333 0 39.166 7.16699 53.499 21.5
s25.166 35.833 32.499 64.5h110z" />
    <glyph glyph-name="ograve" unicode="&#xf2;" horiz-adv-x="1245" 
d="M367 545c0 -108 22.167 -191.333 66.5 -250s107.5 -88 189.5 -88c80.667 0 143.167 29.333 187.5 88s66.5 142 66.5 250c0 107.333 -22 190.166 -66 248.499s-106.667 87.5 -188 87.5c-82 0 -145.167 -29.167 -189.5 -87.5s-66.5 -141.166 -66.5 -248.499zM72 545
c0 180.667 49 322.667 147 426s232.667 155 404 155c170.667 0 305.167 -51.667 403.5 -155s147.5 -245.333 147.5 -426c0 -181.333 -49.167 -323.666 -147.5 -426.999s-232.833 -155 -403.5 -155c-171.333 0 -306 51.667 -404 155s-147 245.666 -147 426.999zM330 1587h258
l197 -370h-142z" />
    <glyph glyph-name="oacute" unicode="&#xf3;" horiz-adv-x="1245" 
d="M367 545c0 -108 22.167 -191.333 66.5 -250s107.5 -88 189.5 -88c80.667 0 143.167 29.333 187.5 88s66.5 142 66.5 250c0 107.333 -22 190.166 -66 248.499s-106.667 87.5 -188 87.5c-82 0 -145.167 -29.167 -189.5 -87.5s-66.5 -141.166 -66.5 -248.499zM72 545
c0 180.667 49 322.667 147 426s232.667 155 404 155c170.667 0 305.167 -51.667 403.5 -155s147.5 -245.333 147.5 -426c0 -181.333 -49.167 -323.666 -147.5 -426.999s-232.833 -155 -403.5 -155c-171.333 0 -306 51.667 -404 155s-147 245.666 -147 426.999zM916 1587
l-313 -370h-142l197 370h258z" />
    <glyph glyph-name="ocircumflex" unicode="&#xf4;" horiz-adv-x="1245" 
d="M367 545c0 -108 22.167 -191.333 66.5 -250s107.5 -88 189.5 -88c80.667 0 143.167 29.333 187.5 88s66.5 142 66.5 250c0 107.333 -22 190.166 -66 248.499s-106.667 87.5 -188 87.5c-82 0 -145.167 -29.167 -189.5 -87.5s-66.5 -141.166 -66.5 -248.499zM72 545
c0 180.667 49 322.667 147 426s232.667 155 404 155c170.667 0 305.167 -51.667 403.5 -155s147.5 -245.333 147.5 -426c0 -181.333 -49.167 -323.666 -147.5 -426.999s-232.833 -155 -403.5 -155c-171.333 0 -306 51.667 -404 155s-147 245.666 -147 426.999zM308 1217
l196 370h238l196 -370h-141l-174 217l-176 -217h-139z" />
    <glyph glyph-name="otilde" unicode="&#xf5;" horiz-adv-x="1245" 
d="M367 545c0 -108 22.167 -191.333 66.5 -250s107.5 -88 189.5 -88c80.667 0 143.167 29.333 187.5 88s66.5 142 66.5 250c0 107.333 -22 190.166 -66 248.499s-106.667 87.5 -188 87.5c-82 0 -145.167 -29.167 -189.5 -87.5s-66.5 -141.166 -66.5 -248.499zM72 545
c0 180.667 49 322.667 147 426s232.667 155 404 155c170.667 0 305.167 -51.667 403.5 -155s147.5 -245.333 147.5 -426c0 -181.333 -49.167 -323.666 -147.5 -426.999s-232.833 -155 -403.5 -155c-171.333 0 -306 51.667 -404 155s-147 245.666 -147 426.999zM940 1538
c-17.333 -83.333 -42.9961 -144.833 -76.9961 -184.5s-77.667 -59.5 -131 -59.5c-14 0 -27 0.833008 -39 2.5s-24 4.5 -36 8.5l-87 26c-12.667 3.33301 -24.334 5.83301 -35.001 7.5s-21 2.5 -31 2.5c-22.667 0 -41 -6 -55 -18s-25 -31.667 -33 -59h-110
c16 80.667 40.667 140 74 178s76.666 57 129.999 57c14 0 28 -1.16699 42 -3.5s28.667 -5.83301 44 -10.5l93 -25c8 -2.66699 16.5 -4.66699 25.5 -6s18.833 -2 29.5 -2c21.333 0 39.166 7.16699 53.499 21.5s25.166 35.833 32.499 64.5h110z" />
    <glyph glyph-name="odieresis" unicode="&#xf6;" horiz-adv-x="1245" 
d="M367 545c0 -108 22.167 -191.333 66.5 -250s107.5 -88 189.5 -88c80.667 0 143.167 29.333 187.5 88s66.5 142 66.5 250c0 107.333 -22 190.166 -66 248.499s-106.667 87.5 -188 87.5c-82 0 -145.167 -29.167 -189.5 -87.5s-66.5 -141.166 -66.5 -248.499zM72 545
c0 180.667 49 322.667 147 426s232.667 155 404 155c170.667 0 305.167 -51.667 403.5 -155s147.5 -245.333 147.5 -426c0 -181.333 -49.167 -323.666 -147.5 -426.999s-232.833 -155 -403.5 -155c-171.333 0 -306 51.667 -404 155s-147 245.666 -147 426.999zM684 1276v246
h226v-246h-226zM336 1276v246h226v-246h-226z" />
    <glyph glyph-name="divide" unicode="&#xf7;" horiz-adv-x="1706" 
d="M854 369c41.333 0 77 -15 107 -45s45 -65.667 45 -107c0 -40.667 -15 -75.667 -45 -105s-65.667 -44 -107 -44c-42 0 -77.833 14.333 -107.5 43s-44.5 64 -44.5 106s14.833 77.833 44.5 107.5s65.5 44.5 107.5 44.5zM254 711h1198v-199h-1198v199zM854 1155
c41.333 0 77 -14.833 107 -44.5s45 -65.167 45 -106.5c0 -42 -14.833 -77.833 -44.5 -107.5s-65.5 -44.5 -107.5 -44.5s-77.833 14.833 -107.5 44.5s-44.5 65.5 -44.5 107.5s14.833 77.667 44.5 107s65.5 44 107.5 44z" />
    <glyph glyph-name="oslash" unicode="&#xf8;" horiz-adv-x="1245" 
d="M434 281c24.667 -28.667 51.666 -49.5 80.999 -62.5s63.666 -19.5 102.999 -19.5c86.667 0 152.834 29.833 198.501 89.5s68.5 146.5 68.5 260.5c0 31.333 -2.16699 61.5 -6.5 90.5s-11.166 56.833 -20.499 83.5zM808.999 811c-25.333 26 -52.5 45.498 -81.5 58.498
s-60.5 19.5 -94.5 19.5c-90.667 0 -159.167 -29.667 -205.5 -89s-69.5 -147 -69.5 -263c0 -29.333 2.5 -58.166 7.5 -86.499s12.167 -56.166 21.5 -83.499zM38.999 9.99805l145.002 152c-38.667 52.667 -67.334 110.167 -86.001 172.5s-28 132.5 -28 210.5
c0 180 50 322.167 150 426.5s236.333 156.5 409 156.5c69.333 0 133.666 -10 192.999 -30s115 -50.667 167 -92l135 145l78 -74l-141 -149c38 -49.333 66.333 -105.5 85 -168.5s28 -135.833 28 -218.5c0 -178.667 -49.833 -320 -149.5 -424s-234.167 -156 -403.5 -156
c-76.667 0 -144.667 9.83301 -204 29.5s-113 50.167 -161 91.5l-139 -148z" />
    <glyph glyph-name="ugrave" unicode="&#xf9;" horiz-adv-x="1223" 
d="M1096 1087v-1087h-285v129c-41.333 -52.667 -89.5 -92.167 -144.5 -118.5s-116.833 -39.5 -185.5 -39.5c-119.333 0 -208.833 31.333 -268.5 94s-89.5 156.334 -89.5 281.001v741h291v-657c0 -77.333 13 -132.5 39 -165.5s69 -49.5 129 -49.5
c68 0 122.167 20.5 162.5 61.5s60.5 96.833 60.5 167.5v643h291zM319 1587h258l197 -370h-142z" />
    <glyph glyph-name="uacute" unicode="&#xfa;" horiz-adv-x="1223" 
d="M1096 1087v-1087h-285v129c-41.333 -52.667 -89.5 -92.167 -144.5 -118.5s-116.833 -39.5 -185.5 -39.5c-119.333 0 -208.833 31.333 -268.5 94s-89.5 156.334 -89.5 281.001v741h291v-657c0 -77.333 13 -132.5 39 -165.5s69 -49.5 129 -49.5
c68 0 122.167 20.5 162.5 61.5s60.5 96.833 60.5 167.5v643h291zM905 1587l-313 -370h-142l197 370h258z" />
    <glyph glyph-name="ucircumflex" unicode="&#xfb;" horiz-adv-x="1223" 
d="M1096 1087v-1087h-285v129c-41.333 -52.667 -89.5 -92.167 -144.5 -118.5s-116.833 -39.5 -185.5 -39.5c-119.333 0 -208.833 31.333 -268.5 94s-89.5 156.334 -89.5 281.001v741h291v-657c0 -77.333 13 -132.5 39 -165.5s69 -49.5 129 -49.5
c68 0 122.167 20.5 162.5 61.5s60.5 96.833 60.5 167.5v643h291zM297 1217l196 370h238l196 -370h-141l-174 217l-176 -217h-139z" />
    <glyph glyph-name="udieresis" unicode="&#xfc;" horiz-adv-x="1223" 
d="M1096 1087v-1087h-285v129c-41.333 -52.667 -89.5 -92.167 -144.5 -118.5s-116.833 -39.5 -185.5 -39.5c-119.333 0 -208.833 31.333 -268.5 94s-89.5 156.334 -89.5 281.001v741h291v-657c0 -77.333 13 -132.5 39 -165.5s69 -49.5 129 -49.5
c68 0 122.167 20.5 162.5 61.5s60.5 96.833 60.5 167.5v643h291zM673 1276v246h226v-246h-226zM325 1276v246h226v-246h-226z" />
    <glyph glyph-name="yacute" unicode="&#xfd;" horiz-adv-x="1100" 
d="M170 -436v235c9.33301 -1.33301 19 -2.33301 29 -3s23 -1 39 -1c57.333 0 100.333 13.5 129 40.5s43 67.5 43 121.5c0 4 -0.666992 9 -2 15s-2.66602 11 -3.99902 15l-392 1100h320l229 -784l223 784h306l-447 -1282c-33.333 -96 -75 -161.5 -125 -196.5
s-125 -52.5 -225 -52.5c-18 0 -37.333 0.666992 -58 2s-42.334 3.33301 -65.001 6zM844 1587l-313 -370h-142l197 370h258z" />
    <glyph glyph-name="thorn" unicode="&#xfe;" horiz-adv-x="1255" 
d="M895 537c0 109.333 -20.667 192.833 -62 250.5s-101.333 86.5 -180 86.5c-77.333 0 -136.166 -28.667 -176.499 -86s-60.5 -141 -60.5 -251c0 -102.667 21.167 -182 63.5 -238s102.166 -84 179.499 -84c73.333 0 131 28.667 173 86s63 136 63 236zM133 -436
l-0.00195312 1909h283v-527c40 60.667 85.833 105.5 137.5 134.5s111.5 43.5 179.5 43.5c134 0 242.667 -52.833 326 -158.5s125 -244.5 125 -416.5c0 -174 -41.667 -315.167 -125 -423.5s-190.666 -162.5 -321.999 -162.5c-69.333 0 -131.166 14.667 -185.499 44
s-99.5 72 -135.5 128v-571h-283z" />
    <glyph glyph-name="ydieresis" unicode="&#xff;" horiz-adv-x="1100" 
d="M170 -436v235c9.33301 -1.33301 19 -2.33301 29 -3s23 -1 39 -1c57.333 0 100.333 13.5 129 40.5s43 67.5 43 121.5c0 4 -0.666992 9 -2 15s-2.66602 11 -3.99902 15l-392 1100h320l229 -784l223 784h306l-447 -1282c-33.333 -96 -75 -161.5 -125 -196.5
s-125 -52.5 -225 -52.5c-18 0 -37.333 0.666992 -58 2s-42.334 3.33301 -65.001 6zM612 1276v246h226v-246h-226zM264 1276v246h226v-246h-226z" />
    <glyph glyph-name="Cacute" unicode="&#x106;" horiz-adv-x="1524" 
d="M1434 506c-11.333 -167.333 -75.833 -300.333 -193.5 -399s-271.167 -148 -460.5 -148c-218 0 -387.5 68 -508.5 204s-181.5 326.667 -181.5 572c0 250.667 61.667 442.667 185 576s300.666 200 531.999 200c188 0 336.5 -45.833 445.5 -137.5
s168.833 -221.167 179.5 -388.5h-299c-12.667 83.333 -46.667 146.833 -102 190.5s-130 65.5 -224 65.5c-133.333 0 -234.666 -43 -303.999 -129s-104 -211.667 -104 -377c0 -160 34.5 -283.667 103.5 -371s167.167 -131 294.5 -131c92 0 167.333 23.5 226 70.5
s96.667 114.5 114 202.5h297zM1088 1972l-313 -370h-142l197 370h258z" />
    <glyph glyph-name="cacute" unicode="&#x107;" horiz-adv-x="1128" 
d="M784 410l286.999 -0.000976562c-12 -138 -62.333 -247 -151 -327s-202.667 -120 -342 -120c-158 0 -281.833 51.5 -371.5 154.5s-134.5 245.5 -134.5 427.5c0 181.333 45.833 323.5 137.5 426.5s217.834 154.5 378.501 154.5c140.667 0 253.5 -37.333 338.5 -112
s132.5 -178.667 142.5 -312h-289c-8 58 -28.333 102.333 -61 133s-75.667 46 -129 46c-72 0 -125.833 -28.333 -161.5 -85s-53.5 -141.667 -53.5 -255c0 -104.667 18.5 -185.167 55.5 -241.5s90.167 -84.5 159.5 -84.5c54 0 97.333 16.333 130 49s54 81.334 64 146.001z
M878.999 1587l-313 -370h-142l197 370h258z" />
    <glyph glyph-name="Ccaron" unicode="&#x10c;" horiz-adv-x="1524" 
d="M1434 506c-11.333 -167.333 -75.833 -300.333 -193.5 -399s-271.167 -148 -460.5 -148c-218 0 -387.5 68 -508.5 204s-181.5 326.667 -181.5 572c0 250.667 61.667 442.667 185 576s300.666 200 531.999 200c188 0 336.5 -45.833 445.5 -137.5
s168.833 -221.167 179.5 -388.5h-299c-12.667 83.333 -46.667 146.833 -102 190.5s-130 65.5 -224 65.5c-133.333 0 -234.666 -43 -303.999 -129s-104 -211.667 -104 -377c0 -160 34.5 -283.667 103.5 -371s167.167 -131 294.5 -131c92 0 167.333 23.5 226 70.5
s96.667 114.5 114 202.5h297zM480 1972h139l176 -219l174 219h141l-196 -370h-238z" />
    <glyph glyph-name="ccaron" unicode="&#x10d;" horiz-adv-x="1128" 
d="M784 410l286.999 -0.000976562c-12 -138 -62.333 -247 -151 -327s-202.667 -120 -342 -120c-158 0 -281.833 51.5 -371.5 154.5s-134.5 245.5 -134.5 427.5c0 181.333 45.833 323.5 137.5 426.5s217.834 154.5 378.501 154.5c140.667 0 253.5 -37.333 338.5 -112
s132.5 -178.667 142.5 -312h-289c-8 58 -28.333 102.333 -61 133s-75.667 46 -129 46c-72 0 -125.833 -28.333 -161.5 -85s-53.5 -141.667 -53.5 -255c0 -104.667 18.5 -185.167 55.5 -241.5s90.167 -84.5 159.5 -84.5c54 0 97.333 16.333 130 49s54 81.334 64 146.001z
M270.999 1587h139l176 -219l174 219h141l-196 -370h-238z" />
    <glyph glyph-name="dcroat" unicode="&#x111;" horiz-adv-x="1266" 
d="M1126 1473v-108.998h140v-162h-140v-1202h-276v147c-43.333 -64 -90.833 -110.667 -142.5 -140s-112.834 -44 -183.501 -44c-133.333 0 -241.666 53.167 -324.999 159.5s-125 245.166 -125 416.499c0 173.333 41.833 314.166 125.5 422.499s190.5 162.5 320.5 162.5
c70 0 132.5 -14.667 187.5 -44s100.5 -72 136.5 -128v250h-324v162h324v109h282zM365 551.002c0 -110 20.5 -193.834 61.5 -251.501s100.833 -86.5 179.5 -86.5c77.333 0 136.333 28.667 177 86s61 141.333 61 252c0 102 -21.333 181 -64 237s-102.667 84 -180 84
c-72.667 0 -130 -28.667 -172 -86s-63 -135.666 -63 -234.999z" />
    <glyph glyph-name="Gbreve" unicode="&#x11e;" horiz-adv-x="1591" 
d="M1212 174c-54.667 -74 -116.833 -128.336 -186.5 -163.003s-151.5 -52 -245.5 -52c-206 0 -372.833 71.5 -500.5 214.5s-191.5 330.833 -191.5 563.5c0 234.667 63.667 422.334 191 563.001s297 211 509 211c184.667 0 335.334 -44.167 452.001 -132.5
s186 -209.833 208 -364.5h-309c-18.667 76.667 -56.834 135 -114.501 175s-132.834 60 -225.501 60c-123.333 0 -220.166 -45.167 -290.499 -135.5s-105.5 -215.166 -105.5 -374.499c0 -160 36.667 -285.333 110 -376s174 -136 302 -136c96 0 176.333 28.333 241 85
s104.667 134.334 120 233.001h-334v252h610v-797h-203zM488.001 1937l122.997 0.00292969c4 -50.667 20.833 -87.834 50.5 -111.501s74.834 -35.5 135.501 -35.5c60 0 104.667 11.667 134 35s46 60.666 50 111.999h123c-7.33301 -104 -35.666 -180.5 -84.999 -229.5
s-123.333 -73.5 -222 -73.5c-98 0 -172.167 24.667 -222.5 74s-79.166 125.666 -86.499 228.999z" />
    <glyph glyph-name="gbreve" unicode="&#x11f;" horiz-adv-x="1249" 
d="M365 561c0 -102 20.501 -180.333 61.501 -235s99.5 -82 175.5 -82c76.667 0 135.167 27.333 175.5 82s60.5 134.334 60.5 239.001c0 99.333 -20.833 176.166 -62.5 230.499s-100.834 81.5 -177.501 81.5c-74 0 -131.333 -27.667 -172 -83s-61 -133 -61 -233z
M102.001 -105l317.999 1.00195c9.33301 -36.667 28.5 -64 57.5 -82s67.833 -27 116.5 -27c90.667 0 154 19.167 190 57.5s54 109.166 54 212.499v97c-30.667 -52.667 -70.5 -91.5 -119.5 -116.5s-110.167 -37.5 -183.5 -37.5c-140.667 0 -253.334 50.167 -338.001 150.5
s-127 233.833 -127 400.5c0 176 41.5 315.833 124.5 419.5s194.833 155.5 335.5 155.5c73.333 0 135.833 -14 187.5 -42s93.834 -70.667 126.501 -128v131h276v-1015c0 -114 -10.667 -201 -32 -261s-57.666 -110.333 -108.999 -151c-44 -34 -99.833 -59.833 -167.5 -77.5
s-144.834 -26.5 -231.501 -26.5c-145.333 0 -259.666 29.667 -342.999 89s-128.333 142.666 -135 249.999zM316 1552l122.997 0.00292969c4 -50.667 20.833 -87.834 50.5 -111.501s74.834 -35.5 135.501 -35.5c60 0 104.667 11.667 134 35s46 60.666 50 111.999h123
c-7.33301 -104 -35.666 -180.5 -84.999 -229.5s-123.333 -73.5 -222 -73.5c-98 0 -172.167 24.667 -222.5 74s-79.166 125.666 -86.499 228.999z" />
    <glyph glyph-name="Idotaccent" unicode="&#x130;" horiz-adv-x="629" 
d="M162 0v1473h303v-1473h-303zM198 1655v258h236v-258h-236z" />
    <glyph glyph-name="dotlessi" unicode="&#x131;" horiz-adv-x="557" 
d="M133 0v1087h291v-1087h-291z" />
    <glyph glyph-name="Lslash" unicode="&#x141;" horiz-adv-x="1196" 
d="M162 0v547l-115 -80l-110 160l225 155v691h303v-510l336 235l112 -158l-448 -313v-455h719v-272h-1022z" />
    <glyph glyph-name="lslash" unicode="&#x142;" horiz-adv-x="575" 
d="M143 0v559l-104 -78l-102 135l206 156v701h291v-527l103 78l104 -135l-207 -154v-735h-291z" />
    <glyph glyph-name="OE" unicode="&#x152;" horiz-adv-x="2310" 
d="M1130 0l-0.000976562 102c-58.667 -48 -120.167 -83.833 -184.5 -107.5s-133.833 -35.5 -208.5 -35.5c-193.333 0 -349.833 71.167 -469.5 213.5s-179.5 329.833 -179.5 562.5c0 234 59.833 422.167 179.5 564.5s276.834 213.5 471.501 213.5
c74 0 143.167 -11.667 207.5 -35s125.5 -59.333 183.5 -108v103h1063v-256h-770v-314h705v-252h-705v-379h807v-272h-1100zM1130 346l0.00195312 778c-48.667 46.667 -99 81 -151 103s-109.333 33 -172 33c-136 0 -238.333 -44 -307 -132s-103 -219 -103 -393
c0 -172 34.5 -302 103.5 -390s171.167 -132 306.5 -132c63.333 0 121.166 10.833 173.499 32.5s102.166 55.167 149.499 100.5z" />
    <glyph glyph-name="oe" unicode="&#x153;" horiz-adv-x="1948" 
d="M1137 660h443.999c-2 75.333 -22.5 133.666 -61.5 174.999s-93.5 62 -163.5 62c-64 0 -116.167 -21.667 -156.5 -65s-61.166 -100.666 -62.499 -171.999zM361.999 553c0 -110.667 22.501 -197.333 67.501 -260s106.5 -94 184.5 -94c86 0 152.333 30.667 199 92
s70 149.333 70 264c0 106 -22.833 188.833 -68.5 248.5s-108.834 89.5 -189.501 89.5c-84.667 0 -149.667 -29.333 -195 -88s-68 -142.667 -68 -252zM995 123.001c-44.667 -54 -98.5029 -94.1699 -161.503 -120.503s-136.833 -39.5 -221.5 -39.5
c-170 0 -302.167 51.667 -396.5 155s-141.5 248.333 -141.5 435c0 178.667 48.167 318.834 144.5 420.501s228.833 152.5 397.5 152.5c88.667 0 165.334 -13.333 230.001 -40s118.667 -67 162 -121c40 55.333 90 96 150 122s133.333 39 220 39c158 0 280.5 -51 367.5 -153
s130.5 -245.333 130.5 -430c0 -20.667 -0.166992 -36.167 -0.5 -46.5s-1.16602 -20.166 -2.49902 -29.499h-736c0 -83.333 19.5 -148.166 58.5 -194.499s93.167 -69.5 162.5 -69.5c52.667 0 96.834 10 132.501 30s63.167 50.333 82.5 91h289
c-20.667 -108 -77.834 -195.167 -171.501 -261.5s-206.5 -99.5 -338.5 -99.5c-77.333 0 -144.666 12.833 -201.999 38.5s-109 66.167 -155 121.5z" />
    <glyph glyph-name="Scedilla" unicode="&#x15e;" horiz-adv-x="1366" 
d="M84 455l298.997 0.00195312c11.333 -80.667 44.333 -140.5 99 -179.5s133.667 -58.5 237 -58.5c88 0 154.333 15.667 199 47s67 77.666 67 138.999c0 89.333 -128.333 163.333 -385 222c-3.33301 0.666992 -6.33301 1.33398 -9 2.00098
c-6.66699 1.33301 -17 3.66602 -31 6.99902c-137.333 30 -235.333 63.667 -294 101c-52 33.333 -91.667 78.166 -119 134.499s-41 122.833 -41 199.5c0 143.333 48.667 253.166 146 329.499s238 114.5 422 114.5c172 0 306.5 -40.667 403.5 -122s148.167 -196 153.5 -344
h-291c-5.33301 71.333 -32.666 125.666 -81.999 162.999s-119.666 56 -210.999 56c-79.333 0 -140.5 -15.5 -183.5 -46.5s-64.5 -75.167 -64.5 -132.5c0 -78 83.667 -136.333 251 -175l106 -25c107.333 -27.333 183.5 -48.666 228.5 -63.999s84.167 -32.333 117.5 -51
c60 -33.333 105 -77.5 135 -132.5s45 -120.833 45 -197.5c0 -153.333 -51.667 -272.166 -155 -356.499s-249 -126.5 -437 -126.5c-185.333 0 -330.666 43 -435.999 129s-162 208.333 -170 367zM454.997 -437.998l0.000976562 129c53.333 -14 101.666 -24.667 144.999 -32
s80.333 -11 111 -11c34.667 0 60 5.83301 76 17.5s24 30.167 24 55.5s-9.33301 43.333 -28 54s-49.667 16 -93 16c-15.333 0 -27 -0.166992 -35 -0.5s-15.333 -0.833008 -22 -1.5v211h102v-90h15c78 0 136.667 -16 176 -48s59 -79.667 59 -143
c0 -66.667 -22 -116.667 -66 -150s-110 -50 -198 -50c-34 0 -73.833 3.66699 -119.5 11s-94.5 18 -146.5 32z" />
    <glyph glyph-name="scedilla" unicode="&#x15f;" horiz-adv-x="1118" 
d="M66 354l290.002 -0.000976562c2.66699 -55.333 22.667 -96.5 60 -123.5s93.333 -40.5 168 -40.5c56.667 0 100.5 9.5 131.5 28.5s46.5 45.833 46.5 80.5c0 49.333 -58 86.333 -174 111c-47.333 10 -85 18.667 -113 26c-141.333 36 -239.5 78.667 -294.5 128
s-82.5 116 -82.5 200c0 111.333 40.167 199.5 120.5 264.5s189.166 97.5 326.499 97.5c145.333 0 259.5 -32.333 342.5 -97s127.167 -155.667 132.5 -273h-283c-2 46 -19.5 81.667 -52.5 107s-78.833 38 -137.5 38c-55.333 0 -96.5 -8.33301 -123.5 -25
s-40.5 -41.667 -40.5 -75c0 -43.333 72.333 -81.666 217 -114.999c33.333 -7.33301 59.666 -13.333 78.999 -18c144.667 -34 243.5 -75 296.5 -123s79.5 -115.667 79.5 -203c0 -123.333 -43.5 -217.333 -130.5 -282s-213.5 -97 -379.5 -97c-150 0 -267.333 33.667 -352 101
s-127 160 -127 278v12zM330.002 -438.001l0.000976562 129c53.333 -14 101.666 -24.667 144.999 -32s80.333 -11 111 -11c34.667 0 60 5.83301 76 17.5s24 30.167 24 55.5s-9.33301 43.333 -28 54s-49.667 16 -93 16c-15.333 0 -27 -0.166992 -35 -0.5
s-15.333 -0.833008 -22 -1.5v211h102v-90h15c78 0 136.667 -16 176 -48s59 -79.667 59 -143c0 -66.667 -22 -116.667 -66 -150s-110 -50 -198 -50c-34 0 -73.833 3.66699 -119.5 11s-94.5 18 -146.5 32z" />
    <glyph glyph-name="Scaron" unicode="&#x160;" horiz-adv-x="1366" 
d="M84 455l298.997 0.00195312c11.333 -80.667 44.333 -140.5 99 -179.5s133.667 -58.5 237 -58.5c88 0 154.333 15.667 199 47s67 77.666 67 138.999c0 89.333 -128.333 163.333 -385 222c-3.33301 0.666992 -6.33301 1.33398 -9 2.00098
c-6.66699 1.33301 -17 3.66602 -31 6.99902c-137.333 30 -235.333 63.667 -294 101c-52 33.333 -91.667 78.166 -119 134.499s-41 122.833 -41 199.5c0 143.333 48.667 253.166 146 329.499s238 114.5 422 114.5c172 0 306.5 -40.667 403.5 -122s148.167 -196 153.5 -344
h-291c-5.33301 71.333 -32.666 125.666 -81.999 162.999s-119.666 56 -210.999 56c-79.333 0 -140.5 -15.5 -183.5 -46.5s-64.5 -75.167 -64.5 -132.5c0 -78 83.667 -136.333 251 -175l106 -25c107.333 -27.333 183.5 -48.666 228.5 -63.999s84.167 -32.333 117.5 -51
c60 -33.333 105 -77.5 135 -132.5s45 -120.833 45 -197.5c0 -153.333 -51.667 -272.166 -155 -356.499s-249 -126.5 -437 -126.5c-185.333 0 -330.666 43 -435.999 129s-162 208.333 -170 367zM368.997 1972h139l176 -219l174 219h141l-196 -370h-238z" />
    <glyph glyph-name="scaron" unicode="&#x161;" horiz-adv-x="1118" 
d="M66 354l290.002 -0.000976562c2.66699 -55.333 22.667 -96.5 60 -123.5s93.333 -40.5 168 -40.5c56.667 0 100.5 9.5 131.5 28.5s46.5 45.833 46.5 80.5c0 49.333 -58 86.333 -174 111c-47.333 10 -85 18.667 -113 26c-141.333 36 -239.5 78.667 -294.5 128
s-82.5 116 -82.5 200c0 111.333 40.167 199.5 120.5 264.5s189.166 97.5 326.499 97.5c145.333 0 259.5 -32.333 342.5 -97s127.167 -155.667 132.5 -273h-283c-2 46 -19.5 81.667 -52.5 107s-78.833 38 -137.5 38c-55.333 0 -96.5 -8.33301 -123.5 -25
s-40.5 -41.667 -40.5 -75c0 -43.333 72.333 -81.666 217 -114.999c33.333 -7.33301 59.666 -13.333 78.999 -18c144.667 -34 243.5 -75 296.5 -123s79.5 -115.667 79.5 -203c0 -123.333 -43.5 -217.333 -130.5 -282s-213.5 -97 -379.5 -97c-150 0 -267.333 33.667 -352 101
s-127 160 -127 278v12zM244.002 1587h139l176 -219l174 219h141l-196 -370h-238z" />
    <glyph glyph-name="Ydieresis" unicode="&#x178;" horiz-adv-x="1274" 
d="M811 0h-303v549l-535 924h371l315 -635l291 635h346l-485 -924v-549zM698 1661v246h226v-246h-226zM350 1661v246h226v-246h-226z" />
    <glyph glyph-name="Zcaron" unicode="&#x17d;" horiz-adv-x="1231" 
d="M37 0v256l801 950h-785v267h1153v-256l-803 -951h785v-266h-1151zM301 1972h139l176 -219l174 219h141l-196 -370h-238z" />
    <glyph glyph-name="zcaron" unicode="&#x17e;" horiz-adv-x="1036" 
d="M35 0v223l596 633h-561v231h909v-237l-588 -608h608v-242h-964zM203 1587h139l176 -219l174 219h141l-196 -370h-238z" />
    <glyph glyph-name="florin" unicode="&#x192;" horiz-adv-x="1161" 
d="M-10 -389l60.999 228.999c21.333 -10 40.833 -17.5 58.5 -22.5s33.167 -7.5 46.5 -7.5c40 0 70 12.833 90 38.5s35.667 74.167 47 145.5l127 790h-242v197h277l22 125c26.667 146.667 68.834 250.834 126.501 312.501s140.5 92.5 248.5 92.5
c33.333 0 67.5 -3.5 102.5 -10.5s71.833 -17.833 110.5 -32.5l-57 -219c-20 10 -39.167 17.333 -57.5 22s-35.5 7 -51.5 7c-42.667 0 -74.667 -13.333 -96 -40s-37 -74 -47 -142l-19 -115h256v-197h-280l-97 -602c-19.333 -127.333 -38 -225.666 -56 -294.999
s-37.333 -121 -58 -155c-36.667 -58.667 -78.667 -101.334 -126 -128.001s-104.333 -40 -171 -40c-34.667 0 -69.667 3.83301 -105 11.5s-72 19.5 -110 35.5z" />
    <glyph glyph-name="circumflex" unicode="&#x2c6;" 
d="M197 1217l196 370h238l196 -370h-141l-174 217l-176 -217h-139z" />
    <glyph glyph-name="caron" unicode="&#x2c7;" 
d="M197 1587h139l176 -219l174 219h141l-196 -370h-238z" />
    <glyph glyph-name="breve" unicode="&#x2d8;" 
d="M203 1552l122.997 0.00292969c4 -50.667 20.833 -87.834 50.5 -111.501s74.834 -35.5 135.501 -35.5c60 0 104.667 11.667 134 35s46 60.666 50 111.999h123c-7.33301 -104 -35.666 -180.5 -84.999 -229.5s-123.333 -73.5 -222 -73.5c-98 0 -172.167 24.667 -222.5 74
s-79.166 125.666 -86.499 228.999z" />
    <glyph glyph-name="dotaccent" unicode="&#x2d9;" 
d="M395 1270v258h236v-258h-236z" />
    <glyph glyph-name="ring" unicode="&#x2da;" 
d="M391 1442c0 -35.333 11.5 -64.665 34.5 -87.998s51.833 -35 86.5 -35s64.167 12 88.5 36s36.5 53 36.5 87c0 33.333 -12.333 62.166 -37 86.499s-54 36.5 -88 36.5c-34.667 0 -63.5 -11.833 -86.5 -35.5s-34.5 -52.834 -34.5 -87.501zM248 1442
c0 74 25.501 136.833 76.501 188.5s113.5 77.5 187.5 77.5c74.667 0 138 -25.833 190 -77.5s78 -114.5 78 -188.5c0 -74.667 -25.833 -137.667 -77.5 -189s-115.167 -77 -190.5 -77c-74.667 0 -137.334 25.5 -188.001 76.5s-76 114.167 -76 189.5z" />
    <glyph glyph-name="ogonek" unicode="&#x2db;" 
d="M627 0c-42 -34 -73.667 -68.166 -95 -102.499s-32 -68.5 -32 -102.5c0 -26.667 6.66699 -46.667 20 -60s34 -20 62 -20h102v-174h-106c-78.667 0 -138 15.5 -178 46.5s-60 77.167 -60 138.5c0 47.333 15 92.666 45 135.999s78.333 89.333 145 138h97z" />
    <glyph glyph-name="tilde" unicode="&#x2dc;" 
d="M829 1538c-17.333 -83.333 -42.9961 -144.833 -76.9961 -184.5s-77.667 -59.5 -131 -59.5c-14 0 -27 0.833008 -39 2.5s-24 4.5 -36 8.5l-87 26c-12.667 3.33301 -24.334 5.83301 -35.001 7.5s-21 2.5 -31 2.5c-22.667 0 -41 -6 -55 -18s-25 -31.667 -33 -59h-110
c16 80.667 40.667 140 74 178s76.666 57 129.999 57c14 0 28 -1.16699 42 -3.5s28.667 -5.83301 44 -10.5l93 -25c8 -2.66699 16.5 -4.66699 25.5 -6s18.833 -2 29.5 -2c21.333 0 39.166 7.16699 53.499 21.5s25.166 35.833 32.499 64.5h110z" />
    <glyph glyph-name="hungarumlaut" unicode="&#x2dd;" 
d="M563 1217l154 370h229l-270 -370h-113zM295 1217l115 370h221l-232 -370h-104z" />
    <glyph glyph-name="Omega" unicode="&#x3a9;" horiz-adv-x="1575" 
d="M1227 256l291.001 -0.000976562v-256h-609v291c84 57.333 148 129.833 192 217.5s66 186.5 66 296.5c0 135.333 -33.833 241.833 -101.5 319.5s-160.834 116.5 -279.501 116.5c-118 0 -210.833 -38.833 -278.5 -116.5s-101.5 -184.167 -101.5 -319.5
c0 -109.333 22 -208.166 66 -296.499s108 -160.833 192 -217.5v-291h-609v256h291c-84 80.667 -146.333 167.334 -187 260.001s-61 193.667 -61 303c0 208.667 62.667 375.834 188 501.501s292 188.5 500 188.5c208.667 0 375.667 -62.833 501 -188.5
s188 -292.834 188 -501.501c0 -109.333 -20.333 -210.333 -61 -303s-103 -179.334 -187 -260.001z" />
    <glyph glyph-name="pi" unicode="&#x3c0;" horiz-adv-x="1319" 
d="M1354 1092l-39 -224h-176l-154 -868h-287l152 868h-238l-151 -868h-287l152 868h-25c-36.667 0 -64.667 -10.333 -84 -31s-32.333 -53.667 -39 -99l-213 -1c20 133.333 61 225.833 123 277.5s165.667 77.5 311 77.5h955z" />
    <glyph glyph-name="endash" unicode="&#x2013;" 
d="M0 434v221h1024v-221h-1024z" />
    <glyph glyph-name="emdash" unicode="&#x2014;" horiz-adv-x="2048" 
d="M0 655h2048v-221h-2048v221z" />
    <glyph glyph-name="quoteleft" unicode="&#x2018;" horiz-adv-x="532" 
d="M406 1214l0.000976562 -264.001h-279v258c0 84.667 26 155.334 78 212.001s119 87 201 91v-102c-50.667 -12 -88.334 -33.167 -113.001 -63.5s-37 -69.833 -37 -118.5v-13h150z" />
    <glyph glyph-name="quoteright" unicode="&#x2019;" horiz-adv-x="532" 
d="M127 1208v265h279v-261c0 -84 -26 -154.5 -78 -211.5s-119 -87.5 -201 -91.5v103c50.667 12 88.167 33.167 112.5 63.5s36.5 70.5 36.5 120.5v12h-149z" />
    <glyph glyph-name="quotesinglbase" unicode="&#x201a;" horiz-adv-x="532" 
d="M127 0v264.001h279v-258c0 -84 -26 -154.5 -78 -211.5s-119 -87.5 -201 -91.5v102c50 13.333 87.333 35.166 112 65.499s37 69.5 37 117.5v12h-149z" />
    <glyph glyph-name="quotedblleft" unicode="&#x201c;" horiz-adv-x="901" 
d="M809 1214v-264.001h-279v258c0 84.667 26 155.334 78 212.001s119 87 201 91v-102c-50 -12 -87.5 -32.833 -112.5 -62.5s-37.5 -68.167 -37.5 -115.5v-17h150zM369 1214l0.000976562 -264.001h-279v258c0 84.667 26 155.334 78 212.001s119 87 201 91v-102
c-50.667 -12 -88.334 -33.167 -113.001 -63.5s-37 -69.833 -37 -118.5v-13h150z" />
    <glyph glyph-name="quotedblright" unicode="&#x201d;" horiz-adv-x="901" 
d="M530 1208v265h279v-261c0 -84 -26 -154.5 -78 -211.5s-119 -87.5 -201 -91.5v103c50 12 87.5 33 112.5 63s37.5 69 37.5 117v16h-150zM90 1208l-0.000976562 265h279v-261c0 -84 -26 -154.5 -78 -211.5s-119 -87.5 -201 -91.5v103c50.667 12 88.334 33.167 113.001 63.5
s37 70.5 37 120.5v12h-150z" />
    <glyph glyph-name="quotedblbase" unicode="&#x201e;" horiz-adv-x="901" 
d="M530 0l-0.000976562 264h279v-258c0 -84 -26 -154.5 -78 -211.5s-119 -87.5 -201 -91.5v102c50.667 12.667 88.334 34 113.001 64s37 69.667 37 119v12h-150zM89.999 0l-0.000976562 264.001h279v-258c0 -84 -26 -154.5 -78 -211.5s-119 -87.5 -201 -91.5v102
c50.667 13.333 88.334 35.166 113.001 65.499s37 69.5 37 117.5v12h-150z" />
    <glyph glyph-name="dagger" unicode="&#x2020;" 
d="M393 -217v1069h-334v188h334v433h238v-433h334v-188h-334v-1069h-238z" />
    <glyph glyph-name="daggerdbl" unicode="&#x2021;" 
d="M393 -217v377h-334v190h334v551h-334v191h334v381h238v-381h334v-191h-334v-551h334v-190h-334v-377h-238z" />
    <glyph glyph-name="bullet" unicode="&#x2022;" horiz-adv-x="1208" 
d="M307 762c0 82 28.999 151.666 86.999 208.999s128 86 210 86c81.333 0 150.833 -28.833 208.5 -86.5s86.5 -127.167 86.5 -208.5s-29.167 -151.166 -87.5 -209.499s-128.166 -87.5 -209.499 -87.5c-82 0 -151.667 29 -209 87s-86 128 -86 210z" />
    <glyph glyph-name="ellipsis" unicode="&#x2026;" horiz-adv-x="2048" 
d="M190 0v301h301v-301h-301zM872 0v301h301v-301h-301zM1556 0v301h301v-301h-301z" />
    <glyph glyph-name="perthousand" unicode="&#x2030;" horiz-adv-x="2632" 
d="M2040 332c0 -44.667 15 -82.167 45 -112.5s66.667 -45.5 110 -45.5s80.166 15.5 110.5 46.5c30.333 31 45.5 68.167 45.5 111.5c0 42.667 -15.167 79.167 -45.5 109.5s-67.166 45.5 -110.5 45.5c-44 0 -80.833 -14.833 -110.5 -44.5s-44.5 -66.5 -44.5 -110.5zM1823 332
c0 104 36 191.667 108 263s160 107 264 107c102.667 0 190.167 -36.167 262.5 -108.5s108.5 -159.5 108.5 -261.5c0 -102.667 -36.167 -190.5 -108.5 -263.5s-159.833 -109.5 -262.5 -109.5c-104 0 -192 36 -264 108s-108 160.333 -108 265zM1169 332
c0 -44.667 14.998 -82.167 44.998 -112.5s67 -45.5 111 -45.5c42.667 0 79.334 15.5 110.001 46.5s46 68.167 46 111.5c0 42.667 -15.167 79.167 -45.5 109.5s-67.166 45.5 -110.499 45.5c-44 0 -81 -14.833 -111 -44.5s-45 -66.5 -45 -110.5zM951.998 332
c0 104 36 191.667 108 263s160.333 107 265 107c102.667 0 190.167 -36.167 262.5 -108.5s108.5 -159.5 108.5 -261.5c0 -102.667 -36.333 -190.5 -109 -263.5s-160 -109.5 -262 -109.5c-104.667 0 -193 36 -265 108s-108 160.333 -108 265zM370.998 -41l854 1473h161
l-854 -1473h-161zM282.998 1059c0 -44 14.833 -80.999 44.5 -110.999s66.5 -45 110.5 -45c43.333 0 80.166 15.167 110.499 45.5s45.5 67.166 45.5 110.499c0 42.667 -15.167 79.167 -45.5 109.5s-67.166 45.5 -110.499 45.5c-44 0 -80.833 -14.833 -110.5 -44.5
s-44.5 -66.5 -44.5 -110.5zM65.998 1059c0 104 36.001 192.167 108.001 264.5s160 108.5 264 108.5c102.667 0 190.167 -36.5 262.5 -109.5s108.5 -160.833 108.5 -263.5s-36.167 -190.167 -108.5 -262.5s-159.833 -108.5 -262.5 -108.5
c-104.667 0 -192.834 35.667 -264.501 107s-107.5 159.333 -107.5 264z" />
    <glyph glyph-name="guilsinglleft" unicode="&#x2039;" horiz-adv-x="485" 
d="M72 416v256l336 289v-238l-205 -178l205 -178v-240z" />
    <glyph glyph-name="guilsinglright" unicode="&#x203a;" horiz-adv-x="485" 
d="M412 672v-256l-334 -289v238l205 180l-205 176v240z" />
    <glyph glyph-name="franc" unicode="&#x20a3;" horiz-adv-x="2011" 
d="M152 0v1473h1028v-256h-729v-334h639v-256h-639v-627h-299zM1352 0l0.000976562 1087h270v-186c38 74.667 82.333 129.5 133 164.5s111 52.5 181 52.5c11.333 0 20.166 -0.166992 26.499 -0.5s11.5 -0.833008 15.5 -1.5l1 -295h-97c-79.333 0 -139 -20.667 -179 -62
s-60 -102.666 -60 -183.999v-575h-291z" />
    <glyph glyph-name="trademark" unicode="&#x2122;" horiz-adv-x="1706" 
d="M803 1462h196l127 -332l123 332h197v-547h-135v410l-154 -410h-61l-158 410v-410h-135v547zM207 1462h485v-112h-168v-435h-149v435h-168v112z" />
    <glyph glyph-name="partialdiff" unicode="&#x2202;" horiz-adv-x="1094" 
d="M762 662c12.667 66 22.3311 128.834 28.998 188.501s10 111.5 10 155.5c0 66.667 -8.66699 119.167 -26 157.5s-40.666 57.5 -69.999 57.5s-78 -24.333 -146 -73s-121.333 -73 -160 -73c-28 0 -51.667 10 -71 30s-29 44.333 -29 73c0 42.667 28.833 82 86.5 118
s127.834 54 210.501 54c128 0 231 -53.833 309 -161.5s117 -251.834 117 -432.501c0 -226 -52.167 -412.667 -156.5 -560s-236.5 -221 -396.5 -221c-114 0 -208 38.167 -282 114.5s-111 173.5 -111 291.5c0 132 38.667 241.833 116 329.5s173 131.5 287 131.5
c68 0 124.667 -14.5 170 -43.5s83 -74.5 113 -136.5zM699.997 518.001c0 77.333 -12.835 136.667 -38.502 178s-62.5 62 -110.5 62c-67.333 0 -123.166 -44.667 -167.499 -134s-66.5 -203 -66.5 -341c0 -78 12.833 -137.167 38.5 -177.5s62.834 -60.5 111.501 -60.5
c67.333 0 123 44.5 167 133.5s66 202.167 66 339.5z" />
    <glyph glyph-name="Delta" unicode="&#x2206;" horiz-adv-x="1427" 
d="M713 1110l-326 -854h653zM563 1473h301l563 -1473h-1427z" />
    <glyph glyph-name="product" unicode="&#x220f;" horiz-adv-x="1612" 
d="M150 1473h1308v-1866h-344v1577h-620v-1577h-344v1866z" />
    <glyph glyph-name="summation" unicode="&#x2211;" horiz-adv-x="1470" 
d="M66 1473h1308v-265h-878l620 -645l-622 -690h933v-266h-1386v172l698 772l-673 690v232z" />
    <glyph glyph-name="minus" unicode="&#x2212;" horiz-adv-x="1706" 
d="M254 713h1198v-203h-1198v203z" />
    <glyph glyph-name="fraction" unicode="&#x2215;" horiz-adv-x="342" 
d="M-346 -41l870 1493h164l-872 -1493h-162z" />
    <glyph glyph-name="periodcentered" unicode="&#x2219;" horiz-adv-x="582" 
d="M135 702c0 43.333 15.168 80.167 45.501 110.5s67.166 45.5 110.499 45.5s80 -15 110 -45s45 -67 45 -111c0 -43.333 -15 -80 -45 -110s-66.667 -45 -110 -45c-44 0 -81 14.833 -111 44.5s-45 66.5 -45 110.5z" />
    <glyph glyph-name="radical" unicode="&#x221a;" horiz-adv-x="1346" 
d="M1141 1694h207v-129h-103l-592 -1606h-100l-311 858l-140 -51l-30 113l331 116l236 -661z" />
    <glyph glyph-name="infinity" unicode="&#x221e;" horiz-adv-x="1706" 
d="M942 561c30 -50 65.499 -87.667 106.499 -113s87.5 -38 139.5 -38c62.667 0 113.5 18.5 152.5 55.5s58.5 85.167 58.5 144.5c0 57.333 -18 104.833 -54 142.5s-81 56.5 -135 56.5c-49.333 0 -94.666 -19 -135.999 -57s-85.333 -101.667 -132 -191zM765.999 659
c-30.667 50.667 -66.333 88.334 -107 113.001s-87 37 -139 37c-62 0 -112.667 -18.833 -152 -56.5s-59 -85.834 -59 -144.501c0 -56.667 18 -103.834 54 -141.501s81 -56.5 135 -56.5c50 0 96 19.333 138 58s85.333 102.334 130 191.001zM858 457
c-46 -88.667 -95 -153.832 -147 -195.499s-110 -62.5 -174 -62.5c-92.667 0 -171.167 39.167 -235.5 117.5s-96.5 176.166 -96.5 293.499c0 122.667 28.5 221.667 85.5 297s131.5 113 223.5 113c62 0 118.5 -19.5 169.5 -58.5s105.833 -105.5 164.5 -199.5
c45.333 88 94.666 153.333 147.999 196s111.666 64 174.999 64c92.667 0 171.167 -39.333 235.5 -118s96.5 -176.667 96.5 -294c0 -122 -28.667 -220.667 -86 -296s-131.666 -113 -222.999 -113c-62 0 -118.167 18.833 -168.5 56.5s-106.166 104.167 -167.499 199.5z" />
    <glyph glyph-name="integral" unicode="&#x222b;" horiz-adv-x="1186" 
d="M342 -252c68 0 108.334 213 121.001 639c2 90.667 4 161 6 211c10.667 338.667 51.667 582.667 123 732s180.666 224 327.999 224c65.333 0 117.833 -16.333 157.5 -49s59.5 -75.667 59.5 -129c0 -40 -12.667 -72.167 -38 -96.5s-58.666 -36.5 -99.999 -36.5
c-30.667 0 -56.334 8 -77.001 24s-34.334 38.667 -41.001 68c-3.33301 13.333 -5.66602 31.333 -6.99902 54c-2 30.667 -12 46.334 -30 47.001c-66 0 -105.667 -211 -119 -633l-6 -178c-7.33301 -197.333 -17.666 -345.5 -30.999 -444.5s-33 -182.5 -59 -250.5
c-37.333 -98.667 -86.833 -173.834 -148.5 -225.501s-133.167 -77.5 -214.5 -77.5c-64 0 -116.167 16.333 -156.5 49s-60.5 75 -60.5 127c0 41.333 13 74.333 39 99s61 37 105 37c33.333 0 61.666 -10.5 84.999 -31.5s35 -44.833 35 -71.5c0 -38.667 2 -63 6 -73
s11.667 -15 23 -15z" />
    <glyph glyph-name="approxequal" unicode="&#x2248;" horiz-adv-x="1706" 
d="M1530 596l-0.00292969 -219c-70.667 -48 -136.667 -83.167 -198 -105.5s-121.666 -33.5 -180.999 -33.5c-63.333 0 -158.833 22.167 -286.5 66.5s-228.167 66.5 -301.5 66.5c-56 0 -114.167 -12.333 -174.5 -37s-130.5 -65 -210.5 -121v219
c74 48.667 142.833 84.667 206.5 108s123.834 35 180.501 35c82.667 0 187.834 -21.833 315.501 -65.5s219.167 -65.5 274.5 -65.5c57.333 0 115.333 11.833 174 35.5s125.667 62.5 201 116.5zM1530 1008l0.000976562 -220c-70.667 -47.333 -136.167 -82 -196.5 -104
s-120.5 -33 -180.5 -33c-62.667 0 -158 21.833 -286 65.5s-229.333 65.5 -304 65.5c-54.667 0 -111.334 -11.667 -170.001 -35s-130.334 -64 -215.001 -122v219c71.333 47.333 139.333 83 204 107s125.667 36 183 36c83.333 0 188.833 -21.833 316.5 -65.5
s218.834 -65.5 273.501 -65.5c56 0 113 11.667 171 35s126 62.333 204 117z" />
    <glyph glyph-name="notequal" unicode="&#x2260;" horiz-adv-x="1706" 
d="M1198 1233l148 -119l-154 -192h260v-191h-389l-191 -239h580v-193h-707l-245 -309l-148 119l154 190h-252v193h377l190 239h-567v191h696z" />
    <glyph glyph-name="lessequal" unicode="&#x2264;" horiz-adv-x="1706" 
d="M258 195h1192v-197h-1192v197zM1448 1241v-209l-834 -264l834 -262v-209l-1190 385v174z" />
    <glyph glyph-name="greaterequal" unicode="&#x2265;" horiz-adv-x="1706" 
d="M258 195h1192v-197h-1192v197zM260 1241l1188 -385v-174l-1188 -385v209l832 262l-832 264v209z" />
    <glyph glyph-name="lozenge" unicode="&#x25ca;" horiz-adv-x="1012" 
d="M506 1409l-385 -817l385 -825l385 825zM506 1653l500 -1061l-500 -1069l-500 1069z" />
    <glyph glyph-name="apple" unicode="&#xf000;" horiz-adv-x="1618" 
d="M836 1216c-0.666992 4 -1.16699 8.66895 -1.5 14.002s-0.5 13 -0.5 23c0 82.667 31.667 159.167 95 229.5s142 114.166 236 131.499c0.666992 -6.66699 1.16699 -14.334 1.5 -23.001s0.5 -21.667 0.5 -39c0 -87.333 -34.5 -165.5 -103.5 -234.5
s-136.833 -103.5 -203.5 -103.5h-8c-2 0 -4.5 0.333008 -7.5 1s-5.83301 1 -8.5 1zM1505 403.002c-76 -164.667 -144.336 -278.834 -205.003 -342.501s-128.667 -95.5 -204 -95.5c-33.333 0 -77.166 11 -131.499 33s-95.166 33 -122.499 33c-30 0 -73.667 -11 -131 -33
s-99.666 -33 -126.999 -33c-42.667 0 -85.5 14.667 -128.5 44s-86.167 73.333 -129.5 132c-68 93.333 -120.5 191.833 -157.5 295.5s-55.5 203.834 -55.5 300.501c0 146 41.667 264.833 125 356.5s191 137.5 323 137.5c45.333 0 97 -11.333 155 -34s99.333 -34 124 -34
c22.667 0 63.167 11.667 121.5 35s109.166 35 152.499 35c73.333 0 139.333 -13.333 198 -40s112.334 -68 161.001 -124c-68 -43.333 -118.5 -91.833 -151.5 -145.5s-49.5 -114.5 -49.5 -182.5c0 -75.333 20 -142 60 -200s97.667 -104 173 -138z" />
    <glyph glyph-name="fi" unicode="&#xf001;" horiz-adv-x="1196" 
d="M776 1208v265h285v-265h-285zM776 0v1087h285v-1087h-285zM178 0v883h-155v204h155v101c0 101.333 26.167 175.833 78.5 223.5s134.833 71.5 247.5 71.5c20.667 0 42.5 -0.5 65.5 -1.5s47.5 -2.83301 73.5 -5.5v-231h-76c-43.333 0 -71.833 -5.66699 -85.5 -17
s-20.5 -33 -20.5 -65v-76h182v-204h-180v-883h-285z" />
    <glyph glyph-name="fl" unicode="&#xf002;" horiz-adv-x="1194" 
d="M776 0v1473h285v-1473h-285zM178 0v883h-155v204h155v101c0 101.333 26.167 175.833 78.5 223.5s134.833 71.5 247.5 71.5c20.667 0 42.5 -0.5 65.5 -1.5s47.5 -2.83301 73.5 -5.5v-231h-76c-43.333 0 -71.833 -5.66699 -85.5 -17s-20.5 -33 -20.5 -65v-76h182v-204h-180
v-883h-285z" />
    <glyph glyph-name=".null" horiz-adv-x="0" 
 />
    <glyph glyph-name="nonmarkingreturn" horiz-adv-x="582" 
 />
    </font>
</defs>
</svg>
