<?xml version="1.0" standalone="no"?>
<!DOCTYPE svg PUBLIC "-//W3C//DTD SVG 1.1//EN" "http://www.w3.org/Graphics/SVG/1.1/DTD/svg11.dtd" >
<svg>
<metadata>
Created by FontForge 20090914 at Fri Dec 15 07:54:29 2017
 By www-data
Copyright 1990-1993 Bitstream Inc.  All rights reserved.
</metadata>
<defs>
<font id="Swiss721BT-Light" horiz-adv-x="1024" >
  <font-face 
    font-family="Swis721 Lt BT"
    font-weight="400"
    font-stretch="normal"
    units-per-em="2048"
    panose-1="2 11 4 3 2 2 2 2 2 4"
    ascent="1638"
    descent="-410"
    x-height="1063"
    cap-height="1473"
    bbox="-342 -483 2419 1972"
    underline-thickness="92"
    underline-position="-167"
    unicode-range="U+0020-U+F002"
  />
<missing-glyph horiz-adv-x="1229" 
d="M102 -362v1806h1024v-1806h-1024zM217 -248h795v1577h-795v-1577z" />
    <glyph glyph-name=".notdef" horiz-adv-x="1229" 
d="M102 -362v1806h1024v-1806h-1024zM217 -248h795v1577h-795v-1577z" />
    <glyph glyph-name="space" unicode=" " horiz-adv-x="545" 
 />
    <glyph glyph-name="exclam" unicode="!" horiz-adv-x="639" 
d="M281 360l-29 578v535h135v-535l-27 -578h-79zM252 0v182h135v-182h-135z" />
    <glyph glyph-name="quotedbl" unicode="&#x22;" horiz-adv-x="551" 
d="M451 1434v-553h-86v553h86zM186 1434v-553h-86v553h86z" />
    <glyph glyph-name="numbersign" unicode="#" horiz-adv-x="1575" 
d="M979 866h-270l-99 -282h269zM915 1454l-174 -498h271l176 498h110l-174 -498h322l-31 -90h-323l-101 -282h348l-30 -90h-351l-174 -494h-112l176 494h-270l-179 -494h-110l174 494h-334l31 90h336l100 282h-360l28 90h365l176 498h110z" />
    <glyph glyph-name="dollar" unicode="$" horiz-adv-x="1090" 
d="M598 72c99.333 6 175.334 32.832 228.001 80.499s79 112.834 79 195.501c0 75.333 -19.833 135 -59.5 179s-103.834 77.333 -192.501 100l-55 14v-569zM504.001 798.999v520c-92 -5.33301 -162.833 -30.666 -212.5 -75.999s-74.5 -108 -74.5 -188
c0 -64.667 17.167 -115.334 51.5 -152.001s94.5 -66.667 180.5 -90zM59.001 419.999l124.999 0.000976562c2.66699 -104.667 30.667 -186 84 -244s132 -92.667 236 -104v592l-92 26c-113.333 33.333 -194.666 77.5 -243.999 132.5s-74 128.167 -74 219.5
c0 118 35.5 210.667 106.5 278s172.167 104.666 303.5 111.999v122h94v-122c118.667 -4.66699 212.167 -39.167 280.5 -103.5s103.166 -151.5 104.499 -261.5h-121c-4 78 -28.667 138.667 -74 182s-108.666 66.333 -189.999 69v-546l51 -12
c135.333 -36 233 -85.333 293 -148s90 -146 90 -250c0 -120 -38.333 -215.667 -115 -287s-183 -110 -319 -116v-160h-94v160c-146.667 12 -257.5 56 -332.5 132s-112.5 182.333 -112.5 319v10z" />
    <glyph glyph-name="percent" unicode="%" horiz-adv-x="1659" 
d="M1024 340c0 -61.333 21.501 -113.501 64.501 -156.501s95.167 -64.5 156.5 -64.5s113.166 21.333 155.499 64s63.5 95 63.5 157s-21 114 -63 156s-94 63 -156 63s-114.333 -21.167 -157 -63.5s-64 -94.166 -64 -155.499zM905.001 339.999
c0 95.333 32.833 175.5 98.5 240.5s146.167 97.5 241.5 97.5s175.5 -32.5 240.5 -97.5s97.5 -145.167 97.5 -240.5s-32.667 -175.833 -98 -241.5s-145.333 -98.5 -240 -98.5s-175 33 -241 99s-99 146.333 -99 241zM317.001 -41.001l920 1473h104l-919 -1473h-105z
M195.001 1051c0 -62 21.168 -114.167 63.501 -156.5s94.166 -63.5 155.499 -63.5s113.166 21.167 155.499 63.5s63.5 94.5 63.5 156.5s-21.167 114.333 -63.5 157s-94.166 64 -155.499 64c-62 0 -114 -21.333 -156 -64s-63 -95 -63 -157zM76.002 1053
c0 95.333 32.5 175.5 97.5 240.5s145.167 97.5 240.5 97.5s175.833 -32.667 241.5 -98s98.5 -145.333 98.5 -240c0 -95.333 -33 -175.833 -99 -241.5s-146.333 -98.5 -241 -98.5s-174.667 32.833 -240 98.5s-98 146.167 -98 241.5z" />
    <glyph glyph-name="ampersand" unicode="&#x26;" horiz-adv-x="1352" 
d="M530 766c-94.667 -46.667 -165 -100.167 -211 -160.5s-69 -129.166 -69 -206.499c0 -95.333 28.667 -172.333 86 -231s132.333 -88 225 -88c83.333 0 156.333 15.667 219 47s118 79.666 166 144.999zM580 909c79.333 40 137 81.168 173 123.501s54 90.166 54 143.499
c0 55.333 -17 98.833 -51 130.5s-80.667 47.5 -140 47.5c-58.667 0 -104 -15.333 -136 -46s-48 -74 -48 -130c0 -38 11.5 -78 34.5 -120s60.833 -91.667 113.5 -149zM1176 0.000976562l-147.999 176.001c-54 -71.333 -120.5 -125.333 -199.5 -162s-168.833 -55 -269.5 -55
c-132 0 -239.667 39.833 -323 119.5s-125 181.834 -125 306.501c0 104 29.167 195 87.5 273s145.166 142.667 260.499 194c-55.333 61.333 -95.5 118.166 -120.5 170.499s-37.5 104.833 -37.5 157.5c0 83.333 30 153 90 209s135.667 84 227 84
c96.667 0 173.5 -26.833 230.5 -80.5s85.5 -125.167 85.5 -214.5c0 -72 -21.833 -135.833 -65.5 -191.5s-116.167 -110.834 -217.5 -165.501l365 -430c16.667 37.333 29 78.166 37 122.499s12 92.833 12 145.5h127c-1.33301 -73.333 -9.5 -140.666 -24.5 -201.999
s-37.5 -118 -67.5 -170l243 -287h-167z" />
    <glyph glyph-name="quotesingle" unicode="'" horiz-adv-x="285" 
d="M186 1434v-553h-86v553h86z" />
    <glyph glyph-name="parenleft" unicode="(" horiz-adv-x="647" 
d="M616 1473c-100.667 -139.333 -175.334 -286.5 -224.001 -441.5s-73 -322.833 -73 -503.5c0 -181.333 24.333 -348.833 73 -502.5s123.334 -300.834 224.001 -441.501h-98c-107.333 131.333 -188.333 276.333 -243 435s-82 328.334 -82 509.001
c0 181.333 27.333 351.333 82 510s135.667 303.667 243 435h98z" />
    <glyph glyph-name="parenright" unicode=")" horiz-adv-x="647" 
d="M31 1473l98 0.00195312c107.333 -131.333 188.5 -276.333 243.5 -435s82.5 -328.667 82.5 -510c0 -180.667 -27.5 -350.334 -82.5 -509.001s-136.167 -303.667 -243.5 -435h-98c100.667 140 175 286.833 223 440.5s72 321.5 72 503.5c0 184 -24 352.667 -72 506
s-122.333 299.666 -223 438.999z" />
    <glyph glyph-name="asterisk" unicode="*" 
d="M510 1026l-180 -264l-94 67l200 250l-299 80l35 115l291 -107v306h94v-306l289 103l41 -107l-303 -84l204 -250l-96 -69z" />
    <glyph glyph-name="plus" unicode="+" horiz-adv-x="1706" 
d="M893 1221v-570h559v-82h-559v-569h-80v569h-559v82h559v570h80z" />
    <glyph glyph-name="comma" unicode="," horiz-adv-x="545" 
d="M205 -285v78c22.667 16 38.834 34.333 48.501 55s14.5 47.334 14.5 80.001v72h-63v182h135v-245c0 -60.667 -10.333 -107.834 -31 -141.501s-55.334 -60.5 -104.001 -80.5z" />
    <glyph glyph-name="hyphen" unicode="-" horiz-adv-x="670" 
d="M80 473v129h495v-129h-495z" />
    <glyph glyph-name="period" unicode="." horiz-adv-x="545" 
d="M205 0v182h135v-182h-135z" />
    <glyph glyph-name="slash" unicode="/" horiz-adv-x="598" 
d="M524 1511h99l-549 -1683h-101z" />
    <glyph glyph-name="zero" unicode="0" horiz-adv-x="1090" 
d="M213 696c0 -209.333 27.333 -365.334 82 -468.001s138 -154 250 -154c111.333 0 194 51 248 153s81 258.333 81 469c0 210 -27 366 -81 468s-136.667 153 -248 153c-112 0 -195.333 -51.167 -250 -153.5s-82 -258.166 -82 -467.499zM76 695.999
c0 239.333 40.001 421.835 120.001 547.502s196.333 188.5 349 188.5c152 0 268.5 -63.333 349.5 -190s121.5 -309.334 121.5 -548.001s-40.333 -420.834 -121 -546.501s-197.334 -188.5 -350.001 -188.5c-152 0 -268.167 63 -348.5 189s-120.5 308.667 -120.5 548z" />
    <glyph glyph-name="one" unicode="1" horiz-adv-x="1090" 
d="M547 0v1143c-32 -28.667 -75 -49.5 -129 -62.5s-123 -19.5 -207 -19.5h-21v88h9c119.333 0 208 22.833 266 68.5s90 116.834 96 213.501l119 1v-1432h-133z" />
    <glyph glyph-name="two" unicode="2" horiz-adv-x="1090" 
d="M70 0c0 4.66699 -0.333984 11.835 -1.00098 21.502s-1 16.834 -1 21.501c0 102 27.5 193.333 82.5 274s144.833 160 269.5 238c30.667 19.333 74.667 45.666 132 78.999c117.333 69.333 192.666 121.666 225.999 156.999c30.667 33.333 52.667 67.333 66 102
s20 75 20 121c0 94 -26.667 167.667 -80 221s-127 80 -221 80c-105.333 0 -186 -30.833 -242 -92.5s-84.667 -150.5 -86 -266.5h-133c4.66699 152.667 47.167 270.167 127.5 352.5s192.833 123.5 337.5 123.5c133.333 0 239 -37.333 317 -112s117 -175.334 117 -302.001
c0 -60 -9.16699 -113.5 -27.5 -160.5s-47.166 -91.833 -86.499 -134.5c-44.667 -48.667 -136.667 -112 -276 -190l-101 -58c-104.667 -61.333 -180.667 -119.833 -228 -175.5s-73.666 -117.167 -78.999 -184.5h790v-115h-923z" />
    <glyph glyph-name="three" unicode="3" horiz-adv-x="1090" 
d="M72 410l138.999 -0.999023c1.33301 -107.333 29.666 -190.333 84.999 -249s132.666 -88 231.999 -88c106.667 0 188.334 27.5 245.001 82.5s85 133.833 85 236.5c0 100 -29.5 174.167 -88.5 222.5s-149.5 72.5 -271.5 72.5c-17.333 0 -30.166 -0.166992 -38.499 -0.5
s-15.833 -0.833008 -22.5 -1.5l-1 107c6.66699 0 15.5 -0.5 26.5 -1.5s19.167 -1.5 24.5 -1.5c110 0 192.833 23 248.5 69s83.5 114 83.5 204c0 78 -25 140.833 -75 188.5s-116.333 71.5 -199 71.5c-94 0 -166.833 -27 -218.5 -81s-79.167 -132 -82.5 -234h-127
c4.66699 134 45 238.5 121 313.5s179 112.5 309 112.5c124 0 222.5 -33.5 295.5 -100.5s109.5 -157.167 109.5 -270.5c0 -72 -16.667 -134.333 -50 -187s-82.666 -94.667 -147.999 -126c78.667 -24 138.834 -66.833 180.501 -128.5s62.5 -139.167 62.5 -232.5
c0 -131.333 -41.333 -235.5 -124 -312.5s-194.667 -115.5 -336 -115.5c-144.667 0 -258.334 39.667 -341.001 119s-124 188.666 -124 327.999v4z" />
    <glyph glyph-name="four" unicode="4" horiz-adv-x="1090" 
d="M692 467v754l-493 -754h493zM692 0v354h-616v115l606 922h143v-924h191v-113h-191v-354h-133z" />
    <glyph glyph-name="five" unicode="5" horiz-adv-x="1090" 
d="M78 368l132.999 1.00195c4 -91.333 35 -163 93 -215s135.667 -78 233 -78c101.333 0 180.5 31.167 237.5 93.5s85.5 149.166 85.5 260.499c0 115.333 -29.5 206 -88.5 272s-140.167 99 -243.5 99c-64.667 0 -122 -12.167 -172 -36.5s-90 -59.5 -120 -105.5h-113l108 732
h701v-113h-604l-70 -461c34.667 30.667 76.5 53.667 125.5 69s104.833 23 167.5 23c135.333 0 243.5 -42.833 324.5 -128.5s121.5 -200.5 121.5 -344.5c0 -146.667 -41.667 -262.834 -125 -348.501s-196.666 -128.5 -339.999 -128.5c-134 0 -241.667 36.833 -323 110.5
s-125 173.167 -131 298.5z" />
    <glyph glyph-name="six" unicode="6" horiz-adv-x="1090" 
d="M250 442c0 -112.667 28.333 -202.499 85 -269.499s132.667 -100.5 228 -100.5c102 0 179.833 29.833 233.5 89.5s80.5 146.5 80.5 260.5c0 119.333 -27 211.666 -81 276.999s-130.333 98 -229 98c-92 0 -167.833 -33.5 -227.5 -100.5s-89.5 -151.833 -89.5 -254.5z
M217 685.001c36 72 85.167 126.669 147.5 164.002s136.166 56 221.499 56c131.333 0 235.833 -43 313.5 -129s116.5 -202 116.5 -348c0 -144 -39.833 -258.167 -119.5 -342.5s-187.5 -126.5 -323.5 -126.5c-159.333 0 -281 57.167 -365 171.5s-126 279.833 -126 496.5
c0 261.333 44.833 461.166 134.5 599.499s218.834 207.5 387.501 207.5c111.333 0 202.5 -32.833 273.5 -98.5s111.5 -154.5 121.5 -266.5h-125c-10 80 -39.167 142 -87.5 186s-111.833 66 -190.5 66c-118.667 0 -210 -53.833 -274 -161.5s-99 -265.834 -105 -474.501z" />
    <glyph glyph-name="seven" unicode="7" horiz-adv-x="1090" 
d="M307 0c39.333 238.667 106.169 463.834 200.502 675.501s215.166 408.5 362.499 590.5h-749v125h891v-125c-152 -184 -274.333 -380.333 -367 -589s-157.334 -434.334 -194.001 -677.001h-144z" />
    <glyph glyph-name="eight" unicode="8" horiz-adv-x="1090" 
d="M221 387c0 -92 30.1689 -167.167 90.502 -225.5s138.166 -87.5 233.499 -87.5c96.667 0 174.667 29.5 234 88.5s89 137.167 89 234.5c0 92.667 -28.833 166 -86.5 220s-136.5 81 -236.5 81c-102.667 0 -182.334 -27.167 -239.001 -81.5s-85 -130.833 -85 -229.5z
M270.002 1059c0 -78 24.334 -139.502 73.001 -184.502s116 -67.5 202 -67.5s153.5 22.5 202.5 67.5s73.5 106.5 73.5 184.5c0 80.667 -24.833 144.834 -74.5 192.501s-116.834 71.5 -201.501 71.5s-151.667 -23.667 -201 -71s-74 -111.666 -74 -192.999zM330.003 757.998
c-66 34.667 -115 77 -147 127s-48 109.333 -48 178c0 112 37 201.5 111 268.5s173.667 100.5 299 100.5s224.833 -33.5 298.5 -100.5s110.5 -156.5 110.5 -268.5c0 -68.667 -15.833 -128 -47.5 -178s-80.5 -92.333 -146.5 -127c77.333 -30 138 -77.333 182 -142
s66 -139.667 66 -225c0 -132.667 -41.5 -237.834 -124.5 -315.501s-195.833 -116.5 -338.5 -116.5s-255.5 38.833 -338.5 116.5s-124.5 182.834 -124.5 315.501c0 85.333 21.833 160.333 65.5 225s104.5 112 182.5 142z" />
    <glyph glyph-name="nine" unicode="9" horiz-adv-x="1090" 
d="M209 969c0 -119.333 26.8311 -211.333 80.498 -276s129.834 -97 228.501 -97c92.667 0 168.834 33 228.501 99s89.5 150.333 89.5 253c0 113.333 -28.333 203.5 -85 270.5s-133 100.5 -229 100.5c-102 0 -179.667 -29.833 -233 -89.5s-80 -146.5 -80 -260.5zM210.998 322
c12 -82 41.8301 -144.165 89.4971 -186.498s111.5 -63.5 191.5 -63.5c118.667 0 209.334 52.833 272.001 158.5s97.334 264.5 104.001 476.5c-35.333 -72.667 -84.333 -127.834 -147 -165.501s-136.334 -56.5 -221.001 -56.5c-131.333 0 -235.833 43 -313.5 129
s-116.5 202.333 -116.5 349c0 143.333 39.667 257.333 119 342s187 127 323 127c160 0 282 -56.833 366 -170.5s126 -278.834 126 -495.501c0 -262.667 -44.667 -462.834 -134 -600.501s-219 -206.5 -389 -206.5c-113.333 0 -204.666 31.833 -273.999 95.5
s-109.666 152.834 -120.999 267.501h125z" />
    <glyph glyph-name="colon" unicode=":" horiz-adv-x="592" 
d="M229 860v182h136v-182h-136zM229 0v182h136v-182h-136z" />
    <glyph glyph-name="semicolon" unicode=";" horiz-adv-x="592" 
d="M227 860v182h138v-182h-138zM227 -285l-0.000976562 77.999c22.667 16 39 34.333 49 55s15 47.334 15 80.001v72h-64v182h138v-245c0 -60 -10.667 -107 -32 -141s-56.666 -61 -105.999 -81z" />
    <glyph glyph-name="less" unicode="&#x3c;" horiz-adv-x="1706" 
d="M1442 1034l-1045 -424l1045 -424v-88l-1178 482v61l1178 483v-90z" />
    <glyph glyph-name="equal" unicode="=" horiz-adv-x="1706" 
d="M1452 469v-82h-1198v82h1198zM1452 831v-79h-1198v79h1198z" />
    <glyph glyph-name="greater" unicode="&#x3e;" horiz-adv-x="1706" 
d="M1442 641v-61l-1178 -482v88l1045 424l-1045 424v90z" />
    <glyph glyph-name="question" unicode="?" horiz-adv-x="1006" 
d="M422 360l0.00390625 125.002c0 56 9 104.5 27 145.5s56 90.833 114 149.5c16 16.667 39.333 39.667 70 69c109.333 104.667 164 197 164 277c0 84 -25.333 149.833 -76 197.5s-121 71.5 -211 71.5c-104.667 0 -183.834 -28.167 -237.501 -84.5
s-81.834 -140.833 -84.501 -253.5h-133c4 148 45.167 260.667 123.5 338s190.166 116 335.499 116c129.333 0 232.333 -33.833 309 -101.5s115 -158.5 115 -272.5c0 -62.667 -11.833 -118.834 -35.5 -168.501s-61.834 -98.834 -114.501 -147.501l-53 -49
c-128 -115.333 -192 -216.333 -192 -303v-109h-121zM416.004 0.00195312v182h135v-182h-135z" />
    <glyph glyph-name="at" unicode="@" horiz-adv-x="2048" 
d="M1303 827l61.001 128.998h80l-137 -553c-6.66699 -24 -11.834 -45.5 -15.501 -64.5s-5.5 -33.5 -5.5 -43.5c0 -29.333 10.167 -52 30.5 -68s49.166 -24 86.499 -24c32 0 65.333 6.5 100 19.5s69 31.833 103 56.5c67.333 49.333 121.333 118.333 162 207
s61 182.667 61 282c0 182 -66.5 328.5 -199.5 439.5s-308.167 166.5 -525.5 166.5c-112 0 -215.5 -16 -310.5 -48s-181.167 -80 -258.5 -144c-102.667 -85.333 -180 -184.333 -232 -297s-78 -237.667 -78 -375c0 -218 73.833 -392 221.5 -522s344.834 -195 591.501 -195
c107.333 0 215.333 16.833 324 50.5s208.334 81.167 299.001 142.5l29 -45c-97.333 -73.333 -200.166 -128.333 -308.499 -165s-221.5 -55 -339.5 -55c-124.667 0 -239 15.5 -343 46.5s-196.333 77.167 -277 138.5c-101.333 76.667 -176.833 165.834 -226.5 267.501
s-74.5 217.834 -74.5 348.501c0 108 16.833 210.333 50.5 307s82.834 185 147.501 265c96 116.667 211.167 205.167 345.5 265.5s284.166 90.5 449.499 90.5c106.667 0 208.167 -14.667 304.5 -44s179.166 -70.666 248.499 -123.999c85.333 -65.333 150 -140.833 194 -226.5
s66 -178.167 66 -277.5c0 -112.667 -21 -215.334 -63 -308.001s-102.333 -170 -181 -232c-44.667 -36 -93.167 -63.5 -145.5 -82.5s-105.5 -28.5 -159.5 -28.5c-63.333 0 -111.166 12.167 -143.499 36.5s-48.5 60.5 -48.5 108.5c0 8 1 19.333 3 34c0.666992 2 1 3.66699 1 5
c-32.667 -58.667 -74.334 -104 -125.001 -136s-106 -48 -166 -48c-102.667 0 -180.5 27.667 -233.5 83s-79.5 136.333 -79.5 243c0 152 44.833 280.667 134.5 386s198.5 158 326.5 158c63.333 0 116.666 -14.333 159.999 -43s75.333 -71 96 -127zM1219 466.998l63 254
c-14.667 66 -41.834 116.333 -81.501 151s-90.167 52 -151.5 52c-101.333 0 -186.5 -46 -255.5 -138s-103.5 -205.333 -103.5 -340c0 -76.667 19.167 -136.667 57.5 -180s91.5 -65 159.5 -65c74 0 139.333 24.167 196 72.5s95.334 112.833 116.001 193.5z" />
    <glyph glyph-name="A" unicode="A" horiz-adv-x="1262" 
d="M344 571h571l-286 758zM-10 0l559 1473h162l559 -1473h-142l-167 453h-660l-170 -453h-141z" />
    <glyph glyph-name="B" unicode="B" horiz-adv-x="1311" 
d="M299 121l397 -0.000976562c146.667 0 248.5 21.333 305.5 64s85.5 115.334 85.5 218.001c0 100 -32 175.333 -96 226s-158.667 76 -284 76h-408v-584zM627 1352h-328v-533h315c152 0 257.667 20.333 317 61s89 109.667 89 207c0 96.667 -28.5 165 -85.5 205
s-159.5 60 -307.5 60zM164 -0.000976562l-0.00195312 1473h487c84.667 0 151.834 -4.66699 201.501 -14s92.5 -24.666 128.5 -45.999c56 -31.333 99.667 -74.833 131 -130.5s47 -117.834 47 -186.501c0 -73.333 -19.167 -137.666 -57.5 -192.999s-92.166 -97 -161.499 -125
c89.333 -19.333 159.5 -62.833 210.5 -130.5s76.5 -151.167 76.5 -250.5c0 -86 -20.5 -161 -61.5 -225s-97.833 -110.333 -170.5 -139c-29.333 -12 -74 -20.5 -134 -25.5s-156.667 -7.5 -290 -7.5h-407z" />
    <glyph glyph-name="C" unicode="C" horiz-adv-x="1425" 
d="M1196 481l133 -0.00195312c-11.333 -163.333 -68.833 -291.166 -172.5 -383.499s-242.167 -138.5 -415.5 -138.5c-198 0 -354.333 69.5 -469 208.5s-172 329.5 -172 571.5c0 240 57.833 428.667 173.5 566s272.834 206 471.501 206c166.667 0 301.5 -42.5 404.5 -127.5
s158.167 -198.833 165.5 -341.5h-133c-11.333 108 -56 193.167 -134 255.5s-179 93.5 -303 93.5c-159.333 0 -283.333 -56.833 -372 -170.5s-133 -273.5 -133 -479.5c0 -207.333 45.167 -369.666 135.5 -486.999s215.166 -176 374.499 -176c130 0 234.5 35.667 313.5 107
s123.167 170 132.5 296z" />
    <glyph glyph-name="D" unicode="D" horiz-adv-x="1427" 
d="M299 121l285 -0.00195312c111.333 0 192.666 4.16699 243.999 12.5s94 22.5 128 42.5c74.667 44.667 130.334 112.834 167.001 204.501s55 209.834 55 354.501c0 138 -17.667 252.833 -53 344.5s-88 160.5 -158 206.5c-36 24 -80.167 41 -132.5 51s-140.833 15 -265.5 15
h-32h-238v-1231zM510 1473l99.999 0.000976562c121.333 0 212.333 -6.33301 273 -19s113 -33 157 -61c90.667 -57.333 159.834 -141.833 207.501 -253.5s71.5 -245.167 71.5 -400.5c0 -167.333 -26 -308 -78 -422s-129 -198.667 -231 -254
c-42.667 -22.667 -95 -38.834 -157 -48.501s-156.667 -14.5 -284 -14.5h-405v1473h346z" />
    <glyph glyph-name="E" unicode="E" horiz-adv-x="1239" 
d="M164 0v1473h964v-121h-829v-537h758v-117h-758v-577h854v-121h-989z" />
    <glyph glyph-name="F" unicode="F" horiz-adv-x="1163" 
d="M164 0v1473h932v-121h-797v-533h723v-121h-723v-698h-135z" />
    <glyph glyph-name="G" unicode="G" horiz-adv-x="1534" 
d="M1290 0l-14.002 260.001c-45.333 -94.667 -113.166 -168.5 -203.499 -221.5s-193.833 -79.5 -310.5 -79.5c-204.667 0 -365.834 69.667 -483.501 209s-176.5 329.666 -176.5 570.999c0 239.333 60 427.833 180 565.5s282.667 206.5 488 206.5
c171.333 0 310.5 -40.833 417.5 -122.5s171.167 -196.5 192.5 -344.5h-139c-20.667 108.667 -72.667 194 -156 256s-187.666 93 -312.999 93c-170 0 -301.167 -56.5 -393.5 -169.5s-138.5 -273.833 -138.5 -482.5c0 -202 46.333 -362 139 -480s218.334 -177 377.001 -177
c162 0 288.167 47.667 378.5 143s135.5 229.333 135.5 402v6h-486v121h615v-756h-109z" />
    <glyph glyph-name="H" unicode="H" horiz-adv-x="1442" 
d="M164 0v1473h135v-639h842v639h137v-1473h-137v713h-842v-713h-135z" />
    <glyph glyph-name="I" unicode="I" horiz-adv-x="485" 
d="M172 0v1473h139v-1473h-139z" />
    <glyph glyph-name="J" unicode="J" horiz-adv-x="985" 
d="M45 453l134.999 0.00195312v-95c0 -94 20.333 -163.833 61 -209.5s103 -68.5 187 -68.5c95.333 0 163.5 23.667 204.5 71s61.5 126.666 61.5 237.999v1084h135v-1115c0 -128.667 -34.667 -227.334 -104 -296.001s-169.666 -103 -300.999 -103
c-125.333 0 -219.833 32.5 -283.5 97.5s-95.5 161.5 -95.5 289.5v107z" />
    <glyph glyph-name="K" unicode="K" horiz-adv-x="1309" 
d="M164 0v1473h135v-781l760 781h174l-598 -611l668 -862h-168l-590 772l-246 -252v-520h-135z" />
    <glyph glyph-name="L" unicode="L" horiz-adv-x="1065" 
d="M164 0v1473h139v-1352h752v-121h-891z" />
    <glyph glyph-name="M" unicode="M" horiz-adv-x="1669" 
d="M162 0v1473h190l486 -1297l477 1297h190v-1473h-131v1284l-473 -1284h-125l-481 1284v-1284h-133z" />
    <glyph glyph-name="N" unicode="N" horiz-adv-x="1442" 
d="M164 0v1473h149l832 -1264v1264h131v-1473h-150l-829 1264v-1264h-133z" />
    <glyph glyph-name="O" unicode="O" horiz-adv-x="1550" 
d="M240 735c0 -201.333 48 -360.833 144 -478.5s226 -176.5 390 -176.5c164.667 0 295.334 58.667 392.001 176s145 277 145 479c0 202.667 -48.333 363 -145 481s-227.334 177 -392.001 177c-162 0 -291.5 -59.5 -388.5 -178.5s-145.5 -278.833 -145.5 -479.5zM100 735
c0 238.667 60.667 427.667 182 567s285.333 209 492 209c207.333 0 371.833 -69.667 493.5 -209s182.5 -328.333 182.5 -567s-60.833 -427.667 -182.5 -567s-286.167 -209 -493.5 -209c-206.667 0 -370.667 69.667 -492 209s-182 328.333 -182 567z" />
    <glyph glyph-name="P" unicode="P" horiz-adv-x="1237" 
d="M299 762h315.001c145.333 0 249.666 23.5 312.999 70.5s95 123.167 95 228.5c0 100 -28.333 173.5 -85 220.5s-145 70.5 -265 70.5h-373v-590zM164.001 0l-0.00195312 1473h514c160.667 0 281.334 -34.667 362.001 -104s121 -172.666 121 -309.999
c0 -142 -45.167 -247.5 -135.5 -316.5s-228.166 -103.5 -413.499 -103.5h-313v-639h-135z" />
    <glyph glyph-name="Q" unicode="Q" horiz-adv-x="1550" 
d="M1343 -109l-210 168c-44 -33.333 -95.667 -58.333 -155 -75s-127.333 -25 -204 -25c-206.667 0 -370.667 69.667 -492 209s-182 328.333 -182 567s60.667 427.667 182 567s285.333 209 492 209c207.333 0 371.833 -69.667 493.5 -209s182.5 -328.333 182.5 -567
c0 -134 -18 -250.167 -54 -348.5s-91 -181.5 -165 -249.5l186 -151zM1030 143l-173.998 142.001l74 94l203 -162c58.667 54.667 103 125.5 133 212.5s45 188.833 45 305.5c0 202.667 -48.333 363 -145 481s-227.334 177 -392.001 177c-162 0 -291.5 -59.5 -388.5 -178.5
s-145.5 -278.833 -145.5 -479.5c0 -204 48.667 -364.167 146 -480.5s230.666 -174.5 399.999 -174.5c48 0 92 5.16699 132 15.5s77.333 26.166 112 47.499z" />
    <glyph glyph-name="R" unicode="R" horiz-adv-x="1325" 
d="M299 780l391.001 -0.000976562c137.333 0 236.166 23.333 296.499 70s90.5 122.334 90.5 227.001c0 48 -9.5 91.333 -28.5 130s-46.167 69.667 -81.5 93c-27.333 18.667 -60 32 -98 40s-100.333 12 -187 12h-57h-326v-572zM164.001 -0.000976562v1473h491
c114 0 196.5 -4.66699 247.5 -14s95.5 -24.666 133.5 -45.999c58 -32.667 102.667 -77.834 134 -135.501s47 -123.167 47 -196.5c0 -90.667 -20.333 -167 -61 -229s-99.667 -106.333 -177 -133c60 -20 103 -50.667 129 -92s44.333 -124.666 55 -249.999l19 -221
c2.66699 -34.667 8 -63.334 16 -86.001s18.333 -39.334 31 -50.001v-20h-150c-8 15.333 -14.667 35.333 -20 60s-9.33301 55 -12 91l-17 195c-10 134.667 -34 220.5 -72 257.5s-114.333 55.5 -229 55.5h-430v-659h-135z" />
    <glyph glyph-name="S" unicode="S" horiz-adv-x="1241" 
d="M94 446h135c1.33301 -116 38 -206 110 -270s173.333 -96 304 -96c114.667 0 204.834 25.833 270.501 77.5s98.5 122.834 98.5 213.501c0 84 -23 148 -69 192s-137.667 83.667 -275 119l-140 35c-150.667 38.667 -254.834 87.834 -312.501 147.501
s-86.5 143.5 -86.5 251.5c0 119.333 43.667 215 131 287s204 108 350 108c154.667 0 275.5 -39.333 362.5 -118s131.5 -188.667 133.5 -330h-137c-2 104.667 -34.667 185.5 -98 242.5s-152.333 85.5 -267 85.5c-108 0 -191.667 -24.333 -251 -73s-89 -117.334 -89 -206.001
c0 -67.333 19.333 -120.5 58 -159.5s102.667 -69.833 192 -92.5l172 -43c170 -42.667 289.333 -96.667 358 -162s103 -155.333 103 -270c0 -132 -45.167 -236 -135.5 -312s-213.833 -114 -370.5 -114c-175.333 0 -310.333 41.167 -405 123.5s-142 200.166 -142 353.499v10z
" />
    <glyph glyph-name="T" unicode="T" horiz-adv-x="1090" 
d="M475 0v1352h-457v121h1053v-121h-457v-1352h-139z" />
    <glyph glyph-name="U" unicode="U" horiz-adv-x="1427" 
d="M154 1473l134.999 -0.000976562v-928c0 -163.333 33.5 -281.666 100.5 -354.999s174.833 -110 323.5 -110s256.834 36.667 324.501 110s101.5 191.666 101.5 354.999v928h135v-947c0 -187.333 -47 -328.666 -141 -423.999s-234 -143 -420 -143
c-185.333 0 -324.833 47.5 -418.5 142.5s-140.5 236.5 -140.5 424.5v947z" />
    <glyph glyph-name="V" unicode="V" horiz-adv-x="1163" 
d="M510 0l-512 1473h141l445 -1301l444 1301h137l-510 -1473h-145z" />
    <glyph glyph-name="W" unicode="W" horiz-adv-x="1759" 
d="M393 0l-381 1473h133l328 -1270l326 1270h166l321 -1270l332 1270h129l-387 -1473h-148l-333 1309l-340 -1309h-146z" />
    <glyph glyph-name="X" unicode="X" horiz-adv-x="1202" 
d="M23 0l493 758l-477 715h160l395 -603l391 603h158l-473 -719l510 -754h-162l-424 639l-412 -639h-159z" />
    <glyph glyph-name="Y" unicode="Y" horiz-adv-x="1147" 
d="M506 0v647l-520 826h155l432 -697l433 697h155l-520 -826v-647h-135z" />
    <glyph glyph-name="Z" unicode="Z" horiz-adv-x="1165" 
d="M35 0v125l911 1227h-842v121h1010v-117l-917 -1233h931v-123h-1093z" />
    <glyph glyph-name="bracketleft" unicode="[" horiz-adv-x="676" 
d="M618 -410h-372v1883h372v-103h-247v-1675h247v-105z" />
    <glyph glyph-name="backslash" unicode="\" horiz-adv-x="598" 
d="M524 -172l-551 1683h101l549 -1683h-99z" />
    <glyph glyph-name="bracketright" unicode="]" horiz-adv-x="676" 
d="M57 -410v105h248v1675h-248v103h373v-1883h-373z" />
    <glyph glyph-name="asciicircum" unicode="^" horiz-adv-x="2048" 
d="M1081 1458l541 -557h-125l-473 469l-475 -469h-125l539 557h118z" />
    <glyph glyph-name="underscore" unicode="_" 
d="M1024 -403v-80h-1024v80h1024z" />
    <glyph glyph-name="grave" unicode="`" 
d="M545 1200l-269 350h152l209 -350h-92z" />
    <glyph glyph-name="a" unicode="a" horiz-adv-x="1098" 
d="M821 557c-32.667 -12 -74.5 -21.667 -125.5 -29s-133.167 -14 -246.5 -20c-78.667 -20.667 -138 -50 -178 -88s-60 -83.667 -60 -137c0 -60.667 21.5 -109 64.5 -145s101.5 -54 175.5 -54c112.667 0 202.5 29.167 269.5 87.5s100.5 137.833 100.5 238.5v147zM829 154
c-56 -60.667 -116.671 -106.003 -182.004 -136.003s-135.666 -45 -210.999 -45c-107.333 0 -192.833 28 -256.5 84s-95.5 130.667 -95.5 224c0 60.667 14.5 113.667 43.5 159s71.167 81 126.5 107c63.333 28.667 169 48.667 317 60c28.667 2 50.334 3.66699 65.001 5
c8.66699 2 20.334 4.33301 35.001 7c101.333 20.667 152 64.334 152 131.001c0 82.667 -20.5 141.834 -61.5 177.501s-108.5 53.5 -202.5 53.5c-95.333 0 -168.333 -19.833 -219 -59.5s-78 -98.5 -82 -176.5l-121 1c2.66699 106 41.667 189.833 117 251.5s177 92.5 305 92.5
c127.333 0 224 -27.333 290 -82s99 -134.667 99 -240v-580c0 -44 5.33301 -71.333 16 -82s30.667 -16 60 -16c9.33301 0 17.333 0.166992 24 0.5s13.667 0.833008 21 1.5v-92c-15.333 -3.33301 -30.666 -5.83301 -45.999 -7.5s-29.333 -2.5 -42 -2.5
c-50.667 0 -88.667 12.333 -114 37s-38 61.334 -38 110.001v17z" />
    <glyph glyph-name="b" unicode="b" horiz-adv-x="1182" 
d="M254 530c0 -141.333 31.8311 -251.668 95.498 -331.001s151.834 -119 264.501 -119c115.333 0 204 38.833 266 116.5s93 188.834 93 333.501c0 144 -31.167 255.167 -93.5 333.5s-150.833 117.5 -265.5 117.5c-115.333 0 -204.166 -39 -266.499 -117
s-93.5 -189.333 -93.5 -334zM136.998 -0.00195312l0.000976562 1473h123v-599c40 72 91 126 153 162s135.333 54 220 54c145.333 0 260.166 -50 344.499 -150s126.5 -236.667 126.5 -410c0 -172.667 -42.833 -309 -128.5 -409s-202.5 -150 -350.5 -150
c-82 0 -154.167 18.167 -216.5 54.5s-111.833 89.166 -148.5 158.499v-184h-123z" />
    <glyph glyph-name="c" unicode="c" horiz-adv-x="1057" 
d="M868 367h123c-11.333 -122 -56.333 -218.167 -135 -288.5s-181 -105.5 -307 -105.5c-144 0 -257.5 49.333 -340.5 148s-124.5 233 -124.5 403c0 176 42.167 314.333 126.5 415s199.833 151 346.5 151c119.333 0 217.5 -33.5 294.5 -100.5s118.5 -155.167 124.5 -264.5
h-118c-10 77.333 -42.5 139.333 -97.5 186s-122.833 70 -203.5 70c-106 0 -190.167 -40 -252.5 -120s-93.5 -188.667 -93.5 -326c0 -140.667 31.5 -252 94.5 -334s147.5 -123 253.5 -123c82.667 0 151.667 25.667 207 77s89.333 122 102 212z" />
    <glyph glyph-name="d" unicode="d" horiz-adv-x="1190" 
d="M217 530c0 -142.667 31.5 -253.334 94.5 -332.001s150.833 -118 263.5 -118c116 0 205.167 38.833 267.5 116.5s93.5 188.834 93.5 333.501c0 144 -31.333 255.167 -94 333.5s-151.667 117.5 -267 117.5c-114.667 0 -203 -38.833 -265 -116.5s-93 -189.167 -93 -334.5z
M1049 1473l-0.000976562 -1473h-123v180c-40.667 -69.333 -92.5 -121.5 -155.5 -156.5s-136.167 -52.5 -219.5 -52.5c-143.333 0 -256.666 50 -339.999 150s-125 236.333 -125 409s42.5 309.167 127.5 409.5s200.167 150.5 345.5 150.5c83.333 0 155.833 -17.667 217.5 -53
s111.5 -88 149.5 -158v594h123z" />
    <glyph glyph-name="e" unicode="e" horiz-adv-x="1085" 
d="M209 508l-0.000976562 -5.99902c0 -130 31.333 -233.5 94 -310.5s146.667 -115.5 252 -115.5c83.333 0 153 22.5 209 67.5s90 106.5 102 184.5h123c-13.333 -108 -60 -194.5 -140 -259.5s-180.667 -97.5 -302 -97.5c-144.667 0 -258 49 -340 147s-123 234 -123 408
c0 177.333 41.167 315.666 123.5 414.999s196.833 149 343.5 149c142.667 0 253.834 -47.5 333.501 -142.5s119.5 -227.833 119.5 -398.5v-41h-795zM210.999 607.001l665.999 -1c-5.33301 117.333 -37.166 209.5 -95.499 276.5s-135.833 100.5 -232.5 100.5
c-97.333 0 -176.5 -34 -237.5 -102s-94.5 -159.333 -100.5 -274z" />
    <glyph glyph-name="f" unicode="f" horiz-adv-x="545" 
d="M197 0l0.00195312 963h-156v100h156v194c0 80 20 138.333 60 175s104 55 192 55c9.33301 0 19.166 -0.5 29.499 -1.5s21.5 -2.83301 33.5 -5.5v-110c-2.66699 0 -6.66699 0.333008 -12 1c-26.667 2 -45.334 3 -56.001 3c-46 0 -78.333 -9.5 -97 -28.5
s-28 -52.5 -28 -100.5v-182h193v-100h-193v-963h-122z" />
    <glyph glyph-name="g" unicode="g" horiz-adv-x="1186" 
d="M217 530c0 -140.667 31.833 -251.167 95.5 -331.5s151.167 -120.5 262.5 -120.5c114 0 202.667 39.667 266 119s95 190.333 95 333c0 143.333 -31.5 254.333 -94.5 333s-151.833 118 -266.5 118s-203 -39 -265 -117s-93 -189.333 -93 -334zM1049 1063l0.000976562 -1008
c0 -162 -42.5 -284.333 -127.5 -367s-210.5 -124 -376.5 -124c-124 0 -224.167 27.833 -300.5 83.5s-118.166 131.5 -125.499 227.5h126c7.33301 -64.667 36.5 -114.334 87.5 -149.001s121.167 -52 210.5 -52c128 0 224.167 31.667 288.5 95s96.5 157.333 96.5 282v131
c-43.333 -70.667 -95.833 -123.5 -157.5 -158.5s-132.834 -52.5 -213.501 -52.5c-146 0 -261 49.833 -345 149.5s-126 236.167 -126 409.5c0 172 42.5 308.333 127.5 409s199.5 151 343.5 151c82 0 153.667 -17.667 215 -53s112.666 -88 153.999 -158v184h123z" />
    <glyph glyph-name="h" unicode="h" horiz-adv-x="1108" 
d="M137 0l-0.000976562 1473h125v-576c39.333 63.333 88.333 111.333 147 144s126.334 49 203.001 49c70.667 0 134 -13.333 190 -40s98.667 -63.334 128 -110.001c15.333 -25.333 26.333 -56.333 33 -93s10 -103.334 10 -200.001v-647h-125v645
c0 132.667 -19 221.5 -57 266.5s-105.667 67.5 -203 67.5c-99.333 0 -178.5 -31.833 -237.5 -95.5s-88.5 -149.167 -88.5 -256.5v-627h-125z" />
    <glyph glyph-name="i" unicode="i" horiz-adv-x="422" 
d="M150 1288v185h122v-185h-122zM150 0v1063h122v-1063h-122z" />
    <glyph glyph-name="j" unicode="j" horiz-adv-x="446" 
d="M186 1288v185h123v-185h-123zM20 -428l1.00293 105.999c6.66699 -0.666992 13.167 -1.16699 19.5 -1.5s15.5 -0.5 27.5 -0.5c44.667 0 75.5 9.5 92.5 28.5s25.5 53.167 25.5 102.5v1256h123v-1270c0 -80.667 -16.833 -139 -50.5 -175s-87.834 -54 -162.501 -54
c-10.667 0 -30.334 2 -59.001 6c-6.66699 0.666992 -12.334 1.33398 -17.001 2.00098z" />
    <glyph glyph-name="k" unicode="k" horiz-adv-x="991" 
d="M137 0v1473h123v-926l531 516h157l-401 -389l450 -674h-141l-395 592l-201 -193v-399h-123z" />
    <glyph glyph-name="l" unicode="l" horiz-adv-x="422" 
d="M150 0v1473h122v-1473h-122z" />
    <glyph glyph-name="m" unicode="m" horiz-adv-x="1708" 
d="M137 0l0.000976562 1063h115v-176c36 65.333 82.833 115.5 140.5 150.5s123.5 52.5 197.5 52.5c79.333 0 145.333 -18.167 198 -54.5s87.667 -87.833 105 -154.5c35.333 68 82.166 119.833 140.499 155.5s125.5 53.5 201.5 53.5c115.333 0 201.5 -28.833 258.5 -86.5
s85.5 -145.167 85.5 -262.5v-741h-125v731c0 89.333 -17.333 153.333 -52 192s-91.667 58 -171 58c-94 0 -169.333 -29 -226 -87s-85 -134 -85 -228v-666h-123v719c0 88 -18.333 153.333 -55 196s-93 64 -169 64c-93.333 0 -168.833 -29.667 -226.5 -89
s-86.5 -137 -86.5 -233v-657h-123z" />
    <glyph glyph-name="n" unicode="n" horiz-adv-x="1104" 
d="M137 0l0.00195312 1063h119v-170c40 65.333 89.333 114.5 148 147.5s126.667 49.5 204 49.5c73.333 0 137.666 -13 192.999 -39s97.666 -63 126.999 -111c15.333 -24.667 26.333 -54.5 33 -89.5s10 -92.5 10 -172.5v-31v-647h-127v659
c0 124.667 -19.167 209.167 -57.5 253.5s-105.833 66.5 -202.5 66.5c-99.333 0 -177.833 -31.5 -235.5 -94.5s-86.5 -148.833 -86.5 -257.5v-627h-125z" />
    <glyph glyph-name="o" unicode="o" horiz-adv-x="1143" 
d="M211 530c0 -142.667 31.5 -253.333 94.5 -332s151.5 -118 265.5 -118c115.333 0 204.333 39 267 117s94 189 94 333s-31.333 255.167 -94 333.5s-151.667 117.5 -267 117.5c-114 0 -202.5 -39.333 -265.5 -118s-94.5 -189.667 -94.5 -333zM84 530.001
c0 178 42.5 315.833 127.5 413.5s204.833 146.5 359.5 146.5c155.333 0 275.833 -48.833 361.5 -146.5s128.5 -235.5 128.5 -413.5c0 -176.667 -42.667 -313.667 -128 -411s-206 -146 -362 -146c-154.667 0 -274.5 48.5 -359.5 145.5s-127.5 234.167 -127.5 411.5z" />
    <glyph glyph-name="p" unicode="p" horiz-adv-x="1188" 
d="M260 530c0 -140.667 31.667 -250.833 95 -330.5s151 -119.5 263 -119.5c116 0 205.167 39 267.5 117s93.5 189 93.5 333s-31.333 255.167 -94 333.5s-151.667 117.5 -267 117.5c-114.667 0 -203 -39 -265 -117s-93 -189.333 -93 -334zM141 -427.999v1491h125v-191
c40 74 90.333 128.833 151 164.5s134 53.5 220 53.5c146 0 261 -49.833 345 -149.5s126 -236.5 126 -410.5s-42.5 -310.667 -127.5 -410s-201.5 -149 -349.5 -149c-82 0 -153 17.667 -213 53s-110.667 88.666 -152 159.999v-612h-125z" />
    <glyph glyph-name="q" unicode="q" horiz-adv-x="1190" 
d="M213 530c0 -142.667 31.5 -253.333 94.5 -332s150.833 -118 263.5 -118c115.333 0 204.333 39 267 117s94 189 94 333c0 143.333 -31.5 254.333 -94.5 333s-151.833 118 -266.5 118s-203 -39 -265 -117s-93 -189.333 -93 -334zM1044 1063v-1491h-122v618
c-39.333 -72.667 -89.833 -127.334 -151.5 -164.001s-134.167 -55 -217.5 -55c-145.333 0 -259.833 49.667 -343.5 149s-125.5 236 -125.5 410c0 174.667 42.167 311.667 126.5 411s199.833 149 346.5 149c82.667 0 154 -17.5 214 -52.5s110.333 -87.833 151 -158.5v184h122
z" />
    <glyph glyph-name="r" unicode="r" horiz-adv-x="629" 
d="M137 0l0.000976562 1063h119v-186c30.667 71.333 73.167 124.666 127.5 159.999s121.166 53 200.499 53h14v-129h-16c-106 0 -185.5 -31.333 -238.5 -94s-79.5 -156.334 -79.5 -281.001v-586h-127z" />
    <glyph glyph-name="s" unicode="s" horiz-adv-x="1006" 
d="M92 331l123.001 0.00195312c3.33301 -73.333 31.166 -132.833 83.499 -178.5s119.5 -68.5 201.5 -68.5c88.667 0 158.5 17.5 209.5 52.5s76.5 82.5 76.5 142.5c0 86 -94.333 151.667 -283 197c-2.66699 0.666992 -4.33398 1 -5.00098 1
c-152 36.667 -253.833 77 -305.5 121s-77.5 105.333 -77.5 184c0 91.333 33.833 165.5 101.5 222.5s155.834 85.5 264.501 85.5c119.333 0 214.333 -29.833 285 -89.5s109.667 -142.5 117 -248.5h-125c-5.33301 72 -32.333 128.167 -81 168.5s-114.667 60.5 -198 60.5
c-72.667 0 -130.667 -16.667 -174 -50s-65 -77.333 -65 -132c0 -94.667 96.667 -164.667 290 -210c25.333 -6 44.333 -10.333 57 -13c121.333 -30 205.666 -67.333 252.999 -112s71 -107.334 71 -188.001c0 -90 -37.167 -163.333 -111.5 -220s-172.166 -85 -293.499 -85
c-123.333 0 -222.333 32.667 -297 98s-113.667 152.666 -117 261.999z" />
    <glyph glyph-name="t" unicode="t" horiz-adv-x="555" 
d="M299 1368v-304.999h197v-100h-197v-775c0 -45.333 5.66699 -75.333 17 -90s31.666 -22 60.999 -22c12.667 0 27 1.16699 43 3.5s41 7.16602 75 14.499l1 -98c-30 -8 -57.333 -13.833 -82 -17.5s-48 -5.5 -70 -5.5c-61.333 0 -104.666 15.5 -129.999 46.5
s-38 87.167 -38 168.5v775h-145v100h145v305h123z" />
    <glyph glyph-name="u" unicode="u" horiz-adv-x="1108" 
d="M969 1063v-1063h-119v170c-40.667 -67.333 -90.167 -117.333 -148.5 -150s-127.5 -49 -207.5 -49c-120 0 -210.167 31.5 -270.5 94.5s-90.5 157.167 -90.5 282.5v715h123v-686c0 -106 20 -181.333 60 -226s106.667 -67 200 -67c102 0 182.5 31.167 241.5 93.5
s88.5 147.833 88.5 256.5v629h123z" />
    <glyph glyph-name="v" unicode="v" horiz-adv-x="948" 
d="M406 0l-400 1063h133l340 -913l334 913h127l-397 -1063h-137z" />
    <glyph glyph-name="w" unicode="w" horiz-adv-x="1417" 
d="M334 0l-334 1063h125l274 -889l244 889h137l240 -889l272 889h125l-334 -1063h-131l-245 889l-244 -889h-129z" />
    <glyph glyph-name="x" unicode="x" horiz-adv-x="913" 
d="M0 0l373 545l-357 518h154l279 -424l274 424h149l-348 -516l387 -547h-155l-305 451l-304 -451h-147z" />
    <glyph glyph-name="y" unicode="y" horiz-adv-x="954" 
d="M467 -207c-30.667 -82.667 -67.8359 -141.5 -111.503 -176.5s-101.5 -52.5 -173.5 -52.5c-17.333 0 -32.666 0.833008 -45.999 2.5s-26.666 4.5 -39.999 8.5v111c22.667 -3.33301 40.5 -5.83301 53.5 -7.5s23.167 -2.5 30.5 -2.5c44.667 0 79.834 11.667 105.501 35
s52.167 71.333 79.5 144l49 133l-414 1075h131l344 -907l336 907h127z" />
    <glyph glyph-name="z" unicode="z" horiz-adv-x="950" 
d="M41 0v102l688 859h-653v102h801v-109l-678 -845h708v-109h-866z" />
    <glyph glyph-name="braceleft" unicode="{" 
d="M848 1389h-36.998c-90 0 -150.667 -17.167 -182 -51.5s-47 -105.5 -47 -213.5v-241c0 -116.667 -14.333 -199.334 -43 -248.001s-79.334 -83.667 -152.001 -105c72.667 -21.333 123.334 -56 152.001 -104s43 -130.667 43 -248v-241c0 -108 15.5 -178.833 46.5 -212.5
s91.167 -50.5 180.5 -50.5h39v-88h-43c-126 0 -211.833 24.833 -257.5 74.5s-68.5 149.834 -68.5 300.501v240c0 105.333 -19.333 179.333 -58 222s-105.334 64 -200.001 64c-4.66699 0 -11.834 -0.333008 -21.501 -1s-17.5 -1 -23.5 -1v90
c6.66699 -0.666992 13.5 -1.16699 20.5 -1.5s16.5 -0.5 28.5 -0.5c92.667 0 158.167 21.5 196.5 64.5s57.5 117.167 57.5 222.5v240c0 151.333 22.833 252 68.5 302s131.5 75 257.5 75h43v-88z" />
    <glyph glyph-name="bar" unicode="|" 
d="M557 1565v-2048h-90v2048h90z" />
    <glyph glyph-name="braceright" unicode="}" 
d="M545 1100v-240c0 -105.333 19.333 -179.5 58 -222.5s105.334 -64.5 200.001 -64.5c4.66699 0 11.834 0.333008 21.501 1s17.5 1 23.5 1v-90c-6 0 -13.833 0.333008 -23.5 1s-16.834 1 -21.501 1c-94.667 0 -161.334 -21.333 -200.001 -64s-58 -116.667 -58 -222v-240
c0 -150.667 -22.833 -250.834 -68.5 -300.501s-131.5 -74.5 -257.5 -74.5h-43v88h39c89.333 0 149.5 16.833 180.5 50.5s46.5 104.5 46.5 212.5v241c0 116 14.5 198.333 43.5 247s80.167 83.667 153.5 105c-73.333 21.333 -124.5 56.333 -153.5 105
s-43.5 131.334 -43.5 248.001v241c0 108 -15.667 179.167 -47 213.5s-92 51.5 -182 51.5h-37v88h43c126 0 211.833 -25 257.5 -75s68.5 -150.667 68.5 -302z" />
    <glyph glyph-name="asciitilde" unicode="~" horiz-adv-x="1706" 
d="M1530 647c-70.667 -49.333 -138 -86.168 -202 -110.501s-125.667 -36.5 -185 -36.5c-66 0 -154.667 20.333 -266 61c-10.667 4 -18 6.66699 -22 8c-8 2.66699 -19 6.66699 -33 12c-111.333 40 -197 60 -257 60c-55.333 0 -113.666 -12.5 -174.999 -37.5
s-132 -65.833 -212 -122.5v92c70 49.333 137 86 201 110s126 36 186 36c66.667 0 157 -20.333 271 -61c8 -3.33301 14.333 -5.66602 19 -6.99902l27 -10c112 -40.667 199 -61 261 -61c55.333 0 113.666 12.5 174.999 37.5s132 65.5 212 121.5v-92z" />
    <glyph glyph-name="nonbreakingspace" unicode="&#xa0;" horiz-adv-x="1090" 
 />
    <glyph glyph-name="exclamdown" unicode="&#xa1;" horiz-adv-x="639" 
d="M360 1110l27 -575v-535h-135v535l29 575h79zM387 1473v-185h-135v185h135z" />
    <glyph glyph-name="cent" unicode="&#xa2;" horiz-adv-x="1090" 
d="M367 133l269 840c-14.667 3.33301 -28.5 5.83301 -41.5 7.5s-25.5 2.5 -37.5 2.5c-111.333 0 -198.5 -39.333 -261.5 -118s-94.5 -188 -94.5 -328c0 -97.333 14.167 -180.5 42.5 -249.5s69.5 -120.5 123.5 -154.5zM877 367h119.999c-8 -120 -51.667 -216 -131 -288
s-181 -108 -305 -108c-19.333 0 -40.5 1.33301 -63.5 4s-48.167 7 -75.5 13l-88 -275h-103l97 305c-84 43.333 -147.667 108 -191 194s-65 190 -65 312c0 176 43.5 314.667 130.5 416s205.167 152 354.5 152c18 0 36.333 -1.16699 55 -3.5s38 -5.5 58 -9.5l75 234h103
l-84 -264c67.333 -30 120 -72.667 158 -128s59 -120.666 63 -195.999h-119c-5.33301 48.667 -19.5 90.667 -42.5 126s-55.167 64.333 -96.5 87l-272 -844c22.667 -4 43.167 -7 61.5 -9s33.833 -3 46.5 -3c84.667 0 155.334 25.667 212.001 77s90.667 120.666 102 207.999z
" />
    <glyph glyph-name="sterling" unicode="&#xa3;" horiz-adv-x="1090" 
d="M170 -12l-74.0029 113.997c66.667 46.667 117.834 101.667 153.501 165s53.5 131.333 53.5 204c0 28.667 -3.66699 57.834 -11 87.501s-18 59.167 -32 88.5h-197v88h152c-39.333 71.333 -66.833 131.166 -82.5 179.499s-23.5 94.5 -23.5 138.5
c0 108.667 41.833 199.334 125.5 272.001s189.834 109 318.501 109c140.667 0 251 -39.167 331 -117.5s120 -186.166 120 -323.499v-10h-127c-1.33301 104.667 -30.833 186.167 -88.5 244.5s-137.5 87.5 -239.5 87.5c-92 0 -165.833 -25 -221.5 -75s-83.5 -116 -83.5 -198
c0 -52 29.333 -132.333 88 -241l35 -66h329v-88h-290c7.33301 -28 12.833 -53.667 16.5 -77s5.5 -44.666 5.5 -63.999c0 -64 -15.5 -128.167 -46.5 -192.5s-77.5 -128.5 -139.5 -192.5c37.333 19.333 72.333 33.333 105 42s65.667 13 99 13c38.667 0 94.667 -14.333 168 -43
s127.333 -43 162 -43c34 0 67.333 8 100 24s72.334 44.333 119.001 85l68 -95c-54 -50 -106 -87 -156 -111s-99 -36 -147 -36c-42.667 0 -106.5 16 -191.5 48s-150.167 48 -195.5 48c-35.333 0 -70 -5.5 -104 -16.5s-67 -27.167 -99 -48.5z" />
    <glyph glyph-name="currency" unicode="&#xa4;" horiz-adv-x="1241" 
d="M954 887c0 91.333 -32.167 169.168 -96.5 233.501s-142.5 96.5 -234.5 96.5s-170.333 -32.333 -235 -97s-97 -142.334 -97 -233.001c0 -92 32.333 -170.333 97 -235s143 -97 235 -97c91.333 0 169.333 32.333 234 97s97 143 97 235zM358 1204
c40 32 81.666 55.6689 124.999 71.002s89.333 23 138 23c48 0 94 -7.83301 138 -23.5s86 -39.167 126 -70.5l205 207l59 -59l-207 -205c30 -38.667 52.833 -80.167 68.5 -124.5s23.5 -90.166 23.5 -137.499c0 -48.667 -7.66699 -94.834 -23 -138.501
s-38.333 -84.834 -69 -123.501l207 -205l-59 -60l-205 207c-38.667 -30 -80.334 -52.833 -125.001 -68.5s-91 -23.5 -139 -23.5c-49.333 0 -95.666 7.66699 -138.999 23s-84.666 38.333 -123.999 69l-206 -207l-58 60l207 205c-30 38 -52.833 79.167 -68.5 123.5
s-23.5 90.5 -23.5 138.5c0 47.333 7.83301 93.166 23.5 137.499s38.5 85.833 68.5 124.5l-207 205l58 59z" />
    <glyph glyph-name="yen" unicode="&#xa5;" horiz-adv-x="1147" 
d="M506 0v612h-500v88h447l-107 158h-340v90h279l-291 443h147l432 -662l433 662h149l-295 -443h281v-90h-338l-109 -158h447v-88h-500v-612h-135z" />
    <glyph glyph-name="brokenbar" unicode="&#xa6;" 
d="M557 408v-758h-90v758h90zM557 1432v-758h-90v758h90z" />
    <glyph glyph-name="section" unicode="&#xa7;" 
d="M381 545l267.999 -168c46.667 30.667 80.5 62.167 101.5 94.5s31.5 68.5 31.5 108.5c0 45.333 -12.667 85.5 -38 120.5s-68 70.5 -128 106.5l-239 147c-47.333 -18.667 -84.166 -45 -110.499 -79s-39.5 -71.667 -39.5 -113c0 -39.333 13.5 -77.833 40.5 -115.5
s64.833 -71.5 113.5 -101.5zM169.999 156l121 0.00195312v-11c0 -70.667 18.5 -125.834 55.5 -165.501s88.167 -59.5 153.5 -59.5c60.667 0 108.834 15.333 144.501 46s53.5 72 53.5 124c0 70 -58 141.667 -174 215l-45 29l-172 110
c-66.667 43.333 -116.334 87.833 -149.001 133.5s-49 94.167 -49 145.5c0 66 16.333 123.5 49 172.5s82.334 90.5 149.001 124.5c-35.333 25.333 -61.5 54.833 -78.5 88.5s-25.5 73.167 -25.5 118.5c0 84.667 29.333 153.167 88 205.5s135.667 78.5 231 78.5
c93.333 0 167.833 -28.333 223.5 -85s83.5 -132.667 83.5 -228v-22h-116c-1.33301 72 -19.833 128.167 -55.5 168.5s-84.834 60.5 -147.501 60.5c-56 0 -100.667 -15.667 -134 -47s-50 -73 -50 -125c0 -38.667 12.167 -73.667 36.5 -105s64.5 -63.333 120.5 -96l203 -119
c80 -46.667 137.5 -94.667 172.5 -144s52.5 -106.333 52.5 -171c0 -58.667 -16.333 -111.334 -49 -158.001s-81 -87 -145 -121c35.333 -31.333 61.833 -65.833 79.5 -103.5s26.5 -78.834 26.5 -123.501c0 -83.333 -30.5 -151.166 -91.5 -203.499
s-140.167 -78.5 -237.5 -78.5c-104 0 -184 27.833 -240 83.5s-84 135.5 -84 239.5v23z" />
    <glyph glyph-name="dieresis" unicode="&#xa8;" 
d="M602 1278v162h141v-162h-141zM281 1278v162h141v-162h-141z" />
    <glyph glyph-name="copyright" unicode="&#xa9;" horiz-adv-x="1706" 
d="M1081 918c-13.333 54 -39.832 96.167 -79.499 126.5s-88.834 45.5 -147.501 45.5c-84 0 -149.333 -32.5 -196 -97.5s-70 -156.167 -70 -273.5c0 -112.667 23.833 -201.667 71.5 -267s112.5 -98 194.5 -98c60.667 0 112.667 17.5 156 52.5s71.333 81.833 84 140.5h102
c-7.33301 -82 -43.333 -149 -108 -201s-144.667 -78 -240 -78c-115.333 0 -207 41.167 -275 123.5s-102 193.5 -102 333.5c0 136.667 35.667 246 107 328s165.333 123 282 123c88 0 162.167 -24 222.5 -72s94.833 -110 103.5 -186h-105zM1511 721
c0 88.667 -16.335 172.84 -49.002 252.507s-79.667 150.5 -141 212.5c-63.333 63.333 -135 111.5 -215 144.5s-164.667 49.5 -254 49.5c-88.667 0 -172.5 -16.333 -251.5 -49s-148.833 -79.667 -209.5 -141c-63.333 -64.667 -111.833 -137.334 -145.5 -218.001
s-50.5 -164.334 -50.5 -251.001s16.667 -169.834 50 -249.501s81.333 -150.834 144 -213.501s133.834 -110.834 213.501 -144.501s162.834 -50.5 249.501 -50.5s170.5 17 251.5 51s153.5 82.667 217.5 146c62 61.333 109.167 131.166 141.5 209.499
s48.5 162.166 48.5 251.499zM851.999 1452.01c99.333 0 193.502 -18.3301 282.502 -54.9971s168.167 -90 237.5 -160c68.667 -68 121 -146.333 157 -235s54 -182.334 54 -281.001c0 -100 -17.833 -193.333 -53.5 -280s-88.167 -164 -157.5 -232
c-71.333 -70.667 -151.833 -124.834 -241.5 -162.501s-182.5 -56.5 -278.5 -56.5c-96.667 0 -189 18.5 -277 55.5s-167 90.833 -237 161.5c-70 69.333 -123.333 148 -160 236s-55 180.667 -55 278c0 96.667 18.667 189.667 56 279s91 169.666 161 240.999
c67.333 68.667 144.666 121 231.999 157s180.666 54 279.999 54z" />
    <glyph glyph-name="ordfeminine" unicode="&#xaa;" horiz-adv-x="823" 
d="M616 1118c-26 -8.66699 -59.666 -15.5 -100.999 -20.5s-101 -9.16699 -179 -12.5c-58.667 -14 -103 -34.333 -133 -61s-45 -58.667 -45 -96c0 -43.333 16.167 -77.5 48.5 -102.5s76.166 -37.5 131.499 -37.5c85.333 0 153 20.5 203 61.5s75 96.5 75 166.5v102z
M623.001 838c-41.333 -42.667 -86.666 -74.501 -135.999 -95.501s-102.333 -31.5 -159 -31.5c-81.333 0 -145.833 19.5 -193.5 58.5s-71.5 91.167 -71.5 156.5c0 42 10.833 78.833 32.5 110.5s53.167 56.834 94.5 75.501c48.667 20 129.667 34 243 42l44 3l29 6
c74.667 14 112 44 112 90c0 58 -15.333 99.5 -46 124.5s-81.334 37.5 -152.001 37.5c-72 0 -126.833 -13.833 -164.5 -41.5s-58.167 -68.5 -61.5 -122.5h-91c2 74 31.333 132.5 88 175.5s133 64.5 229 64.5c95.333 0 167.666 -18.833 216.999 -56.5s74 -93.167 74 -166.5
v-408c0 -30 4 -48.667 12 -56s23 -11 45 -11c6.66699 0 12.834 0.166992 18.501 0.5s11.167 0.5 16.5 0.5v-64c-10.667 -2.66699 -21 -4.5 -31 -5.5s-22.333 -1.5 -37 -1.5c-37.333 0 -65.333 8.5 -84 25.5s-28 42.5 -28 76.5v13z" />
    <glyph glyph-name="guillemotleft" unicode="&#xab;" horiz-adv-x="834" 
d="M737 834v-134l-211 -163l211 -162v-133l-291 219v153zM369 834v-134l-209 -163l209 -162v-133l-291 219v153z" />
    <glyph glyph-name="logicalnot" unicode="&#xac;" horiz-adv-x="1706" 
d="M1452 856v-502h-78v420h-1120v82h1198z" />
    <glyph glyph-name="sfthyphen" unicode="&#xad;" horiz-adv-x="670" 
d="M80 473v129h495v-129h-495z" />
    <glyph glyph-name="registered" unicode="&#xae;" horiz-adv-x="1706" 
d="M852 1077h-168v-313h168c96.667 0 163.167 12 199.5 36s54.5 66 54.5 126c0 52 -20.5 90.167 -61.5 114.5s-105.167 36.5 -192.5 36.5zM874 1155c120 0 208.167 -18.833 264.5 -56.5s84.5 -96.5 84.5 -176.5c0 -59.333 -18.5 -109 -55.5 -149s-86.167 -63.667 -147.5 -71
l190 -393h-131l-182 377h-213v-377h-115v846h305zM1511 721c0 88.667 -16.335 172.84 -49.002 252.507s-79.667 150.5 -141 212.5c-63.333 63.333 -135 111.5 -215 144.5s-164.667 49.5 -254 49.5c-88.667 0 -172.5 -16.333 -251.5 -49s-148.833 -79.667 -209.5 -141
c-63.333 -64.667 -111.833 -137.334 -145.5 -218.001s-50.5 -164.334 -50.5 -251.001s16.667 -169.834 50 -249.501s81.333 -150.834 144 -213.501s133.834 -110.834 213.501 -144.501s162.834 -50.5 249.501 -50.5s170.5 17 251.5 51s153.5 82.667 217.5 146
c62 61.333 109.167 131.166 141.5 209.499s48.5 162.166 48.5 251.499zM851.998 1452.01c99.333 0 193.502 -18.3301 282.502 -54.9971s168.167 -90 237.5 -160c68.667 -68 121 -146.333 157 -235s54 -182.334 54 -281.001c0 -100 -17.833 -193.333 -53.5 -280
s-88.167 -164 -157.5 -232c-71.333 -70.667 -151.833 -124.834 -241.5 -162.501s-182.5 -56.5 -278.5 -56.5c-96.667 0 -189 18.5 -277 55.5s-167 90.833 -237 161.5c-70 69.333 -123.333 148 -160 236s-55 180.667 -55 278c0 96.667 18.667 189.667 56 279
s91 169.666 161 240.999c67.333 68.667 144.666 121 231.999 157s180.666 54 279.999 54z" />
    <glyph glyph-name="macron" unicode="&#xaf;" 
d="M256 1300v117h512v-117h-512z" />
    <glyph glyph-name="degree" unicode="&#xb0;" horiz-adv-x="674" 
d="M551 1176c0 58 -21.0029 107.999 -63.0029 149.999s-92 63 -150 63c-59.333 0 -109.666 -20.667 -150.999 -62s-62 -91.666 -62 -150.999s20.833 -109.666 62.5 -150.999s91.834 -62 150.501 -62s108.834 20.667 150.501 62s62.5 91.666 62.5 150.999zM337.997 1450
c74.667 0 138.668 -26.834 192.001 -80.501s80 -118.167 80 -193.5c0 -76 -26.667 -140.5 -80 -193.5s-118 -79.5 -194 -79.5c-76.667 0 -141.334 26.333 -194.001 79s-79 117.334 -79 194.001c0 76 26.833 140.667 80.5 194s118.5 80 194.5 80z" />
    <glyph glyph-name="plusminus" unicode="&#xb1;" horiz-adv-x="1706" 
d="M1452 141v-82h-1198v82h1198zM893 1161v-354h559v-80h-559v-352h-80v352h-559v80h559v354h80z" />
    <glyph glyph-name="twosuperior" unicode="&#xb2;" horiz-adv-x="719" 
d="M45 557l-0.000976562 27.001c0 60.667 18 115 54 163s95 96 177 144c20 11.333 48.667 26.333 86 45c79.333 42 130 74 152 96c20.667 19.333 35.334 39.5 44.001 60.5s13 45.167 13 72.5c0 56.667 -17.5 101 -52.5 133s-83.5 48 -145.5 48
c-70 0 -123.333 -18.167 -160 -54.5s-55.667 -89.833 -57 -160.5h-88c2.66699 90.667 30.5 160.667 83.5 210s127.5 74 223.5 74c88 0 157.833 -22.167 209.5 -66.5s77.5 -104.833 77.5 -181.5c0 -36 -6.16699 -68 -18.5 -96s-31.5 -54.667 -57.5 -80
c-28.667 -28.667 -87.667 -65.667 -177 -111l-73 -38c-69.333 -36.667 -119.5 -71.834 -150.5 -105.501s-48.5 -70.167 -52.5 -109.5h522v-70h-610z" />
    <glyph glyph-name="threesuperior" unicode="&#xb3;" horiz-adv-x="719" 
d="M47 803h92.001c1.33301 -64.667 20.166 -114.667 56.499 -150s87.166 -53 152.499 -53c70.667 0 124.834 16.667 162.501 50s56.5 81 56.5 143c0 59.333 -19.667 103.5 -59 132.5s-99.333 43.5 -180 43.5c-10.667 0 -18.667 -0.166992 -24 -0.5
s-10.333 -0.833008 -15 -1.5v65c4 0 9.66699 -0.333008 17 -1s12.666 -1 15.999 -1c72.667 0 127.334 13.833 164.001 41.5s55 68.5 55 122.5c0 46.667 -16.5 84.334 -49.5 113.001s-76.833 43 -131.5 43c-62 0 -110 -16.333 -144 -49s-52 -79 -54 -139h-84
c3.33301 80 29.666 142.167 78.999 186.5s117 66.5 203 66.5c82 0 147.333 -20 196 -60s73 -93.667 73 -161c0 -42.667 -11 -79.834 -33 -111.501s-54.667 -57.167 -98 -76.5c52 -14.667 91.5 -40.5 118.5 -77.5s40.5 -83.833 40.5 -140.5
c0 -78 -27.167 -140.167 -81.5 -186.5s-128.166 -69.5 -221.499 -69.5c-95.333 0 -170.333 23.833 -225 71.5s-82 113.5 -82 197.5v2z" />
    <glyph glyph-name="acute" unicode="&#xb4;" 
d="M479 1200h-92l209 350h152z" />
    <glyph glyph-name="mu" unicode="&#xb5;" horiz-adv-x="1094" 
d="M326 1063l-122.999 -589.998c-6 -28.667 -10.333 -54.334 -13 -77.001s-4 -44 -4 -64c0 -84 20 -148 60 -192s98 -66 174 -66c84.667 0 157.834 36.333 219.501 109s107.167 177 136.5 313l125 567h121l-166 -786c-1.33301 -6 -3 -14 -5 -24
c-13.333 -61.333 -20 -98.666 -20 -111.999c0 -20.667 5.83301 -36.334 17.5 -47.001s28.5 -16 50.5 -16c6 0 12.167 0.166992 18.5 0.5s13.166 0.833008 20.499 1.5l-18 -96c-2 -0.666992 -4.66699 -1.33398 -8 -2.00098c-32.667 -7.33301 -55.334 -11 -68.001 -11
c-45.333 0 -78.833 10.5 -100.5 31.5s-32.5 52.833 -32.5 95.5c0 4.66699 0.166992 10 0.5 16s1.5 15.667 3.5 29c-28.667 -55.333 -69.834 -97.833 -123.501 -127.5s-116.5 -44.5 -188.5 -44.5c-64.667 0 -121.167 15.167 -169.5 45.5s-83.166 72.5 -104.499 126.5
l-119 -567h-121l316 1487h121z" />
    <glyph glyph-name="paragraph" unicode="&#xb6;" 
d="M932 1415h-128.999v-1415h-70v1415h-192v-1415h-70v782c-116.667 5.33301 -209.334 39.5 -278.001 102.5s-103 144.833 -103 245.5c0 104.667 36.167 189 108.5 253s167.833 96 286.5 96h447v-64z" />
    <glyph glyph-name="periodcentered" unicode="&#xb7;" horiz-adv-x="545" 
d="M190 696c0 23.333 8 42.833 24 58.5s35.333 23.5 58 23.5s42 -8 58 -24s24 -35.333 24 -58c0 -22 -8 -41.167 -24 -57.5s-35.333 -24.5 -58 -24.5c-22 0 -41.167 8.16699 -57.5 24.5s-24.5 35.5 -24.5 57.5z" />
    <glyph glyph-name="cedilla" unicode="&#xb8;" 
d="M303 -420l0.00292969 78.002c51.333 -12 96.666 -20.833 135.999 -26.5s73.333 -8.5 102 -8.5c42.667 0 75.167 7.66699 97.5 23s33.5 37.666 33.5 66.999c0 36 -11.667 62.5 -35 79.5s-60.333 25.5 -111 25.5c-12 0 -21.333 -0.166992 -28 -0.5
s-12.667 -0.833008 -18 -1.5l-1 184h66v-111h14c72 0 127.167 -14.667 165.5 -44s57.5 -72 57.5 -128c0 -56.667 -19.333 -100.167 -58 -130.5s-94.334 -45.5 -167.001 -45.5c-38.667 0 -78.834 3.16699 -120.501 9.5s-86.167 16.166 -133.5 29.499z" />
    <glyph glyph-name="onesuperior" unicode="&#xb9;" horiz-adv-x="719" 
d="M360 557l-0.000976562 686c-20 -17.333 -47.333 -29.833 -82 -37.5s-81 -11.5 -139 -11.5h-12v53h4c78.667 0 137.334 13.5 176.001 40.5s60 69.5 64 127.5h78v-858h-89z" />
    <glyph glyph-name="ordmasculine" unicode="&#xba;" horiz-adv-x="858" 
d="M158 1100c0 -100 23.668 -177.666 71.001 -232.999s113.666 -83 198.999 -83c86.667 0 153.334 27.333 200.001 82s70 132.667 70 234s-23.333 179.166 -70 233.499s-113.334 81.5 -200.001 81.5c-86 0 -152.5 -27.5 -199.5 -82.5s-70.5 -132.5 -70.5 -232.5z
M63.001 1100c0 124.667 31.835 221 95.502 289s153.5 102 269.5 102c117.333 0 208.166 -34.167 272.499 -102.5s96.5 -164.5 96.5 -288.5s-32.333 -219.833 -97 -287.5s-155.334 -101.5 -272.001 -101.5c-116 0 -205.833 33.833 -269.5 101.5s-95.5 163.5 -95.5 287.5z" />
    <glyph glyph-name="guillemotright" unicode="&#xbb;" horiz-adv-x="834" 
d="M465 242v133l211 162l-211 163v134l291 -220v-153zM98 242v133l209 162l-209 163v134l291 -220v-153z" />
    <glyph glyph-name="onequarter" unicode="&#xbc;" horiz-adv-x="1716" 
d="M1464 262v422l-311 -422h311zM1464 0v199h-389v63l383 516h90v-516h119v-63h-119v-199h-84zM344 -41l920 1473h104l-919 -1473h-105zM346 612l-0.000976562 638.999c-20 -15.333 -47.167 -26.666 -81.5 -33.999s-78.166 -11 -131.499 -11h-12v49h4
c75.333 0 131.333 12.833 168 38.5s57 65.5 61 119.5h76v-801h-84z" />
    <glyph glyph-name="onehalf" unicode="&#xbd;" horiz-adv-x="1716" 
d="M1071 0l0.00195312 24.9971c0 56.667 17.167 107.334 51.5 152.001s90.833 89.334 169.5 134.001l83 44c74 38 121.667 67 143 87c19.333 20 33.333 39.667 42 59s13 41.333 13 66c0 53.333 -16.833 95 -50.5 125s-80.5 45 -140.5 45
c-65.333 0 -115.833 -17.333 -151.5 -52s-54.167 -84 -55.5 -148h-81c2 84.667 28.333 149.834 79 195.501s121.667 68.5 213 68.5c84 0 150.5 -20.833 199.5 -62.5s73.5 -98.167 73.5 -169.5c0 -32.667 -5.83301 -62.167 -17.5 -88.5s-29.834 -51.166 -54.501 -74.499
c-27.333 -26.667 -83.333 -61.334 -168 -104.001l-69 -36c-66.667 -34.667 -114.834 -67.667 -144.501 -99s-46.5 -66 -50.5 -104h500v-63h-584zM344.002 -41.0029l920 1473h104l-919 -1473h-105zM346.002 611.997l-0.000976562 638.999
c-20 -15.333 -47.167 -26.666 -81.5 -33.999s-78.166 -11 -131.499 -11h-12v49h4c75.333 0 131.333 12.833 168 38.5s57 65.5 61 119.5h76v-801h-84z" />
    <glyph glyph-name="threequarters" unicode="&#xbe;" horiz-adv-x="1714" 
d="M1464 262v422l-311 -422h311zM1464 0v199h-389v63l383 516h90v-516h119v-63h-119v-199h-84zM344 -41l920 1473h104l-919 -1473h-105zM45 842l88 -1c1.33301 -60 19.333 -106.333 54 -139s83.667 -49 147 -49c66.667 0 117.834 15.333 153.501 46s53.5 74.667 53.5 132
c0 56.667 -18.667 98.5 -56 125.5s-94.666 40.5 -171.999 40.5c-10.667 0 -18.834 -0.166992 -24.501 -0.5s-10.167 -0.833008 -13.5 -1.5l-1 60h33c69.333 0 121.5 12.667 156.5 38s52.5 63 52.5 113c0 43.333 -15.667 78.5 -47 105.5s-73 40.5 -125 40.5
c-59.333 0 -105.333 -15.167 -138 -45.5s-50 -73.833 -52 -130.5h-80c3.33301 74.667 28.666 132.834 75.999 174.501s112 62.5 194 62.5c78.667 0 141 -18.667 187 -56s69 -87.666 69 -150.999c0 -39.333 -10.5 -73.833 -31.5 -103.5s-52.167 -53.834 -93.5 -72.501
c49.333 -12 87.333 -35.333 114 -70s40 -78.334 40 -131.001c0 -74 -26 -132.333 -78 -175s-123 -64 -213 -64c-91.333 0 -163 22.167 -215 66.5s-78 105.5 -78 183.5v2z" />
    <glyph glyph-name="questiondown" unicode="&#xbf;" horiz-adv-x="1006" 
d="M455 1288v185h135v-185h-135zM590 1110l-0.00195312 -123.002c0 -52.667 -9.16699 -99.167 -27.5 -139.5s-58.5 -92.166 -120.5 -155.499c-15.333 -16 -38.333 -38.667 -69 -68c-109.333 -105.333 -164 -198 -164 -278c0 -84 25.333 -149.667 76 -197s121 -71 211 -71
c104.667 0 183.834 28.333 237.501 85s81.5 140.667 83.5 252l133 1c-4 -148.667 -45.333 -262 -124 -340s-191 -117 -337 -117c-128.667 0 -231 33.833 -307 101.5s-114 158.834 -114 273.501c0 62 11.833 118 35.5 168s61.834 99.333 114.501 148l40 36
c131.333 120.667 197 225.667 197 315v109h135z" />
    <glyph glyph-name="Agrave" unicode="&#xc0;" horiz-adv-x="1262" 
d="M344 571h571l-286 758zM-10 0l559 1473h162l559 -1473h-142l-167 453h-660l-170 -453h-141zM686 1620l-269 350h152l209 -350h-92z" />
    <glyph glyph-name="Aacute" unicode="&#xc1;" horiz-adv-x="1262" 
d="M344 571h571l-286 758zM-10 0l559 1473h162l559 -1473h-142l-167 453h-660l-170 -453h-141zM620 1620h-92l209 350h152z" />
    <glyph glyph-name="Acircumflex" unicode="&#xc2;" horiz-adv-x="1262" 
d="M344 571h571l-286 758zM-10 0l559 1473h162l559 -1473h-142l-167 453h-660l-170 -453h-141zM377 1620l200 350h152l200 -350h-92l-184 264l-184 -264h-92z" />
    <glyph glyph-name="Atilde" unicode="&#xc3;" horiz-adv-x="1262" 
d="M344 571h571l-286 758zM-10 0l559 1473h162l559 -1473h-142l-167 453h-660l-170 -453h-141zM942 1884c-17.333 -60 -42.167 -105.333 -74.5 -136s-71.166 -46 -116.499 -46c-8.66699 0 -18.5 0.833008 -29.5 2.5s-22.833 4.16699 -35.5 7.5l-96 31
c-8.66699 2.66699 -17.334 4.66699 -26.001 6s-18 2 -28 2c-19.333 0 -37 -6.16699 -53 -18.5s-29 -29.833 -39 -52.5h-80c14.667 58.667 38.667 103.667 72 135s74.333 47 123 47c10.667 0 20.334 -0.666992 29.001 -2s16.667 -3.33301 24 -6l96 -33
c9.33301 -3.33301 18.666 -5.83301 27.999 -7.5s18.666 -2.5 27.999 -2.5c22 0 40.833 6 56.5 18s28.834 30.333 39.501 55h82z" />
    <glyph glyph-name="Adieresis" unicode="&#xc4;" horiz-adv-x="1262" 
d="M344 571h571l-286 758zM-10 0l559 1473h162l559 -1473h-142l-167 453h-660l-170 -453h-141zM743 1698v162h141v-162h-141zM422 1698v162h141v-162h-141z" />
    <glyph glyph-name="Aring" unicode="&#xc5;" horiz-adv-x="1262" 
d="M344 571h571l-286 758zM-10 0l559 1473h162l559 -1473h-142l-167 453h-660l-170 -453h-141zM487 1735c0 -39.333 13.665 -72.833 40.998 -100.5s61 -41.5 101 -41.5c38.667 0 71.834 13.833 99.501 41.5s41.5 61.167 41.5 100.5c0 40 -13.667 73.833 -41 101.5
s-60.666 41.5 -99.999 41.5c-40 0 -73.667 -13.833 -101 -41.5s-41 -61.5 -41 -101.5zM394.998 1737c0 66 22.833 121.667 68.5 167s101.5 68 167.5 68c65.333 0 120.5 -22.833 165.5 -68.5s67.5 -101.167 67.5 -166.5c0 -66 -22.5 -121.833 -67.5 -167.5
s-100.167 -68.5 -165.5 -68.5c-66 0 -121.833 22.833 -167.5 68.5s-68.5 101.5 -68.5 167.5z" />
    <glyph glyph-name="AE" unicode="&#xc6;" horiz-adv-x="1978" 
d="M385 571h567v781h-241zM6 0l617 1473h1249v-121h-782v-537h708v-117h-708v-577h804v-121h-942v453h-614l-191 -453h-141z" />
    <glyph glyph-name="Ccedilla" unicode="&#xc7;" horiz-adv-x="1425" 
d="M1196 481l133 -0.00195312c-11.333 -163.333 -68.833 -291.166 -172.5 -383.499s-242.167 -138.5 -415.5 -138.5c-198 0 -354.333 69.5 -469 208.5s-172 329.5 -172 571.5c0 240 57.833 428.667 173.5 566s272.834 206 471.501 206c166.667 0 301.5 -42.5 404.5 -127.5
s158.167 -198.833 165.5 -341.5h-133c-11.333 108 -56 193.167 -134 255.5s-179 93.5 -303 93.5c-159.333 0 -283.333 -56.833 -372 -170.5s-133 -273.5 -133 -479.5c0 -207.333 45.167 -369.666 135.5 -486.999s215.166 -176 374.499 -176c130 0 234.5 35.667 313.5 107
s123.167 170 132.5 296zM504 -420.002l0.00292969 78.002c51.333 -12 96.666 -20.833 135.999 -26.5s73.333 -8.5 102 -8.5c42.667 0 75.167 7.66699 97.5 23s33.5 37.666 33.5 66.999c0 36 -11.667 62.5 -35 79.5s-60.333 25.5 -111 25.5c-12 0 -21.333 -0.166992 -28 -0.5
s-12.667 -0.833008 -18 -1.5l-1 184h66v-111h14c72 0 127.167 -14.667 165.5 -44s57.5 -72 57.5 -128c0 -56.667 -19.333 -100.167 -58 -130.5s-94.334 -45.5 -167.001 -45.5c-38.667 0 -78.834 3.16699 -120.501 9.5s-86.167 16.166 -133.5 29.499z" />
    <glyph glyph-name="Egrave" unicode="&#xc8;" horiz-adv-x="1239" 
d="M164 0v1473h964v-121h-829v-537h758v-117h-758v-577h854v-121h-989zM692 1620l-269 350h152l209 -350h-92z" />
    <glyph glyph-name="Eacute" unicode="&#xc9;" horiz-adv-x="1239" 
d="M164 0v1473h964v-121h-829v-537h758v-117h-758v-577h854v-121h-989zM626 1620h-92l209 350h152z" />
    <glyph glyph-name="Ecircumflex" unicode="&#xca;" horiz-adv-x="1239" 
d="M164 0v1473h964v-121h-829v-537h758v-117h-758v-577h854v-121h-989zM383 1620l200 350h152l200 -350h-92l-184 264l-184 -264h-92z" />
    <glyph glyph-name="Edieresis" unicode="&#xcb;" horiz-adv-x="1239" 
d="M164 0v1473h964v-121h-829v-537h758v-117h-758v-577h854v-121h-989zM749 1698v162h141v-162h-141zM428 1698v162h141v-162h-141z" />
    <glyph glyph-name="Igrave" unicode="&#xcc;" horiz-adv-x="485" 
d="M172 0v1473h139v-1473h-139zM277 1620l-269 350h152l209 -350h-92z" />
    <glyph glyph-name="Iacute" unicode="&#xcd;" horiz-adv-x="485" 
d="M172 0v1473h139v-1473h-139zM211 1620h-92l209 350h152z" />
    <glyph glyph-name="Icircumflex" unicode="&#xce;" horiz-adv-x="485" 
d="M172 0v1473h139v-1473h-139zM-32 1620l200 350h152l200 -350h-92l-184 264l-184 -264h-92z" />
    <glyph glyph-name="Idieresis" unicode="&#xcf;" horiz-adv-x="485" 
d="M172 0v1473h139v-1473h-139zM334 1698v162h141v-162h-141zM13 1698v162h141v-162h-141z" />
    <glyph glyph-name="Eth" unicode="&#xd0;" horiz-adv-x="1436" 
d="M520 1473l100.999 0.000976562c120.667 0 211 -6.16699 271 -18.5s112.333 -32.833 157 -61.5c90 -57.333 158.833 -141.833 206.5 -253.5s71.5 -245.167 71.5 -400.5c0 -168 -25.833 -308.833 -77.5 -422.5s-128.167 -198.167 -229.5 -253.5
c-42.667 -22.667 -95.167 -38.834 -157.5 -48.501s-157.166 -14.5 -284.499 -14.5h-406v723h-162v100h162v650h348zM308.999 121.001l285 0.000976562c110.667 0 191.5 4.16699 242.5 12.5s93.833 22.5 128.5 42.5c74.667 44.667 130.5 113.167 167.5 205.5
s55.5 210.166 55.5 353.499c0 138 -17.667 252.833 -53 344.5s-88 160.5 -158 206.5c-36 24 -80 41 -132 51s-140.333 15 -265 15h-33h-238v-529h441v-100h-441v-602z" />
    <glyph glyph-name="Ntilde" unicode="&#xd1;" horiz-adv-x="1442" 
d="M164 0v1473h149l832 -1264v1264h131v-1473h-150l-829 1264v-1264h-133zM1010 1884c-17.333 -60 -42.167 -105.333 -74.5 -136s-71.166 -46 -116.499 -46c-8.66699 0 -18.5 0.833008 -29.5 2.5s-22.833 4.16699 -35.5 7.5l-96 31
c-8.66699 2.66699 -17.334 4.66699 -26.001 6s-18 2 -28 2c-19.333 0 -37 -6.16699 -53 -18.5s-29 -29.833 -39 -52.5h-80c14.667 58.667 38.667 103.667 72 135s74.333 47 123 47c10.667 0 20.334 -0.666992 29.001 -2s16.667 -3.33301 24 -6l96 -33
c9.33301 -3.33301 18.666 -5.83301 27.999 -7.5s18.666 -2.5 27.999 -2.5c22 0 40.833 6 56.5 18s28.834 30.333 39.501 55h82z" />
    <glyph glyph-name="Ograve" unicode="&#xd2;" horiz-adv-x="1550" 
d="M240 735c0 -201.333 48 -360.833 144 -478.5s226 -176.5 390 -176.5c164.667 0 295.334 58.667 392.001 176s145 277 145 479c0 202.667 -48.333 363 -145 481s-227.334 177 -392.001 177c-162 0 -291.5 -59.5 -388.5 -178.5s-145.5 -278.833 -145.5 -479.5zM100 735
c0 238.667 60.667 427.667 182 567s285.333 209 492 209c207.333 0 371.833 -69.667 493.5 -209s182.5 -328.333 182.5 -567s-60.833 -427.667 -182.5 -567s-286.167 -209 -493.5 -209c-206.667 0 -370.667 69.667 -492 209s-182 328.333 -182 567zM809 1620l-269 350h152
l209 -350h-92z" />
    <glyph glyph-name="Oacute" unicode="&#xd3;" horiz-adv-x="1550" 
d="M240 735c0 -201.333 48 -360.833 144 -478.5s226 -176.5 390 -176.5c164.667 0 295.334 58.667 392.001 176s145 277 145 479c0 202.667 -48.333 363 -145 481s-227.334 177 -392.001 177c-162 0 -291.5 -59.5 -388.5 -178.5s-145.5 -278.833 -145.5 -479.5zM100 735
c0 238.667 60.667 427.667 182 567s285.333 209 492 209c207.333 0 371.833 -69.667 493.5 -209s182.5 -328.333 182.5 -567s-60.833 -427.667 -182.5 -567s-286.167 -209 -493.5 -209c-206.667 0 -370.667 69.667 -492 209s-182 328.333 -182 567zM743 1620h-92l209 350
h152z" />
    <glyph glyph-name="Ocircumflex" unicode="&#xd4;" horiz-adv-x="1550" 
d="M240 735c0 -201.333 48 -360.833 144 -478.5s226 -176.5 390 -176.5c164.667 0 295.334 58.667 392.001 176s145 277 145 479c0 202.667 -48.333 363 -145 481s-227.334 177 -392.001 177c-162 0 -291.5 -59.5 -388.5 -178.5s-145.5 -278.833 -145.5 -479.5zM100 735
c0 238.667 60.667 427.667 182 567s285.333 209 492 209c207.333 0 371.833 -69.667 493.5 -209s182.5 -328.333 182.5 -567s-60.833 -427.667 -182.5 -567s-286.167 -209 -493.5 -209c-206.667 0 -370.667 69.667 -492 209s-182 328.333 -182 567zM500 1620l200 350h152
l200 -350h-92l-184 264l-184 -264h-92z" />
    <glyph glyph-name="Otilde" unicode="&#xd5;" horiz-adv-x="1550" 
d="M240 735c0 -201.333 48 -360.833 144 -478.5s226 -176.5 390 -176.5c164.667 0 295.334 58.667 392.001 176s145 277 145 479c0 202.667 -48.333 363 -145 481s-227.334 177 -392.001 177c-162 0 -291.5 -59.5 -388.5 -178.5s-145.5 -278.833 -145.5 -479.5zM100 735
c0 238.667 60.667 427.667 182 567s285.333 209 492 209c207.333 0 371.833 -69.667 493.5 -209s182.5 -328.333 182.5 -567s-60.833 -427.667 -182.5 -567s-286.167 -209 -493.5 -209c-206.667 0 -370.667 69.667 -492 209s-182 328.333 -182 567zM1065 1884
c-17.333 -60 -42.167 -105.333 -74.5 -136s-71.166 -46 -116.499 -46c-8.66699 0 -18.5 0.833008 -29.5 2.5s-22.833 4.16699 -35.5 7.5l-96 31c-8.66699 2.66699 -17.334 4.66699 -26.001 6s-18 2 -28 2c-19.333 0 -37 -6.16699 -53 -18.5s-29 -29.833 -39 -52.5h-80
c14.667 58.667 38.667 103.667 72 135s74.333 47 123 47c10.667 0 20.334 -0.666992 29.001 -2s16.667 -3.33301 24 -6l96 -33c9.33301 -3.33301 18.666 -5.83301 27.999 -7.5s18.666 -2.5 27.999 -2.5c22 0 40.833 6 56.5 18s28.834 30.333 39.501 55h82z" />
    <glyph glyph-name="Odieresis" unicode="&#xd6;" horiz-adv-x="1550" 
d="M240 735c0 -201.333 48 -360.833 144 -478.5s226 -176.5 390 -176.5c164.667 0 295.334 58.667 392.001 176s145 277 145 479c0 202.667 -48.333 363 -145 481s-227.334 177 -392.001 177c-162 0 -291.5 -59.5 -388.5 -178.5s-145.5 -278.833 -145.5 -479.5zM100 735
c0 238.667 60.667 427.667 182 567s285.333 209 492 209c207.333 0 371.833 -69.667 493.5 -209s182.5 -328.333 182.5 -567s-60.833 -427.667 -182.5 -567s-286.167 -209 -493.5 -209c-206.667 0 -370.667 69.667 -492 209s-182 328.333 -182 567zM866 1698v162h141v-162
h-141zM545 1698v162h141v-162h-141z" />
    <glyph glyph-name="multiply" unicode="&#xd7;" horiz-adv-x="1706" 
d="M854 668l487 487l58 -57l-488 -488l488 -487l-58 -57l-487 487l-487 -487l-58 57l488 487l-488 488l58 57z" />
    <glyph glyph-name="Oslash" unicode="&#xd8;" horiz-adv-x="1550" 
d="M338 319l799 925.998c-52 48.667 -108.167 85.5 -168.5 110.5s-123.833 37.5 -190.5 37.5c-164 0 -295 -59.5 -393 -178.5s-147 -278.833 -147 -479.5c0 -85.333 8.33301 -162.666 25 -231.999s41.667 -130.666 75 -183.999zM154 -53.002l-82 65l178 203
c-50.667 66 -88.667 142.167 -114 228.5s-38 183.5 -38 291.5c0 238 61.667 426.833 185 566.5s289 209.5 497 209.5c90 0 171.667 -13.667 245 -41s139.333 -68.666 198 -123.999l159 184l80 -66l-168 -196c54.667 -69.333 94.667 -146.333 120 -231
s38 -185.334 38 -302.001c0 -237.333 -60.667 -426 -182 -566s-284.666 -210 -489.999 -210c-96 0 -182.833 14.667 -260.5 44s-145.834 73.333 -204.501 132zM401 237.998c52.667 -53.333 109.999 -93 171.999 -119s130.333 -39 205 -39
c162.667 0 292.834 59.5 390.501 178.5s146.5 279.167 146.5 480.5c0 87.333 -9.33301 166 -28 236s-47 133.333 -85 190z" />
    <glyph glyph-name="Ugrave" unicode="&#xd9;" horiz-adv-x="1427" 
d="M154 1473l134.999 -0.000976562v-928c0 -163.333 33.5 -281.666 100.5 -354.999s174.833 -110 323.5 -110s256.834 36.667 324.501 110s101.5 191.666 101.5 354.999v928h135v-947c0 -187.333 -47 -328.666 -141 -423.999s-234 -143 -420 -143
c-185.333 0 -324.833 47.5 -418.5 142.5s-140.5 236.5 -140.5 424.5v947zM747.999 1620l-269 350h152l209 -350h-92z" />
    <glyph glyph-name="Uacute" unicode="&#xda;" horiz-adv-x="1427" 
d="M154 1473l134.999 -0.000976562v-928c0 -163.333 33.5 -281.666 100.5 -354.999s174.833 -110 323.5 -110s256.834 36.667 324.501 110s101.5 191.666 101.5 354.999v928h135v-947c0 -187.333 -47 -328.666 -141 -423.999s-234 -143 -420 -143
c-185.333 0 -324.833 47.5 -418.5 142.5s-140.5 236.5 -140.5 424.5v947zM681.999 1620h-92l209 350h152z" />
    <glyph glyph-name="Ucircumflex" unicode="&#xdb;" horiz-adv-x="1427" 
d="M154 1473l134.999 -0.000976562v-928c0 -163.333 33.5 -281.666 100.5 -354.999s174.833 -110 323.5 -110s256.834 36.667 324.501 110s101.5 191.666 101.5 354.999v928h135v-947c0 -187.333 -47 -328.666 -141 -423.999s-234 -143 -420 -143
c-185.333 0 -324.833 47.5 -418.5 142.5s-140.5 236.5 -140.5 424.5v947zM438.999 1620l200 350h152l200 -350h-92l-184 264l-184 -264h-92z" />
    <glyph glyph-name="Udieresis" unicode="&#xdc;" horiz-adv-x="1427" 
d="M154 1473l134.999 -0.000976562v-928c0 -163.333 33.5 -281.666 100.5 -354.999s174.833 -110 323.5 -110s256.834 36.667 324.501 110s101.5 191.666 101.5 354.999v928h135v-947c0 -187.333 -47 -328.666 -141 -423.999s-234 -143 -420 -143
c-185.333 0 -324.833 47.5 -418.5 142.5s-140.5 236.5 -140.5 424.5v947zM804.999 1698v162h141v-162h-141zM483.999 1698v162h141v-162h-141z" />
    <glyph glyph-name="Yacute" unicode="&#xdd;" horiz-adv-x="1147" 
d="M506 0v647l-520 826h155l432 -697l433 697h155l-520 -826v-647h-135zM540 1620h-92l209 350h152z" />
    <glyph glyph-name="Thorn" unicode="&#xde;" horiz-adv-x="1237" 
d="M299 494h315.001c145.333 0 249.666 23.333 312.999 70s95 123 95 229c0 99.333 -28.333 172.5 -85 219.5s-145 70.5 -265 70.5h-373v-589zM164.001 0l-0.00195312 1473h135v-269h379c160.667 0 281.334 -34.667 362.001 -104s121 -172.333 121 -309
c0 -142 -45.167 -247.5 -135.5 -316.5s-228.166 -103.5 -413.499 -103.5h-313v-371h-135z" />
    <glyph glyph-name="germandbls" unicode="&#xdf;" horiz-adv-x="1034" 
d="M137 0v1118c0 123.333 30.833 216.333 92.5 279s153.834 94 276.501 94c118.667 0 210.834 -32.667 276.501 -98s98.5 -157 98.5 -275c0 -70 -13.167 -129.5 -39.5 -178.5s-65.166 -86.5 -116.499 -112.5c76.667 -35.333 133.667 -85.666 171 -150.999
s56 -146.666 56 -243.999c0 -139.333 -34.667 -250 -104 -332s-163 -123 -281 -123c-10 0 -23.333 0.833008 -40 2.5s-39.334 4.5 -68.001 8.5v104c8.66699 -1.33301 17.667 -2.33301 27 -3s22.666 -1 39.999 -1c96.667 0 170.667 29 222 87s77 141.667 77 251
c0 116 -31.167 203 -93.5 261s-155.166 87 -278.499 87v94h28c95.333 0 165.333 20.667 210 62s67 106 67 194c0 87.333 -21.333 153.666 -64 198.999s-105.334 68 -188.001 68c-88.667 0 -151.834 -22.5 -189.501 -67.5s-56.5 -122.167 -56.5 -231.5v-1092h-123z" />
    <glyph glyph-name="agrave" unicode="&#xe0;" horiz-adv-x="1098" 
d="M821 557c-32.667 -12 -74.5 -21.667 -125.5 -29s-133.167 -14 -246.5 -20c-78.667 -20.667 -138 -50 -178 -88s-60 -83.667 -60 -137c0 -60.667 21.5 -109 64.5 -145s101.5 -54 175.5 -54c112.667 0 202.5 29.167 269.5 87.5s100.5 137.833 100.5 238.5v147zM829 154
c-56 -60.667 -116.671 -106.003 -182.004 -136.003s-135.666 -45 -210.999 -45c-107.333 0 -192.833 28 -256.5 84s-95.5 130.667 -95.5 224c0 60.667 14.5 113.667 43.5 159s71.167 81 126.5 107c63.333 28.667 169 48.667 317 60c28.667 2 50.334 3.66699 65.001 5
c8.66699 2 20.334 4.33301 35.001 7c101.333 20.667 152 64.334 152 131.001c0 82.667 -20.5 141.834 -61.5 177.501s-108.5 53.5 -202.5 53.5c-95.333 0 -168.333 -19.833 -219 -59.5s-78 -98.5 -82 -176.5l-121 1c2.66699 106 41.667 189.833 117 251.5s177 92.5 305 92.5
c127.333 0 224 -27.333 290 -82s99 -134.667 99 -240v-580c0 -44 5.33301 -71.333 16 -82s30.667 -16 60 -16c9.33301 0 17.333 0.166992 24 0.5s13.667 0.833008 21 1.5v-92c-15.333 -3.33301 -30.666 -5.83301 -45.999 -7.5s-29.333 -2.5 -42 -2.5
c-50.667 0 -88.667 12.333 -114 37s-38 61.334 -38 110.001v17zM589.996 1200l-269 350h152l209 -350h-92z" />
    <glyph glyph-name="aacute" unicode="&#xe1;" horiz-adv-x="1098" 
d="M821 557c-32.667 -12 -74.5 -21.667 -125.5 -29s-133.167 -14 -246.5 -20c-78.667 -20.667 -138 -50 -178 -88s-60 -83.667 -60 -137c0 -60.667 21.5 -109 64.5 -145s101.5 -54 175.5 -54c112.667 0 202.5 29.167 269.5 87.5s100.5 137.833 100.5 238.5v147zM829 154
c-56 -60.667 -116.671 -106.003 -182.004 -136.003s-135.666 -45 -210.999 -45c-107.333 0 -192.833 28 -256.5 84s-95.5 130.667 -95.5 224c0 60.667 14.5 113.667 43.5 159s71.167 81 126.5 107c63.333 28.667 169 48.667 317 60c28.667 2 50.334 3.66699 65.001 5
c8.66699 2 20.334 4.33301 35.001 7c101.333 20.667 152 64.334 152 131.001c0 82.667 -20.5 141.834 -61.5 177.501s-108.5 53.5 -202.5 53.5c-95.333 0 -168.333 -19.833 -219 -59.5s-78 -98.5 -82 -176.5l-121 1c2.66699 106 41.667 189.833 117 251.5s177 92.5 305 92.5
c127.333 0 224 -27.333 290 -82s99 -134.667 99 -240v-580c0 -44 5.33301 -71.333 16 -82s30.667 -16 60 -16c9.33301 0 17.333 0.166992 24 0.5s13.667 0.833008 21 1.5v-92c-15.333 -3.33301 -30.666 -5.83301 -45.999 -7.5s-29.333 -2.5 -42 -2.5
c-50.667 0 -88.667 12.333 -114 37s-38 61.334 -38 110.001v17zM523.996 1200h-92l209 350h152z" />
    <glyph glyph-name="acircumflex" unicode="&#xe2;" horiz-adv-x="1098" 
d="M821 557c-32.667 -12 -74.5 -21.667 -125.5 -29s-133.167 -14 -246.5 -20c-78.667 -20.667 -138 -50 -178 -88s-60 -83.667 -60 -137c0 -60.667 21.5 -109 64.5 -145s101.5 -54 175.5 -54c112.667 0 202.5 29.167 269.5 87.5s100.5 137.833 100.5 238.5v147zM829 154
c-56 -60.667 -116.671 -106.003 -182.004 -136.003s-135.666 -45 -210.999 -45c-107.333 0 -192.833 28 -256.5 84s-95.5 130.667 -95.5 224c0 60.667 14.5 113.667 43.5 159s71.167 81 126.5 107c63.333 28.667 169 48.667 317 60c28.667 2 50.334 3.66699 65.001 5
c8.66699 2 20.334 4.33301 35.001 7c101.333 20.667 152 64.334 152 131.001c0 82.667 -20.5 141.834 -61.5 177.501s-108.5 53.5 -202.5 53.5c-95.333 0 -168.333 -19.833 -219 -59.5s-78 -98.5 -82 -176.5l-121 1c2.66699 106 41.667 189.833 117 251.5s177 92.5 305 92.5
c127.333 0 224 -27.333 290 -82s99 -134.667 99 -240v-580c0 -44 5.33301 -71.333 16 -82s30.667 -16 60 -16c9.33301 0 17.333 0.166992 24 0.5s13.667 0.833008 21 1.5v-92c-15.333 -3.33301 -30.666 -5.83301 -45.999 -7.5s-29.333 -2.5 -42 -2.5
c-50.667 0 -88.667 12.333 -114 37s-38 61.334 -38 110.001v17zM280.996 1200l200 350h152l200 -350h-92l-184 264l-184 -264h-92z" />
    <glyph glyph-name="atilde" unicode="&#xe3;" horiz-adv-x="1098" 
d="M821 557c-32.667 -12 -74.5 -21.667 -125.5 -29s-133.167 -14 -246.5 -20c-78.667 -20.667 -138 -50 -178 -88s-60 -83.667 -60 -137c0 -60.667 21.5 -109 64.5 -145s101.5 -54 175.5 -54c112.667 0 202.5 29.167 269.5 87.5s100.5 137.833 100.5 238.5v147zM829 154
c-56 -60.667 -116.671 -106.003 -182.004 -136.003s-135.666 -45 -210.999 -45c-107.333 0 -192.833 28 -256.5 84s-95.5 130.667 -95.5 224c0 60.667 14.5 113.667 43.5 159s71.167 81 126.5 107c63.333 28.667 169 48.667 317 60c28.667 2 50.334 3.66699 65.001 5
c8.66699 2 20.334 4.33301 35.001 7c101.333 20.667 152 64.334 152 131.001c0 82.667 -20.5 141.834 -61.5 177.501s-108.5 53.5 -202.5 53.5c-95.333 0 -168.333 -19.833 -219 -59.5s-78 -98.5 -82 -176.5l-121 1c2.66699 106 41.667 189.833 117 251.5s177 92.5 305 92.5
c127.333 0 224 -27.333 290 -82s99 -134.667 99 -240v-580c0 -44 5.33301 -71.333 16 -82s30.667 -16 60 -16c9.33301 0 17.333 0.166992 24 0.5s13.667 0.833008 21 1.5v-92c-15.333 -3.33301 -30.666 -5.83301 -45.999 -7.5s-29.333 -2.5 -42 -2.5
c-50.667 0 -88.667 12.333 -114 37s-38 61.334 -38 110.001v17zM845.996 1464c-17.333 -60 -42.167 -105.333 -74.5 -136s-71.166 -46 -116.499 -46c-8.66699 0 -18.5 0.833008 -29.5 2.5s-22.833 4.16699 -35.5 7.5l-96 31c-8.66699 2.66699 -17.334 4.66699 -26.001 6
s-18 2 -28 2c-19.333 0 -37 -6.16699 -53 -18.5s-29 -29.833 -39 -52.5h-80c14.667 58.667 38.667 103.667 72 135s74.333 47 123 47c10.667 0 20.334 -0.666992 29.001 -2s16.667 -3.33301 24 -6l96 -33c9.33301 -3.33301 18.666 -5.83301 27.999 -7.5
s18.666 -2.5 27.999 -2.5c22 0 40.833 6 56.5 18s28.834 30.333 39.501 55h82z" />
    <glyph glyph-name="adieresis" unicode="&#xe4;" horiz-adv-x="1098" 
d="M821 557c-32.667 -12 -74.5 -21.667 -125.5 -29s-133.167 -14 -246.5 -20c-78.667 -20.667 -138 -50 -178 -88s-60 -83.667 -60 -137c0 -60.667 21.5 -109 64.5 -145s101.5 -54 175.5 -54c112.667 0 202.5 29.167 269.5 87.5s100.5 137.833 100.5 238.5v147zM829 154
c-56 -60.667 -116.671 -106.003 -182.004 -136.003s-135.666 -45 -210.999 -45c-107.333 0 -192.833 28 -256.5 84s-95.5 130.667 -95.5 224c0 60.667 14.5 113.667 43.5 159s71.167 81 126.5 107c63.333 28.667 169 48.667 317 60c28.667 2 50.334 3.66699 65.001 5
c8.66699 2 20.334 4.33301 35.001 7c101.333 20.667 152 64.334 152 131.001c0 82.667 -20.5 141.834 -61.5 177.501s-108.5 53.5 -202.5 53.5c-95.333 0 -168.333 -19.833 -219 -59.5s-78 -98.5 -82 -176.5l-121 1c2.66699 106 41.667 189.833 117 251.5s177 92.5 305 92.5
c127.333 0 224 -27.333 290 -82s99 -134.667 99 -240v-580c0 -44 5.33301 -71.333 16 -82s30.667 -16 60 -16c9.33301 0 17.333 0.166992 24 0.5s13.667 0.833008 21 1.5v-92c-15.333 -3.33301 -30.666 -5.83301 -45.999 -7.5s-29.333 -2.5 -42 -2.5
c-50.667 0 -88.667 12.333 -114 37s-38 61.334 -38 110.001v17zM646.996 1278v162h141v-162h-141zM325.996 1278v162h141v-162h-141z" />
    <glyph glyph-name="aring" unicode="&#xe5;" horiz-adv-x="1098" 
d="M410 1395c0 -42.667 14.334 -78.667 43.001 -108s64 -44 106 -44c41.333 0 76.666 14.833 105.999 44.5s44 65.5 44 107.5s-14.5 77.333 -43.5 106s-64.5 43 -106.5 43s-77.333 -14.333 -106 -43s-43 -64 -43 -106zM317.001 1395c0 67.333 23.333 124 70 170
s104 69 172 69c67.333 0 124.166 -23 170.499 -69s69.5 -102.667 69.5 -170c0 -68 -23.167 -125.333 -69.5 -172s-103.166 -70 -170.499 -70s-124.5 23.333 -171.5 70s-70.5 104 -70.5 172zM821.001 557c-51.333 -19.333 -157.333 -36 -318 -50
c-24.667 -2.66699 -42.667 -4.33398 -54 -5.00098c-78 -17.333 -137.167 -44.666 -177.5 -81.999s-60.5 -83 -60.5 -137c0 -60.667 21.5 -109 64.5 -145s101.5 -54 175.5 -54c112.667 0 202.5 29.167 269.5 87.5s100.5 137.833 100.5 238.5v147zM829.001 154
c-56 -60.667 -116.671 -106.003 -182.004 -136.003s-135.666 -45 -210.999 -45c-107.333 0 -192.833 28 -256.5 84s-95.5 130.667 -95.5 224c0 60.667 14.5 113.667 43.5 159s71.167 81 126.5 107c63.333 28.667 169 48.667 317 60c28.667 2 50.334 3.66699 65.001 5
c8.66699 2 20.334 4.33301 35.001 7c101.333 20.667 152 64.334 152 131.001c0 82.667 -20.5 141.834 -61.5 177.501s-108.5 53.5 -202.5 53.5c-95.333 0 -168.333 -19.833 -219 -59.5s-78 -98.5 -82 -176.5l-121 1c2.66699 106 41.667 189.833 117 251.5s177 92.5 305 92.5
c127.333 0 224 -27.333 290 -82s99 -134.667 99 -240v-580c0 -44 5.33301 -71.333 16 -82s30.667 -16 60 -16c9.33301 0 17.333 0.166992 24 0.5s13.667 0.833008 21 1.5v-92c-15.333 -3.33301 -30.666 -5.83301 -45.999 -7.5s-29.333 -2.5 -42 -2.5
c-50.667 0 -88.667 12.333 -114 37s-38 61.334 -38 110.001v17z" />
    <glyph glyph-name="ae" unicode="&#xe6;" horiz-adv-x="1808" 
d="M797 561c-46 -20.667 -128 -38.334 -246 -53.001c-56.667 -7.33301 -99.667 -13.666 -129 -18.999c-76 -12.667 -132.5 -36.667 -169.5 -72s-55.5 -82.333 -55.5 -141c0 -61.333 19.5 -109.333 58.5 -144s93.833 -52 164.5 -52c120.667 0 213.667 28 279 84
s98 135.667 98 239v158zM924 606l667 0.000976562c-0.666992 118 -30 210 -88 276s-138.333 99 -241 99c-97.333 0 -176.5 -33.833 -237.5 -101.5s-94.5 -158.834 -100.5 -273.501zM858 213.001c-47.333 -78 -108.667 -137.499 -184 -178.499s-161.333 -61.5 -258 -61.5
c-106 0 -190.5 27.833 -253.5 83.5s-94.5 129.834 -94.5 222.501c0 55.333 12.5 105.166 37.5 149.499s60.167 78.833 105.5 103.5c64.667 35.333 174.667 61.333 330 78c10 1.33301 17.333 2 22 2c111.333 12.667 178.5 26.667 201.5 42s34.5 48.666 34.5 99.999
c0 80 -20.667 137.833 -62 173.5s-108 53.5 -200 53.5c-94.667 0 -167.167 -20 -217.5 -60s-75.5 -97.667 -75.5 -173v-5h-123c0 108.667 36 193.667 108 255s172.333 92 301 92c97.333 0 177.5 -15.167 240.5 -45.5s108.5 -75.5 136.5 -135.5
c47.333 60.667 100.166 106 158.499 136s123.166 45 194.499 45c146.667 0 260 -46 340 -138s120 -222.333 120 -391c0 -5.33301 -0.333008 -14 -1 -26s-1 -21 -1 -27h-798v-19c0 -126.667 30.5 -226.5 91.5 -299.5s144.5 -109.5 250.5 -109.5
c89.333 0 162.333 21.833 219 65.5s90.667 104.5 102 182.5h125c-13.333 -105.333 -60.666 -190.833 -141.999 -256.5s-180.666 -98.5 -297.999 -98.5c-98.667 0 -183 20.5 -253 61.5s-122.333 100.5 -157 178.5z" />
    <glyph glyph-name="ccedilla" unicode="&#xe7;" horiz-adv-x="1057" 
d="M868 367h123c-11.333 -122 -56.333 -218.167 -135 -288.5s-181 -105.5 -307 -105.5c-144 0 -257.5 49.333 -340.5 148s-124.5 233 -124.5 403c0 176 42.167 314.333 126.5 415s199.833 151 346.5 151c119.333 0 217.5 -33.5 294.5 -100.5s118.5 -155.167 124.5 -264.5
h-118c-10 77.333 -42.5 139.333 -97.5 186s-122.833 70 -203.5 70c-106 0 -190.167 -40 -252.5 -120s-93.5 -188.667 -93.5 -326c0 -140.667 31.5 -252 94.5 -334s147.5 -123 253.5 -123c82.667 0 151.667 25.667 207 77s89.333 122 102 212zM319 -420l0.00292969 78.002
c51.333 -12 96.666 -20.833 135.999 -26.5s73.333 -8.5 102 -8.5c42.667 0 75.167 7.66699 97.5 23s33.5 37.666 33.5 66.999c0 36 -11.667 62.5 -35 79.5s-60.333 25.5 -111 25.5c-12 0 -21.333 -0.166992 -28 -0.5s-12.667 -0.833008 -18 -1.5l-1 184h66v-111h14
c72 0 127.167 -14.667 165.5 -44s57.5 -72 57.5 -128c0 -56.667 -19.333 -100.167 -58 -130.5s-94.334 -45.5 -167.001 -45.5c-38.667 0 -78.834 3.16699 -120.501 9.5s-86.167 16.166 -133.5 29.499z" />
    <glyph glyph-name="egrave" unicode="&#xe8;" horiz-adv-x="1085" 
d="M209 508l-0.000976562 -5.99902c0 -130 31.333 -233.5 94 -310.5s146.667 -115.5 252 -115.5c83.333 0 153 22.5 209 67.5s90 106.5 102 184.5h123c-13.333 -108 -60 -194.5 -140 -259.5s-180.667 -97.5 -302 -97.5c-144.667 0 -258 49 -340 147s-123 234 -123 408
c0 177.333 41.167 315.666 123.5 414.999s196.833 149 343.5 149c142.667 0 253.834 -47.5 333.501 -142.5s119.5 -227.833 119.5 -398.5v-41h-795zM210.999 607.001l665.999 -1c-5.33301 117.333 -37.166 209.5 -95.499 276.5s-135.833 100.5 -232.5 100.5
c-97.333 0 -176.5 -34 -237.5 -102s-94.5 -159.333 -100.5 -274zM575.998 1200l-269 350h152l209 -350h-92z" />
    <glyph glyph-name="eacute" unicode="&#xe9;" horiz-adv-x="1085" 
d="M209 508l-0.000976562 -5.99902c0 -130 31.333 -233.5 94 -310.5s146.667 -115.5 252 -115.5c83.333 0 153 22.5 209 67.5s90 106.5 102 184.5h123c-13.333 -108 -60 -194.5 -140 -259.5s-180.667 -97.5 -302 -97.5c-144.667 0 -258 49 -340 147s-123 234 -123 408
c0 177.333 41.167 315.666 123.5 414.999s196.833 149 343.5 149c142.667 0 253.834 -47.5 333.501 -142.5s119.5 -227.833 119.5 -398.5v-41h-795zM210.999 607.001l665.999 -1c-5.33301 117.333 -37.166 209.5 -95.499 276.5s-135.833 100.5 -232.5 100.5
c-97.333 0 -176.5 -34 -237.5 -102s-94.5 -159.333 -100.5 -274zM509.998 1200h-92l209 350h152z" />
    <glyph glyph-name="ecircumflex" unicode="&#xea;" horiz-adv-x="1085" 
d="M209 508l-0.000976562 -5.99902c0 -130 31.333 -233.5 94 -310.5s146.667 -115.5 252 -115.5c83.333 0 153 22.5 209 67.5s90 106.5 102 184.5h123c-13.333 -108 -60 -194.5 -140 -259.5s-180.667 -97.5 -302 -97.5c-144.667 0 -258 49 -340 147s-123 234 -123 408
c0 177.333 41.167 315.666 123.5 414.999s196.833 149 343.5 149c142.667 0 253.834 -47.5 333.501 -142.5s119.5 -227.833 119.5 -398.5v-41h-795zM210.999 607.001l665.999 -1c-5.33301 117.333 -37.166 209.5 -95.499 276.5s-135.833 100.5 -232.5 100.5
c-97.333 0 -176.5 -34 -237.5 -102s-94.5 -159.333 -100.5 -274zM266.998 1200l200 350h152l200 -350h-92l-184 264l-184 -264h-92z" />
    <glyph glyph-name="edieresis" unicode="&#xeb;" horiz-adv-x="1085" 
d="M209 508l-0.000976562 -5.99902c0 -130 31.333 -233.5 94 -310.5s146.667 -115.5 252 -115.5c83.333 0 153 22.5 209 67.5s90 106.5 102 184.5h123c-13.333 -108 -60 -194.5 -140 -259.5s-180.667 -97.5 -302 -97.5c-144.667 0 -258 49 -340 147s-123 234 -123 408
c0 177.333 41.167 315.666 123.5 414.999s196.833 149 343.5 149c142.667 0 253.834 -47.5 333.501 -142.5s119.5 -227.833 119.5 -398.5v-41h-795zM210.999 607.001l665.999 -1c-5.33301 117.333 -37.166 209.5 -95.499 276.5s-135.833 100.5 -232.5 100.5
c-97.333 0 -176.5 -34 -237.5 -102s-94.5 -159.333 -100.5 -274zM632.998 1278v162h141v-162h-141zM311.998 1278v162h141v-162h-141z" />
    <glyph glyph-name="igrave" unicode="&#xec;" horiz-adv-x="422" 
d="M150 0v1063h122v-1063h-122zM244 1200l-269 350h152l209 -350h-92z" />
    <glyph glyph-name="iacute" unicode="&#xed;" horiz-adv-x="422" 
d="M150 0v1063h122v-1063h-122zM178 1200h-92l209 350h152z" />
    <glyph glyph-name="icircumflex" unicode="&#xee;" horiz-adv-x="422" 
d="M150 0v1063h122v-1063h-122zM-65 1200l200 350h152l200 -350h-92l-184 264l-184 -264h-92z" />
    <glyph glyph-name="idieresis" unicode="&#xef;" horiz-adv-x="422" 
d="M150 0v1063h122v-1063h-122zM301 1278v162h141v-162h-141zM-20 1278v162h141v-162h-141z" />
    <glyph glyph-name="eth" unicode="&#xf0;" horiz-adv-x="1143" 
d="M764 1004c-24.667 36 -55.002 71.668 -91.002 107.001s-78.667 70.666 -128 105.999l-277 -144l-30 70l229 123c-35.333 22 -74 42.833 -116 62.5s-88 38.167 -138 55.5l29 99c46 -14 97.667 -34 155 -60s121 -58.667 191 -98l254 135l35 -67l-222 -119
c134.667 -104.667 236 -220.5 304 -347.5s102 -263.167 102 -408.5c0 -175.333 -42.333 -310 -127 -404s-205.667 -141 -363 -141c-155.333 0 -275.333 46.5 -360 139.5s-127 225.5 -127 397.5c0 164.667 41.833 296 125.5 394s194.834 147 333.501 147
c40.667 0 78.834 -3.83301 114.501 -11.5s71.167 -19.5 106.5 -35.5zM210.998 518.001c0 -138.667 31.333 -246 94 -322s151.334 -114 266.001 -114s203.5 38 266.5 114s94.5 183.333 94.5 322c0 139.333 -31.333 246.833 -94 322.5s-151.667 113.5 -267 113.5
c-114.667 0 -203.334 -37.833 -266.001 -113.5s-94 -183.167 -94 -322.5z" />
    <glyph glyph-name="ntilde" unicode="&#xf1;" horiz-adv-x="1104" 
d="M137 0l0.00195312 1063h119v-170c40 65.333 89.333 114.5 148 147.5s126.667 49.5 204 49.5c73.333 0 137.666 -13 192.999 -39s97.666 -63 126.999 -111c15.333 -24.667 26.333 -54.5 33 -89.5s10 -92.5 10 -172.5v-31v-647h-127v659
c0 124.667 -19.167 209.167 -57.5 253.5s-105.833 66.5 -202.5 66.5c-99.333 0 -177.833 -31.5 -235.5 -94.5s-86.5 -148.833 -86.5 -257.5v-627h-125zM883.002 1464c-17.333 -60 -42.167 -105.333 -74.5 -136s-71.166 -46 -116.499 -46
c-8.66699 0 -18.5 0.833008 -29.5 2.5s-22.833 4.16699 -35.5 7.5l-96 31c-8.66699 2.66699 -17.334 4.66699 -26.001 6s-18 2 -28 2c-19.333 0 -37 -6.16699 -53 -18.5s-29 -29.833 -39 -52.5h-80c14.667 58.667 38.667 103.667 72 135s74.333 47 123 47
c10.667 0 20.334 -0.666992 29.001 -2s16.667 -3.33301 24 -6l96 -33c9.33301 -3.33301 18.666 -5.83301 27.999 -7.5s18.666 -2.5 27.999 -2.5c22 0 40.833 6 56.5 18s28.834 30.333 39.501 55h82z" />
    <glyph glyph-name="ograve" unicode="&#xf2;" horiz-adv-x="1143" 
d="M211 530c0 -142.667 31.5 -253.333 94.5 -332s151.5 -118 265.5 -118c115.333 0 204.333 39 267 117s94 189 94 333s-31.333 255.167 -94 333.5s-151.667 117.5 -267 117.5c-114 0 -202.5 -39.333 -265.5 -118s-94.5 -189.667 -94.5 -333zM84 530.001
c0 178 42.5 315.833 127.5 413.5s204.833 146.5 359.5 146.5c155.333 0 275.833 -48.833 361.5 -146.5s128.5 -235.5 128.5 -413.5c0 -176.667 -42.667 -313.667 -128 -411s-206 -146 -362 -146c-154.667 0 -274.5 48.5 -359.5 145.5s-127.5 234.167 -127.5 411.5zM604 1200
l-269 350h152l209 -350h-92z" />
    <glyph glyph-name="oacute" unicode="&#xf3;" horiz-adv-x="1143" 
d="M211 530c0 -142.667 31.5 -253.333 94.5 -332s151.5 -118 265.5 -118c115.333 0 204.333 39 267 117s94 189 94 333s-31.333 255.167 -94 333.5s-151.667 117.5 -267 117.5c-114 0 -202.5 -39.333 -265.5 -118s-94.5 -189.667 -94.5 -333zM84 530.001
c0 178 42.5 315.833 127.5 413.5s204.833 146.5 359.5 146.5c155.333 0 275.833 -48.833 361.5 -146.5s128.5 -235.5 128.5 -413.5c0 -176.667 -42.667 -313.667 -128 -411s-206 -146 -362 -146c-154.667 0 -274.5 48.5 -359.5 145.5s-127.5 234.167 -127.5 411.5zM538 1200
h-92l209 350h152z" />
    <glyph glyph-name="ocircumflex" unicode="&#xf4;" horiz-adv-x="1143" 
d="M211 530c0 -142.667 31.5 -253.333 94.5 -332s151.5 -118 265.5 -118c115.333 0 204.333 39 267 117s94 189 94 333s-31.333 255.167 -94 333.5s-151.667 117.5 -267 117.5c-114 0 -202.5 -39.333 -265.5 -118s-94.5 -189.667 -94.5 -333zM84 530.001
c0 178 42.5 315.833 127.5 413.5s204.833 146.5 359.5 146.5c155.333 0 275.833 -48.833 361.5 -146.5s128.5 -235.5 128.5 -413.5c0 -176.667 -42.667 -313.667 -128 -411s-206 -146 -362 -146c-154.667 0 -274.5 48.5 -359.5 145.5s-127.5 234.167 -127.5 411.5zM295 1200
l200 350h152l200 -350h-92l-184 264l-184 -264h-92z" />
    <glyph glyph-name="otilde" unicode="&#xf5;" horiz-adv-x="1143" 
d="M211 530c0 -142.667 31.5 -253.333 94.5 -332s151.5 -118 265.5 -118c115.333 0 204.333 39 267 117s94 189 94 333s-31.333 255.167 -94 333.5s-151.667 117.5 -267 117.5c-114 0 -202.5 -39.333 -265.5 -118s-94.5 -189.667 -94.5 -333zM84 530.001
c0 178 42.5 315.833 127.5 413.5s204.833 146.5 359.5 146.5c155.333 0 275.833 -48.833 361.5 -146.5s128.5 -235.5 128.5 -413.5c0 -176.667 -42.667 -313.667 -128 -411s-206 -146 -362 -146c-154.667 0 -274.5 48.5 -359.5 145.5s-127.5 234.167 -127.5 411.5zM860 1464
c-17.333 -60 -42.167 -105.333 -74.5 -136s-71.166 -46 -116.499 -46c-8.66699 0 -18.5 0.833008 -29.5 2.5s-22.833 4.16699 -35.5 7.5l-96 31c-8.66699 2.66699 -17.334 4.66699 -26.001 6s-18 2 -28 2c-19.333 0 -37 -6.16699 -53 -18.5s-29 -29.833 -39 -52.5h-80
c14.667 58.667 38.667 103.667 72 135s74.333 47 123 47c10.667 0 20.334 -0.666992 29.001 -2s16.667 -3.33301 24 -6l96 -33c9.33301 -3.33301 18.666 -5.83301 27.999 -7.5s18.666 -2.5 27.999 -2.5c22 0 40.833 6 56.5 18s28.834 30.333 39.501 55h82z" />
    <glyph glyph-name="odieresis" unicode="&#xf6;" horiz-adv-x="1143" 
d="M211 530c0 -142.667 31.5 -253.333 94.5 -332s151.5 -118 265.5 -118c115.333 0 204.333 39 267 117s94 189 94 333s-31.333 255.167 -94 333.5s-151.667 117.5 -267 117.5c-114 0 -202.5 -39.333 -265.5 -118s-94.5 -189.667 -94.5 -333zM84 530.001
c0 178 42.5 315.833 127.5 413.5s204.833 146.5 359.5 146.5c155.333 0 275.833 -48.833 361.5 -146.5s128.5 -235.5 128.5 -413.5c0 -176.667 -42.667 -313.667 -128 -411s-206 -146 -362 -146c-154.667 0 -274.5 48.5 -359.5 145.5s-127.5 234.167 -127.5 411.5zM661 1278
v162h141v-162h-141zM340 1278v162h141v-162h-141z" />
    <glyph glyph-name="divide" unicode="&#xf7;" horiz-adv-x="1706" 
d="M854 365c27.333 0 50.5 -9.83301 69.5 -29.5s28.5 -43.5 28.5 -71.5c0 -26.667 -9.5 -49.667 -28.5 -69s-42.167 -29 -69.5 -29s-50.5 9.5 -69.5 28.5s-28.5 42.167 -28.5 69.5s9.66699 51 29 71s42.333 30 69 30zM1452 651v-82h-1198v82h1198zM854 1055
c27.333 0 50.5 -9.49902 69.5 -28.499s28.5 -42.5 28.5 -70.5c0 -26.667 -9.5 -50 -28.5 -70s-42.167 -30 -69.5 -30s-50.5 9.83301 -69.5 29.5s-28.5 43.167 -28.5 70.5s9.5 50.666 28.5 69.999s42.167 29 69.5 29z" />
    <glyph glyph-name="oslash" unicode="&#xf8;" horiz-adv-x="1143" 
d="M324 182c30.667 -34 66.833 -59.5 108.5 -76.5s88.5 -25.5 140.5 -25.5c115.333 0 204.333 39 267 117s94 189 94 333c0 64 -6 120 -18 168s-30 89.667 -54 125zM280.999 231l540 649.999c-32.667 33.333 -69.167 58.333 -109.5 75s-85.833 25 -136.5 25
c-116.667 0 -206.5 -39 -269.5 -117s-94.5 -190 -94.5 -336c0 -59.333 5.83301 -113.666 17.5 -162.999s29.167 -94 52.5 -134zM91.999 7.99902l106.999 126.998c-39.333 52 -68.333 111.5 -87 178.5s-28 146.167 -28 237.5c0 164 44.333 294.833 133 392.5
s207.334 146.5 356.001 146.5c69.333 0 130.5 -9.33301 183.5 -28s101.167 -47.667 144.5 -87l100 119l52 -43l-107 -127c39.333 -49.333 68.333 -105.666 87 -168.999s28 -136.666 28 -219.999c0 -180 -42.333 -318.667 -127 -416s-205 -146 -361 -146
c-68 0 -129.5 9.5 -184.5 28.5s-103.167 47.167 -144.5 84.5l-101 -121z" />
    <glyph glyph-name="ugrave" unicode="&#xf9;" horiz-adv-x="1108" 
d="M969 1063v-1063h-119v170c-40.667 -67.333 -90.167 -117.333 -148.5 -150s-127.5 -49 -207.5 -49c-120 0 -210.167 31.5 -270.5 94.5s-90.5 157.167 -90.5 282.5v715h123v-686c0 -106 20 -181.333 60 -226s106.667 -67 200 -67c102 0 182.5 31.167 241.5 93.5
s88.5 147.833 88.5 256.5v629h123zM588 1200l-269 350h152l209 -350h-92z" />
    <glyph glyph-name="uacute" unicode="&#xfa;" horiz-adv-x="1108" 
d="M969 1063v-1063h-119v170c-40.667 -67.333 -90.167 -117.333 -148.5 -150s-127.5 -49 -207.5 -49c-120 0 -210.167 31.5 -270.5 94.5s-90.5 157.167 -90.5 282.5v715h123v-686c0 -106 20 -181.333 60 -226s106.667 -67 200 -67c102 0 182.5 31.167 241.5 93.5
s88.5 147.833 88.5 256.5v629h123zM522 1200h-92l209 350h152z" />
    <glyph glyph-name="ucircumflex" unicode="&#xfb;" horiz-adv-x="1108" 
d="M969 1063v-1063h-119v170c-40.667 -67.333 -90.167 -117.333 -148.5 -150s-127.5 -49 -207.5 -49c-120 0 -210.167 31.5 -270.5 94.5s-90.5 157.167 -90.5 282.5v715h123v-686c0 -106 20 -181.333 60 -226s106.667 -67 200 -67c102 0 182.5 31.167 241.5 93.5
s88.5 147.833 88.5 256.5v629h123zM279 1200l200 350h152l200 -350h-92l-184 264l-184 -264h-92z" />
    <glyph glyph-name="udieresis" unicode="&#xfc;" horiz-adv-x="1108" 
d="M969 1063v-1063h-119v170c-40.667 -67.333 -90.167 -117.333 -148.5 -150s-127.5 -49 -207.5 -49c-120 0 -210.167 31.5 -270.5 94.5s-90.5 157.167 -90.5 282.5v715h123v-686c0 -106 20 -181.333 60 -226s106.667 -67 200 -67c102 0 182.5 31.167 241.5 93.5
s88.5 147.833 88.5 256.5v629h123zM645 1278v162h141v-162h-141zM324 1278v162h141v-162h-141z" />
    <glyph glyph-name="yacute" unicode="&#xfd;" horiz-adv-x="954" 
d="M467 -207c-30.667 -82.667 -67.8359 -141.5 -111.503 -176.5s-101.5 -52.5 -173.5 -52.5c-17.333 0 -32.666 0.833008 -45.999 2.5s-26.666 4.5 -39.999 8.5v111c22.667 -3.33301 40.5 -5.83301 53.5 -7.5s23.167 -2.5 30.5 -2.5c44.667 0 79.834 11.667 105.501 35
s52.167 71.333 79.5 144l49 133l-414 1075h131l344 -907l336 907h127zM443.998 1200h-92l209 350h152z" />
    <glyph glyph-name="thorn" unicode="&#xfe;" horiz-adv-x="1188" 
d="M141 -428v1901h125v-601c40 74 90.333 128.833 151 164.5s134 53.5 220 53.5c146 0 261 -50 345 -150s126 -236.667 126 -410c0 -174 -42.5 -310.667 -127.5 -410s-201.5 -149 -349.5 -149c-82 0 -153 17.667 -213 53s-110.667 88.666 -152 159.999v-612h-125z
M260 530.001c0 -140.667 31.667 -250.833 95 -330.5s151 -119.5 263 -119.5c116 0 205.167 39 267.5 117s93.5 189 93.5 333c0 143.333 -31.5 254.333 -94.5 333s-151.833 118 -266.5 118s-203 -39 -265 -117s-93 -189.333 -93 -334z" />
    <glyph glyph-name="ydieresis" unicode="&#xff;" horiz-adv-x="954" 
d="M467 -207c-30.667 -82.667 -67.8359 -141.5 -111.503 -176.5s-101.5 -52.5 -173.5 -52.5c-17.333 0 -32.666 0.833008 -45.999 2.5s-26.666 4.5 -39.999 8.5v111c22.667 -3.33301 40.5 -5.83301 53.5 -7.5s23.167 -2.5 30.5 -2.5c44.667 0 79.834 11.667 105.501 35
s52.167 71.333 79.5 144l49 133l-414 1075h131l344 -907l336 907h127zM566.998 1278v162h141v-162h-141zM245.998 1278v162h141v-162h-141z" />
    <glyph glyph-name="Cacute" unicode="&#x106;" horiz-adv-x="1425" 
d="M1196 481l133 -0.00195312c-11.333 -163.333 -68.833 -291.166 -172.5 -383.499s-242.167 -138.5 -415.5 -138.5c-198 0 -354.333 69.5 -469 208.5s-172 329.5 -172 571.5c0 240 57.833 428.667 173.5 566s272.834 206 471.501 206c166.667 0 301.5 -42.5 404.5 -127.5
s158.167 -198.833 165.5 -341.5h-133c-11.333 108 -56 193.167 -134 255.5s-179 93.5 -303 93.5c-159.333 0 -283.333 -56.833 -372 -170.5s-133 -273.5 -133 -479.5c0 -207.333 45.167 -369.666 135.5 -486.999s215.166 -176 374.499 -176c130 0 234.5 35.667 313.5 107
s123.167 170 132.5 296zM737 1620h-92l209 350h152z" />
    <glyph glyph-name="cacute" unicode="&#x107;" horiz-adv-x="1057" 
d="M868 367h123c-11.333 -122 -56.333 -218.167 -135 -288.5s-181 -105.5 -307 -105.5c-144 0 -257.5 49.333 -340.5 148s-124.5 233 -124.5 403c0 176 42.167 314.333 126.5 415s199.833 151 346.5 151c119.333 0 217.5 -33.5 294.5 -100.5s118.5 -155.167 124.5 -264.5
h-118c-10 77.333 -42.5 139.333 -97.5 186s-122.833 70 -203.5 70c-106 0 -190.167 -40 -252.5 -120s-93.5 -188.667 -93.5 -326c0 -140.667 31.5 -252 94.5 -334s147.5 -123 253.5 -123c82.667 0 151.667 25.667 207 77s89.333 122 102 212zM545 1200h-92l209 350h152z" />
    <glyph glyph-name="Ccaron" unicode="&#x10c;" horiz-adv-x="1425" 
d="M1196 481l133 -0.00195312c-11.333 -163.333 -68.833 -291.166 -172.5 -383.499s-242.167 -138.5 -415.5 -138.5c-198 0 -354.333 69.5 -469 208.5s-172 329.5 -172 571.5c0 240 57.833 428.667 173.5 566s272.834 206 471.501 206c166.667 0 301.5 -42.5 404.5 -127.5
s158.167 -198.833 165.5 -341.5h-133c-11.333 108 -56 193.167 -134 255.5s-179 93.5 -303 93.5c-159.333 0 -283.333 -56.833 -372 -170.5s-133 -273.5 -133 -479.5c0 -207.333 45.167 -369.666 135.5 -486.999s215.166 -176 374.499 -176c130 0 234.5 35.667 313.5 107
s123.167 170 132.5 296zM494 1970h92l184 -264l184 264h92l-200 -350h-152z" />
    <glyph glyph-name="ccaron" unicode="&#x10d;" horiz-adv-x="1057" 
d="M868 367h123c-11.333 -122 -56.333 -218.167 -135 -288.5s-181 -105.5 -307 -105.5c-144 0 -257.5 49.333 -340.5 148s-124.5 233 -124.5 403c0 176 42.167 314.333 126.5 415s199.833 151 346.5 151c119.333 0 217.5 -33.5 294.5 -100.5s118.5 -155.167 124.5 -264.5
h-118c-10 77.333 -42.5 139.333 -97.5 186s-122.833 70 -203.5 70c-106 0 -190.167 -40 -252.5 -120s-93.5 -188.667 -93.5 -326c0 -140.667 31.5 -252 94.5 -334s147.5 -123 253.5 -123c82.667 0 151.667 25.667 207 77s89.333 122 102 212zM302 1550h92l184 -264l184 264
h92l-200 -350h-152z" />
    <glyph glyph-name="dcroat" unicode="&#x111;" horiz-adv-x="1190" 
d="M217 530c0 -142 31.333 -252.501 94 -331.501s150.667 -118.5 264 -118.5c116 0 205.167 38.833 267.5 116.5s93.5 188.834 93.5 333.501c0 143.333 -31.5 254.333 -94.5 333s-151.833 118 -266.5 118c-114 0 -202.167 -39 -264.5 -117s-93.5 -189.333 -93.5 -334z
M1049 1473l0.000976562 -146h141v-94h-141v-1233h-123v180c-40.667 -69.333 -92.5 -121.5 -155.5 -156.5s-136.167 -52.5 -219.5 -52.5c-142.667 0 -255.834 50.167 -339.501 150.5s-125.5 236.5 -125.5 408.5c0 172.667 42.667 309.167 128 409.5s200.333 150.5 345 150.5
c83.333 0 155.833 -17.667 217.5 -53s111.5 -88 149.5 -158v354h-351v94h351v146h123z" />
    <glyph glyph-name="Gbreve" unicode="&#x11e;" horiz-adv-x="1534" 
d="M1290 0l-14.002 260.001c-45.333 -94.667 -113.166 -168.5 -203.499 -221.5s-193.833 -79.5 -310.5 -79.5c-204.667 0 -365.834 69.667 -483.501 209s-176.5 329.666 -176.5 570.999c0 239.333 60 427.833 180 565.5s282.667 206.5 488 206.5
c171.333 0 310.5 -40.833 417.5 -122.5s171.167 -196.5 192.5 -344.5h-139c-20.667 108.667 -72.667 194 -156 256s-187.666 93 -312.999 93c-170 0 -301.167 -56.5 -393.5 -169.5s-138.5 -273.833 -138.5 -482.5c0 -202 46.333 -362 139 -480s218.334 -177 377.001 -177
c162 0 288.167 47.667 378.5 143s135.5 229.333 135.5 402v6h-486v121h615v-756h-109zM493.998 1925h79.001c4 -50 21.667 -86.667 53 -110s78.666 -35 141.999 -35c64 0 110.833 11.333 140.5 34s47.167 59.667 52.5 111h81c-6 -90.667 -30.833 -157 -74.5 -199
s-110.167 -63 -199.5 -63c-88 0 -154.167 21.167 -198.5 63.5s-69.5 108.5 -75.5 198.5z" />
    <glyph glyph-name="gbreve" unicode="&#x11f;" horiz-adv-x="1186" 
d="M217 530c0 -140.667 31.833 -251.167 95.5 -331.5s151.167 -120.5 262.5 -120.5c114 0 202.667 39.667 266 119s95 190.333 95 333c0 143.333 -31.5 254.333 -94.5 333s-151.833 118 -266.5 118s-203 -39 -265 -117s-93 -189.333 -93 -334zM1049 1063l0.000976562 -1008
c0 -162 -42.5 -284.333 -127.5 -367s-210.5 -124 -376.5 -124c-124 0 -224.167 27.833 -300.5 83.5s-118.166 131.5 -125.499 227.5h126c7.33301 -64.667 36.5 -114.334 87.5 -149.001s121.167 -52 210.5 -52c128 0 224.167 31.667 288.5 95s96.5 157.333 96.5 282v131
c-43.333 -70.667 -95.833 -123.5 -157.5 -158.5s-132.834 -52.5 -213.501 -52.5c-146 0 -261 49.833 -345 149.5s-126 236.167 -126 409.5c0 172 42.5 308.333 127.5 409s199.5 151 343.5 151c82 0 153.667 -17.667 215 -53s112.666 -88 153.999 -158v184h123zM320.001 1505
h79.001c4 -50 21.667 -86.667 53 -110s78.666 -35 141.999 -35c64 0 110.833 11.333 140.5 34s47.167 59.667 52.5 111h81c-6 -90.667 -30.833 -157 -74.5 -199s-110.167 -63 -199.5 -63c-88 0 -154.167 21.167 -198.5 63.5s-69.5 108.5 -75.5 198.5z" />
    <glyph glyph-name="Idotaccent" unicode="&#x130;" horiz-adv-x="485" 
d="M172 0v1473h139v-1473h-139zM168 1692v174h152v-174h-152z" />
    <glyph glyph-name="dotlessi" unicode="&#x131;" horiz-adv-x="422" 
d="M150 0v1063h122v-1063h-122z" />
    <glyph glyph-name="Lslash" unicode="&#x141;" horiz-adv-x="1065" 
d="M164 0v637l-139 -94l-56 82l195 135v713h139v-633l350 245l56 -84l-406 -284v-596h752v-121h-891z" />
    <glyph glyph-name="lslash" unicode="&#x142;" horiz-adv-x="422" 
d="M150 0v655l-121 -88l-56 76l177 129v701h122v-627l121 90l56 -76l-177 -131v-729h-122z" />
    <glyph glyph-name="OE" unicode="&#x152;" horiz-adv-x="2277" 
d="M1202 287l-0.00390625 895c-53.333 69.333 -114.666 121.5 -183.999 156.5s-146.666 52.5 -231.999 52.5c-166 0 -298.167 -59 -396.5 -177s-147.5 -277.667 -147.5 -479c0 -202 48.833 -361.667 146.5 -479s229.5 -176 395.5 -176c84.667 0 161.334 17 230.001 51
s131.334 86 188.001 156zM1204 156c-60.667 -66 -126.833 -115 -198.5 -147s-150.834 -48 -237.501 -48c-201.333 0 -362.666 70 -483.999 210s-182 328 -182 564c0 236.667 60.5 425.167 181.5 565.5s281.833 210.5 482.5 210.5c93.333 0 175.333 -15.833 246 -47.5
s134.667 -81.167 192 -148.5v158h963v-121h-830v-537h756v-117h-756v-577h854v-121h-987v156z" />
    <glyph glyph-name="oe" unicode="&#x153;" horiz-adv-x="1915" 
d="M209 518c0 -139.333 30.333 -247.167 91 -323.5s146.334 -114.5 257.001 -114.5c109.333 0 195 39.5 257 118.5s93 188.833 93 329.5c0 142 -31 253 -93 333s-147.667 120 -257 120c-112.667 0 -198.834 -39.667 -258.501 -119s-89.5 -194 -89.5 -344zM1042 605.999
l664.001 1c-2 116.667 -32.333 208.167 -91 274.5s-139 99.5 -241 99.5c-94.667 0 -171.334 -33 -230.001 -99s-92.667 -158 -102 -276zM971.001 228.999c-35.333 -83.333 -88.332 -147.166 -158.999 -191.499s-155.667 -66.5 -255 -66.5
c-150.667 0 -267.167 47.667 -349.5 143s-123.5 230 -123.5 404c0 182 40.667 322.833 122 422.5s196.333 149.5 345 149.5c99.333 0 184.833 -22.5 256.5 -67.5s126.167 -110.167 163.5 -195.5c37.333 84.667 90.666 149.667 159.999 195s150.333 68 243 68
c148 0 260.5 -46 337.5 -138s115.5 -226.333 115.5 -403v-41h-787v-16c0 -127.333 30.333 -227.833 91 -301.5s143 -110.5 247 -110.5c87.333 0 159 21.667 215 65s90.333 103.666 103 180.999h121c-18 -111.333 -66.167 -198.333 -144.5 -261s-178.5 -94 -300.5 -94
c-95.333 0 -177 22 -245 66s-120 108 -156 192z" />
    <glyph glyph-name="Scedilla" unicode="&#x15e;" horiz-adv-x="1241" 
d="M94 446h135c1.33301 -116 38 -206 110 -270s173.333 -96 304 -96c114.667 0 204.834 25.833 270.501 77.5s98.5 122.834 98.5 213.501c0 84 -23 148 -69 192s-137.667 83.667 -275 119l-140 35c-150.667 38.667 -254.834 87.834 -312.501 147.501
s-86.5 143.5 -86.5 251.5c0 119.333 43.667 215 131 287s204 108 350 108c154.667 0 275.5 -39.333 362.5 -118s131.5 -188.667 133.5 -330h-137c-2 104.667 -34.667 185.5 -98 242.5s-152.333 85.5 -267 85.5c-108 0 -191.667 -24.333 -251 -73s-89 -117.334 -89 -206.001
c0 -67.333 19.333 -120.5 58 -159.5s102.667 -69.833 192 -92.5l172 -43c170 -42.667 289.333 -96.667 358 -162s103 -155.333 103 -270c0 -132 -45.167 -236 -135.5 -312s-213.833 -114 -370.5 -114c-175.333 0 -310.333 41.167 -405 123.5s-142 200.166 -142 353.499v10z
M412 -420l0.00292969 78.002c51.333 -12 96.666 -20.833 135.999 -26.5s73.333 -8.5 102 -8.5c42.667 0 75.167 7.66699 97.5 23s33.5 37.666 33.5 66.999c0 36 -11.667 62.5 -35 79.5s-60.333 25.5 -111 25.5c-12 0 -21.333 -0.166992 -28 -0.5s-12.667 -0.833008 -18 -1.5
l-1 184h66v-111h14c72 0 127.167 -14.667 165.5 -44s57.5 -72 57.5 -128c0 -56.667 -19.333 -100.167 -58 -130.5s-94.334 -45.5 -167.001 -45.5c-38.667 0 -78.834 3.16699 -120.501 9.5s-86.167 16.166 -133.5 29.499z" />
    <glyph glyph-name="scedilla" unicode="&#x15f;" horiz-adv-x="1006" 
d="M92 331l123.001 0.00195312c3.33301 -73.333 31.166 -132.833 83.499 -178.5s119.5 -68.5 201.5 -68.5c88.667 0 158.5 17.5 209.5 52.5s76.5 82.5 76.5 142.5c0 86 -94.333 151.667 -283 197c-2.66699 0.666992 -4.33398 1 -5.00098 1
c-152 36.667 -253.833 77 -305.5 121s-77.5 105.333 -77.5 184c0 91.333 33.833 165.5 101.5 222.5s155.834 85.5 264.501 85.5c119.333 0 214.333 -29.833 285 -89.5s109.667 -142.5 117 -248.5h-125c-5.33301 72 -32.333 128.167 -81 168.5s-114.667 60.5 -198 60.5
c-72.667 0 -130.667 -16.667 -174 -50s-65 -77.333 -65 -132c0 -94.667 96.667 -164.667 290 -210c25.333 -6 44.333 -10.333 57 -13c121.333 -30 205.666 -67.333 252.999 -112s71 -107.334 71 -188.001c0 -90 -37.167 -163.333 -111.5 -220s-172.166 -85 -293.499 -85
c-123.333 0 -222.333 32.667 -297 98s-113.667 152.666 -117 261.999zM295.001 -419.998l0.00292969 78.002c51.333 -12 96.666 -20.833 135.999 -26.5s73.333 -8.5 102 -8.5c42.667 0 75.167 7.66699 97.5 23s33.5 37.666 33.5 66.999c0 36 -11.667 62.5 -35 79.5
s-60.333 25.5 -111 25.5c-12 0 -21.333 -0.166992 -28 -0.5s-12.667 -0.833008 -18 -1.5l-1 184h66v-111h14c72 0 127.167 -14.667 165.5 -44s57.5 -72 57.5 -128c0 -56.667 -19.333 -100.167 -58 -130.5s-94.334 -45.5 -167.001 -45.5
c-38.667 0 -78.834 3.16699 -120.501 9.5s-86.167 16.166 -133.5 29.499z" />
    <glyph glyph-name="Scaron" unicode="&#x160;" horiz-adv-x="1241" 
d="M94 446h135c1.33301 -116 38 -206 110 -270s173.333 -96 304 -96c114.667 0 204.834 25.833 270.501 77.5s98.5 122.834 98.5 213.501c0 84 -23 148 -69 192s-137.667 83.667 -275 119l-140 35c-150.667 38.667 -254.834 87.834 -312.501 147.501
s-86.5 143.5 -86.5 251.5c0 119.333 43.667 215 131 287s204 108 350 108c154.667 0 275.5 -39.333 362.5 -118s131.5 -188.667 133.5 -330h-137c-2 104.667 -34.667 185.5 -98 242.5s-152.333 85.5 -267 85.5c-108 0 -191.667 -24.333 -251 -73s-89 -117.334 -89 -206.001
c0 -67.333 19.333 -120.5 58 -159.5s102.667 -69.833 192 -92.5l172 -43c170 -42.667 289.333 -96.667 358 -162s103 -155.333 103 -270c0 -132 -45.167 -236 -135.5 -312s-213.833 -114 -370.5 -114c-175.333 0 -310.333 41.167 -405 123.5s-142 200.166 -142 353.499v10z
M345 1970h92l184 -264l184 264h92l-200 -350h-152z" />
    <glyph glyph-name="scaron" unicode="&#x161;" horiz-adv-x="1006" 
d="M92 331l123.001 0.00195312c3.33301 -73.333 31.166 -132.833 83.499 -178.5s119.5 -68.5 201.5 -68.5c88.667 0 158.5 17.5 209.5 52.5s76.5 82.5 76.5 142.5c0 86 -94.333 151.667 -283 197c-2.66699 0.666992 -4.33398 1 -5.00098 1
c-152 36.667 -253.833 77 -305.5 121s-77.5 105.333 -77.5 184c0 91.333 33.833 165.5 101.5 222.5s155.834 85.5 264.501 85.5c119.333 0 214.333 -29.833 285 -89.5s109.667 -142.5 117 -248.5h-125c-5.33301 72 -32.333 128.167 -81 168.5s-114.667 60.5 -198 60.5
c-72.667 0 -130.667 -16.667 -174 -50s-65 -77.333 -65 -132c0 -94.667 96.667 -164.667 290 -210c25.333 -6 44.333 -10.333 57 -13c121.333 -30 205.666 -67.333 252.999 -112s71 -107.334 71 -188.001c0 -90 -37.167 -163.333 -111.5 -220s-172.166 -85 -293.499 -85
c-123.333 0 -222.333 32.667 -297 98s-113.667 152.666 -117 261.999zM228.001 1550h92l184 -264l184 264h92l-200 -350h-152z" />
    <glyph glyph-name="Ydieresis" unicode="&#x178;" horiz-adv-x="1147" 
d="M506 0v647l-520 826h155l432 -697l433 697h155l-520 -826v-647h-135zM663 1698v162h141v-162h-141zM342 1698v162h141v-162h-141z" />
    <glyph glyph-name="Zcaron" unicode="&#x17d;" horiz-adv-x="1165" 
d="M35 0v125l911 1227h-842v121h1010v-117l-917 -1233h931v-123h-1093zM308 1970h92l184 -264l184 264h92l-200 -350h-152z" />
    <glyph glyph-name="zcaron" unicode="&#x17e;" horiz-adv-x="950" 
d="M41 0v102l688 859h-653v102h801v-109l-678 -845h708v-109h-866zM199 1550h92l184 -264l184 264h92l-200 -350h-152z" />
    <glyph glyph-name="florin" unicode="&#x192;" horiz-adv-x="1090" 
d="M473 799l-226.998 0.00195312v108h246l32 148c36.667 171.333 78.5 286.5 125.5 345.5s113.833 88.5 200.5 88.5c23.333 0 47.166 -3 71.499 -9s50.833 -15.333 79.5 -28l-20 -106c-22 9.33301 -43.333 16.333 -64 21s-41 7 -61 7c-51.333 0 -90.5 -18.5 -117.5 -55.5
s-54.833 -125.5 -83.5 -265.5l-28 -146h227v-108h-250l-147 -770c-32 -162.667 -72.5 -275.334 -121.5 -338.001s-117.833 -94 -206.5 -94c-24.667 0 -49.334 2.83301 -74.001 8.5s-50.667 14.167 -78 25.5l21 109c28 -10.667 51.833 -18.5 71.5 -23.5s37.5 -7.5 53.5 -7.5
c51.333 0 90.833 19.667 118.5 59s55.167 127.666 82.5 264.999z" />
    <glyph glyph-name="circumflex" unicode="&#x2c6;" 
d="M236 1200l200 350h152l200 -350h-92l-184 264l-184 -264h-92z" />
    <glyph glyph-name="caron" unicode="&#x2c7;" 
d="M236 1550h92l184 -264l184 264h92l-200 -350h-152z" />
    <glyph glyph-name="breve" unicode="&#x2d8;" 
d="M238 1505h79.001c4 -50 21.667 -86.667 53 -110s78.666 -35 141.999 -35c64 0 110.833 11.333 140.5 34s47.167 59.667 52.5 111h81c-6 -90.667 -30.833 -157 -74.5 -199s-110.167 -63 -199.5 -63c-88 0 -154.167 21.167 -198.5 63.5s-69.5 108.5 -75.5 198.5z" />
    <glyph glyph-name="dotaccent" unicode="&#x2d9;" 
d="M436 1272v174h152v-174h-152z" />
    <glyph glyph-name="ring" unicode="&#x2da;" 
d="M362 1421c0 -42 14.501 -77.333 43.501 -106s64.5 -43 106.5 -43c41.333 0 76.666 14.5 105.999 43.5s44 64.167 44 105.5c0 42.667 -14.5 78.667 -43.5 108s-64.5 44 -106.5 44s-77.5 -14.667 -106.5 -44s-43.5 -65.333 -43.5 -108zM272.001 1423
c0 68 23.167 124.999 69.5 170.999s103.166 69 170.499 69c68 0 125.333 -23.167 172 -69.5s70 -103.166 70 -170.499s-23.5 -124.333 -70.5 -171s-104.167 -70 -171.5 -70s-124.166 23.333 -170.499 70s-69.5 103.667 -69.5 171z" />
    <glyph glyph-name="ogonek" unicode="&#x2db;" 
d="M612 0c-48 -42 -84.167 -82.835 -108.5 -122.502s-36.5 -77.5 -36.5 -113.5c0 -30.667 8.5 -52.667 25.5 -66s45.5 -20 85.5 -20h75v-104h-73c-72 0 -125.167 13.333 -159.5 40s-51.5 67.334 -51.5 122.001c0 40 15.5 82.333 46.5 127s76.833 90.334 137.5 137.001h59z
" />
    <glyph glyph-name="tilde" unicode="&#x2dc;" 
d="M801 1464c-17.333 -60 -42.167 -105.333 -74.5 -136s-71.166 -46 -116.499 -46c-8.66699 0 -18.5 0.833008 -29.5 2.5s-22.833 4.16699 -35.5 7.5l-96 31c-8.66699 2.66699 -17.334 4.66699 -26.001 6s-18 2 -28 2c-19.333 0 -37 -6.16699 -53 -18.5
s-29 -29.833 -39 -52.5h-80c14.667 58.667 38.667 103.667 72 135s74.333 47 123 47c10.667 0 20.334 -0.666992 29.001 -2s16.667 -3.33301 24 -6l96 -33c9.33301 -3.33301 18.666 -5.83301 27.999 -7.5s18.666 -2.5 27.999 -2.5c22 0 40.833 6 56.5 18
s28.834 30.333 39.501 55h82z" />
    <glyph glyph-name="hungarumlaut" unicode="&#x2dd;" 
d="M571 1200l168 350h133l-227 -350h-74zM336 1200l149 350h133l-208 -350h-74z" />
    <glyph glyph-name="Omega" unicode="&#x3a9;" horiz-adv-x="1585" 
d="M1452 121v-121h-573v102c145.333 90.667 254.666 193.167 327.999 307.5s110 239.833 110 376.5c0 179.333 -48.833 325.333 -146.5 438s-223.5 169 -377.5 169s-280 -56.333 -378 -169s-147 -258.667 -147 -438c0 -136.667 36.667 -262.167 110 -376.5
s183 -216.833 329 -307.5v-102h-572v121h354c-122 88 -212.5 186.5 -271.5 295.5s-88.5 232.167 -88.5 369.5c0 211.333 62.833 385.333 188.5 522s284.167 205 475.5 205c190.667 0 348.834 -68.333 474.501 -205s188.5 -310.667 188.5 -522
c0 -137.333 -29.5 -260.5 -88.5 -369.5s-149.5 -207.5 -271.5 -295.5h356z" />
    <glyph glyph-name="pi" unicode="&#x3c0;" horiz-adv-x="1155" 
d="M1102 958l-182.002 0.00195312l-119 -565c-9.33301 -41.333 -16.5 -78.333 -21.5 -111s-7.5 -58.334 -7.5 -77.001c0 -39.333 8.16699 -67 24.5 -83s44.5 -24 84.5 -24c18 0 34.5 0.833008 49.5 2.5s29.167 4.16699 42.5 7.5l-25 -108
c-19.333 -6 -36.666 -10.167 -51.999 -12.5s-30 -3.5 -44 -3.5c-61.333 0 -109.833 18 -145.5 54s-53.5 85.333 -53.5 148c0 31.333 3.83301 72.166 11.5 122.499s22.5 126.5 44.5 228.5l88 421h-381l-203 -958h-121l201 958h-39c-36.667 0 -65.167 -10.667 -85.5 -32
s-34.166 -55 -41.499 -101h-121c16.667 90 45 152.167 85 186.5s108.667 51.5 206 51.5h829z" />
    <glyph glyph-name="endash" unicode="&#x2013;" 
d="M0 492v92h1024v-92h-1024z" />
    <glyph glyph-name="emdash" unicode="&#x2014;" horiz-adv-x="2048" 
d="M0 492v92h2048v-92h-2048z" />
    <glyph glyph-name="quoteleft" unicode="&#x2018;" horiz-adv-x="498" 
d="M317 1511l0.000976562 -77c-22.667 -16 -38.834 -34.333 -48.501 -55s-14.5 -47.667 -14.5 -81v-71h63v-183h-137v246c0 60 10.667 106.833 32 140.5s56.333 60.5 105 80.5z" />
    <glyph glyph-name="quoteright" unicode="&#x2019;" horiz-adv-x="498" 
d="M180 1004v79c23.333 16 39.833 34.167 49.5 54.5s14.5 46.833 14.5 79.5v71h-64v185h137v-248c0 -60 -10.5 -106.833 -31.5 -140.5s-56.167 -60.5 -105.5 -80.5z" />
    <glyph glyph-name="quotesinglbase" unicode="&#x201a;" horiz-adv-x="498" 
d="M180 -285v77.999c22.667 16 39 34.333 49 55s15 47.334 15 80.001v72h-64v182h137v-245c0 -60 -10.5 -107 -31.5 -141s-56.167 -61 -105.5 -81z" />
    <glyph glyph-name="quotedblleft" unicode="&#x201c;" horiz-adv-x="809" 
d="M317 1511l-0.000976562 -77.001c-22 -14 -38 -31.5 -48 -52.5s-15 -48.833 -15 -83.5v-71h63v-183h-137v246c0 34.667 2.33301 62.167 7 82.5s12 38.5 22 54.5c10.667 18 24.834 33.833 42.501 47.5s39.5 25.834 65.5 36.501zM626.999 1511l0.000976562 -76.998
c-22.667 -14 -39 -31.5 -49 -52.5s-15 -48.833 -15 -83.5v-71h64v-183h-135v246c0 61.333 10.167 108.666 30.5 141.999s55.166 59.666 104.499 78.999z" />
    <glyph glyph-name="quotedblright" unicode="&#x201d;" horiz-adv-x="809" 
d="M492 1004v78.998c22.667 14 38.834 31.167 48.501 51.5s14.5 47.833 14.5 82.5v71h-63v185h135v-248c0 -61.333 -10.333 -108.666 -31 -141.999s-55.334 -59.666 -104.001 -78.999zM180 1004v79.001c22.667 14 39 31.167 49 51.5s15 47.833 15 82.5v71h-64v185h137v-248
c0 -60.667 -10.5 -107.834 -31.5 -141.501s-56.167 -60.167 -105.5 -79.5z" />
    <glyph glyph-name="quotedblbase" unicode="&#x201e;" horiz-adv-x="809" 
d="M492 -285l0.000976562 77.999c22 14 38 31.5 48 52.5s15 48.5 15 82.5v72h-63v182h135v-245c0 -61.333 -10.333 -108.666 -31 -141.999s-55.334 -60 -104.001 -80zM180.001 -285.001v78.001c22.667 14 39 31.5 49 52.5s15 48.5 15 82.5v72h-64v182h137v-245
c0 -60.667 -10.5 -107.834 -31.5 -141.501s-56.167 -60.5 -105.5 -80.5z" />
    <glyph glyph-name="dagger" unicode="&#x2020;" 
d="M449 -215v1153h-367v106h367v429h120v-429h373v-106h-373v-1153h-120z" />
    <glyph glyph-name="daggerdbl" unicode="&#x2021;" 
d="M446 -217v428h-376v108h376v617h-376v106h376v431h121v-431h387v-106h-387v-617h387v-108h-387v-428h-121z" />
    <glyph glyph-name="bullet" unicode="&#x2022;" horiz-adv-x="1208" 
d="M307 762c0 82 28.999 151.666 86.999 208.999s128 86 210 86c81.333 0 150.833 -28.833 208.5 -86.5s86.5 -127.167 86.5 -208.5s-29.167 -151.166 -87.5 -209.499s-128.166 -87.5 -209.499 -87.5c-82 0 -151.667 29 -209 87s-86 128 -86 210z" />
    <glyph glyph-name="ellipsis" unicode="&#x2026;" horiz-adv-x="2048" 
d="M275 0v182h135v-182h-135zM957 0v182h135v-182h-135zM1641 0v182h135v-182h-135z" />
    <glyph glyph-name="perthousand" unicode="&#x2030;" horiz-adv-x="2494" 
d="M1860 340c0 -62 21.168 -114.332 63.501 -156.999s94.166 -64 155.499 -64s113.5 21.5 156.5 64.5s64.5 95.167 64.5 156.5s-21.333 113.166 -64 155.499s-95 63.5 -157 63.5s-114 -21 -156 -63s-63 -94 -63 -156zM1741 340.001c0 95.333 32.5 175.5 97.5 240.5
s145.167 97.5 240.5 97.5s175.833 -32.5 241.5 -97.5s98.5 -145.167 98.5 -240.5c0 -94.667 -33 -175 -99 -241s-146.333 -99 -241 -99s-174.667 32.833 -240 98.5s-98 146.167 -98 241.5zM1024 340.001c0 -61.333 21.501 -113.501 64.501 -156.501
s95.167 -64.5 156.5 -64.5s113.166 21.333 155.499 64s63.5 95 63.5 157s-21 114 -63 156s-94 63 -156 63s-114.333 -21.167 -157 -63.5s-64 -94.166 -64 -155.499zM905.002 340c0 95.333 32.833 175.5 98.5 240.5s146.167 97.5 241.5 97.5s175.5 -32.5 240.5 -97.5
s97.5 -145.167 97.5 -240.5s-32.667 -175.833 -98 -241.5s-145.333 -98.5 -240 -98.5s-175 33 -241 99s-99 146.333 -99 241zM317.002 -41l920 1473h104l-919 -1473h-105zM193.002 1051c0 -61.333 21.333 -113.333 64 -156s95 -64 157 -64
c61.333 0 113.166 21.167 155.499 63.5s63.5 94.5 63.5 156.5s-21.167 114.333 -63.5 157s-94.166 64 -155.499 64c-62 0 -114.333 -21.5 -157 -64.5s-64 -95.167 -64 -156.5zM76.002 1053c0 95.333 32.5 175.5 97.5 240.5s145.167 97.5 240.5 97.5
s175.833 -32.667 241.5 -98s98.5 -145.333 98.5 -240c0 -95.333 -33 -175.833 -99 -241.5s-146.333 -98.5 -241 -98.5s-174.667 32.833 -240 98.5s-98 146.167 -98 241.5z" />
    <glyph glyph-name="guilsinglleft" unicode="&#x2039;" horiz-adv-x="467" 
d="M369 834v-134l-209 -163l209 -162v-133l-291 219v153z" />
    <glyph glyph-name="guilsinglright" unicode="&#x203a;" horiz-adv-x="467" 
d="M98 242v133l209 162l-209 163v134l291 -220v-153z" />
    <glyph glyph-name="franc" unicode="&#x20a3;" horiz-adv-x="1792" 
d="M164 0v1473h932v-121h-797v-533h723v-121h-723v-698h-135zM1300 0l0.000976562 1063h119v-186c30.667 71.333 73.167 124.666 127.5 159.999s121.166 53 200.499 53h14v-129h-16c-106 0 -185.5 -31.333 -238.5 -94s-79.5 -156.334 -79.5 -281.001v-586h-127z" />
    <glyph glyph-name="trademark" unicode="&#x2122;" horiz-adv-x="1706" 
d="M926 1454l174 -440l162 440h102v-530h-59v479l-181 -479h-49l-190 479v-479h-60v530h101zM694 1454v-51h-174v-479h-67v479h-179v51h420z" />
    <glyph glyph-name="partialdiff" unicode="&#x2202;" 
d="M750 578c7.33301 46 12.833 94.1689 16.5 144.502s5.5 103.833 5.5 160.5c0 119.333 -12.667 208.166 -38 266.499s-64 87.5 -116 87.5c-30 0 -63.167 -24.5 -99.5 -73.5s-72.5 -73.5 -108.5 -73.5c-19.333 0 -35.5 6.16699 -48.5 18.5s-19.5 27.833 -19.5 46.5
c0 39.333 20.333 73.333 61 102s90 43 148 43c106.667 0 191.334 -49 254.001 -147s94 -231.667 94 -401c0 -223.333 -43.833 -409 -131.5 -557s-195.5 -222 -323.5 -222c-92.667 0 -167.334 35 -224.001 105s-85 163.333 -85 280c0 115.333 35.667 214.166 107 296.499
s157.333 123.5 258 123.5c64.667 0 117.5 -16.333 158.5 -49s71.5 -83 91.5 -151zM713 459.002c0 83.333 -15.667 146.832 -47 190.499s-77.333 65.5 -138 65.5c-78 0 -141.5 -41.667 -190.5 -125s-73.5 -193.333 -73.5 -330c0 -78 15.833 -137.833 47.5 -179.5
s77.5 -62.5 137.5 -62.5c76 0 139 41.833 189 125.5s75 188.834 75 315.501z" />
    <glyph glyph-name="Delta" unicode="&#x2206;" horiz-adv-x="1335" 
d="M1155 121l-487 1233l-490 -1233h977zM754 1473l592 -1473h-1358l594 1473h172z" />
    <glyph glyph-name="product" unicode="&#x220f;" horiz-adv-x="1491" 
d="M164 1473h1163v-1866h-135v1743h-893v-1743h-135v1866z" />
    <glyph glyph-name="summation" unicode="&#x2211;" horiz-adv-x="1290" 
d="M45 1473h1208v-123h-1038l721 -787l-760 -835h1077v-121h-1243v127l752 829l-717 787v123z" />
    <glyph glyph-name="minus" unicode="&#x2212;" horiz-adv-x="1706" 
d="M1452 651v-82h-1198v82h1198z" />
    <glyph glyph-name="fraction" unicode="&#x2215;" horiz-adv-x="342" 
d="M-342 -41l920 1473h104l-920 -1473h-104z" />
    <glyph glyph-name="periodcentered" unicode="&#x2219;" horiz-adv-x="545" 
d="M190 696c0 23.333 8 42.833 24 58.5s35.333 23.5 58 23.5s42 -8 58 -24s24 -35.333 24 -58c0 -22 -8 -41.167 -24 -57.5s-35.333 -24.5 -58 -24.5c-22 0 -41.167 8.16699 -57.5 24.5s-24.5 35.5 -24.5 57.5z" />
    <glyph glyph-name="radical" unicode="&#x221a;" horiz-adv-x="1264" 
d="M1264 1626v-61h-129l-596 -1606h-31l-330 907l-110 -39l-15 50l230 79l278 -759l531 1429h172z" />
    <glyph glyph-name="infinity" unicode="&#x221e;" horiz-adv-x="1706" 
d="M889 557c36 -68.667 77.667 -120 125 -154s101.333 -51 162 -51c71.333 0 130 26 176 78s69 118.333 69 199c0 79.333 -21.167 144.833 -63.5 196.5s-95.5 77.5 -159.5 77.5c-58 0 -110.5 -25.833 -157.5 -77.5s-97.5 -141.167 -151.5 -268.5zM819 670
c-34.667 68 -75.834 119.001 -123.501 153.001s-102.167 51 -163.5 51c-72 0 -130.833 -25.833 -176.5 -77.5s-68.5 -117.834 -68.5 -198.501c0 -78.667 21.167 -143.667 63.5 -195s95.5 -77 159.5 -77c58.667 0 111.334 25.333 158.001 76s97 140 151 268zM836 713.001
c44 92.667 92.666 161.499 145.999 206.499s112.333 67.5 177 67.5c86.667 0 159.834 -35.333 219.501 -106s89.5 -159 89.5 -265c0 -110 -26.667 -198.833 -80 -266.5s-123.333 -101.5 -210 -101.5c-62.667 0 -117.834 20.167 -165.501 60.5s-95.167 107.5 -142.5 201.5
c-47.333 -92.667 -96.833 -160.5 -148.5 -203.5s-109.167 -64.5 -172.5 -64.5c-86.667 0 -160.167 35.5 -220.5 106.5s-90.5 158.833 -90.5 263.5c0 110.667 26.667 199.834 80 267.501s123.333 101.5 210 101.5c65.333 0 122.833 -21.5 172.5 -64.5
s94.834 -110.833 135.501 -203.5z" />
    <glyph glyph-name="integral" unicode="&#x222b;" horiz-adv-x="948" 
d="M401 578c0 332 28.833 576.332 86.5 732.999s147.167 235 268.5 235c43.333 0 78.666 -11.667 105.999 -35s41 -53.333 41 -90c0 -30 -9.16699 -53.833 -27.5 -71.5s-43.166 -26.5 -74.499 -26.5c-51.333 0 -85.166 21.5 -101.499 64.5s-27.5 64.5 -33.5 64.5
c-44.667 0 -75.667 -53 -93 -159s-26 -335 -26 -687c0 -339.333 -28.5 -587 -85.5 -743s-146.5 -234 -268.5 -234c-42.667 0 -78 11.5 -106 34.5s-42 51.167 -42 84.5c0 32 9.5 57.833 28.5 77.5s44.5 29.5 76.5 29.5c22 0 40.667 -4.5 56 -13.5
s28.666 -23.167 39.999 -42.5c5.33301 -9.33301 9.5 -24.166 12.5 -44.499s11.167 -30.5 24.5 -30.5c44 0 74.667 55 92 165s26 339.667 26 689z" />
    <glyph glyph-name="approxequal" unicode="&#x2248;" horiz-adv-x="1706" 
d="M1530 485c-70.667 -49.333 -138 -86.167 -202 -110.5s-125.667 -36.5 -185 -36.5c-70.667 0 -169.167 23.5 -295.5 70.5s-220.5 70.5 -282.5 70.5c-55.333 0 -112.333 -11.833 -171 -35.5s-130.667 -65.167 -216 -124.5v93c70 48.667 137 85 201 109s126 36 186 36
c70.667 0 169.167 -23.167 295.5 -69.5s220.5 -69.5 282.5 -69.5c55.333 0 112.333 11.833 171 35.5s130.667 65.167 216 124.5v-93zM1530 808.999c-70 -48.667 -136.831 -85 -200.498 -109s-125.834 -36 -186.501 -36c-70.667 0 -169.167 23.167 -295.5 69.5
s-220.5 69.5 -282.5 69.5c-55.333 0 -112.333 -11.833 -171 -35.5s-130.667 -65.167 -216 -124.5v92c70.667 50 138 87.167 202 111.5s125.667 36.5 185 36.5c70.667 0 169.167 -23.667 295.5 -71s220.5 -71 282.5 -71c54 0 110.167 12 168.5 36s131.166 66 218.499 126v-94
z" />
    <glyph glyph-name="notequal" unicode="&#x2260;" horiz-adv-x="1706" 
d="M1280 1108l-217 -277h389v-79h-440l-219 -283h659v-82h-711l-254 -324l-61 48l215 276h-387v82h436l221 283h-657v79h709l254 326z" />
    <glyph glyph-name="lessequal" unicode="&#x2264;" horiz-adv-x="1706" 
d="M1442 129v-80h-1178v80h1178zM1442 1083l-1043 -350l1043 -352v-88l-1178 405v70l1178 403v-88z" />
    <glyph glyph-name="greaterequal" unicode="&#x2265;" horiz-adv-x="1706" 
d="M1442 129v-80h-1178v80h1178zM1442 768v-70l-1178 -405v88l1043 352l-1043 350v88z" />
    <glyph glyph-name="lozenge" unicode="&#x25ca;" horiz-adv-x="1012" 
d="M506 1409l-385 -817l385 -825l385 825zM506 1653l500 -1061l-500 -1069l-500 1069z" />
    <glyph glyph-name="apple" unicode="&#xf000;" horiz-adv-x="1618" 
d="M836 1216c-0.666992 4 -1.16699 8.66895 -1.5 14.002s-0.5 13 -0.5 23c0 82.667 31.667 159.167 95 229.5s142 114.166 236 131.499c0.666992 -6.66699 1.16699 -14.334 1.5 -23.001s0.5 -21.667 0.5 -39c0 -87.333 -34.5 -165.5 -103.5 -234.5
s-136.833 -103.5 -203.5 -103.5h-8c-2 0 -4.5 0.333008 -7.5 1s-5.83301 1 -8.5 1zM1505 403.002c-76 -164.667 -144.336 -278.834 -205.003 -342.501s-128.667 -95.5 -204 -95.5c-33.333 0 -77.166 11 -131.499 33s-95.166 33 -122.499 33c-30 0 -73.667 -11 -131 -33
s-99.666 -33 -126.999 -33c-42.667 0 -85.5 14.667 -128.5 44s-86.167 73.333 -129.5 132c-68 93.333 -120.5 191.833 -157.5 295.5s-55.5 203.834 -55.5 300.501c0 146 41.667 264.833 125 356.5s191 137.5 323 137.5c45.333 0 97 -11.333 155 -34s99.333 -34 124 -34
c22.667 0 63.167 11.667 121.5 35s109.166 35 152.499 35c73.333 0 139.333 -13.333 198 -40s112.334 -68 161.001 -124c-68 -43.333 -118.5 -91.833 -151.5 -145.5s-49.5 -114.5 -49.5 -182.5c0 -75.333 20 -142 60 -200s97.667 -104 173 -138z" />
    <glyph glyph-name="fi" unicode="&#xf001;" horiz-adv-x="958" 
d="M684 0v1063h125v-1063h-125zM684 1288v185h125v-185h-125zM197 0l0.00195312 963h-156v100h156v194c0 80 20 138.333 60 175s104 55 192 55c9.33301 0 19.166 -0.5 29.499 -1.5s21.5 -2.83301 33.5 -5.5v-110c-2.66699 0 -6.66699 0.333008 -12 1
c-26.667 2 -45.334 3 -56.001 3c-46 0 -78.333 -9.5 -97 -28.5s-28 -52.5 -28 -100.5v-182h193v-100h-193v-963h-122z" />
    <glyph glyph-name="fl" unicode="&#xf002;" horiz-adv-x="958" 
d="M684 0v1473h125v-1473h-125zM197 0l0.00195312 963h-156v100h156v194c0 80 20 138.333 60 175s104 55 192 55c9.33301 0 19.166 -0.5 29.499 -1.5s21.5 -2.83301 33.5 -5.5v-110c-2.66699 0 -6.66699 0.333008 -12 1c-26.667 2 -45.334 3 -56.001 3
c-46 0 -78.333 -9.5 -97 -28.5s-28 -52.5 -28 -100.5v-182h193v-100h-193v-963h-122z" />
    <glyph glyph-name=".null" horiz-adv-x="0" 
 />
    <glyph glyph-name="nonmarkingreturn" horiz-adv-x="545" 
 />
    </font>
</defs>
</svg>
