<?xml version="1.0" encoding="utf-8"?>
<!-- Generator: Adobe Illustrator 21.1.0, SVG Export Plug-In . SVG Version: 6.00 Build 0)  -->
<svg version="1.1" id="Layer_1" xmlns="http://www.w3.org/2000/svg" xmlns:xlink="http://www.w3.org/1999/xlink" x="0px" y="0px"
	 viewBox="0 0 121.1 34.3" style="enable-background:new 0 0 121.1 34.3;" xml:space="preserve">
<style type="text/css">
	.st0{fill:#004B8D;}
	.st1{clip-path:url(#SVGID_2_);fill:#004B8D;}
	.st2{clip-path:url(#SVGID_2_);fill:#808285;}
</style>
<polygon class="st0" points="31.4,31.4 31.4,31.4 31.4,18.5 44.6,18.5 44.6,26 48.9,24.3 48.9,2 44.6,2 44.6,14.7 31.4,14.7 31.4,2 
	27.2,2 27.2,14.8 23.1,14.8 23.1,18.5 27.2,18.5 27.2,32.4 31.4,32.4 31.4,31.4 "/>
<g>
	<defs>
		<rect id="SVGID_1_" x="1" y="2" width="168.1" height="30.4"/>
	</defs>
	<clipPath id="SVGID_2_">
		<use xlink:href="#SVGID_1_"  style="overflow:visible;"/>
	</clipPath>
	<path class="st1" d="M1,2h10.5c1.1,0,2.3,0.1,3.4,0.4c1.1,0.3,2.2,0.7,3.1,1.3c0.9,0.6,1.6,1.4,2.2,2.4C20.7,7,21,8.2,21,9.7
		c0,1.7-0.5,3.1-1.5,4.2c-1,1.1-2.3,1.9-3.9,2.4v0.1c1,0.1,1.9,0.4,2.7,0.7c0.8,0.4,1.5,0.9,2.1,1.5c0.6,0.6,1.1,1.4,1.4,2.2
		c0.3,0.9,0.5,1.8,0.5,2.9c0,1.5-0.3,2.7-0.9,3.8c-0.6,1.1-1.4,2-2.4,2.7c-1,0.7-2.2,1.2-3.6,1.6c-1.4,0.4-2.9,0.5-4.4,0.5H1V2z
		 M5.3,14.8h5.5c0.8,0,1.6-0.1,2.3-0.3c0.7-0.2,1.4-0.5,1.9-0.9c0.5-0.4,1-0.9,1.3-1.5c0.3-0.6,0.5-1.3,0.5-2.1
		c0-1.6-0.6-2.8-1.8-3.5c-1.2-0.7-2.8-1-4.8-1H5.3V14.8z M5.3,28.8h5.3c0.9,0,1.8-0.1,2.7-0.2c0.9-0.2,1.7-0.4,2.4-0.8
		c0.7-0.4,1.3-0.9,1.8-1.6c0.4-0.7,0.7-1.5,0.7-2.6c0-1.8-0.6-3.1-1.8-3.9c-1.2-0.8-3-1.2-5.3-1.2H5.3V28.8z"/>
	<polygon class="st2" points="54.3,20.2 54.3,22.1 54.8,22.1 55.5,21 55.6,21 55.6,23.5 55.5,23.5 54.8,22.5 54.3,22.5 54.3,24.4 
		54.5,24.7 55.1,24.7 55.1,25 52.5,25 52.5,24.7 52.9,24.7 53.2,24.4 53.2,20.4 52.9,20.1 52.5,20.1 52.5,19.9 56.5,19.9 56.5,21.4 
		56.4,21.4 55.6,20.2 	"/>
	<polygon class="st2" points="61.5,24.4 61.8,24.7 62.2,24.7 62.2,25 59.8,25 59.8,24.7 60.2,24.7 60.5,24.4 60.5,20.4 60.2,20.1 
		59.8,20.1 59.8,19.9 62.2,19.9 62.2,20.1 61.8,20.1 61.5,20.4 	"/>
	<polygon class="st2" points="70.3,20.1 70,20.6 70,25 69.6,25 66.7,21.2 66.7,21.2 66.7,24.2 67,24.7 67.5,24.7 67.5,25 65.5,25 
		65.5,24.7 66,24.7 66.3,24.2 66.3,20.8 65.8,20.1 65.8,19.9 67,19.9 69.6,23.3 69.6,23.3 69.6,20.6 69.3,20.1 68.7,20.1 68.7,19.9 
		70.8,19.9 70.8,20.1 	"/>
	<path class="st2" d="M75.5,20l0.8-0.4h0.1l1.8,4.8l0.4,0.4v0.2h-2.3v-0.3h0.5l0.2-0.3l-0.4-1.1h-1.9l-0.3,0.9l0.2,0.5h0.6v0.3h-1.7
		v-0.2l0.4-0.5L75.5,20z M74.9,22.9h1.6l-0.8-2.3L74.9,22.9z"/>
	<polygon class="st2" points="86.5,20.1 86.1,20.6 86.1,25 85.7,25 82.9,21.2 82.8,21.2 82.8,24.2 83.2,24.7 83.7,24.7 83.7,25 
		81.7,25 81.7,24.7 82.1,24.7 82.4,24.2 82.4,20.8 81.9,20.1 81.9,19.9 83.2,19.9 85.7,23.3 85.7,23.3 85.7,20.6 85.4,20.1 
		84.9,20.1 84.9,19.9 86.9,19.9 86.9,20.1 	"/>
	<path class="st2" d="M91.1,22.1c0,1.2,0.7,2.1,1.8,2.1c0.6,0,1.1-0.3,1.5-0.8l0.3,0.1c-0.3,0.6-0.9,1.6-2.1,1.6
		c-1.5,0-2.4-1.2-2.4-2.6c0-1.5,1-2.6,2.5-2.6c0.7,0,1.1,0.1,1.4,0.3l0.2-0.3h0.2v1.8h-0.3L94,21.4c-0.3-0.8-0.8-1.2-1.5-1.2
		C91.7,20.2,91.1,20.9,91.1,22.1"/>
	<polygon class="st2" points="99.7,20.2 99.7,22.1 100.2,22.1 100.9,21 101,21 101,23.5 100.9,23.5 100.2,22.5 99.7,22.5 99.7,24.6 
		101,24.6 102.1,23.4 102.2,23.4 101.9,25 97.9,25 97.9,24.7 98.4,24.7 98.7,24.4 98.7,20.4 98.4,20.1 97.9,20.1 97.9,19.9 
		101.9,19.9 101.9,21.4 101.8,21.4 101,20.2 	"/>
	<path class="st2" d="M45.5,29.3c0,1.2,0.7,2.1,1.8,2.1c0.6,0,1.1-0.2,1.5-0.8l0.3,0.1c-0.3,0.6-0.9,1.6-2.1,1.6
		c-1.5,0-2.4-1.2-2.4-2.6c0-1.5,1-2.6,2.5-2.6c0.7,0,1.1,0.1,1.4,0.3l0.2-0.3h0.2v1.8h-0.3l-0.1-0.2c-0.3-0.8-0.8-1.2-1.5-1.2
		C46.1,27.3,45.5,28.1,45.5,29.3"/>
	<path class="st2" d="M57.4,29.6c0,1.5-1,2.6-2.5,2.6c-1.5,0-2.5-1.2-2.5-2.6c0-1.5,1-2.6,2.5-2.6C56.4,26.9,57.4,28.1,57.4,29.6
		 M56.3,30.1c0-1.5-0.6-2.7-1.6-2.7c-0.7,0-1.1,0.6-1.1,1.7c0,1.5,0.6,2.7,1.7,2.7C55.9,31.7,56.3,31.2,56.3,30.1"/>
	<polygon class="st2" points="65.4,27.3 65.1,27.7 65.1,32.2 64.7,32.2 61.8,28.4 61.8,28.4 61.8,31.4 62.1,31.8 62.6,31.8 
		62.6,32.1 60.6,32.1 60.6,31.8 61.1,31.8 61.4,31.4 61.4,27.9 60.9,27.2 60.9,27 62.1,27 64.7,30.4 64.7,30.4 64.7,27.7 64.4,27.3 
		63.9,27.3 63.9,27 65.9,27 65.9,27.3 	"/>
	<path class="st2" d="M70,27.9c0,1.2,2.6,0.9,2.6,2.8c0,0.9-0.7,1.4-1.6,1.4c-0.6,0-1-0.2-1.3-0.3l-0.2,0.3h-0.2v-2h0.2l0.2,0.4
		c0.3,0.7,0.9,1.2,1.5,1.2c0.5,0,0.8-0.2,0.8-0.6c0-1.1-2.7-0.9-2.7-2.8c0-0.7,0.6-1.4,1.7-1.4c0.5,0,0.8,0.1,1.1,0.2l0.1-0.2h0.2
		v1.8H72L72,28.6c-0.3-0.8-0.7-1.3-1.3-1.3C70.1,27.3,70,27.7,70,27.9"/>
	<path class="st2" d="M80.8,27.3l-0.3,0.4V30c0,1.2-0.4,2.2-1.8,2.2c-1.4,0-2.1-0.6-2.1-2v-2.6l-0.3-0.3h-0.4V27h2.6v0.3h-0.5
		l-0.3,0.3v2.5c0,1.1,0.2,1.7,1.2,1.7c0.9,0,1.3-0.6,1.3-1.7v-2.3l-0.3-0.4h-0.5V27h2v0.3H80.8z"/>
	<polygon class="st2" points="86.1,27.6 86.1,31.7 87.2,31.7 88.3,30.5 88.4,30.5 88.1,32.1 84.3,32.1 84.3,31.8 84.8,31.8 
		85.1,31.5 85.1,27.6 84.8,27.3 84.3,27.3 84.3,27 86.9,27 86.9,27.3 86.3,27.3 	"/>
	<polygon class="st2" points="95.7,28.6 95.5,28.6 94.7,27.4 94,27.4 94,31.5 94.3,31.8 94.9,31.8 94.9,32.1 92.1,32.1 92.1,31.8 
		92.7,31.8 93,31.5 93,27.4 92.3,27.4 91.5,28.6 91.3,28.6 91.3,26.9 91.5,26.9 91.7,27 95.3,27 95.5,26.9 95.7,26.9 	"/>
	<polygon class="st2" points="100.8,31.5 101,31.8 101.5,31.8 101.5,32.1 99,32.1 99,31.8 99.4,31.8 99.7,31.5 99.7,27.6 99.4,27.3 
		99,27.3 99,27 101.5,27 101.5,27.3 101,27.3 100.8,27.6 	"/>
	<polygon class="st2" points="109.5,27.3 109.2,27.7 109.2,32.2 108.8,32.2 105.9,28.4 105.9,28.4 105.9,31.4 106.3,31.8 
		106.8,31.8 106.8,32.1 104.7,32.1 104.7,31.8 105.2,31.8 105.5,31.4 105.5,27.9 105,27.2 105,27 106.2,27 108.8,30.4 108.8,30.4 
		108.8,27.7 108.5,27.3 108,27.3 108,27 110,27 110,27.3 	"/>
	<path class="st2" d="M114.1,29.3c0,1.2,0.7,2.1,1.8,2.1c0.3,0,0.6-0.1,0.8-0.2v-0.9l-0.3-0.3h-0.4v-0.3h1.7v2.4h-0.2l-0.4-0.6
		c-0.4,0.4-0.9,0.6-1.5,0.6c-1.5,0-2.4-1.2-2.4-2.6c0-1.5,1-2.6,2.5-2.6c0.7,0,1.1,0.1,1.4,0.3l0.2-0.3h0.2v1.8h-0.3l-0.1-0.2
		c-0.3-0.8-0.8-1.2-1.5-1.2C114.8,27.3,114.1,28.1,114.1,29.3"/>
</g>
</svg>
